<svg width="16" height="20" viewBox="0 0 16 20" fill="none" xmlns="http://www.w3.org/2000/svg">
<path fill-rule="evenodd" clip-rule="evenodd" d="M4.9 0H11.07C13.78 0 15.97 1.07 16 3.79V18.97C16 19.14 15.96 19.31 15.88 19.46C15.75 19.7 15.53 19.88 15.26 19.96C15 20.04 14.71 20 14.47 19.86L7.99 16.62L1.5 19.86C1.351 19.939 1.18 19.99 1.01 19.99C0.45 19.99 0 19.53 0 18.97V3.79C0 1.07 2.2 0 4.9 0ZM4.22 7.62004H11.75C12.18 7.62004 12.53 7.26904 12.53 6.83004C12.53 6.39004 12.18 6.04004 11.75 6.04004H4.22C3.79 6.04004 3.44 6.39004 3.44 6.83004C3.44 7.26904 3.79 7.62004 4.22 7.62004Z" fill="#E6E6E6"/>
</svg>
