<svg width="21" height="21" viewBox="0 0 21 21" fill="none" xmlns="http://www.w3.org/2000/svg">
<path fill-rule="evenodd" clip-rule="evenodd" d="M-6.10352e-05 9.10342C-6.10352e-05 4.07574 4.0323 0 9.00646 0C11.3951 0 13.686 0.959108 15.375 2.66633C17.0641 4.37355 18.013 6.68904 18.013 9.10342C18.013 14.1311 13.9806 18.2068 9.00646 18.2068C4.0323 18.2068 -6.10352e-05 14.1311 -6.10352e-05 9.10342ZM17.8639 16.4368L20.5463 18.6021H20.5929C21.1356 19.1506 21.1356 20.0399 20.5929 20.5885C20.0502 21.137 19.1704 21.137 18.6277 20.5885L16.4017 18.0372C16.1912 17.8253 16.0729 17.5373 16.0729 17.237C16.0729 16.9368 16.1912 16.6488 16.4017 16.4368C16.8075 16.0337 17.4581 16.0337 17.8639 16.4368Z" fill="#BCBCBC"/>
</svg>
