<svg width="157" height="116" viewBox="0 0 157 116" fill="none" xmlns="http://www.w3.org/2000/svg">
<path fill-rule="evenodd" clip-rule="evenodd" d="M15 0C6.71573 0 0 6.71573 0 15V109.5V109.99C0 109.996 0.00440202 110 0.00983218 110C0.014973 110 0.0192485 110.004 0.0196456 110.009C0.279343 113.361 3.08149 116 6.5 116C9.91516 116 12.7152 113.366 12.9796 110.019C12.9804 110.008 12.9893 110 13 110C13.0107 110 13.0196 110.008 13.0204 110.019C13.2848 113.366 16.0848 116 19.5 116C22.9152 116 25.7152 113.366 25.9796 110.019C25.9804 110.008 25.9893 110 26 110C26.0107 110 26.0196 110.008 26.0204 110.019C26.2848 113.366 29.0848 116 32.5 116C35.9152 116 38.7152 113.366 38.9796 110.019C38.9804 110.008 38.9893 110 39 110C39.0107 110 39.0196 110.008 39.0204 110.019C39.2848 113.366 42.0848 116 45.5 116C48.9152 116 51.7152 113.366 51.9796 110.019C51.9804 110.008 51.9893 110 52 110C52.0107 110 52.0196 110.008 52.0204 110.019C52.2848 113.366 55.0848 116 58.5 116C61.9149 116 64.7147 113.367 64.9795 110.02C64.9804 110.009 64.9897 110 65.0008 110C65.0119 110 65.0211 110.009 65.022 110.02C65.3071 113.367 68.3224 116 72 116C75.6776 116 78.6929 113.367 78.978 110.02C78.9789 110.009 78.9881 110 78.9992 110C79.0103 110 79.0196 110.009 79.0205 110.02C79.2853 113.367 82.0851 116 85.5 116C88.9152 116 91.7152 113.366 91.9796 110.019C91.9804 110.008 91.9893 110 92 110C92.0107 110 92.0196 110.008 92.0204 110.019C92.2848 113.366 95.0848 116 98.5 116C101.915 116 104.715 113.366 104.98 110.019C104.98 110.008 104.989 110 105 110C105.011 110 105.02 110.008 105.02 110.019C105.285 113.366 108.085 116 111.5 116C114.915 116 117.715 113.366 117.98 110.019C117.98 110.008 117.989 110 118 110C118.011 110 118.02 110.008 118.02 110.019C118.285 113.366 121.085 116 124.5 116C127.915 116 130.715 113.366 130.98 110.019C130.98 110.008 130.989 110 131 110C131.011 110 131.02 110.008 131.02 110.019C131.285 113.366 134.085 116 137.5 116C140.915 116 143.715 113.366 143.98 110.019C143.98 110.008 143.989 110 144 110C144.011 110 144.02 110.008 144.02 110.019C144.285 113.366 147.085 116 150.5 116C153.919 116 156.721 113.361 156.98 110.009C156.981 110.004 156.985 110 156.99 110C156.996 110 157 109.996 157 109.99V109.5V15C157 6.71573 150.284 0 142 0H15Z" fill="url(#paint0_linear_1203_8965)"/>
<defs>
<linearGradient id="paint0_linear_1203_8965" x1="78.5" y1="-16" x2="78.5" y2="116" gradientUnits="userSpaceOnUse">
<stop stop-color="#C9E1F9"/>
<stop offset="1" stop-color="#B3D6F8"/>
</linearGradient>
</defs>
</svg>
