<svg width="264" height="279" viewBox="0 0 264 279" fill="none" xmlns="http://www.w3.org/2000/svg">
<path d="M136.703 21.9887C124.103 21.8696 47.8186 20.6966 45.5765 41.9228C43.4298 62.25 73.0061 54.8074 73.2745 63.8278C73.5786 73.3067 67.9436 76.0455 52.2133 75.4501C45.3917 75.1882 23.8713 77.5936 23.5314 91.1569C23.1915 104.72 47.2163 102.94 46.0297 114.134C45.338 126.852 27.0854 129.614 19.9 132.984C12.0885 137.063 -2.2882 143.791 1.01528 158.229C5.36228 174.972 32.9648 171.959 43.3523 174.026C50.2992 175.151 72.38 177.092 69.2375 191.929C67.5918 200.86 49.4644 201.367 52.9288 212.81C56.4351 223.528 88.0447 225.617 94.4489 225.963C121.032 227.398 179.397 229.75 205.396 218.818C214.937 214.829 223.386 210.03 222.408 195.722C221.937 182.939 215.032 181.069 226.66 171.191C234.012 164.832 248.085 165.345 247.25 146.78C246.803 136.771 221.156 132.615 221.728 122.142C222.617 105.679 254.095 119.659 254.215 90.5437C254.28 72.3659 197.018 82.5355 197.602 64.5602C196.827 57.2605 209.433 54.1644 208.89 46.1026C209.2 33.1466 194.364 23.5605 136.703 21.9887Z" fill="#E2F1FF"/>
<path d="M70.9978 159.818C70.9359 159.854 70.8654 159.872 70.7938 159.871H31.32C31.2314 159.871 31.1454 159.843 31.0747 159.789C31.004 159.736 30.9525 159.661 30.9281 159.577C30.4986 157.7 32.6674 156.226 34.1491 156.95C34.2605 156.481 34.5412 156.07 34.9374 155.795C35.3336 155.52 35.8176 155.401 36.2965 155.46C36.0222 154.624 36.0771 153.715 36.4501 152.919C36.8231 152.122 37.4861 151.497 38.3042 151.171C39.0196 150.831 39.8328 150.757 40.5981 150.961C41.3634 151.166 42.0309 151.635 42.4809 152.286C43.0499 149.386 45.557 146.878 48.6062 146.669C50.3023 146.532 51.9867 147.048 53.3143 148.111C54.6027 149.183 55.0214 150.373 55.3435 151.82C55.7933 151.125 56.464 150.601 57.2478 150.333C58.0316 150.065 58.883 150.067 59.6651 150.341C61.4367 150.877 61.6622 152.699 61.5763 154.323C63.0043 153.139 64.7221 152.565 66.585 153.68C68.1364 154.613 68.4693 156.103 68.5337 157.727C69.806 156.971 71.1213 157.727 71.2179 159.459C71.2274 159.535 71.2108 159.611 71.1708 159.677C71.1308 159.742 71.0698 159.792 70.9978 159.818Z" fill="#A9D6FF"/>
<path d="M217.974 57.3621C217.974 64.9149 238.503 66.3086 239.571 57.3621C240.64 48.4156 217.974 46.0141 217.974 57.3621Z" fill="#E2F1FF"/>
<path d="M12.3312 199.62C12.3312 207.178 37.7345 208.636 38.6363 199.62C39.7906 188.502 12.3312 186.39 12.3312 199.62Z" fill="#E2F1FF"/>
<path d="M232.302 192.049C232.302 201.011 262.429 202.743 263.519 192.049C264.872 178.868 232.302 176.359 232.302 192.049Z" fill="#E2F1FF"/>
<path d="M24.1304 59.9104C24.1304 64.842 38.1312 65.8069 38.6251 59.9104C39.2639 52.6525 24.1304 51.2749 24.1304 59.9104Z" fill="#E2F1FF"/>
<path d="M237.633 165.569C238.052 163.468 234.949 161.543 232.55 162.315C232.942 160.873 232.496 159.571 230.37 158.927C229.429 158.666 228.434 158.666 227.493 158.927C229.168 155.599 227.605 151.803 222.43 151.015C216.804 150.163 210.561 152.918 209.444 157.357C204.87 152.87 195.175 158.247 198.036 163.414C196.27 163.13 194.445 164.132 194.337 165.617C193.968 165.464 193.559 165.437 193.173 165.542C192.788 165.647 192.448 165.877 192.208 166.196C191.968 166.515 191.841 166.905 191.848 167.304C191.854 167.703 191.993 168.088 192.244 168.399C192.293 168.46 192.355 168.508 192.426 168.541C192.496 168.573 192.574 168.589 192.652 168.587H240.43C240.532 168.59 240.633 168.564 240.72 168.512C240.797 168.467 240.856 168.397 240.887 168.313C241.413 166.748 239.416 165.279 237.633 165.569Z" fill="white"/>
<path d="M113.74 193.179C113.928 192.252 112.554 191.4 111.491 191.743C111.668 191.105 111.491 190.526 110.53 190.242C110.114 190.127 109.674 190.127 109.258 190.242C109.999 188.768 109.306 187.09 107.019 186.742C104.528 186.366 101.769 187.589 101.275 189.55C99.251 187.562 94.967 189.942 96.2286 192.231C95.4501 192.107 94.618 192.547 94.618 193.206C94.4551 193.138 94.2739 193.125 94.103 193.171C93.9322 193.217 93.7815 193.318 93.6748 193.459C93.5682 193.6 93.5117 193.772 93.5144 193.949C93.517 194.125 93.5786 194.296 93.6893 194.434C93.7107 194.462 93.7384 194.484 93.7702 194.499C93.8019 194.514 93.8368 194.521 93.8718 194.52H114.991C115.036 194.518 115.08 194.507 115.12 194.487C115.154 194.467 115.18 194.435 115.19 194.396C115.41 193.705 114.524 193.051 113.74 193.179Z" fill="white"/>
<path d="M164.218 74.6833C164.266 74.7083 164.319 74.7212 164.374 74.7208H193.733C193.799 74.7218 193.864 74.7007 193.916 74.6608C193.969 74.621 194.007 74.5648 194.023 74.5011C194.077 74.1928 194.047 73.8759 193.938 73.5827C193.828 73.2895 193.643 73.0306 193.401 72.8322C193.158 72.6339 192.868 72.5032 192.558 72.4536C192.249 72.404 191.932 72.4372 191.64 72.5499C191.56 72.1969 191.35 71.8868 191.051 71.6812C190.753 71.4756 190.388 71.3896 190.029 71.4403C190.231 70.8203 190.189 70.1468 189.912 69.5565C189.635 68.9661 189.143 68.5032 188.537 68.2616C188.005 68.0069 187.4 67.9501 186.83 68.1014C186.26 68.2527 185.763 68.6023 185.428 69.0871C185.218 67.9949 184.661 66.9993 183.84 66.2474C183.02 65.4954 181.979 65.027 180.871 64.9113C179.61 64.8105 178.358 65.194 177.371 65.9834C176.547 66.6916 176.009 67.6746 175.857 68.7494C175.523 68.2299 175.023 67.8382 174.438 67.6377C173.854 67.4373 173.219 67.4399 172.636 67.6451C171.315 68.0525 171.149 69.398 171.213 70.6041C170.139 69.725 168.872 69.2961 167.487 70.1323C166.333 70.8238 166.086 71.9334 166.038 73.1395C165.093 72.5767 164.116 73.1395 164.035 74.426C164.033 74.483 164.05 74.5393 164.083 74.5858C164.116 74.6324 164.163 74.6667 164.218 74.6833Z" fill="white"/>
<path d="M122.453 54.5386C122.487 54.5466 122.522 54.5466 122.555 54.5386H142.418C142.463 54.5397 142.507 54.5254 142.542 54.498C142.577 54.4707 142.602 54.432 142.612 54.3885C142.648 54.1802 142.628 53.9661 142.554 53.768C142.48 53.5699 142.355 53.3949 142.191 53.2608C142.027 53.1268 141.831 53.0385 141.622 53.0049C141.413 52.9714 141.199 52.9938 141.001 53.0699C140.946 52.8348 140.806 52.6282 140.608 52.4897C140.41 52.3513 140.167 52.2906 139.927 52.3194C140.064 51.9009 140.035 51.4463 139.848 51.048C139.66 50.6497 139.328 50.3377 138.918 50.1753C138.561 50.0019 138.155 49.9606 137.77 50.0588C137.386 50.1569 137.049 50.3882 136.819 50.7113C136.677 49.9727 136.301 49.2993 135.746 48.7906C135.191 48.2819 134.487 47.9649 133.738 47.8864C132.885 47.8163 132.038 48.0753 131.37 48.61C130.818 49.0899 130.456 49.7518 130.35 50.4754C130.125 50.1313 129.793 49.8714 129.404 49.7366C129.015 49.6017 128.593 49.5995 128.203 49.7304C127.312 50.0091 127.199 50.915 127.242 51.7351C126.919 51.4058 126.494 51.1949 126.036 51.1365C125.578 51.0782 125.114 51.1758 124.719 51.4135C123.94 51.8799 123.774 52.6303 123.742 53.4451C123.103 53.0645 122.443 53.4451 122.394 54.3135C122.374 54.3515 122.369 54.3959 122.38 54.4376C122.391 54.4793 122.417 54.5154 122.453 54.5386Z" fill="white"/>
<path d="M178.851 266.744C178.849 266.676 178.826 266.611 178.787 266.556C178.76 266.495 178.714 266.442 178.657 266.407C178.599 266.372 178.532 266.354 178.465 266.358L163.476 266.599C163.374 266.599 163.275 266.64 163.203 266.712C163.13 266.785 163.09 266.883 163.09 266.985C163.208 269.869 162.966 272.844 163.444 275.701C163.889 278.381 166.81 278.569 169.07 278.698C171.969 278.864 176.108 278.966 177.772 277.438C179.71 275.664 178.948 269.564 178.851 266.744Z" fill="#77BFFF"/>
<path d="M165.693 272.378C165.056 272.38 164.436 272.17 163.931 271.782C163.425 271.394 163.063 270.849 162.902 270.234C162.889 270.174 162.9 270.112 162.934 270.06C162.967 270.009 163.019 269.973 163.079 269.96C163.138 269.947 163.2 269.958 163.251 269.99C163.302 270.022 163.339 270.073 163.353 270.132C163.353 270.218 163.889 272.314 166.359 271.863C167.996 271.568 168.12 268.148 168.12 268.111C168.119 268.054 168.139 267.998 168.177 267.955C168.214 267.912 168.267 267.884 168.324 267.878C168.38 267.871 168.438 267.886 168.485 267.919C168.531 267.952 168.564 268.001 168.576 268.057C168.619 268.202 168.662 268.395 168.71 268.62C168.904 269.451 169.188 270.7 169.784 271.225C170.53 271.879 172.259 271.96 173.145 271.568C174.03 271.177 174.514 269.917 174.476 268.749C174.476 268.577 174.438 268.406 174.433 268.213C174.435 268.157 174.457 268.103 174.495 268.062C174.534 268.02 174.586 267.995 174.642 267.989C174.698 267.984 174.754 268 174.8 268.033C174.846 268.066 174.877 268.115 174.889 268.17C174.917 268.347 174.933 268.526 174.938 268.706C175.131 269.96 175.872 271.011 176.806 271.29C177.552 271.515 178.271 271.199 178.84 270.4C178.858 270.375 178.88 270.354 178.906 270.338C178.932 270.322 178.96 270.311 178.99 270.306C179.02 270.301 179.051 270.302 179.08 270.309C179.11 270.316 179.138 270.329 179.163 270.346C179.187 270.364 179.208 270.386 179.224 270.412C179.24 270.437 179.251 270.466 179.256 270.496C179.261 270.526 179.26 270.556 179.253 270.586C179.246 270.615 179.234 270.643 179.216 270.668C178.534 271.622 177.606 272.013 176.672 271.74C176.253 271.593 175.871 271.358 175.552 271.051C175.232 270.744 174.983 270.372 174.82 269.96C174.753 270.397 174.582 270.811 174.322 271.167C174.061 271.524 173.718 271.812 173.322 272.008C172.296 272.464 170.385 272.383 169.478 271.59C168.929 270.988 168.557 270.246 168.404 269.446C168.19 270.593 167.669 272.126 166.418 272.335C166.178 272.37 165.936 272.384 165.693 272.378Z" fill="#C5E3FE"/>
<path d="M170.627 265.35C169.016 265.35 163.648 265.42 163.052 266.631C162.263 268.341 171.035 268.207 172.715 268.148C180.784 267.886 181.718 264.948 170.627 265.35Z" fill="#4598E2"/>
<path d="M170.627 265.039C169.709 265.039 162.01 264.911 162.708 266.991C163.052 268.004 164.684 268.095 165.548 268.218C167.463 268.442 169.392 268.53 171.319 268.481C173.02 268.496 174.72 268.363 176.398 268.084C177.144 267.95 178.771 267.693 179.109 266.824C179.962 264.573 171.233 265.023 170.627 265.039C170.229 265.039 170.224 265.667 170.627 265.656C172.377 265.583 174.131 265.621 175.877 265.768C176.183 265.795 179.238 266.203 178.234 266.84C176.387 268.047 173.44 267.832 171.319 267.854C168.957 267.854 166.434 267.918 164.136 267.318C163.03 267.023 163.782 266.38 164.518 266.17C165.302 265.972 166.104 265.848 166.912 265.801C168.141 265.683 169.387 265.656 170.627 265.656C170.702 265.646 170.77 265.609 170.82 265.553C170.87 265.496 170.897 265.423 170.897 265.348C170.897 265.272 170.87 265.199 170.82 265.143C170.77 265.086 170.702 265.049 170.627 265.039Z" fill="#C5E3FE"/>
<path d="M178.959 248.369C178.857 254.431 178.636 260.494 178.556 266.556C178.556 266.618 178.58 266.676 178.624 266.719C178.667 266.763 178.726 266.787 178.787 266.787C178.848 266.787 178.907 266.763 178.95 266.719C178.993 266.676 179.018 266.618 179.018 266.556C179.103 260.494 179.318 254.431 179.42 248.369C179.42 248.308 179.396 248.249 179.353 248.206C179.309 248.162 179.251 248.138 179.189 248.138C179.128 248.138 179.069 248.162 179.026 248.206C178.983 248.249 178.959 248.308 178.959 248.369Z" fill="#77BFFF"/>
<path d="M161.909 248.267C162.096 254.404 162.177 260.521 162.821 266.632C162.853 266.926 163.315 266.926 163.283 266.632C162.639 260.521 162.558 254.404 162.37 248.267C162.37 247.972 161.898 247.967 161.909 248.267Z" fill="#77BFFF"/>
<path d="M170.23 249.291C170.766 255.482 170.095 261.689 170.638 267.87C170.638 268.165 171.126 268.17 171.099 267.87C170.562 261.689 171.207 255.482 170.691 249.291C170.664 249.001 170.203 248.996 170.23 249.291Z" fill="#77BFFF"/>
<path d="M202.735 195.59C200.797 190.685 197.227 185.802 191.639 184.794H191.515C191.487 184.792 191.458 184.792 191.429 184.794C187.253 184.371 184.826 188.52 183.377 191.704C180.73 197.45 179.57 203.883 178.545 210.063C176.51 222.215 174.401 235.53 177.971 247.586C178.018 247.732 178.107 247.861 178.225 247.959C178.344 248.056 178.488 248.118 178.64 248.137C178.793 248.157 178.948 248.132 179.087 248.067C179.226 248.001 179.343 247.898 179.426 247.768C183.242 241.915 191.118 239.905 196.148 235.23C201.409 230.347 204.083 223.207 204.942 216.303C205.779 209.195 205.366 202.226 202.735 195.59Z" fill="#77BFFF"/>
<path d="M161.189 215.22C159.337 205.223 154.967 195.231 149.916 186.37C149.848 186.24 149.741 186.134 149.61 186.066C149.48 185.999 149.331 185.974 149.185 185.995C149.061 186 148.94 186.033 148.831 186.092C143.758 188.697 141.031 193.687 139.318 198.844C137.488 204.371 136.527 211.114 137.38 216.909C138.454 224.413 142.749 231.017 148.305 236.142C152.884 240.339 158.58 243.062 162.665 247.865C162.776 247.971 162.915 248.043 163.066 248.072C163.216 248.102 163.372 248.087 163.514 248.031C163.657 247.974 163.78 247.878 163.87 247.754C163.959 247.629 164.011 247.482 164.018 247.329C163.916 236.608 163.143 225.759 161.189 215.22Z" fill="#C6E3FE"/>
<path d="M185.326 178.973C180.843 176.529 175.603 176.116 170.648 177.092C170.525 177.111 170.409 177.164 170.314 177.246C170.219 177.327 170.149 177.433 170.111 177.553C167.116 181.841 166.676 187.786 166.235 192.776C165.543 200.624 165.731 208.552 166.08 216.41C166.552 227.008 167.443 237.621 168.796 248.144C168.803 248.35 168.889 248.546 169.037 248.691C169.185 248.836 169.384 248.918 169.591 248.921H178.717C178.855 248.921 178.991 248.886 179.112 248.818C179.232 248.751 179.333 248.653 179.404 248.535C187.822 233.097 190.179 214.529 191.585 197.316C191.907 193.393 192.165 189.453 192.235 185.523C192.267 182.918 187.226 180.008 185.326 178.973Z" fill="#C6E3FE"/>
<path d="M172.694 180.136C171.266 171.924 156.739 178.48 152.895 181.289C149.341 183.883 148.375 186.338 148.149 190.305C147.808 196.927 148.081 203.567 148.965 210.138C150.078 219.204 152.477 228.066 156.089 236.458C157.206 238.999 158.433 241.49 159.772 243.93C160.378 245.035 161.715 248.54 163.025 248.894C164.952 249.43 167.599 248.921 169.596 248.921C169.76 248.927 169.922 248.877 170.054 248.78C170.187 248.682 170.283 248.543 170.326 248.385C170.362 248.303 170.384 248.216 170.391 248.127C171.647 233.118 172.64 218.109 173.155 203.1C173.402 195.59 173.993 187.619 172.694 180.136Z" fill="#77BFFF"/>
<path d="M161.705 249.264C167.647 250.326 173.73 250.326 179.673 249.264C181.358 248.974 180.644 246.728 178.969 247.018C173.492 247.988 167.886 247.988 162.408 247.018C160.738 246.707 160.024 248.958 161.705 249.264Z" fill="#77BFFF"/>
<path d="M98.0216 39.2489C98.0298 39.2227 98.0298 39.1946 98.0216 39.1685C98.0097 39.1418 97.99 39.1193 97.9651 39.104C97.9402 39.0887 97.9112 39.0813 97.882 39.0827L91.3862 39.1899C91.3421 39.1899 91.2998 39.2074 91.2685 39.2386C91.2373 39.2697 91.2198 39.312 91.2198 39.3561C91.1946 40.6088 91.2466 41.862 91.3755 43.1083C91.5687 44.2608 92.8357 44.352 93.8127 44.4056C95.0689 44.4806 96.862 44.5235 97.5706 43.8695C98.3866 43.1137 98.0645 40.4764 98.0216 39.2489Z" fill="#77BFFF"/>
<path d="M92.3257 41.6932C92.0483 41.6918 91.7792 41.5991 91.5598 41.4296C91.3405 41.26 91.1833 41.023 91.1125 40.7552C91.1093 40.7425 91.1088 40.7293 91.1109 40.7164C91.113 40.7035 91.1177 40.6911 91.1247 40.6801C91.1318 40.6691 91.141 40.6596 91.1518 40.6522C91.1626 40.6449 91.1748 40.6398 91.1876 40.6372C91.2007 40.634 91.2142 40.6335 91.2275 40.6355C91.2408 40.6375 91.2535 40.6422 91.265 40.6492C91.2765 40.6561 91.2864 40.6653 91.2943 40.6761C91.3023 40.687 91.308 40.6992 91.3111 40.7123C91.3866 40.982 91.5648 41.2116 91.8075 41.3518C92.0503 41.4921 92.3384 41.5319 92.6103 41.4627C93.3189 41.3341 93.3726 39.8546 93.3779 39.8546C93.3778 39.8308 93.3865 39.8077 93.4023 39.7899C93.4182 39.7721 93.4401 39.7608 93.4638 39.7581C93.4872 39.7547 93.511 39.7598 93.5307 39.7727C93.5505 39.7855 93.5649 39.8051 93.5712 39.8278C93.5712 39.8921 93.6088 39.9779 93.6302 40.0744C93.6848 40.4855 93.8458 40.8754 94.0973 41.2054C94.3125 41.3393 94.5556 41.422 94.8078 41.4471C95.0601 41.4722 95.3148 41.439 95.5521 41.3502C95.7566 41.224 95.9201 41.0415 96.0229 40.8247C96.1258 40.6078 96.1637 40.3659 96.1319 40.128C96.1319 40.0583 96.1319 39.9833 96.1319 39.9029C96.1318 39.8776 96.141 39.8532 96.1579 39.8344C96.1748 39.8156 96.198 39.8037 96.2232 39.801C96.2486 39.7994 96.2737 39.8073 96.2935 39.8231C96.3134 39.839 96.3266 39.8617 96.3306 39.8868C96.3364 39.9617 96.3364 40.037 96.3306 40.1119C96.3508 40.354 96.437 40.5859 96.5799 40.7824C96.7228 40.979 96.9169 41.1327 97.1412 41.2269C97.31 41.2693 97.4882 41.2544 97.6476 41.1846C97.8071 41.1147 97.9386 40.9938 98.0216 40.8409C98.039 40.8253 98.0613 40.8161 98.0847 40.8149C98.1081 40.8138 98.1312 40.8207 98.1501 40.8345C98.1691 40.8484 98.1826 40.8683 98.1885 40.8909C98.1944 40.9136 98.1924 40.9376 98.1827 40.9589C98.0753 41.1457 97.9094 41.292 97.7105 41.3753C97.5116 41.4587 97.2908 41.4743 97.0821 41.4199C96.9015 41.3555 96.7366 41.2533 96.5987 41.1202C96.4607 40.9871 96.3529 40.8261 96.2822 40.648C96.253 40.8366 96.1786 41.0154 96.0656 41.1694C95.9525 41.3233 95.804 41.4478 95.6327 41.5324C95.3604 41.6381 95.0668 41.6771 94.7764 41.6464C94.4859 41.6156 94.2071 41.5159 93.9631 41.3555C93.7305 41.0915 93.5745 40.7689 93.5121 40.4228C93.4155 40.9213 93.19 41.5807 92.6478 41.6772C92.5412 41.6921 92.4334 41.6974 92.3257 41.6932Z" fill="#C5E3FE"/>
<path d="M94.4623 38.6432C93.7698 38.6432 91.4346 38.6754 91.1769 39.1793C90.8387 39.919 94.6395 39.86 95.3696 39.8386C98.8483 39.7421 99.2671 38.4717 94.4623 38.6432Z" fill="#6B7D7E"/>
<path d="M94.4624 38.5146C94.0598 38.5146 90.7045 38.4556 91.032 39.3562C91.1823 39.7957 91.8856 39.8333 92.2613 39.8922C93.0896 39.9903 93.9238 40.0297 94.7577 40.0102C95.4949 40.015 96.2312 39.9576 96.9587 39.8386C97.2862 39.7797 97.9894 39.6671 98.1344 39.3026C98.5048 38.327 94.7254 38.52 94.4624 38.5307C94.432 38.5368 94.4048 38.5533 94.3852 38.5772C94.3656 38.6011 94.3549 38.6311 94.3549 38.662C94.3549 38.6929 94.3656 38.7229 94.3852 38.7468C94.4048 38.7708 94.432 38.7872 94.4624 38.7934C95.2196 38.7639 95.9779 38.78 96.7332 38.8416C96.8674 38.8416 98.1881 39.0346 97.7586 39.3133C96.9587 39.8493 95.6756 39.7421 94.7577 39.7529C93.7157 39.8117 92.6705 39.7324 91.6493 39.517C91.1716 39.3884 91.4937 39.1096 91.8158 39.0185C92.1554 38.9328 92.5022 38.879 92.8519 38.8577C93.3873 38.8094 93.9248 38.7879 94.4624 38.7934C94.4994 38.7934 94.5349 38.7787 94.5611 38.7525C94.5873 38.7264 94.602 38.6909 94.602 38.654C94.602 38.617 94.5873 38.5816 94.5611 38.5554C94.5349 38.5293 94.4994 38.5146 94.4624 38.5146Z" fill="#C5E3FE"/>
<path d="M98.0699 31.2887C98.0269 33.9153 97.9303 36.5419 97.8981 39.1685C97.8981 39.2972 98.0967 39.2972 98.0967 39.1685C98.1343 36.5419 98.2255 33.9153 98.2685 31.2887C98.2685 31.1601 98.0699 31.1601 98.0699 31.2887Z" fill="#77BFFF"/>
<path d="M90.683 31.2459C90.7635 33.9261 90.8011 36.5527 91.0802 39.2007C91.0802 39.3294 91.2896 39.3294 91.2788 39.2007C90.9997 36.5527 90.9675 33.9047 90.8816 31.2459C90.8816 31.1173 90.6776 31.1173 90.683 31.2459Z" fill="#77BFFF"/>
<path d="M94.2906 31.6907C94.5107 34.3709 94.2315 37.0511 94.4677 39.7313C94.4677 39.86 94.6771 39.86 94.6664 39.7313C94.4301 37.0511 94.7147 34.3709 94.4892 31.6907C94.4892 31.5621 94.2798 31.5621 94.2906 31.6907Z" fill="#77BFFF"/>
<path d="M108.372 8.42663C107.529 6.28248 105.983 4.18657 103.54 3.75238H103.492H103.449C101.645 3.57012 100.593 5.36049 99.9542 6.74883C98.8108 9.23605 98.3061 12.0234 97.8552 14.7036C96.9748 19.9675 96.0621 25.7353 97.6082 30.9563C97.629 31.0194 97.6673 31.0752 97.7186 31.1172C97.77 31.1593 97.8324 31.1858 97.8983 31.1937C97.9643 31.2016 98.0312 31.1905 98.091 31.1617C98.1509 31.133 98.2013 31.0877 98.2363 31.0314C99.8898 28.4959 103.304 27.6275 105.484 25.6013C107.76 23.4572 108.919 20.391 109.29 17.3999C109.748 14.3794 109.433 11.2921 108.372 8.42663Z" fill="#77BFFF"/>
<path d="M90.3716 16.9283C89.5717 12.5971 87.6874 8.26595 85.4864 4.42792C85.4575 4.37099 85.4113 4.3247 85.3543 4.29579C85.2974 4.26687 85.2327 4.25683 85.1696 4.26711C85.1168 4.26886 85.0651 4.28359 85.0193 4.30999C82.8183 5.43567 81.6372 7.60127 80.8964 9.83119C80.0388 12.3455 79.7527 15.0189 80.0589 17.6573C80.5313 20.9057 82.3727 23.7735 84.7938 25.9927C86.7748 27.8099 89.2389 28.9892 91.0105 31.069C91.0589 31.1155 91.1196 31.1471 91.1855 31.1599C91.2514 31.1727 91.3196 31.1663 91.382 31.1414C91.4443 31.1165 91.4981 31.0742 91.537 31.0195C91.5758 30.9649 91.5981 30.9001 91.601 30.8332C91.5919 26.1716 91.1806 21.5194 90.3716 16.9283Z" fill="#C6E3FE"/>
<path d="M100.829 1.22232C98.8681 0.22023 96.6179 -0.066079 94.4677 0.412906C94.4134 0.419773 94.3622 0.442137 94.3203 0.477316C94.2784 0.512495 94.2476 0.558995 94.2315 0.611239C92.9377 2.46057 92.7444 5.04428 92.5565 7.20451C92.3069 10.6121 92.2854 14.0324 92.4921 17.4428C92.6907 22.0367 93.0773 26.6305 93.6678 31.1922C93.6692 31.2823 93.706 31.3682 93.7703 31.4314C93.8346 31.4945 93.9212 31.5299 94.0114 31.5299H97.9625C98.0217 31.5291 98.0798 31.5134 98.1313 31.4844C98.1829 31.4554 98.2264 31.4139 98.2578 31.3638C101.903 24.674 102.928 16.6281 103.535 9.17177C103.675 7.47253 103.787 5.76257 103.814 4.05797C103.836 2.93229 101.651 1.6726 100.829 1.22232Z" fill="#C6E3FE"/>
<path d="M95.3588 1.73159C94.7361 -1.82771 88.4443 1.00794 86.7694 2.22474C85.2286 3.35042 84.8099 4.41714 84.7133 6.13246C84.5661 8.99613 84.6847 11.8673 85.0676 14.7091C85.5578 18.6403 86.6081 22.4814 88.1866 26.116C88.6698 27.2202 89.2066 28.2923 89.7972 29.3322C90.0548 29.8093 90.64 31.3316 91.2037 31.4764C92.0412 31.7015 93.1846 31.4764 94.0543 31.4764C94.1253 31.479 94.1952 31.4577 94.2527 31.4159C94.3101 31.3741 94.3518 31.3142 94.3711 31.2459C94.3831 31.211 94.3921 31.1751 94.3979 31.1387C94.9347 24.6472 95.3696 18.1397 95.595 11.6322C95.6648 8.42671 95.9172 4.96926 95.3588 1.73159Z" fill="#77BFFF"/>
<path d="M90.5917 31.68C93.1681 32.1356 95.8048 32.1356 98.3812 31.68C99.1113 31.5513 98.8 30.5757 98.0752 30.7044C95.7028 31.1225 93.2754 31.1225 90.903 30.7044C90.1783 30.5704 89.8669 31.546 90.5917 31.68Z" fill="#77BFFF"/>
<path d="M91.945 103.159V107.092H97.2266V109.586H91.945V113.744H97.9008V116.306H88.7986V100.597H97.9008V103.159H91.945Z" fill="#52ACFE"/>
<path d="M117.414 100.619V116.306H114.267V106.103L110.065 116.306H107.682L103.457 106.103V116.306H100.311V100.619H103.884L108.874 112.283L113.863 100.619H117.414Z" fill="#52ACFE"/>
<path d="M131.515 105.474C131.515 106.313 131.313 107.099 130.908 107.833C130.518 108.568 129.897 109.159 129.043 109.609C128.204 110.058 127.14 110.283 125.851 110.283H123.222V116.306H120.075V100.619H125.851C127.065 100.619 128.099 100.829 128.953 101.248C129.807 101.668 130.444 102.245 130.863 102.979C131.298 103.713 131.515 104.545 131.515 105.474ZM125.716 107.744C126.585 107.744 127.23 107.549 127.649 107.159C128.069 106.755 128.278 106.193 128.278 105.474C128.278 103.945 127.424 103.181 125.716 103.181H123.222V107.744H125.716Z" fill="#52ACFE"/>
<path d="M143.975 100.619V103.159H139.794V116.306H136.648V103.159H132.468V100.619H143.975Z" fill="#52ACFE"/>
<path d="M158.294 100.619L152.99 110.845V116.306H149.844V110.845L144.517 100.619H148.068L151.44 107.788L154.788 100.619H158.294Z" fill="#52ACFE"/>
<path d="M168.633 100.349L168.274 111.205H165.622L165.24 100.349H168.633ZM167.015 116.464C166.446 116.464 165.974 116.291 165.599 115.947C165.24 115.587 165.06 115.145 165.06 114.621C165.06 114.096 165.24 113.662 165.599 113.317C165.974 112.958 166.446 112.778 167.015 112.778C167.569 112.778 168.026 112.958 168.386 113.317C168.746 113.662 168.925 114.096 168.925 114.621C168.925 115.145 168.746 115.587 168.386 115.947C168.026 116.291 167.569 116.464 167.015 116.464Z" fill="#52ACFE"/>
<path d="M176.129 100.349L175.769 111.205H173.117L172.735 100.349H176.129ZM174.511 116.464C173.941 116.464 173.469 116.291 173.095 115.947C172.735 115.587 172.555 115.145 172.555 114.621C172.555 114.096 172.735 113.662 173.095 113.317C173.469 112.958 173.941 112.778 174.511 112.778C175.065 112.778 175.522 112.958 175.882 113.317C176.241 113.662 176.421 114.096 176.421 114.621C176.421 115.145 176.241 115.587 175.882 115.947C175.522 116.291 175.065 116.464 174.511 116.464Z" fill="#52ACFE"/>
<path d="M69.5993 134.005H68.4464L64.9774 128.756V134.005H63.8245V126.966H64.9774L68.4464 132.205V126.966H69.5993V134.005Z" fill="#307DC4"/>
<path d="M73.3282 134.096C72.8023 134.096 72.327 133.978 71.9022 133.742C71.4775 133.499 71.1437 133.162 70.901 132.731C70.6583 132.293 70.5369 131.787 70.5369 131.214C70.5369 130.647 70.6616 130.145 70.9111 129.707C71.1606 129.269 71.501 128.931 71.9326 128.695C72.3641 128.459 72.8462 128.342 73.3788 128.342C73.9115 128.342 74.3935 128.459 74.8251 128.695C75.2566 128.931 75.5971 129.269 75.8465 129.707C76.096 130.145 76.2207 130.647 76.2207 131.214C76.2207 131.78 76.0926 132.282 75.8364 132.721C75.5802 133.159 75.2296 133.499 74.7846 133.742C74.3463 133.978 73.8609 134.096 73.3282 134.096ZM73.3282 133.095C73.6249 133.095 73.9013 133.024 74.1576 132.883C74.4205 132.741 74.6329 132.529 74.7947 132.245C74.9565 131.962 75.0374 131.618 75.0374 131.214C75.0374 130.809 74.9599 130.469 74.8048 130.192C74.6497 129.909 74.4441 129.697 74.1879 129.555C73.9317 129.414 73.6552 129.343 73.3586 129.343C73.0619 129.343 72.7855 129.414 72.5293 129.555C72.2798 129.697 72.0809 129.909 71.9326 130.192C71.7842 130.469 71.7101 130.809 71.7101 131.214C71.7101 131.814 71.8618 132.279 72.1652 132.609C72.4753 132.933 72.863 133.095 73.3282 133.095Z" fill="#307DC4"/>
<path d="M84.6905 131.082C84.6905 131.291 84.677 131.48 84.65 131.649H80.3922C80.4259 132.094 80.5911 132.451 80.8878 132.721C81.1844 132.99 81.5485 133.125 81.98 133.125C82.6003 133.125 83.0386 132.866 83.2948 132.346H84.5388C84.3702 132.859 84.0634 133.28 83.6184 133.611C83.1802 133.934 82.634 134.096 81.98 134.096C81.4474 134.096 80.9687 133.978 80.5439 133.742C80.1259 133.499 79.7955 133.162 79.5528 132.731C79.3168 132.293 79.1988 131.787 79.1988 131.214C79.1988 130.641 79.3134 130.138 79.5426 129.707C79.7786 129.269 80.1056 128.931 80.5237 128.695C80.9484 128.459 81.4339 128.342 81.98 128.342C82.5059 128.342 82.9745 128.456 83.3858 128.685C83.7971 128.915 84.1174 129.238 84.3466 129.656C84.5758 130.068 84.6905 130.543 84.6905 131.082ZM83.4869 130.718C83.4802 130.293 83.3285 129.953 83.0318 129.697C82.7352 129.441 82.3677 129.312 81.9295 129.312C81.5317 129.312 81.1912 129.441 80.908 129.697C80.6248 129.946 80.4562 130.287 80.4023 130.718H83.4869Z" fill="#307DC4"/>
<path d="M92.3686 128.342C92.8068 128.342 93.1979 128.433 93.5418 128.615C93.8924 128.797 94.1654 129.066 94.361 129.424C94.5632 129.781 94.6644 130.213 94.6644 130.718V134.005H93.5215V130.89C93.5215 130.391 93.3968 130.01 93.1473 129.747C92.8979 129.478 92.5574 129.343 92.1259 129.343C91.6943 129.343 91.3505 129.478 91.0943 129.747C90.8448 130.01 90.7201 130.391 90.7201 130.89V134.005H89.5772V130.89C89.5772 130.391 89.4525 130.01 89.203 129.747C88.9536 129.478 88.6131 129.343 88.1816 129.343C87.75 129.343 87.4062 129.478 87.15 129.747C86.9005 130.01 86.7758 130.391 86.7758 130.89V134.005H85.6228V128.433H86.7758V129.07C86.9646 128.84 87.2039 128.662 87.4938 128.534C87.7838 128.406 88.0939 128.342 88.4243 128.342C88.8693 128.342 89.2671 128.436 89.6177 128.625C89.9683 128.813 90.238 129.087 90.4268 129.444C90.5953 129.107 90.8583 128.84 91.2156 128.645C91.573 128.443 91.9573 128.342 92.3686 128.342Z" fill="#307DC4"/>
<path d="M97.0821 129.252C97.2777 128.996 97.544 128.78 97.8811 128.604C98.2182 128.429 98.5992 128.342 99.024 128.342C99.5094 128.342 99.951 128.463 100.349 128.706C100.753 128.942 101.07 129.275 101.3 129.707C101.529 130.138 101.643 130.634 101.643 131.194C101.643 131.753 101.529 132.255 101.3 132.7C101.07 133.139 100.753 133.483 100.349 133.732C99.951 133.975 99.5094 134.096 99.024 134.096C98.5992 134.096 98.2216 134.012 97.8912 133.843C97.5609 133.668 97.2912 133.452 97.0821 133.196V136.655H95.9292V128.433H97.0821V129.252ZM100.47 131.194C100.47 130.809 100.389 130.479 100.227 130.202C100.072 129.919 99.8634 129.707 99.6004 129.565C99.3442 129.417 99.0678 129.343 98.7711 129.343C98.4812 129.343 98.2048 129.417 97.9418 129.565C97.6856 129.714 97.4766 129.929 97.3148 130.213C97.1597 130.496 97.0821 130.829 97.0821 131.214C97.0821 131.598 97.1597 131.935 97.3148 132.225C97.4766 132.508 97.6856 132.724 97.9418 132.872C98.2048 133.021 98.4812 133.095 98.7711 133.095C99.0678 133.095 99.3442 133.021 99.6004 132.872C99.8634 132.717 100.072 132.495 100.227 132.205C100.389 131.915 100.47 131.578 100.47 131.194Z" fill="#307DC4"/>
<path d="M103.734 126.521V134.005H102.581V126.521H103.734Z" fill="#307DC4"/>
<path d="M107.463 134.096C106.937 134.096 106.462 133.978 106.037 133.742C105.612 133.499 105.278 133.162 105.036 132.731C104.793 132.293 104.671 131.787 104.671 131.214C104.671 130.647 104.796 130.145 105.046 129.707C105.295 129.269 105.636 128.931 106.067 128.695C106.499 128.459 106.981 128.342 107.513 128.342C108.046 128.342 108.528 128.459 108.96 128.695C109.391 128.931 109.732 129.269 109.981 129.707C110.231 130.145 110.355 130.647 110.355 131.214C110.355 131.78 110.227 132.282 109.971 132.721C109.715 133.159 109.364 133.499 108.919 133.742C108.481 133.978 107.995 134.096 107.463 134.096ZM107.463 133.095C107.759 133.095 108.036 133.024 108.292 132.883C108.555 132.741 108.767 132.529 108.929 132.245C109.091 131.962 109.172 131.618 109.172 131.214C109.172 130.809 109.094 130.469 108.939 130.192C108.784 129.909 108.579 129.697 108.322 129.555C108.066 129.414 107.79 129.343 107.493 129.343C107.196 129.343 106.92 129.414 106.664 129.555C106.414 129.697 106.215 129.909 106.067 130.192C105.919 130.469 105.845 130.809 105.845 131.214C105.845 131.814 105.996 132.279 106.3 132.609C106.61 132.933 106.998 133.095 107.463 133.095Z" fill="#307DC4"/>
<path d="M116.309 128.433L112.891 136.625H111.697L112.83 133.914L110.635 128.433H111.92L113.487 132.68L115.116 128.433H116.309Z" fill="#307DC4"/>
<path d="M122.084 131.082C122.084 131.291 122.071 131.48 122.044 131.649H117.786C117.82 132.094 117.985 132.451 118.282 132.721C118.578 132.99 118.942 133.125 119.374 133.125C119.994 133.125 120.432 132.866 120.689 132.346H121.933C121.764 132.859 121.457 133.28 121.012 133.611C120.574 133.934 120.028 134.096 119.374 134.096C118.841 134.096 118.362 133.978 117.938 133.742C117.52 133.499 117.189 133.162 116.947 132.731C116.711 132.293 116.593 131.787 116.593 131.214C116.593 130.641 116.707 130.138 116.936 129.707C117.172 129.269 117.499 128.931 117.917 128.695C118.342 128.459 118.828 128.342 119.374 128.342C119.9 128.342 120.368 128.456 120.78 128.685C121.191 128.915 121.511 129.238 121.74 129.656C121.97 130.068 122.084 130.543 122.084 131.082ZM120.881 130.718C120.874 130.293 120.722 129.953 120.426 129.697C120.129 129.441 119.762 129.312 119.323 129.312C118.925 129.312 118.585 129.441 118.302 129.697C118.019 129.946 117.85 130.287 117.796 130.718H120.881Z" fill="#307DC4"/>
<path d="M128.124 131.082C128.124 131.291 128.111 131.48 128.084 131.649H123.826C123.859 132.094 124.025 132.451 124.321 132.721C124.618 132.99 124.982 133.125 125.414 133.125C126.034 133.125 126.472 132.866 126.728 132.346H127.972C127.804 132.859 127.497 133.28 127.052 133.611C126.614 133.934 126.068 134.096 125.414 134.096C124.881 134.096 124.402 133.978 123.977 133.742C123.559 133.499 123.229 133.162 122.986 132.731C122.75 132.293 122.632 131.787 122.632 131.214C122.632 130.641 122.747 130.138 122.976 129.707C123.212 129.269 123.539 128.931 123.957 128.695C124.382 128.459 124.867 128.342 125.414 128.342C125.939 128.342 126.408 128.456 126.819 128.685C127.231 128.915 127.551 129.238 127.78 129.656C128.009 130.068 128.124 130.543 128.124 131.082ZM126.92 130.718C126.914 130.293 126.762 129.953 126.465 129.697C126.169 129.441 125.801 129.312 125.363 129.312C124.965 129.312 124.625 129.441 124.342 129.697C124.058 129.946 123.89 130.287 123.836 130.718H126.92Z" fill="#307DC4"/>
<path d="M132.634 129.242C132.803 128.958 133.025 128.739 133.302 128.584C133.585 128.422 133.919 128.342 134.303 128.342V129.535H134.01C133.558 129.535 133.214 129.65 132.978 129.879C132.749 130.108 132.634 130.506 132.634 131.072V134.005H131.481V128.433H132.634V129.242Z" fill="#307DC4"/>
<path d="M140.268 131.082C140.268 131.291 140.254 131.48 140.227 131.649H135.97C136.003 132.094 136.168 132.451 136.465 132.721C136.762 132.99 137.126 133.125 137.557 133.125C138.178 133.125 138.616 132.866 138.872 132.346H140.116C139.948 132.859 139.641 133.28 139.196 133.611C138.758 133.934 138.211 134.096 137.557 134.096C137.025 134.096 136.546 133.978 136.121 133.742C135.703 133.499 135.373 133.162 135.13 132.731C134.894 132.293 134.776 131.787 134.776 131.214C134.776 130.641 134.891 130.138 135.12 129.707C135.356 129.269 135.683 128.931 136.101 128.695C136.526 128.459 137.011 128.342 137.557 128.342C138.083 128.342 138.552 128.456 138.963 128.685C139.374 128.915 139.695 129.238 139.924 129.656C140.153 130.068 140.268 130.543 140.268 131.082ZM139.064 130.718C139.058 130.293 138.906 129.953 138.609 129.697C138.313 129.441 137.945 129.312 137.507 129.312C137.109 129.312 136.769 129.441 136.485 129.697C136.202 129.946 136.034 130.287 135.98 130.718H139.064Z" fill="#307DC4"/>
<path d="M140.816 131.194C140.816 130.634 140.93 130.138 141.16 129.707C141.396 129.275 141.713 128.942 142.11 128.706C142.515 128.463 142.963 128.342 143.456 128.342C143.887 128.342 144.268 128.429 144.598 128.604C144.935 128.78 145.195 128.992 145.377 129.242V128.433H146.54V136.655H145.377V133.196C145.195 133.446 144.932 133.658 144.588 133.833C144.244 134.008 143.853 134.096 143.415 134.096C142.936 134.096 142.498 133.975 142.1 133.732C141.709 133.483 141.396 133.139 141.16 132.7C140.93 132.255 140.816 131.753 140.816 131.194ZM145.377 131.214C145.377 130.829 145.296 130.496 145.134 130.213C144.979 129.929 144.774 129.714 144.517 129.565C144.261 129.417 143.985 129.343 143.688 129.343C143.391 129.343 143.115 129.417 142.859 129.565C142.603 129.707 142.394 129.919 142.232 130.202C142.077 130.479 141.999 130.809 141.999 131.194C141.999 131.578 142.077 131.915 142.232 132.205C142.394 132.495 142.603 132.717 142.859 132.872C143.122 133.021 143.398 133.095 143.688 133.095C143.985 133.095 144.261 133.021 144.517 132.872C144.774 132.724 144.979 132.508 145.134 132.225C145.296 131.935 145.377 131.598 145.377 131.214Z" fill="#307DC4"/>
<path d="M152.899 128.433V134.005H151.746V133.348C151.564 133.577 151.325 133.759 151.028 133.894C150.738 134.022 150.428 134.086 150.097 134.086C149.659 134.086 149.265 133.995 148.914 133.813C148.57 133.631 148.297 133.361 148.095 133.004C147.899 132.647 147.802 132.215 147.802 131.709V128.433H148.945V131.537C148.945 132.036 149.069 132.421 149.319 132.69C149.568 132.953 149.909 133.085 150.34 133.085C150.772 133.085 151.112 132.953 151.362 132.69C151.618 132.421 151.746 132.036 151.746 131.537V128.433H152.899Z" fill="#307DC4"/>
<path d="M159.325 131.082C159.325 131.291 159.312 131.48 159.285 131.649H155.027C155.061 132.094 155.226 132.451 155.523 132.721C155.819 132.99 156.183 133.125 156.615 133.125C157.235 133.125 157.673 132.866 157.93 132.346H159.174C159.005 132.859 158.698 133.28 158.253 133.611C157.815 133.934 157.269 134.096 156.615 134.096C156.082 134.096 155.603 133.978 155.179 133.742C154.761 133.499 154.43 133.162 154.188 132.731C153.952 132.293 153.834 131.787 153.834 131.214C153.834 130.641 153.948 130.138 154.177 129.707C154.413 129.269 154.74 128.931 155.158 128.695C155.583 128.459 156.069 128.342 156.615 128.342C157.141 128.342 157.609 128.456 158.021 128.685C158.432 128.915 158.752 129.238 158.981 129.656C159.211 130.068 159.325 130.543 159.325 131.082ZM158.122 130.718C158.115 130.293 157.963 129.953 157.667 129.697C157.37 129.441 157.002 129.312 156.564 129.312C156.166 129.312 155.826 129.441 155.543 129.697C155.26 129.946 155.091 130.287 155.037 130.718H158.122Z" fill="#307DC4"/>
<path d="M162.28 134.096C161.842 134.096 161.448 134.019 161.097 133.864C160.753 133.702 160.48 133.486 160.278 133.216C160.076 132.94 159.968 132.633 159.954 132.296H161.148C161.168 132.532 161.279 132.731 161.481 132.893C161.69 133.048 161.95 133.125 162.26 133.125C162.584 133.125 162.833 133.065 163.008 132.943C163.191 132.815 163.282 132.653 163.282 132.458C163.282 132.249 163.18 132.094 162.978 131.993C162.783 131.891 162.469 131.78 162.038 131.659C161.62 131.544 161.279 131.433 161.016 131.325C160.753 131.217 160.524 131.052 160.328 130.829C160.14 130.607 160.045 130.314 160.045 129.95C160.045 129.653 160.133 129.383 160.308 129.14C160.483 128.891 160.733 128.695 161.057 128.554C161.387 128.412 161.765 128.342 162.189 128.342C162.823 128.342 163.332 128.503 163.716 128.827C164.107 129.144 164.317 129.579 164.343 130.132H163.191C163.17 129.882 163.069 129.683 162.887 129.535C162.705 129.387 162.459 129.312 162.149 129.312C161.845 129.312 161.613 129.37 161.451 129.484C161.289 129.599 161.208 129.751 161.208 129.939C161.208 130.088 161.262 130.213 161.37 130.314C161.478 130.415 161.609 130.496 161.765 130.556C161.92 130.61 162.149 130.681 162.452 130.769C162.857 130.877 163.187 130.988 163.443 131.103C163.706 131.21 163.932 131.372 164.121 131.588C164.31 131.804 164.408 132.09 164.414 132.448C164.414 132.765 164.327 133.048 164.151 133.297C163.976 133.547 163.727 133.742 163.403 133.884C163.086 134.025 162.712 134.096 162.28 134.096Z" fill="#307DC4"/>
<path d="M166.803 129.373V132.458C166.803 132.667 166.85 132.818 166.944 132.913C167.046 133.001 167.214 133.044 167.45 133.044H168.158V134.005H167.248C166.729 134.005 166.331 133.884 166.054 133.641C165.778 133.398 165.64 133.004 165.64 132.458V129.373H164.982V128.433H165.64V127.047H166.803V128.433H168.158V129.373H166.803Z" fill="#307DC4"/>
<path d="M171.041 134.096C170.603 134.096 170.209 134.019 169.858 133.864C169.514 133.702 169.241 133.486 169.039 133.216C168.836 132.94 168.729 132.633 168.715 132.296H169.908C169.929 132.532 170.04 132.731 170.242 132.893C170.451 133.048 170.711 133.125 171.021 133.125C171.345 133.125 171.594 133.065 171.769 132.943C171.951 132.815 172.042 132.653 172.042 132.458C172.042 132.249 171.941 132.094 171.739 131.993C171.544 131.891 171.23 131.78 170.798 131.659C170.38 131.544 170.04 131.433 169.777 131.325C169.514 131.217 169.285 131.052 169.089 130.829C168.9 130.607 168.806 130.314 168.806 129.95C168.806 129.653 168.894 129.383 169.069 129.14C169.244 128.891 169.494 128.695 169.817 128.554C170.148 128.412 170.525 128.342 170.95 128.342C171.584 128.342 172.093 128.503 172.477 128.827C172.868 129.144 173.077 129.579 173.104 130.132H171.951C171.931 129.882 171.83 129.683 171.648 129.535C171.466 129.387 171.22 129.312 170.91 129.312C170.606 129.312 170.374 129.37 170.212 129.484C170.05 129.599 169.969 129.751 169.969 129.939C169.969 130.088 170.023 130.213 170.131 130.314C170.239 130.415 170.37 130.496 170.525 130.556C170.68 130.61 170.91 130.681 171.213 130.769C171.618 130.877 171.948 130.988 172.204 131.103C172.467 131.21 172.693 131.372 172.882 131.588C173.071 131.804 173.168 132.09 173.175 132.448C173.175 132.765 173.088 133.048 172.912 133.297C172.737 133.547 172.487 133.742 172.164 133.884C171.847 134.025 171.473 134.096 171.041 134.096Z" fill="#307DC4"/>
<path d="M177.989 129.373V132.458C177.989 132.667 178.036 132.818 178.13 132.913C178.231 133.001 178.4 133.044 178.636 133.044H179.344V134.005H178.434C177.915 134.005 177.517 133.884 177.24 133.641C176.964 133.398 176.826 133.004 176.826 132.458V129.373H176.168V128.433H176.826V127.047H177.989V128.433H179.344V129.373H177.989Z" fill="#307DC4"/>
<path d="M180.791 127.694C180.582 127.694 180.407 127.623 180.265 127.482C180.123 127.34 180.053 127.165 180.053 126.956C180.053 126.747 180.123 126.572 180.265 126.43C180.407 126.288 180.582 126.218 180.791 126.218C180.993 126.218 181.165 126.288 181.307 126.43C181.448 126.572 181.519 126.747 181.519 126.956C181.519 127.165 181.448 127.34 181.307 127.482C181.165 127.623 180.993 127.694 180.791 127.694ZM181.357 128.433V134.005H180.204V128.433H181.357Z" fill="#307DC4"/>
<path d="M183.822 126.521V134.005H182.669V126.521H183.822Z" fill="#307DC4"/>
<path d="M186.286 126.521V134.005H185.133V126.521H186.286Z" fill="#307DC4"/>
<path d="M192.834 128.342C193.272 128.342 193.663 128.433 194.007 128.615C194.358 128.797 194.631 129.066 194.826 129.424C195.022 129.781 195.12 130.213 195.12 130.718V134.005H193.977V130.89C193.977 130.391 193.852 130.01 193.603 129.747C193.353 129.478 193.013 129.343 192.581 129.343C192.15 129.343 191.806 129.478 191.55 129.747C191.3 130.01 191.175 130.391 191.175 130.89V134.005H190.022V128.433H191.175V129.07C191.364 128.84 191.603 128.662 191.893 128.534C192.19 128.406 192.504 128.342 192.834 128.342Z" fill="#307DC4"/>
<path d="M198.805 134.096C198.279 134.096 197.804 133.978 197.379 133.742C196.954 133.499 196.621 133.162 196.378 132.731C196.135 132.293 196.014 131.787 196.014 131.214C196.014 130.647 196.139 130.145 196.388 129.707C196.637 129.269 196.978 128.931 197.409 128.695C197.841 128.459 198.323 128.342 198.856 128.342C199.388 128.342 199.87 128.459 200.302 128.695C200.733 128.931 201.074 129.269 201.323 129.707C201.573 130.145 201.698 130.647 201.698 131.214C201.698 131.78 201.57 132.282 201.313 132.721C201.057 133.159 200.707 133.499 200.262 133.742C199.823 133.978 199.338 134.096 198.805 134.096ZM198.805 133.095C199.102 133.095 199.378 133.024 199.634 132.883C199.897 132.741 200.11 132.529 200.272 132.245C200.433 131.962 200.514 131.618 200.514 131.214C200.514 130.809 200.437 130.469 200.282 130.192C200.127 129.909 199.921 129.697 199.665 129.555C199.409 129.414 199.132 129.343 198.836 129.343C198.539 129.343 198.262 129.414 198.006 129.555C197.757 129.697 197.558 129.909 197.409 130.192C197.261 130.469 197.187 130.809 197.187 131.214C197.187 131.814 197.339 132.279 197.642 132.609C197.952 132.933 198.34 133.095 198.805 133.095Z" fill="#307DC4"/>
<path d="M210.119 128.433L208.39 134.005H207.176L206.054 129.889L204.931 134.005H203.717L201.978 128.433H203.151L204.314 132.913L205.497 128.433H206.701L207.834 132.893L208.986 128.433H210.119Z" fill="#307DC4"/>
</svg>
