<svg width="20" height="21" viewBox="0 0 20 21" fill="none" xmlns="http://www.w3.org/2000/svg">
<path d="M19.0811 10.5007L19.9586 8.2121C20.0549 7.95962 19.9799 7.67339 19.7686 7.50215L17.8662 5.95976L17.4812 3.53867C17.4387 3.27119 17.2287 3.06246 16.9612 3.01996L14.54 2.63499L12.9988 0.731369C12.8288 0.520133 12.5363 0.445139 12.2901 0.541382L10.0002 1.42007L7.71148 0.542632C7.45774 0.445139 7.174 0.522633 7.00275 0.732619L5.4603 2.63624L3.03912 3.02121C2.77288 3.06371 2.56288 3.27369 2.52038 3.53992L2.1354 5.96101L0.231703 7.5034C0.0217092 7.67339 -0.0545385 7.95962 0.0417086 8.2121L0.919183 10.5007L0.0417086 12.7893C-0.0557885 13.0418 0.0217092 13.328 0.231703 13.498L2.1354 15.0391L2.52038 17.4602C2.56288 17.7277 2.77163 17.9377 3.03912 17.9802L5.4603 18.3652L7.00275 20.2675C7.174 20.48 7.46024 20.555 7.71273 20.4575L10.0002 19.5813L12.2888 20.4588C12.3613 20.4863 12.4363 20.5 12.5126 20.5C12.6963 20.5 12.8776 20.4188 12.9988 20.2675L14.54 18.3652L16.9612 17.9802C17.2287 17.9377 17.4387 17.7277 17.4812 17.4602L17.8662 15.0391L19.7686 13.498C19.9799 13.3267 20.0549 13.0418 19.9586 12.7893L19.0811 10.5007Z" fill="#EFBF43"/>
<path d="M8.12868 9.24906C7.09519 9.24906 6.25415 8.40802 6.25415 7.37453C6.25415 6.34104 7.09519 5.5 8.12868 5.5C9.16217 5.5 10.0032 6.34104 10.0032 7.37453C10.0032 8.40802 9.16217 9.24906 8.12868 9.24906ZM8.12868 6.74969C7.78377 6.74969 7.50384 7.02961 7.50384 7.37453C7.50384 7.71944 7.78377 7.99937 8.12868 7.99937C8.47359 7.99937 8.75352 7.71944 8.75352 7.37453C8.75352 7.02961 8.47359 6.74969 8.12868 6.74969Z" fill="#0D2542"/>
<path d="M11.8777 15.4973C10.8442 15.4973 10.0032 14.6563 10.0032 13.6228C10.0032 12.5893 10.8442 11.7483 11.8777 11.7483C12.9112 11.7483 13.7522 12.5893 13.7522 13.6228C13.7522 14.6563 12.9112 15.4973 11.8777 15.4973ZM11.8777 12.998C11.534 12.998 11.2529 13.2792 11.2529 13.6228C11.2529 13.9665 11.534 14.2477 11.8777 14.2477C12.2214 14.2477 12.5025 13.9665 12.5025 13.6228C12.5025 13.2792 12.2214 12.998 11.8777 12.998Z" fill="#0D2542"/>
<path d="M6.87941 15.4974C6.75319 15.4974 6.62698 15.46 6.517 15.3812C6.23582 15.18 6.17084 14.7901 6.37204 14.5089L12.6205 5.76114C12.8217 5.47997 13.2116 5.41498 13.4927 5.61618C13.7739 5.81613 13.8377 6.20728 13.6377 6.48721L7.38928 15.235C7.26557 15.4062 7.07436 15.4974 6.87941 15.4974Z" fill="#0D2542"/>
</svg>
