<svg width="202" height="144" viewBox="0 0 202 144" fill="none" xmlns="http://www.w3.org/2000/svg">
<g clip-path="url(#clip0_450_228)">
<path d="M77.8672 139.275C76.9406 139.587 50.3697 139.67 49.3516 139.045C48.9539 138.808 48.7272 134.964 48.5562 130.31C48.5204 129.306 48.4925 128.267 48.4687 127.216L46.3489 113.135L64.1145 113.021L65.7889 127.106L65.7212 130.203C65.7212 130.203 75.9105 134.687 76.9525 135.501C77.9945 136.315 78.7939 138.962 77.8672 139.275Z" fill="#FCD2C9"/>
<path d="M77.8673 139.275C76.9406 139.587 50.3698 139.67 49.3516 139.045C48.8823 138.753 48.6278 133.139 48.4846 127.216L65.769 127.106L65.7014 130.203C65.7014 130.203 75.8907 134.688 76.9327 135.501C77.9747 136.315 78.794 138.962 77.8673 139.275Z" fill="white"/>
<path d="M77.8672 139.275C76.9406 139.587 50.3697 139.67 49.3516 139.046C48.9539 138.809 48.7272 134.964 48.5562 130.31L65.6854 130.203C65.6854 130.203 75.8747 134.688 76.9167 135.502C77.9587 136.315 78.7939 138.963 77.8672 139.275Z" fill="#A6A6A6"/>
<path d="M77.4814 138.22C73.0271 138.125 55.0507 138.168 50.6401 138.413C50.6043 138.413 50.6043 138.437 50.6401 138.441C55.0547 138.627 73.0311 138.441 77.4814 138.291C77.5769 138.287 77.5769 138.22 77.4814 138.22Z" fill="#263238"/>
<path d="M75.2185 134.557C74.7232 134.546 74.231 134.637 73.773 134.825C73.315 135.013 72.9012 135.293 72.5578 135.648C71.9321 136.281 71.5784 137.131 71.5715 138.018C71.5715 138.046 71.6192 138.046 71.6232 138.018C71.7711 137.144 72.1996 136.341 72.8447 135.729C73.4898 135.116 74.3169 134.728 75.2026 134.621C75.211 134.623 75.22 134.621 75.2274 134.617C75.2349 134.612 75.2403 134.605 75.2424 134.597C75.2445 134.588 75.2432 134.58 75.2387 134.572C75.2342 134.565 75.227 134.559 75.2185 134.557Z" fill="#263238"/>
<path d="M67.4274 130.638C65.6457 130.618 63.5816 131.25 62.476 132.704C62.4362 132.76 62.5157 132.819 62.5674 132.791C64.1241 131.975 65.764 131.326 67.4592 130.855C67.4855 130.848 67.5081 130.832 67.523 130.809C67.5379 130.787 67.544 130.759 67.5401 130.733C67.5361 130.706 67.5225 130.681 67.5018 130.664C67.481 130.647 67.4546 130.637 67.4274 130.638Z" fill="#263238"/>
<path d="M68.8115 131.163C67.0258 131.163 64.9617 131.78 63.86 133.23C63.8163 133.289 63.8958 133.348 63.9515 133.321C65.5059 132.501 67.1447 131.851 68.8393 131.381C68.8652 131.374 68.8877 131.358 68.9025 131.335C68.9174 131.313 68.9237 131.286 68.9204 131.26C68.917 131.234 68.9041 131.209 68.8841 131.191C68.8641 131.174 68.8383 131.164 68.8115 131.163Z" fill="#263238"/>
<path d="M70.1876 131.693C68.4058 131.693 66.3417 132.305 65.2361 133.759C65.1963 133.814 65.2759 133.874 65.3276 133.846C66.8843 133.03 68.5241 132.381 70.2194 131.91C70.2456 131.903 70.2683 131.886 70.2832 131.864C70.298 131.841 70.3041 131.814 70.3002 131.787C70.2963 131.761 70.2827 131.736 70.2619 131.719C70.2412 131.701 70.2147 131.692 70.1876 131.693Z" fill="#263238"/>
<path d="M71.5676 132.222C69.7819 132.202 67.7178 132.835 66.6161 134.288C66.5724 134.344 66.6559 134.403 66.7076 134.375C68.264 133.558 69.9039 132.909 71.5994 132.439C71.6256 132.432 71.6483 132.416 71.6632 132.393C71.6781 132.371 71.6841 132.344 71.6802 132.317C71.6763 132.29 71.6627 132.266 71.642 132.248C71.6212 132.231 71.5948 132.222 71.5676 132.222Z" fill="#263238"/>
<path d="M51.7617 134.206C49.7731 134.206 49.7731 137.307 51.7617 137.295C53.7502 137.283 53.7661 134.194 51.7617 134.206Z" fill="#263238"/>
<path d="M69.3404 125.905C68.4376 125.162 67.3001 125.905 66.7473 126.667C65.8271 128.015 65.2786 129.579 65.1565 131.203C65.1565 131.238 65.1843 131.254 65.2122 131.254C65.2192 131.288 65.2343 131.319 65.256 131.345C65.2778 131.372 65.3056 131.393 65.3372 131.406C65.3687 131.42 65.4031 131.426 65.4374 131.423C65.4717 131.421 65.505 131.41 65.5343 131.392C66.799 130.519 68.2626 129.737 69.2211 128.5C69.7659 127.781 70.2114 126.596 69.3404 125.905ZM67.1689 129.674C66.5564 130.12 65.9241 130.535 65.3275 131.005C65.6457 130.12 65.9201 129.227 66.3258 128.374C66.5132 127.965 66.7284 127.569 66.97 127.189C67.3678 126.6 69.1018 125.114 69.2847 127.039C69.3881 128.093 67.8967 129.144 67.1689 129.674Z" fill="#263238"/>
<path d="M60.7181 131.875C62.2692 132.104 63.8719 131.661 65.3952 131.42C65.4282 131.412 65.4588 131.395 65.4845 131.373C65.5101 131.351 65.5302 131.323 65.5429 131.291C65.5557 131.26 65.5608 131.225 65.558 131.192C65.5551 131.158 65.5443 131.125 65.5264 131.096C65.5322 131.092 65.5369 131.086 65.5401 131.08C65.5433 131.073 65.545 131.066 65.545 131.059C65.545 131.051 65.5433 131.044 65.5401 131.038C65.5369 131.031 65.5322 131.026 65.5264 131.021C64.3025 129.937 62.8129 129.191 61.2073 128.86C60.2687 128.682 58.9404 128.939 58.821 130.097C58.6779 131.187 59.8113 131.732 60.7181 131.875ZM59.6363 130.871C58.4432 129.354 60.7221 129.223 61.4061 129.381C61.85 129.492 62.2858 129.632 62.7106 129.8C63.5805 130.159 64.4314 130.561 65.2599 131.005C64.5043 131.08 63.7606 131.215 63.0089 131.317C62.1101 131.436 60.3045 131.705 59.6363 130.871Z" fill="#263238"/>
<path d="M20.2274 48.0513C20.2274 48.0513 40.8565 82.9144 41.4094 85.364C42.2565 89.1253 46.7466 126.268 46.7466 126.268L68.2229 125.873C68.2229 125.873 64.5242 93.1236 61.0204 82.3336C58.4989 74.5621 40.2918 48.7861 40.2918 48.7861L20.2274 48.0513Z" fill="#37474F"/>
<path d="M66.2701 122.617C63.1879 122.594 52.2629 122.471 48.1585 122.851C48.1267 122.851 48.1307 122.906 48.1585 122.91C49.5704 123.111 63.1839 122.799 66.2662 122.7C66.2726 122.703 66.2795 122.704 66.2863 122.703C66.2931 122.702 66.2996 122.7 66.3053 122.696C66.311 122.692 66.3157 122.687 66.3191 122.681C66.3225 122.675 66.3244 122.668 66.3247 122.662C66.325 122.655 66.3238 122.648 66.321 122.642C66.3182 122.636 66.314 122.63 66.3086 122.626C66.3033 122.622 66.2971 122.619 66.2904 122.617C66.2837 122.616 66.2768 122.616 66.2701 122.617Z" fill="#263238"/>
<path d="M23.7472 51.2515C25.0994 53.3573 26.5311 55.4197 27.9072 57.5098C29.2833 59.5998 30.6673 61.6899 32.0314 63.776C34.7517 67.9903 37.4031 72.2323 39.9856 76.5019C41.2459 78.4811 42.3241 80.569 43.207 82.7405C44.013 84.9124 44.6186 87.1526 45.0166 89.4334C45.4382 91.721 45.7166 94.0323 45.9751 96.3436C46.2402 98.801 46.5173 101.26 46.8063 103.72C47.371 108.753 47.9371 113.787 48.5045 118.82C48.5721 119.437 48.6397 120.053 48.7034 120.673C48.7034 120.764 48.5482 120.78 48.5363 120.673C47.904 115.676 47.379 110.658 46.8063 105.66C46.5199 103.166 46.2349 100.672 45.9512 98.1807C45.6847 95.8615 45.4302 93.5384 45.0683 91.235C44.7362 88.9614 44.231 86.7161 43.557 84.5184C42.8144 82.2428 41.8193 80.0564 40.5901 77.9993C38.1044 73.7363 35.4716 69.5483 32.8388 65.3563C30.2059 61.1644 27.5015 56.9369 24.7255 52.7963C24.3835 52.2866 24.0375 51.7769 23.6795 51.2752C23.6517 51.2475 23.7233 51.212 23.7472 51.2515Z" fill="#263238"/>
<path d="M26.9885 141.329C26.0101 141.27 0.739718 131.1 0.0397519 130.136C0.00857611 130.079 -0.00524588 130.015 -1.82966e-05 129.95C-1.82966e-05 129.085 1.75388 126.067 3.21744 122.1C3.30892 121.847 3.96116 120.67 4.86396 119.085C7.37349 114.743 11.7483 107.264 11.7483 107.264L28.2651 113.783L20.3587 125.537L19.1297 128.382C19.1297 128.382 26.8811 136.343 27.5333 137.469C28.1856 138.595 27.9629 141.385 26.9885 141.329Z" fill="#FCD2C9"/>
<path d="M26.9885 141.329C26.0101 141.27 0.739718 131.1 0.0397519 130.136C0.00857611 130.079 -0.00524588 130.015 -1.82966e-05 129.95C-1.82966e-05 129.085 1.75388 126.067 3.21744 122.1C3.30892 121.847 3.96116 120.67 4.86396 119.085L20.3746 125.537L19.1457 128.382C19.1457 128.382 26.897 136.343 27.5492 137.469C28.2015 138.595 27.9629 141.384 26.9885 141.329Z" fill="white"/>
<path d="M26.9885 141.329C26.0101 141.27 0.739704 131.1 0.0397379 130.136C-0.230704 129.769 0.898788 126.343 3.2214 122.1L19.1297 128.386C19.1297 128.386 26.8811 136.339 27.5373 137.473C28.1935 138.607 27.9628 141.384 26.9885 141.329Z" fill="#A6A6A6"/>
<path d="M27.0283 140.207C22.9358 138.461 6.25596 131.799 2.07604 130.385C2.04025 130.385 2.0323 130.385 2.07604 130.409C6.09687 132.226 22.8285 138.753 27.0124 140.286C27.0919 140.306 27.1158 140.243 27.0283 140.207Z" fill="#263238"/>
<path d="M26.3123 135.968C25.8585 135.77 25.3683 135.667 24.8726 135.667C24.377 135.667 23.8867 135.77 23.4329 135.968C22.617 136.323 21.9703 136.976 21.6273 137.793C21.6273 137.817 21.6631 137.837 21.675 137.813C22.1439 137.055 22.8473 136.469 23.6797 136.142C24.5122 135.815 25.4289 135.765 26.2924 135.999C26.2991 135.998 26.3049 135.993 26.3085 135.987C26.3122 135.982 26.3136 135.975 26.3123 135.968Z" fill="#263238"/>
<path d="M20.5734 129.433C18.9309 128.749 16.7753 128.567 15.2044 129.504C15.1447 129.539 15.2044 129.622 15.2561 129.618C17.0073 129.442 18.7725 129.451 20.5217 129.646C20.5486 129.649 20.5757 129.642 20.5978 129.627C20.62 129.611 20.6357 129.588 20.642 129.562C20.6484 129.536 20.6449 129.508 20.6323 129.484C20.6196 129.461 20.5987 129.442 20.5734 129.433Z" fill="#263238"/>
<path d="M21.6512 130.436C20.0086 129.753 17.8531 129.571 16.2821 130.507C16.2225 130.543 16.2821 130.626 16.3338 130.622C18.085 130.444 19.8503 130.453 21.5995 130.65C21.6264 130.653 21.6535 130.646 21.6756 130.63C21.6977 130.615 21.7134 130.592 21.7198 130.566C21.7261 130.539 21.7226 130.512 21.71 130.488C21.6974 130.464 21.6765 130.446 21.6512 130.436Z" fill="#263238"/>
<path d="M22.733 131.44C21.0865 130.756 18.9309 130.575 17.3639 131.511C17.3003 131.546 17.3639 131.629 17.4117 131.625C19.1628 131.447 20.9282 131.456 22.6773 131.653C22.7048 131.658 22.733 131.652 22.7563 131.637C22.7797 131.622 22.7965 131.599 22.8035 131.572C22.8105 131.545 22.8071 131.517 22.7941 131.492C22.781 131.468 22.7592 131.449 22.733 131.44Z" fill="#263238"/>
<path d="M23.8108 132.443C22.1642 131.76 20.0126 131.578 18.4417 132.511C18.3781 132.55 18.4417 132.633 18.4894 132.629C20.2405 132.451 22.0059 132.46 23.7551 132.657C23.7825 132.661 23.8107 132.656 23.8341 132.641C23.8575 132.625 23.8743 132.602 23.8813 132.576C23.8883 132.549 23.8849 132.52 23.8718 132.496C23.8588 132.471 23.837 132.453 23.8108 132.443Z" fill="#263238"/>
<path d="M4.70094 126.9C2.84364 126.165 1.69029 129.038 3.55554 129.773C5.42079 130.507 6.57812 127.635 4.70094 126.9Z" fill="#263238"/>
<path d="M24.1329 125.758C23.5721 124.735 22.2477 124.988 21.4404 125.498C20.0804 126.403 18.9833 127.647 18.2587 129.105C18.2555 129.111 18.2539 129.118 18.2538 129.125C18.2537 129.133 18.2553 129.14 18.2583 129.146C18.2614 129.153 18.2659 129.158 18.2715 129.163C18.277 129.167 18.2836 129.17 18.2905 129.172C18.2905 129.302 18.378 129.457 18.5332 129.425C20.0405 129.081 21.691 128.903 23.0432 128.113C23.8187 127.655 24.6618 126.726 24.1329 125.758ZM20.6927 128.441C19.957 128.627 19.2172 128.777 18.4894 128.99C19.0914 128.27 19.7299 127.58 20.4024 126.924C20.7334 126.611 21.0856 126.32 21.4563 126.055C22.033 125.66 24.2124 124.929 23.6556 126.782C23.3494 127.805 21.5716 128.22 20.6927 128.441Z" fill="#263238"/>
<path d="M13.884 128.078C15.2362 128.868 16.8867 129.054 18.39 129.401C18.5451 129.437 18.6485 129.283 18.6366 129.148C18.644 129.148 18.6512 129.145 18.6573 129.141C18.6634 129.136 18.6683 129.13 18.6715 129.124C18.6747 129.117 18.6761 129.109 18.6755 129.102C18.675 129.095 18.6725 129.087 18.6684 129.081C17.945 127.62 16.8478 126.373 15.4867 125.466C14.6913 124.952 13.359 124.696 12.7942 125.715C12.2295 126.734 13.0925 127.615 13.884 128.078ZM13.2635 126.742C12.7107 124.889 14.8862 125.624 15.4629 126.023C15.8332 126.289 16.184 126.581 16.5128 126.896C17.184 127.554 17.8212 128.245 18.4218 128.967C17.694 128.753 16.9543 128.599 16.2185 128.413C15.3276 128.176 13.5658 127.781 13.2635 126.742Z" fill="#263238"/>
<path d="M21.6433 124.881L3.15381 117.466C3.15381 117.466 26.0777 83.9813 26.2447 81.4882C26.3959 79.2836 16.3259 60.0741 15.9322 54.4756C15.5027 48.4307 18.4298 43.7567 21.6512 40.8528L40.7213 48.9088C40.7213 48.9088 38.7089 52.1051 35.5511 53.8869C35.5511 53.8869 45.3308 76.0912 44.774 82.9185C44.2172 89.7457 21.6433 124.881 21.6433 124.881Z" fill="#37474F"/>
<path d="M22.4625 121.389C19.7899 120.247 20.5734 120.535 17.8849 119.413C16.5725 118.868 7.94221 115.3 6.61386 115.004C6.58602 115.004 6.56614 115.043 6.59397 115.059C7.74335 115.759 16.4452 119.176 17.7696 119.698C20.478 120.756 19.7104 120.425 22.4307 121.452C22.4348 121.457 22.4402 121.461 22.4464 121.464C22.4526 121.467 22.4594 121.468 22.4661 121.467C22.4729 121.467 22.4793 121.465 22.4849 121.461C22.4905 121.457 22.4951 121.452 22.4981 121.446C22.5011 121.44 22.5026 121.433 22.5023 121.426C22.502 121.42 22.4999 121.413 22.4964 121.407C22.4928 121.402 22.4878 121.397 22.4819 121.394C22.476 121.39 22.4693 121.389 22.4625 121.389Z" fill="#263238"/>
<path d="M38.6771 53.4798C36.6917 53.9396 34.7492 54.5661 32.8706 55.3526C32.863 55.3552 32.856 55.3592 32.85 55.3645C32.844 55.3698 32.8391 55.3762 32.8356 55.3833C32.8321 55.3905 32.8301 55.3983 32.8296 55.4062C32.8291 55.4142 32.8302 55.4221 32.8328 55.4296C32.8354 55.4372 32.8395 55.4441 32.8448 55.4501C32.8501 55.456 32.8566 55.4609 32.8638 55.4644C32.871 55.4678 32.8788 55.4699 32.8868 55.4704C32.8948 55.4709 32.9028 55.4698 32.9104 55.4672C34.8591 54.9022 36.8397 54.3728 38.7567 53.7051C38.9038 53.6537 38.8283 53.4482 38.6771 53.4798Z" fill="#263238"/>
<path d="M36.4062 52.7134C36.2209 53.0409 36.0575 53.3801 35.9171 53.7288C35.7798 53.9935 35.6947 54.2819 35.6665 54.5783C35.6665 54.6375 35.746 54.6494 35.7818 54.6138C35.9814 54.3767 36.1424 54.1101 36.2591 53.8236C36.4221 53.5115 36.5892 53.2033 36.7443 52.8833C36.8517 52.6502 36.5295 52.5001 36.4062 52.7134Z" fill="#263238"/>
<path d="M36.6448 50.9197C36.7641 50.6273 36.8794 50.3389 37.0027 50.0465C37.126 49.7541 37.2811 49.4539 37.4004 49.1457C37.4004 49.0983 37.4959 49.1457 37.476 49.1812C37.3567 49.4736 37.2811 49.7818 37.1896 50.0821C37.0981 50.3823 36.9947 50.6826 36.8953 50.9829C36.7084 51.54 36.4976 52.0931 36.2391 52.6344C36.552 52.6499 36.8645 52.5959 37.1538 52.4763C37.4493 52.2885 37.6765 52.0115 37.8021 51.6861C37.9691 51.3622 38.1242 51.0303 38.2953 50.7063C38.5058 50.356 38.6828 49.987 38.8242 49.604C38.8242 49.5566 38.9197 49.604 38.8998 49.6395C38.6405 50.4494 38.3007 51.2315 37.8856 51.9746C37.7066 52.263 37.5674 52.5672 37.2413 52.6778C36.8883 52.7759 36.5189 52.8014 36.1556 52.7529C36.1079 52.7529 36.0522 52.7529 36.0681 52.6818C36.2309 52.0853 36.4234 51.4972 36.6448 50.9197Z" fill="#263238"/>
<path d="M35.8334 54.6099C36.5135 56.0362 37.1101 57.4585 37.7424 58.8809C38.3748 60.3032 38.9356 61.6781 39.5043 63.0926C40.6417 65.9452 41.6599 68.853 42.5547 71.7846C42.9962 73.2386 43.4058 74.7044 43.7717 76.182C44.1747 77.655 44.4698 79.155 44.6546 80.6703C44.8142 82.1831 44.6792 83.7123 44.2569 85.1744C43.8183 86.6196 43.2554 88.0248 42.5746 89.3742C42.157 90.2276 42.0178 90.1131 42.2167 89.6824C42.7854 88.4576 44.2768 84.7477 44.1694 81.6304C44.0824 80.138 43.8507 78.6574 43.4774 77.2093C43.1301 75.7158 42.739 74.2342 42.3042 72.7645C41.457 69.8645 40.4508 67.0238 39.4168 64.187C38.8361 62.6066 38.2237 61.0262 37.6271 59.4458C37.0305 57.8655 36.434 56.4115 35.7658 54.6652C35.7459 54.5941 35.8136 54.5664 35.8334 54.6099Z" fill="#263238"/>
<path d="M21.7984 49.8964C22.1285 49.7739 22.5938 49.9754 22.9279 50.0307C23.3605 50.1036 23.7977 50.1472 24.2363 50.1611C24.6703 50.1763 25.1049 50.1617 25.5368 50.1176C25.9719 50.1065 26.3982 49.9941 26.7817 49.7897C27.4108 49.3344 27.9501 48.7679 28.3725 48.1184C28.8759 47.4548 29.2916 46.7298 29.6094 45.9612C29.6094 45.9138 29.6929 45.9612 29.677 45.9928C29.5378 46.4314 29.4344 46.8739 29.2793 47.3045C29.1078 47.7092 28.903 48.099 28.6668 48.4701C28.2839 49.2168 27.7176 49.8554 27.0203 50.327C26.2527 50.7616 25.2664 50.7221 24.4113 50.6865C23.9154 50.6578 23.4223 50.5931 22.9358 50.493C22.5858 50.4179 21.9972 50.3626 21.7745 50.0583C21.764 50.0467 21.7563 50.0329 21.7517 50.018C21.7472 50.003 21.746 49.9873 21.7483 49.9718C21.7506 49.9564 21.7563 49.9416 21.7649 49.9286C21.7736 49.9155 21.785 49.9045 21.7984 49.8964Z" fill="#263238"/>
<path d="M8.43141 113.953C11.4699 109.38 14.4527 104.771 17.3798 100.125C20.307 95.4784 23.1943 90.7965 26.0419 86.0791C26.722 84.9531 27.5055 83.831 27.943 82.5825C28.4202 81.2274 28.1498 79.9117 27.7203 78.5842C26.9092 76.1624 25.9611 73.7881 24.8806 71.4725C23.8148 69.1375 22.6654 66.842 21.5359 64.5386C20.4064 62.2352 19.2252 59.9594 18.3542 57.5573C17.5588 55.2618 17.2367 52.8833 17.8571 50.5048C18.4775 48.1264 19.8138 46.0245 21.2098 44.045C21.5757 43.5235 21.9535 43.0059 22.3234 42.4647C22.3512 42.4251 22.4109 42.4647 22.383 42.5121C20.8439 44.5745 19.3445 46.7593 18.4417 49.1813C17.9803 50.3751 17.7222 51.6369 17.6781 52.9149C17.6706 54.2122 17.8734 55.5022 18.2787 56.7355C19.0264 59.1376 20.2075 61.4094 21.3092 63.6694C22.4108 65.9293 23.5881 68.2683 24.6738 70.5954C25.7939 72.9375 26.7896 75.3364 27.6566 77.7821C28.0265 78.8686 28.452 80.0065 28.4202 81.172C28.3924 82.4482 27.7799 83.5979 27.1436 84.6726C24.3596 89.3545 21.5081 93.981 18.6048 98.5799C15.7015 103.179 12.7147 107.778 9.69214 112.329L8.54674 114.048C8.48709 114.119 8.38368 114.036 8.43141 113.953Z" fill="#263238"/>
<path d="M41.7792 27.613C43.5013 31.3664 52.1992 36.5382 56.2717 37.0953C59.1988 37.4904 68.0995 37.6326 71.1499 37.1703C74.7293 36.6251 71.9931 27.0441 69.8813 27.293C64.0747 27.9646 59.1431 28.7153 57.5921 28.7153C55.699 28.7153 45.458 25.4518 44.2251 24.9896C41.2025 23.8714 40.8048 25.4834 41.7792 27.613Z" fill="#FCD2C9"/>
<path d="M41.8349 28.6126C44.0144 31.8168 51.2566 37.0557 51.2566 37.0557L52.2628 34.8432L55.5917 27.526C55.5917 27.526 48.938 25.4518 44.5592 24.5036C44.0439 24.3871 43.5198 24.3131 42.9923 24.2823C40.1964 24.1322 39.9538 25.8469 41.8349 28.6126Z" fill="#DFF0FF"/>
<path d="M41.8349 28.6127C44.0144 31.8169 51.2566 37.0558 51.2566 37.0558L52.2629 34.8433C49.5624 31.726 45.3904 27.0046 42.9923 24.2903C40.1964 24.1323 39.9538 25.847 41.8349 28.6127Z" fill="#263238"/>
<path d="M49.9522 35.5703C50.505 34.223 52.9628 28.7984 53.5753 27.6684C53.6151 27.5894 53.6787 27.5973 53.6429 27.6684C52.5768 30.3661 51.3633 33.0039 50.0079 35.5703C49.992 35.6177 49.9283 35.6019 49.9522 35.5703Z" fill="#263238"/>
<path d="M68.8154 27.3918C72.3471 26.9335 76.7179 26.1473 80.4206 27.7079C80.8364 27.8699 81.1853 28.1664 81.4109 28.5494C83.0812 29.2211 83.2642 30.2049 83.2642 30.2049C84.6283 31.3032 84.676 32.3384 84.676 32.3384C84.676 32.3384 86.6328 33.1286 86.3345 34.4008C86.0084 35.8073 83.3278 34.4008 81.379 34.5154C76.9048 34.7919 70.6409 36.4237 69.3484 36.6291L68.8154 27.3918Z" fill="#FCD2C9"/>
<path d="M76.4872 31.5324C77.7954 31.4435 79.1083 31.4435 80.4165 31.5324C81.8412 31.71 83.2505 31.9939 84.6322 32.3818C84.6412 32.385 84.6511 32.3845 84.6596 32.3804C84.6682 32.3763 84.6748 32.369 84.678 32.3601C84.6811 32.3512 84.6806 32.3414 84.6765 32.3329C84.6724 32.3244 84.6651 32.3178 84.6561 32.3147C82.0602 31.3029 79.2345 31.0186 76.4872 31.4929C76.4235 31.485 76.4235 31.5363 76.4872 31.5324Z" fill="#263238"/>
<path d="M75.656 27.4273C77.8394 27.538 79.2035 27.8857 81.3989 28.5415V28.5178C78.9808 27.5143 77.9905 27.4194 75.644 27.3325C75.5685 27.3641 75.5725 27.4273 75.656 27.4273Z" fill="#263238"/>
<path d="M76.01 35.187C75.4413 35.4517 75.5805 35.748 76.6662 35.997C77.752 36.2459 82.266 36.3209 82.1069 37.8855C81.9478 39.4501 75.5805 39.2525 73.8027 38.6994C72.025 38.1463 69.3484 36.6291 69.3484 36.6291C70.6091 36.4197 73.5681 35.6256 76.01 35.187Z" fill="#FCD2C9"/>
<path d="M46.508 33.5947C46.4802 34.2703 46.4165 34.9578 46.3211 35.6413C46.3211 35.6136 46.3211 35.5899 46.3489 35.5662C46.4802 35.2106 46.6114 34.8472 46.7705 34.5034C46.7705 34.5034 46.8103 34.5034 46.8063 34.5034C46.7298 34.8801 46.6153 35.2481 46.4643 35.6018C46.3927 35.7717 46.3251 35.9376 46.2495 36.1036C46.2018 36.4078 46.1461 36.708 46.0864 37.0083C45.9671 37.5733 45.4302 39.9755 45.291 40.3824C45.2672 40.4654 45.1637 40.4456 45.1717 40.3508C45.1995 39.9083 45.649 37.4074 45.7404 36.8384C45.9181 35.7399 46.1557 34.6518 46.4523 33.5789C46.4722 33.5591 46.512 33.5749 46.508 33.5947Z" fill="#263238"/>
<path d="M42.3719 51.5596C41.31 52.1009 39.9419 52.9425 33.7774 51.7374C33.3797 51.6584 33.0058 51.5636 32.6161 51.449C26.8374 49.7264 19.8894 42.9742 19.5116 42.4962C19.5116 42.4962 28.6947 27.7078 40.439 23.0575C41.8906 22.4846 44.2928 23.5909 45.6092 24.9698C46.0825 25.4637 47.1125 29.0946 46.7188 32.0341C46.3251 34.9736 43.4298 51.0184 42.3719 51.5596Z" fill="#DFF0FF"/>
<path d="M41.5446 31.8999C41.589 32.5248 41.5009 33.152 41.2861 33.741C41.2357 33.1159 41.3239 32.4874 41.5446 31.8999Z" fill="white"/>
<path d="M37.5397 41.9707C37.565 42.2817 37.5543 42.5945 37.5078 42.9031C37.4695 43.214 37.3934 43.5192 37.2811 43.8118C37.2538 43.4996 37.2644 43.1852 37.313 42.8755C37.3536 42.5663 37.4297 42.2627 37.5397 41.9707Z" fill="white"/>
<path d="M30.7348 34.3574C30.78 34.9824 30.6919 35.6098 30.4763 36.1986C30.4267 35.5735 30.5149 34.9452 30.7348 34.3574Z" fill="white"/>
<path d="M44.1655 41.4573C44.1909 41.7696 44.1802 42.0838 44.1337 42.3937C44.0954 42.7046 44.0193 43.0097 43.907 43.3024C43.8796 42.9901 43.8903 42.6757 43.9388 42.366C43.979 42.0554 44.0551 41.7505 44.1655 41.4573Z" fill="white"/>
<path d="M35.4279 33.0535C35.7408 33.0271 36.0557 33.0363 36.3664 33.0812C36.6796 33.1206 36.9867 33.1975 37.2812 33.3103C36.6521 33.3552 36.0206 33.2677 35.4279 33.0535Z" fill="white"/>
<path d="M27.7043 40.3273C28.3334 40.2832 28.9648 40.3707 29.5577 40.5841C28.9284 40.6342 28.2958 40.5465 27.7043 40.3273Z" fill="white"/>
<path d="M36.804 48.2014C37.433 48.1565 38.0646 48.244 38.6573 48.4582C38.0281 48.5075 37.3956 48.4199 36.804 48.2014Z" fill="white"/>
<path d="M25.322 45.3409C25.9511 45.2969 26.5824 45.3844 27.1753 45.5977C26.5461 45.6471 25.9136 45.5594 25.322 45.3409Z" fill="white"/>
<path d="M41.485 24.8197C42.114 24.7756 42.7454 24.8631 43.3383 25.0765C42.7093 25.1206 42.0779 25.0331 41.485 24.8197Z" fill="white"/>
<path d="M39.2379 27.3406C39.0368 27.5807 38.8071 27.7956 38.5538 27.9806C38.3074 28.1699 38.0406 28.3316 37.7584 28.4626C37.9582 28.2241 38.185 28.0093 38.4345 27.8226C38.6833 27.6326 38.9528 27.4709 39.2379 27.3406Z" fill="white"/>
<path d="M26.9925 34.5034C26.789 34.7414 26.558 34.9549 26.3044 35.1395C26.0605 35.3324 25.7933 35.4943 25.509 35.6215C25.7136 35.3845 25.9444 35.1712 26.1971 34.9854C26.4416 34.7934 26.7087 34.6315 26.9925 34.5034Z" fill="white"/>
<path d="M42.2844 37.7354C42.0809 37.9746 41.85 38.1894 41.5963 38.3754C41.3518 38.5675 41.0847 38.7293 40.8009 38.8574C41.0044 38.6182 41.2353 38.4033 41.4889 38.2174C41.7348 38.0272 42.0017 37.8655 42.2844 37.7354Z" fill="white"/>
<path d="M32.3814 43.9304C32.178 44.1697 31.947 44.3845 31.6934 44.5705C31.4485 44.762 31.1814 44.9238 30.8979 45.0525C31.1014 44.8132 31.3323 44.5984 31.586 44.4124C31.8319 44.2223 32.0987 44.0606 32.3814 43.9304Z" fill="white"/>
<path d="M46.0784 29.2725C45.875 29.5117 45.6441 29.7265 45.3904 29.9125C45.144 30.1018 44.8772 30.2635 44.595 30.3945C44.7984 30.1553 45.0293 29.9405 45.283 29.7545C45.5279 29.563 45.795 29.4012 46.0784 29.2725Z" fill="white"/>
<path d="M45.8717 36.4512C45.6308 36.2491 45.4146 36.0197 45.2274 35.7677C45.0338 35.525 44.8709 35.2596 44.7422 34.9775C44.9839 35.1773 45.2002 35.4055 45.3865 35.6571C45.5765 35.9037 45.7392 36.17 45.8717 36.4512Z" fill="white"/>
<path d="M23.7988 41.398C23.558 41.1959 23.3417 40.9665 23.1545 40.7145C22.9631 40.4703 22.8003 40.2052 22.6693 39.9243C22.9102 40.1264 23.1264 40.3558 23.3136 40.6078C23.5064 40.8511 23.6693 41.1164 23.7988 41.398Z" fill="white"/>
<path d="M43.1871 47.2808C42.9454 47.081 42.7291 46.8529 42.5428 46.6012C42.3522 46.3564 42.1895 46.0914 42.0576 45.811C42.2985 46.0131 42.5147 46.2425 42.7019 46.4945C42.8938 46.737 43.0567 47.0009 43.1871 47.2808Z" fill="white"/>
<path d="M33.4712 30.5091C33.2304 30.3083 33.0142 30.0803 32.8269 29.8295C32.6371 29.5841 32.4744 29.3192 32.3417 29.0393C32.5834 29.239 32.7997 29.4672 32.986 29.7189C33.1757 29.9642 33.3384 30.2292 33.4712 30.5091Z" fill="white"/>
<path d="M33.6422 50.6312C33.4013 50.4291 33.1851 50.1997 32.9979 49.9477C32.8071 49.703 32.6444 49.438 32.5127 49.1575C32.7544 49.3572 32.9707 49.5854 33.157 49.837C33.3484 50.0827 33.5111 50.3491 33.6422 50.6312Z" fill="white"/>
<path d="M35.2926 38.7625C35.0541 38.5593 34.8393 38.33 34.6523 38.079C34.4582 37.8367 34.2952 37.5712 34.1671 37.2888C34.4067 37.491 34.6216 37.7204 34.8074 37.9723C35.0008 38.2152 35.1637 38.4806 35.2926 38.7625Z" fill="white"/>
<path d="M43.4576 28.909C41.9582 28.6324 40.5503 25.5546 40.3713 23.4843C40.3713 23.3421 41.0713 22.2161 41.8707 20.8056C42.3559 19.9482 42.8689 18.9802 43.2786 18.0636C43.3621 17.8779 43.8513 18.5061 43.8513 18.5061L44.9171 19.2963L48.4369 21.979C47.5987 22.9781 46.8868 24.0754 46.3171 25.2464C46.2608 25.3733 46.2182 25.5058 46.1898 25.6415C46.1882 25.6639 46.1882 25.6863 46.1898 25.7087C45.9711 26.491 44.9012 29.1737 43.4576 28.909Z" fill="#FCD2C9"/>
<path d="M46.1899 25.6612C46.1883 25.6836 46.1883 25.706 46.1899 25.7284C45.9809 25.6675 45.7774 25.5896 45.5814 25.4953C41.7276 23.7016 43.4258 18.5732 43.4258 18.5732L44.9371 19.316L48.4568 21.9987C47.6186 22.9979 46.9068 24.0952 46.337 25.2661C46.2739 25.3923 46.2246 25.5247 46.1899 25.6612Z" fill="#263238"/>
<path d="M52.4816 11.0625C52.4816 11.0625 54.2434 12.1727 54.2514 14.1482C54.2593 16.1237 53.4559 18.0557 53.2889 18.1268C53.1219 18.1979 52.4816 11.0625 52.4816 11.0625Z" fill="#263238"/>
<path d="M43.7399 12.0899C42.682 14.1641 42.7377 20.7029 44.0581 22.386C45.975 24.8277 49.6657 25.6693 51.8969 23.2552C54.0564 20.9163 53.8337 12.398 52.2946 10.8098C50.0555 8.4629 45.3069 9.01998 43.7399 12.0899Z" fill="#FCD2C9"/>
<path d="M49.3556 17.3247C49.3556 17.3247 49.3198 17.3484 49.3237 17.3642C49.3476 17.8107 49.2999 18.3243 48.8982 18.4823C48.8982 18.4823 48.8982 18.51 48.8982 18.506C49.3953 18.427 49.451 17.7435 49.3556 17.3247Z" fill="#263238"/>
<path d="M48.946 16.8704C48.2221 16.8309 48.1983 18.2691 48.8704 18.3046C49.5425 18.3402 49.5505 16.902 48.946 16.8704Z" fill="#263238"/>
<path d="M51.8094 17.3091C51.8094 17.3091 51.8452 17.3091 51.8452 17.3486C51.8214 17.795 51.8731 18.3087 52.2787 18.4628C52.2787 18.4628 52.2787 18.4904 52.2787 18.4865C51.7776 18.4114 51.718 17.7279 51.8094 17.3091Z" fill="#263238"/>
<path d="M52.2191 16.8508C52.9389 16.8074 52.9747 18.2455 52.3066 18.285C51.6384 18.3245 51.6146 16.8864 52.2191 16.8508Z" fill="#263238"/>
<path d="M48.4926 15.7761C48.6826 15.7224 48.8698 15.6591 49.0534 15.5865C49.2622 15.5489 49.4526 15.4433 49.5942 15.2862C49.6286 15.2287 49.643 15.1616 49.6351 15.0951C49.6272 15.0287 49.5974 14.9667 49.5505 14.9188C49.4429 14.8375 49.3154 14.7862 49.1811 14.7702C49.0469 14.7543 48.9108 14.7742 48.7869 14.8279C48.5185 14.8993 48.2862 15.0668 48.1347 15.2981C48.1044 15.3531 48.0906 15.4156 48.095 15.4781C48.0994 15.5407 48.1218 15.6007 48.1595 15.651C48.1971 15.7013 48.2485 15.7398 48.3076 15.762C48.3666 15.7842 48.4308 15.7891 48.4926 15.7761Z" fill="#263238"/>
<path d="M52.7122 16.4121C52.5187 16.3691 52.3276 16.3163 52.1395 16.254C51.9299 16.2265 51.7355 16.1306 51.5867 15.9814C51.5484 15.9265 51.5299 15.8603 51.5342 15.7936C51.5385 15.7269 51.5654 15.6636 51.6105 15.614C51.7131 15.5268 51.8374 15.4688 51.9704 15.4458C52.1033 15.4229 52.24 15.4359 52.3662 15.4836C52.6382 15.5396 52.8794 15.6946 53.0423 15.9182C53.0764 15.9711 53.0942 16.0327 53.0937 16.0955C53.0932 16.1584 53.0742 16.2197 53.0393 16.272C53.0043 16.3243 52.9547 16.3654 52.8967 16.3903C52.8386 16.4152 52.7745 16.4227 52.7122 16.4121Z" fill="#263238"/>
<path d="M48.3374 21.5483C48.4448 21.6549 48.5482 21.7972 48.7113 21.813C48.8784 21.8129 49.0438 21.7779 49.1965 21.7103C49.1965 21.7103 49.2243 21.7103 49.1965 21.734C49.1313 21.8208 49.0436 21.8884 48.9427 21.9295C48.8418 21.9705 48.7315 21.9835 48.6238 21.9671C48.5329 21.9425 48.4513 21.8919 48.3891 21.8217C48.3269 21.7514 48.2868 21.6646 48.2738 21.572C48.2706 21.5636 48.2709 21.5543 48.2747 21.5462C48.2784 21.538 48.2852 21.5317 48.2937 21.5285C48.3021 21.5254 48.3114 21.5257 48.3196 21.5294C48.3279 21.5331 48.3342 21.5399 48.3374 21.5483Z" fill="#263238"/>
<path d="M50.9384 19.644C50.9384 19.644 50.9583 20.3077 50.9384 20.6199C50.3273 20.5554 49.7101 20.5767 49.105 20.6831C48.9618 20.7147 48.9777 20.6001 49.1408 20.525C49.6282 20.3037 50.1711 20.2322 50.6998 20.3196C50.7316 20.2366 50.6481 19.2923 50.6998 19.2963C50.9404 19.3432 51.1732 19.423 51.3918 19.5333C51.3918 18.1426 51.1691 16.7677 51.189 15.377C51.189 15.3295 51.2645 15.3216 51.2725 15.377C51.5551 16.8482 51.6884 18.3439 51.6702 19.8415C51.6742 20.0114 51.0577 19.7072 50.9384 19.644Z" fill="#263238"/>
<path d="M50.0436 20.3828C49.885 20.797 49.5909 21.1463 49.2084 21.3745C48.6078 21.6155 48.413 21.0742 49.0175 20.5843C49.3345 20.4251 49.6894 20.3554 50.0436 20.3828Z" fill="#263238"/>
<path d="M49.4192 21.2522C49.3557 21.3035 49.2846 21.3448 49.2084 21.3747C48.6556 21.5959 48.4369 21.1573 48.8823 20.7148C49.1846 20.7385 49.5306 20.8492 49.4192 21.2522Z" fill="#FF99BA"/>
<path d="M43.4376 17.6804C44.1654 17.9017 45.0006 15.7286 45.2392 14.9147C45.4461 14.1799 45.6847 11.8449 45.7205 11.6829C45.7563 11.5209 48.9021 13.7492 50.7236 13.2198C52.5451 12.6904 53.782 11.0507 53.8099 10.2882C53.8377 9.52566 51.5588 7.5897 49.5902 7.49092C47.6215 7.39215 44.9529 9.86149 44.9529 9.86149C45.2752 9.49808 45.5678 9.10965 45.8278 8.69991C45.796 8.61299 44.5234 9.11871 44.2887 10.0195C44.2887 10.0195 44.5433 8.8856 44.4478 8.86585C44.3524 8.84609 43.3621 9.81408 43.5848 10.549C43.5848 10.549 42.4394 11.5327 42.336 12.6113C42.2326 13.69 42.5825 17.4196 43.4376 17.6804Z" fill="#263238"/>
<path d="M52.0282 12.8088C51.4865 13.1006 50.9031 13.3084 50.2982 13.4251C49.6192 13.4853 48.9358 13.3767 48.3096 13.1091C47.6788 12.867 47.0929 12.5225 46.5756 12.0897C46.1183 11.7183 45.7086 11.264 45.2195 10.9321C45.0962 10.8452 44.957 11.023 45.0325 11.1336C45.8487 12.2788 47.0146 13.1322 48.3574 13.5674C48.981 13.7694 49.6468 13.8071 50.2895 13.6769C50.9323 13.5467 51.53 13.2531 52.0242 12.8246C52.0242 12.8246 52.0362 12.8088 52.0282 12.8088Z" fill="#263238"/>
<path d="M44.1973 17.4868C44.1973 17.4868 43.0678 15.211 42.0496 15.5785C41.0315 15.9459 41.6519 19.0948 42.6979 19.6717C42.826 19.754 42.9696 19.8098 43.1199 19.8357C43.2703 19.8616 43.4243 19.8571 43.5729 19.8224C43.7215 19.7877 43.8614 19.7236 43.9844 19.6339C44.1074 19.5442 44.2109 19.4307 44.2887 19.3003L44.1973 17.4868Z" fill="#FCD2C9"/>
<path d="M42.2525 16.4753C42.2525 16.4753 42.2287 16.4753 42.2525 16.507C42.9764 16.9337 43.2707 17.6922 43.4457 18.4824C43.4127 18.3988 43.3619 18.3232 43.2967 18.261C43.2314 18.1988 43.1534 18.1514 43.0679 18.1221C42.9824 18.0928 42.8916 18.0823 42.8016 18.0913C42.7116 18.1003 42.6247 18.1286 42.5469 18.1742C42.523 18.1742 42.5469 18.2177 42.5469 18.2177C42.6891 18.1957 42.8348 18.2181 42.9637 18.2818C43.0926 18.3455 43.1985 18.4473 43.2667 18.5733C43.3805 18.7843 43.4712 19.0068 43.5371 19.237C43.561 19.3121 43.6922 19.2924 43.6803 19.2094C43.8513 18.2256 43.2945 16.7361 42.2525 16.4753Z" fill="#263238"/>
<path d="M36.7402 27.6487C35.9448 32.1251 40.8287 47.2058 43.9586 50.0229C48.6158 54.2109 57.2262 56.9647 60.3482 57.8615C61.7084 58.2566 65.4707 48.7467 64.0946 48.1185C61.1476 46.787 51.9923 43.9424 51.1214 43.2312C50.2504 42.52 45.0006 34.9856 42.6621 30.6474C39.5321 24.8079 37.134 25.3848 36.7402 27.6487Z" fill="#FCD2C9"/>
<path d="M61.776 47.2808C61.776 47.2808 65.8405 48.312 68.4614 49.1061C69.925 49.5526 72.3669 50.5363 73.2936 51.3502C74.6776 52.5711 79.6808 58.5449 78.249 59.7815C76.9525 60.9036 73.3095 55.2261 73.3095 55.2261C73.3095 55.2261 77.4934 60.631 75.6957 61.6938C73.8981 62.7566 70.6091 55.799 70.6091 55.799C70.6091 55.799 74.781 61.4488 72.7408 62.2509C71.1977 62.8554 67.8887 56.7196 67.8887 56.7196C67.8887 56.7196 71.4442 61.599 69.8773 62.2904C68.1512 63.0569 64.7429 57.5809 64.7429 57.5809C60.4794 58.6753 57.9818 57.4623 56.3393 56.3956C55.9535 56.1348 61.776 47.2808 61.776 47.2808Z" fill="#FCD2C9"/>
<path d="M71.9812 53.2627C72.4982 53.879 73.0232 54.5032 73.4806 55.1631C73.9379 55.8229 74.3714 56.5024 74.7652 57.2017C75.2986 58.1063 75.7257 59.0687 76.0378 60.0701C75.3538 58.3317 73.751 55.9414 73.2936 55.2816C72.8363 54.6218 72.4107 53.9383 71.9574 53.2785C71.9454 53.2626 71.9693 53.2468 71.9812 53.2627Z" fill="#263238"/>
<path d="M69.5511 54.8628C70.4341 55.5582 72.2834 58.1421 72.9953 59.8766C73.0271 59.9477 72.9953 59.9437 72.9436 59.8766C72.3868 59.0192 70.1278 55.7004 69.5313 54.8747C69.5193 54.8628 69.5392 54.851 69.5511 54.8628Z" fill="#263238"/>
<path d="M67.2166 55.8741C68.3137 57.0172 69.1804 58.3583 69.7699 59.825C69.7978 59.8962 69.7421 59.8843 69.6984 59.825C68.8751 58.4936 68.2388 57.4545 67.1729 55.9097C67.157 55.8741 67.1928 55.8385 67.2166 55.8741Z" fill="#263238"/>
<path d="M41.1786 27.9765C37.5476 22.8758 35.3761 24.7644 36.1039 30.3036C36.7879 35.4833 38.6134 41.6546 38.6134 41.6546L47.7607 37.2454C47.7607 37.2454 43.4893 31.2439 41.1786 27.9765Z" fill="#DFF0FF"/>
<path d="M43.386 29.9836C43.5065 30.2717 43.5933 30.5727 43.6445 30.8805C43.7003 31.1893 43.7203 31.5035 43.7041 31.8169C43.5848 31.5273 43.4994 31.225 43.4496 30.9161C43.3905 30.609 43.3691 30.2959 43.386 29.9836Z" fill="white"/>
<path d="M37.9652 33.0852C38.5489 32.8493 39.1771 32.7415 39.8066 32.7691C39.5165 32.8876 39.2135 32.9725 38.9038 33.022C38.5947 33.0806 38.2795 33.1019 37.9652 33.0852Z" fill="white"/>
<path d="M38.1998 25.1516C37.9536 25.729 37.5861 26.2476 37.1221 26.6727C37.3684 26.0953 37.7358 25.5767 38.1998 25.1516Z" fill="white"/>
<path d="M45.9512 35.4675C45.8305 35.7565 45.677 36.0309 45.4938 36.2854C45.3155 36.5431 45.1072 36.7792 44.8734 36.9886C45.1197 36.4112 45.4871 35.8927 45.9512 35.4675Z" fill="white"/>
<path d="M39.5878 38.5612C39.2963 38.4426 39.0199 38.2901 38.7646 38.1068C38.505 37.9298 38.2674 37.7229 38.0566 37.4905C38.3472 37.6111 38.6233 37.7635 38.8799 37.9448C39.1394 38.122 39.377 38.3289 39.5878 38.5612Z" fill="white"/>
<path d="M42.3718 29.5134C42.861 30.1811 43.3661 30.833 43.8672 31.4889C43.74 31.157 43.6286 30.8212 43.5331 30.4814H43.557C43.6564 30.7422 43.7718 30.999 43.8672 31.2716L44.0104 31.6667C44.0227 31.6937 44.0334 31.7214 44.0422 31.7497C44.4399 32.2593 44.8376 32.769 45.2035 33.2905C45.6529 33.9148 46.0864 34.5469 46.5239 35.1791C46.9614 35.8112 47.4028 36.5975 47.8761 37.2336C47.9199 37.2889 47.0807 37.6287 46.9892 37.6721C46.8978 37.7156 46.85 37.6405 46.9375 37.6129C47.025 37.5852 47.6932 37.1783 47.7011 37.1704C47.2636 36.5303 46.7586 35.9416 46.3012 35.3213C45.8438 34.701 45.3904 34.0807 44.949 33.4525C44.0541 32.1724 43.2349 30.8449 42.344 29.5608L42.3718 29.5134Z" fill="#263238"/>
<path d="M36.3187 33.9701C36.4579 34.2388 36.609 34.5035 36.7164 34.7801L36.8675 35.1238C36.6568 34.14 36.4698 33.1483 36.2511 32.1646C36.6727 33.7449 37.0982 35.3609 37.488 36.9649C37.8578 38.4979 38.3073 40.0467 38.522 41.6113C38.7993 41.4904 39.0868 41.3939 39.3811 41.3228C39.0857 41.5127 38.7678 41.6653 38.4345 41.7772C37.9551 40.1862 37.5569 38.5722 37.2414 36.9412C37.142 36.4987 37.0505 36.0562 36.955 35.6137C36.8516 35.3451 36.7283 35.0882 36.6051 34.8235C36.4818 34.5588 36.3704 34.2625 36.2591 33.982C36.2829 33.9662 36.3108 33.9504 36.3187 33.9701Z" fill="#263238"/>
<path d="M38.7487 40.1298C40.0214 39.4186 45.3387 36.6845 46.5279 36.1788C46.6114 36.1433 46.6552 36.1788 46.5716 36.2341C44.0476 37.6911 41.4454 39.0101 38.7766 40.1851C38.7447 40.193 38.7129 40.1495 38.7487 40.1298Z" fill="#263238"/>
<path d="M184.481 144H63.3071L80.8302 45.2859H202.004L184.481 144Z" fill="#DFF0FF"/>
<path d="M122.299 35.0647H82.6437L80.8302 45.2858H123.27L122.299 35.0647Z" fill="#DFF0FF"/>
<g opacity="0.1">
<path opacity="0.1" d="M184.481 144H63.3071L80.8302 45.2859H202.004L184.481 144Z" fill="black"/>
<path opacity="0.1" d="M122.299 35.0647H82.6437L80.8302 45.2858H123.27L122.299 35.0647Z" fill="black"/>
</g>
<path d="M78.3644 39.233C78.0992 38.1023 78.0992 36.9263 78.3644 35.7957C78.6296 36.9263 78.6296 38.1023 78.3644 39.233Z" fill="#263238"/>
<path d="M74.8407 40.2443C74.4358 39.8271 74.0868 39.3597 73.8027 38.8536C73.5046 38.358 73.2708 37.827 73.1067 37.2732C73.5128 37.6879 73.8619 38.1542 74.1447 38.66C74.4421 39.1573 74.6759 39.6895 74.8407 40.2443Z" fill="#263238"/>
<path d="M72.2954 42.8717C71.1779 42.5342 70.1533 41.9462 69.3007 41.1531C69.8582 41.3141 70.3928 41.5451 70.8915 41.8405C71.401 42.1246 71.8726 42.4711 72.2954 42.8717Z" fill="#263238"/>
<path d="M71.4045 46.4117C70.2664 46.6751 69.0826 46.6751 67.9445 46.4117C69.0826 46.1483 70.2664 46.1483 71.4045 46.4117Z" fill="#263238"/>
<path d="M72.4385 49.9124C72.0168 50.3126 71.5466 50.659 71.0386 50.9435C70.5399 51.239 70.0053 51.47 69.4478 51.631C69.8677 51.2287 70.3382 50.8821 70.8477 50.5998C71.3456 50.303 71.8804 50.0719 72.4385 49.9124Z" fill="#263238"/>
<path d="M75.0793 52.437C74.7407 53.5489 74.1487 54.5683 73.3492 55.416C73.5112 54.8614 73.7451 54.3302 74.0452 53.8356C74.3287 53.3277 74.6762 52.8577 75.0793 52.437Z" fill="#263238"/>
<path d="M78.6428 53.3101C78.7815 53.8724 78.8483 54.4498 78.8417 55.0287C78.8502 55.6077 78.7834 56.1854 78.6428 56.7474C78.5003 56.1858 78.4334 55.6078 78.4439 55.0287C78.4373 54.4498 78.5041 53.8724 78.6428 53.3101Z" fill="#263238"/>
<path d="M82.1665 52.3185C82.5715 52.7356 82.9204 53.2031 83.2045 53.7092C83.5034 54.2039 83.736 54.7351 83.8965 55.2896C83.0971 54.4418 82.5051 53.4224 82.1665 52.3105V52.3185Z" fill="#263238"/>
<path d="M84.7079 49.6714C85.266 49.8309 85.8008 50.062 86.2987 50.3588C86.8082 50.6411 87.2787 50.9878 87.6987 51.39C87.1406 51.2305 86.6058 50.9994 86.1078 50.7026C85.5983 50.4203 85.1278 50.0737 84.7079 49.6714Z" fill="#263238"/>
<path d="M85.5868 46.1313C86.7263 45.868 87.9114 45.868 89.0508 46.1313C87.9114 46.3947 86.7263 46.3947 85.5868 46.1313Z" fill="#263238"/>
<path d="M84.5686 42.6308C84.9897 42.2309 85.46 41.8857 85.9686 41.6035C86.4655 41.3038 87.0005 41.0713 87.5594 40.9121C86.706 41.7063 85.6799 42.2944 84.5607 42.6308H84.5686Z" fill="#263238"/>
<path d="M81.9238 40.1061C82.0876 39.5528 82.32 39.0219 82.6158 38.5257C82.9 38.0196 83.2489 37.5522 83.6538 37.135C83.4933 37.6894 83.2607 38.2207 82.9618 38.7154C82.6777 39.2215 82.3288 39.689 81.9238 40.1061Z" fill="#263238"/>
<path d="M184.302 144H62.8697L45.629 48.8694H167.061L184.302 144Z" fill="#DFF0FF"/>
<path d="M87.7066 107.023C90.4939 107.023 92.7535 104.778 92.7535 102.009C92.7535 99.2403 90.4939 96.9956 87.7066 96.9956C84.9193 96.9956 82.6597 99.2403 82.6597 102.009C82.6597 104.778 84.9193 107.023 87.7066 107.023Z" fill="#263238"/>
<path d="M127.609 107.023C130.396 107.023 132.656 104.778 132.656 102.009C132.656 99.2403 130.396 96.9956 127.609 96.9956C124.821 96.9956 122.562 99.2403 122.562 102.009C122.562 104.778 124.821 107.023 127.609 107.023Z" fill="#263238"/>
<path d="M114.906 107.825L114.628 107.3C114.604 107.252 111.995 102.464 106.749 102.464C101.976 102.464 100.783 106.972 100.751 107.165L100.608 107.738L99.4509 107.462L99.5901 106.885C99.5901 106.83 101.014 101.279 106.749 101.279C112.715 101.279 115.566 106.525 115.685 106.751L115.964 107.272L114.906 107.825Z" fill="#263238"/>
<path d="M80.2774 10.9598C80.0869 12.7745 79.3924 14.5009 78.2717 15.9464C77.1509 17.3919 75.6478 18.4995 73.9302 19.1457C72.2126 19.7919 70.3481 19.9513 68.5446 19.606C66.7411 19.2608 65.0697 18.4245 63.7169 17.1904L58.7574 17.9134L61.2391 13.6543C60.6716 12.2685 60.4295 10.7724 60.5311 9.27966C60.6328 7.78694 61.0755 6.33686 61.8257 5.03957C62.5759 3.74228 63.6139 2.6319 64.8608 1.79277C66.1076 0.953642 67.5306 0.407837 69.0215 0.196815C70.5125 -0.0142065 72.0323 0.115106 73.4654 0.574927C74.8986 1.03475 76.2074 1.81299 77.2924 2.85053C78.3775 3.88807 79.2103 5.15762 79.7275 6.56275C80.2447 7.96788 80.4328 9.47163 80.2774 10.9598Z" fill="white"/>
<path d="M80.2774 10.9598C80.0908 12.7736 79.4026 14.5007 78.2888 15.9499C77.7447 16.6828 77.0885 17.3267 76.344 17.8582C75.6159 18.4096 74.8124 18.8553 73.9578 19.1817C73.1027 19.5163 72.2042 19.7291 71.2892 19.8139C70.8317 19.8547 70.3719 19.8639 69.9131 19.8415C69.4527 19.8298 68.9939 19.7822 68.541 19.6993C66.7132 19.3652 65.0152 18.532 63.6373 17.2932L63.7526 17.3287L58.8011 18.0834L58.4392 18.1387L58.6222 17.8226L61.0879 13.5556V13.7255C60.5061 12.314 60.2587 10.7886 60.3649 9.26706C60.4711 7.7455 60.9281 6.26858 61.7004 4.95043C62.4718 3.63643 63.5323 2.51269 64.8025 1.66325C66.0707 0.825088 67.5135 0.283045 69.0226 0.0777691C70.5317 -0.127507 72.068 0.00931207 73.5163 0.477967C74.9493 0.962266 76.2552 1.75871 77.3383 2.80902C78.4191 3.85671 79.2455 5.13519 79.7547 6.54746C80.264 7.95974 80.4427 9.46869 80.2774 10.9598ZM80.2774 10.9598C80.4381 9.47603 80.2534 7.9754 79.7376 6.57379C79.2218 5.17217 78.3886 3.90706 77.3024 2.87614C76.2163 1.84522 74.9061 1.07606 73.4732 0.628047C72.0403 0.180034 70.5229 0.0651518 69.0381 0.292272C67.5683 0.508399 66.1681 1.05722 64.9457 1.89635C63.7338 2.74208 62.7215 3.83945 61.9788 5.11242C61.2476 6.38822 60.8166 7.81189 60.7181 9.27671C60.6212 10.7515 60.8605 12.2289 61.4181 13.599L61.4538 13.686L61.4061 13.7689L58.9085 18.0202L58.7335 17.7594L63.6969 17.068H63.7645L63.8123 17.1114C65.139 18.3382 66.7832 19.1741 68.5609 19.5255C69.0039 19.6151 69.4534 19.6693 69.9051 19.6874C70.3567 19.719 70.8098 19.719 71.2613 19.6874C72.1668 19.615 73.058 19.4196 73.9101 19.1067C74.764 18.7978 75.568 18.3665 76.2963 17.8266C77.0377 17.2993 77.6947 16.664 78.2451 15.942C79.3731 14.4998 80.0766 12.7752 80.2774 10.9598Z" fill="#263238"/>
<path d="M65.5741 14.5274C65.5665 14.3966 65.586 14.2657 65.6314 14.1427C65.6769 14.0197 65.7473 13.9073 65.8383 13.8124C65.9293 13.7176 66.0389 13.6423 66.1604 13.5913C66.2819 13.5403 66.4127 13.5147 66.5445 13.516C66.8146 13.516 67.0735 13.6226 67.2645 13.8122C67.4554 14.0019 67.5627 14.2592 67.5627 14.5274C67.5627 14.7957 67.4554 15.053 67.2645 15.2426C67.0735 15.4323 66.8146 15.5389 66.5445 15.5389C66.4127 15.5402 66.2819 15.5145 66.1604 15.4636C66.0389 15.4126 65.9293 15.3373 65.8383 15.2425C65.7473 15.1476 65.6769 15.0352 65.6314 14.9122C65.586 14.7892 65.5665 14.6582 65.5741 14.5274ZM65.9718 12.1924L65.7412 4.35376H67.332L67.1013 12.1924H65.9718Z" fill="#DFF0FF"/>
<path d="M69.3563 14.5274C69.3487 14.397 69.3681 14.2663 69.4133 14.1436C69.4585 14.0209 69.5286 13.9086 69.6191 13.8139C69.7097 13.7191 69.8189 13.6437 69.9399 13.5925C70.0609 13.5413 70.1912 13.5152 70.3228 13.516C70.5928 13.516 70.8518 13.6226 71.0427 13.8122C71.2336 14.0019 71.3409 14.2592 71.3409 14.5274C71.3409 14.7957 71.2336 15.053 71.0427 15.2426C70.8518 15.4323 70.5928 15.5389 70.3228 15.5389C70.1912 15.5396 70.0609 15.5136 69.9399 15.4624C69.8189 15.4111 69.7097 15.3358 69.6191 15.241C69.5286 15.1462 69.4585 15.034 69.4133 14.9113C69.3681 14.7885 69.3487 14.6579 69.3563 14.5274ZM69.7541 12.1924L69.5353 4.35376H71.1261L70.8955 12.1924H69.7541Z" fill="#DFF0FF"/>
<path d="M73.1345 14.5274C73.1269 14.3966 73.1464 14.2657 73.1919 14.1427C73.2373 14.0197 73.3077 13.9073 73.3987 13.8124C73.4897 13.7176 73.5993 13.6423 73.7208 13.5913C73.8423 13.5403 73.9731 13.5147 74.105 13.516C74.375 13.516 74.6339 13.6226 74.8249 13.8122C75.0158 14.0019 75.1231 14.2592 75.1231 14.5274C75.1231 14.7957 75.0158 15.053 74.8249 15.2426C74.6339 15.4323 74.375 15.5389 74.105 15.5389C73.9731 15.5402 73.8423 15.5145 73.7208 15.4636C73.5993 15.4126 73.4897 15.3373 73.3987 15.2425C73.3077 15.1476 73.2373 15.0352 73.1919 14.9122C73.1464 14.7892 73.1269 14.6582 73.1345 14.5274ZM73.5323 12.1924L73.3016 4.35376H74.8924L74.6657 12.1924H73.5323Z" fill="#DFF0FF"/>
</g>
<defs>
<clipPath id="clip0_450_228">
<rect width="202" height="144" fill="white"/>
</clipPath>
</defs>
</svg>
