<svg width="319" height="101" viewBox="0 0 319 101" fill="none" xmlns="http://www.w3.org/2000/svg">
<path d="M9.06197 43.3774L16.056 38.6664C16.2048 38.5561 16.3056 38.3928 16.3374 38.2102C16.3693 38.0277 16.3297 37.8399 16.2269 37.6858C16.1241 37.5316 15.966 37.4229 15.7853 37.382C15.6046 37.3412 15.415 37.3714 15.256 37.4664L8.26197 42.1774C8.17797 42.2275 8.10505 42.2943 8.04763 42.3735C7.9902 42.4527 7.94947 42.5427 7.92791 42.6381C7.90635 42.7336 7.90441 42.8324 7.9222 42.9286C7.93999 43.0248 7.97716 43.1163 8.03142 43.1977C8.08569 43.2791 8.15593 43.3487 8.23789 43.4021C8.31985 43.4555 8.4118 43.4917 8.50818 43.5085C8.60456 43.5253 8.70334 43.5224 8.79854 43.4998C8.89374 43.4773 8.98336 43.4356 9.06197 43.3774ZM16.056 51.6934L9.06197 46.9824C8.98336 46.9241 8.89374 46.8825 8.79854 46.8599C8.70334 46.8374 8.60456 46.8344 8.50818 46.8512C8.4118 46.868 8.31985 46.9042 8.23789 46.9577C8.15593 47.0111 8.08569 47.0806 8.03142 47.162C7.97716 47.2434 7.93999 47.335 7.9222 47.4312C7.90441 47.5274 7.90635 47.6262 7.92791 47.7216C7.94947 47.8171 7.9902 47.9071 8.04763 47.9863C8.10505 48.0655 8.17797 48.1322 8.26197 48.1824L15.256 52.8934C15.415 52.9884 15.6046 53.0186 15.7853 52.9777C15.966 52.9369 16.1241 52.8282 16.2269 52.674C16.3297 52.5198 16.3693 52.3321 16.3374 52.1495C16.3056 51.967 16.2048 51.8037 16.056 51.6934V51.6934Z" fill="url(#paint0_linear_376_91)"/>
<path d="M5.057 40.1236C4.05682 40.1236 3.0791 40.4202 2.24749 40.9758C1.41587 41.5315 0.767696 42.3213 0.384944 43.2453C0.00219169 44.1694 -0.0979545 45.1862 0.0971709 46.1671C0.292296 47.1481 0.773928 48.0492 1.48116 48.7564C2.1884 49.4636 3.08947 49.9453 4.07043 50.1404C5.05139 50.3355 6.06819 50.2354 6.99223 49.8526C7.91628 49.4699 8.70607 48.8217 9.26174 47.9901C9.81741 47.1585 10.114 46.1807 10.114 45.1806C10.1124 43.8399 9.57911 42.5545 8.63109 41.6065C7.68306 40.6585 6.39771 40.1252 5.057 40.1236V40.1236ZM18.057 40.0756C18.7714 40.0756 19.4697 39.8637 20.0637 39.4668C20.6577 39.0699 21.1207 38.5058 21.3941 37.8458C21.6674 37.1858 21.739 36.4596 21.5996 35.7589C21.4602 35.0582 21.1162 34.4146 20.6111 33.9095C20.1059 33.4043 19.4623 33.0603 18.7617 32.921C18.061 32.7816 17.3348 32.8531 16.6748 33.1265C16.0147 33.3999 15.4506 33.8629 15.0537 34.4568C14.6568 35.0508 14.445 35.7492 14.445 36.4636C14.4461 37.4217 14.8274 38.3403 15.5052 39.0175C16.183 39.6948 17.1018 40.0753 18.06 40.0756H18.057ZM18.057 50.2856C17.3426 50.2856 16.6443 50.4974 16.0503 50.8943C15.4563 51.2912 14.9933 51.8553 14.72 52.5153C14.4466 53.1753 14.375 53.9016 14.5144 54.6022C14.6538 55.3029 14.9978 55.9465 15.5029 56.4516C16.0081 56.9568 16.6517 57.3008 17.3523 57.4402C18.053 57.5795 18.7792 57.508 19.4393 57.2346C20.0993 56.9612 20.6634 56.4983 21.0603 55.9043C21.4572 55.3103 21.669 54.612 21.669 53.8976C21.6679 52.9404 21.2875 52.0228 20.611 51.3457C19.9345 50.6687 19.0171 50.2874 18.06 50.2856H18.057Z" fill="#108FFF"/>
<path d="M136.515 45.484L135.753 39.291L134.324 39.467L131.554 37.908C131.259 37.7419 130.92 37.6697 130.582 37.701L126.209 38.101C125.945 38.1255 125.689 38.213 125.465 38.3562C125.241 38.4993 125.054 38.694 124.92 38.924L121.838 44.229C121.785 44.321 121.752 44.4237 121.742 44.5297C121.733 44.6357 121.746 44.7426 121.782 44.8429C121.817 44.9432 121.874 45.0345 121.949 45.1105C122.024 45.1865 122.114 45.2454 122.213 45.283L122.339 45.331C122.578 45.4202 122.827 45.4757 123.08 45.496L122.689 45.836L121.908 46.517L119.686 48.417C119.592 48.4989 119.515 48.5985 119.46 48.7102C119.404 48.8219 119.371 48.9434 119.363 49.0679C119.354 49.1924 119.37 49.3173 119.41 49.4355C119.45 49.5538 119.512 49.663 119.594 49.757L119.819 50.015C120.032 50.2588 120.333 50.4082 120.655 50.4303C120.978 50.4525 121.297 50.3455 121.54 50.133L122.389 51.107C122.495 51.2279 122.622 51.327 122.766 51.3984C122.909 51.4698 123.066 51.5122 123.225 51.5231C123.385 51.5341 123.546 51.5134 123.698 51.4622C123.849 51.4111 123.99 51.3305 124.11 51.225L124.958 52.199C125.171 52.4429 125.472 52.5923 125.795 52.6144C126.118 52.6365 126.436 52.5296 126.68 52.317L127.141 52.717C127.354 52.9609 127.655 53.1103 127.978 53.1324C128.301 53.1545 128.619 53.0476 128.863 52.835L129.49 52.288L134.759 48.188L134.765 48.183H136.844L136.515 45.484Z" fill="#F29F5C"/>
<path d="M135.216 49.2611L132.393 46.8271L131.608 46.1511L131.046 45.6671L128.631 43.5851L128.91 41.2111C128.956 40.8223 128.861 40.43 128.643 40.1051C128.424 39.7803 128.097 39.5444 127.719 39.4401L122.454 37.9831C122.184 37.9083 121.896 37.9291 121.64 38.0418C121.383 38.1546 121.173 38.3525 121.045 38.6021L120.383 39.8941L117.541 39.7011L116.813 45.9011L116.497 48.5941L119.263 48.7781L119.269 48.7831L125.049 53.7651L125.679 54.3081C125.925 54.5194 126.244 54.6247 126.567 54.6007C126.89 54.5767 127.19 54.4254 127.401 54.1801L128.244 53.2021C128.49 53.4134 128.809 53.5187 129.132 53.4947C129.455 53.4707 129.755 53.3194 129.966 53.0741L130.809 52.0951C130.931 52.2 131.071 52.28 131.223 52.3304C131.376 52.3808 131.536 52.4007 131.696 52.3889C131.856 52.3771 132.012 52.3339 132.155 52.2616C132.298 52.1894 132.426 52.0897 132.53 51.9681L133.374 50.9891C133.496 51.0938 133.636 51.1735 133.789 51.2238C133.941 51.2741 134.101 51.2939 134.261 51.2821C134.421 51.2703 134.577 51.2271 134.72 51.1551C134.863 51.083 134.991 50.9834 135.095 50.8621L135.319 50.6031C135.401 50.5083 135.463 50.3984 135.502 50.2796C135.541 50.1607 135.556 50.0354 135.547 49.9106C135.537 49.7859 135.503 49.6643 135.446 49.5528C135.39 49.4414 135.312 49.3422 135.216 49.2611V49.2611Z" fill="#F9C295"/>
<path d="M119.407 48.7679L119.072 49.2099C118.897 49.4412 118.821 49.7325 118.861 50.0198C118.901 50.3071 119.053 50.5668 119.284 50.7419V50.7419C119.516 50.9169 119.807 50.9928 120.094 50.9531C120.381 50.9133 120.641 50.7611 120.816 50.5299L121.151 50.0879C121.326 49.8566 121.402 49.5653 121.362 49.278C121.323 48.9908 121.17 48.731 120.939 48.5559V48.5559C120.708 48.381 120.417 48.3051 120.129 48.3448C119.842 48.3846 119.582 48.5367 119.407 48.7679V48.7679Z" fill="#F29F5C"/>
<path d="M121.447 49.6991L120.816 50.5321C120.641 50.7634 120.565 51.0547 120.605 51.342C120.645 51.6293 120.797 51.889 121.028 52.0641V52.0641C121.259 52.239 121.551 52.315 121.838 52.2752C122.125 52.2355 122.385 52.0833 122.56 51.8521L123.191 51.0191C123.366 50.7878 123.442 50.4965 123.402 50.2092C123.363 49.9219 123.21 49.6622 122.979 49.4871C122.748 49.3122 122.457 49.2362 122.169 49.276C121.882 49.3157 121.622 49.4679 121.447 49.6991Z" fill="#F29F5C"/>
<path d="M123.418 50.7171L122.559 51.8521C122.384 52.0834 122.308 52.3747 122.348 52.662C122.388 52.9493 122.54 53.209 122.771 53.3841V53.3841C123.003 53.559 123.294 53.635 123.581 53.5952C123.869 53.5555 124.128 53.4033 124.303 53.1721L125.162 52.0371C125.249 51.9225 125.313 51.7919 125.35 51.6527C125.386 51.5135 125.395 51.3684 125.375 51.2258C125.356 51.0832 125.308 50.9459 125.236 50.8217C125.163 50.6975 125.066 50.5889 124.951 50.5021V50.5021C124.837 50.4155 124.706 50.3523 124.567 50.3163C124.428 50.2802 124.283 50.2719 124.14 50.2918C123.998 50.3118 123.861 50.3597 123.737 50.4326C123.613 50.5056 123.505 50.6023 123.418 50.7171V50.7171Z" fill="#F29F5C"/>
<path d="M125.212 51.972L124.303 53.172C124.128 53.4034 124.052 53.6946 124.092 53.9819C124.132 54.2692 124.284 54.5289 124.515 54.704V54.704C124.747 54.879 125.038 54.9549 125.325 54.9152C125.612 54.8754 125.872 54.7232 126.047 54.4921L126.956 53.292C127.131 53.0607 127.207 52.7694 127.167 52.4822C127.128 52.1949 126.975 51.9351 126.744 51.76V51.76C126.513 51.5851 126.222 51.5092 125.934 51.5489C125.647 51.5887 125.387 51.7409 125.212 51.972Z" fill="#F29F5C"/>
<path d="M134.325 39.466L131.555 37.907C131.26 37.7409 130.921 37.6687 130.583 37.7L126.21 38.1C125.945 38.1245 125.69 38.212 125.466 38.3552C125.242 38.4983 125.055 38.693 124.921 38.923L121.839 44.228C121.786 44.3201 121.753 44.4227 121.743 44.5287C121.733 44.6347 121.747 44.7416 121.782 44.8419C121.818 44.9422 121.875 45.0336 121.95 45.1096C122.024 45.1856 122.115 45.2444 122.214 45.282L122.34 45.33C122.89 45.5376 123.493 45.5628 124.058 45.4018C124.624 45.2409 125.123 44.9022 125.481 44.436L126.662 42.899C126.662 42.899 129.501 46.186 132.626 42.347" fill="#F29F5C"/>
<path d="M142.006 49.0038L140.561 37.2398C140.547 37.124 140.487 37.0187 140.396 36.9469C140.304 36.875 140.187 36.8426 140.071 36.8568L136.684 37.2738C136.261 37.326 135.876 37.5441 135.614 37.8801C135.351 38.2161 135.233 38.6425 135.284 39.0658L136.447 48.5148C136.473 48.7244 136.54 48.9269 136.644 49.1108C136.748 49.2946 136.887 49.4562 137.053 49.5862C137.22 49.7162 137.41 49.8122 137.614 49.8686C137.817 49.9249 138.03 49.9406 138.239 49.9148L141.626 49.4978C141.684 49.4904 141.739 49.4717 141.789 49.4428C141.84 49.414 141.884 49.3755 141.919 49.3296C141.954 49.2837 141.98 49.2313 141.995 49.1754C142.01 49.1195 142.014 49.0612 142.006 49.0038V49.0038Z" fill="#5C9CEE"/>
<path d="M117.328 37.2708L113.941 36.8538C113.826 36.8397 113.709 36.8721 113.617 36.9439C113.525 37.0157 113.466 37.1211 113.451 37.2368L111.999 49.0038C111.985 49.1196 112.018 49.2362 112.089 49.3281C112.161 49.42 112.267 49.4796 112.382 49.4938L115.769 49.9108C115.979 49.9367 116.192 49.921 116.395 49.8646C116.599 49.8082 116.789 49.7123 116.956 49.5823C117.122 49.4523 117.261 49.2907 117.365 49.1068C117.469 48.923 117.536 48.7205 117.561 48.5108L118.724 39.0618C118.776 38.6394 118.658 38.2137 118.396 37.878C118.135 37.5424 117.751 37.324 117.328 37.2708V37.2708Z" fill="#ED5575"/>
<path d="M139.196 47.97C139.666 47.97 140.046 47.5895 140.046 47.12C140.046 46.6506 139.666 46.27 139.196 46.27C138.727 46.27 138.346 46.6506 138.346 47.12C138.346 47.5895 138.727 47.97 139.196 47.97Z" fill="#EBEEF2"/>
<path d="M114.765 47.97C115.235 47.97 115.615 47.5895 115.615 47.12C115.615 46.6506 115.235 46.27 114.765 46.27C114.296 46.27 113.915 46.6506 113.915 47.12C113.915 47.5895 114.296 47.97 114.765 47.97Z" fill="#EBEEF2"/>
<path d="M228.638 47.721L229.259 49.404L230.919 51.959C231.457 52.5938 232.127 53.104 232.882 53.454C233.762 53.8189 234.564 54.3483 235.246 55.014C235.654 55.455 235.885 56.014 235.923 58.121H240.283V55.611C240.134 54.123 239.576 52.449 237.84 51.852L236.294 51.314L233.58 49.014C233.458 48.91 233.302 48.8562 233.142 48.8637C232.983 48.8712 232.832 48.9393 232.721 49.0542C232.61 49.1691 232.547 49.3221 232.545 49.4819C232.543 49.6417 232.602 49.7962 232.71 49.914L233.892 51.194L231.821 50.24L230.521 48.671L229.953 47.226C229.886 47.0521 229.754 46.9117 229.584 46.8357C229.414 46.7596 229.221 46.7542 229.047 46.8205C228.873 46.8868 228.733 47.0194 228.657 47.1893C228.581 47.3591 228.575 47.5521 228.642 47.726L228.638 47.721Z" fill="#FFCEB6"/>
<path d="M235.779 56.52H240.419C240.525 56.52 240.626 56.5622 240.702 56.6372C240.777 56.7122 240.819 56.814 240.819 56.92V58.1C240.819 58.2061 240.777 58.3079 240.702 58.3829C240.626 58.4579 240.525 58.5 240.419 58.5H235.779C235.673 58.5 235.571 58.4579 235.496 58.3829C235.421 58.3079 235.379 58.2061 235.379 58.1V56.919C235.379 56.8131 235.421 56.7116 235.496 56.6368C235.571 56.562 235.673 56.52 235.779 56.52Z" fill="#7FD19B"/>
<path d="M254.39 47.721L253.769 49.404L252.108 51.959C251.57 52.5939 250.9 53.104 250.145 53.454C249.265 53.8189 248.462 54.3483 247.781 55.014C247.373 55.455 247.143 56.014 247.104 58.121H242.744V55.611C242.893 54.123 243.451 52.449 245.187 51.852L246.736 51.314L249.45 49.014C249.571 48.91 249.727 48.8562 249.887 48.8637C250.047 48.8712 250.197 48.9393 250.309 49.0542C250.42 49.1691 250.483 49.3221 250.485 49.4819C250.487 49.6417 250.428 49.7962 250.32 49.914L249.138 51.194L251.209 50.24L252.509 48.671L253.077 47.226C253.143 47.0521 253.276 46.9117 253.445 46.8357C253.529 46.798 253.62 46.7773 253.712 46.7747C253.804 46.7721 253.896 46.7876 253.982 46.8205C254.068 46.8533 254.147 46.9028 254.214 46.966C254.281 47.0293 254.335 47.1052 254.372 47.1892C254.41 47.2733 254.431 47.364 254.433 47.4561C254.436 47.5482 254.42 47.6399 254.388 47.726L254.39 47.721Z" fill="#FFCEB6"/>
<path d="M247.252 56.52H242.607C242.501 56.52 242.399 56.5622 242.324 56.6372C242.249 56.7122 242.207 56.814 242.207 56.92V58.1C242.207 58.2061 242.249 58.3079 242.324 58.3829C242.399 58.4579 242.501 58.5 242.607 58.5H247.247C247.353 58.5 247.455 58.4579 247.53 58.3829C247.605 58.3079 247.647 58.2061 247.647 58.1V56.919C247.647 56.814 247.605 56.7132 247.531 56.6386C247.457 56.5639 247.357 56.5213 247.252 56.52V56.52Z" fill="#7FD19B"/>
<path d="M247.9 44.2209C247.9 45.4835 247.525 46.7177 246.824 47.7676C246.123 48.8174 245.126 49.6356 243.959 50.1189C242.793 50.6021 241.509 50.7286 240.271 50.4823C239.032 50.2361 237.895 49.6282 237.002 48.7354C236.109 47.8427 235.501 46.7053 235.255 45.467C235.008 44.2287 235.134 42.9451 235.618 41.7786C236.101 40.612 236.919 39.6149 237.968 38.9133C239.018 38.2117 240.252 37.8371 241.515 37.8369C243.208 37.8369 244.832 38.5095 246.029 39.7067C247.227 40.9039 247.9 42.5277 247.9 44.2209V44.2209Z" fill="#C4E3FF"/>
<path d="M246.446 44.222C246.446 45.1973 246.157 46.1508 245.615 46.9618C245.074 47.7728 244.303 48.405 243.402 48.7784C242.501 49.1517 241.51 49.2495 240.553 49.0594C239.597 48.8692 238.718 48.3997 238.028 47.7101C237.339 47.0205 236.869 46.1419 236.679 45.1853C236.488 44.2288 236.586 43.2373 236.959 42.3362C237.332 41.4351 237.964 40.665 238.775 40.1231C239.586 39.5812 240.539 39.292 241.515 39.292C242.822 39.292 244.076 39.8114 245.001 40.7359C245.926 41.6604 246.445 42.9144 246.446 44.222Z" fill="#108FFF"/>
<path d="M250.743 36.6639L251.233 37.9639L252.623 38.0269C252.657 38.0278 252.69 38.0391 252.717 38.0593C252.744 38.0794 252.765 38.1074 252.776 38.1396C252.786 38.1717 252.787 38.2065 252.778 38.2391C252.768 38.2717 252.749 38.3006 252.723 38.3219L251.636 39.1899L252.005 40.5309C252.013 40.5634 252.012 40.5977 252.001 40.6294C251.99 40.661 251.969 40.6885 251.942 40.7083C251.915 40.728 251.882 40.739 251.849 40.7398C251.815 40.7407 251.782 40.7313 251.754 40.7129L250.592 39.9469L249.43 40.7129C249.402 40.7313 249.369 40.7407 249.335 40.7398C249.301 40.739 249.269 40.728 249.242 40.7083C249.214 40.6885 249.194 40.661 249.183 40.6294C249.171 40.5977 249.17 40.5634 249.179 40.5309L249.548 39.1899L248.461 38.3219C248.434 38.3006 248.415 38.2717 248.406 38.2391C248.396 38.2065 248.397 38.1717 248.408 38.1396C248.419 38.1074 248.439 38.0794 248.467 38.0593C248.494 38.0391 248.527 38.0278 248.561 38.0269L249.951 37.9639L250.441 36.6639C250.454 36.635 250.475 36.6105 250.502 36.5932C250.529 36.576 250.56 36.5669 250.592 36.5669C250.624 36.5669 250.655 36.576 250.682 36.5932C250.708 36.6105 250.73 36.635 250.743 36.6639V36.6639Z" fill="#108FFF"/>
<path d="M232.597 36.6641L233.087 37.9641L234.477 38.0271C234.511 38.028 234.544 38.0393 234.571 38.0594C234.598 38.0796 234.619 38.1076 234.63 38.1398C234.641 38.1719 234.641 38.2066 234.632 38.2392C234.622 38.2718 234.603 38.3008 234.577 38.3221L233.489 39.1901L233.858 40.5311C233.867 40.5636 233.865 40.5979 233.854 40.6295C233.843 40.6612 233.822 40.6887 233.795 40.7084C233.768 40.7281 233.735 40.7392 233.702 40.74C233.668 40.7408 233.635 40.7314 233.607 40.7131L232.445 39.9471L231.283 40.7131C231.255 40.7314 231.222 40.7408 231.188 40.74C231.155 40.7392 231.122 40.7281 231.095 40.7084C231.068 40.6887 231.047 40.6612 231.036 40.6295C231.025 40.5979 231.023 40.5636 231.032 40.5311L231.401 39.1901L230.311 38.3271C230.284 38.3058 230.265 38.2768 230.256 38.2442C230.246 38.2116 230.247 38.1769 230.258 38.1448C230.269 38.1126 230.289 38.0846 230.317 38.0644C230.344 38.0443 230.377 38.033 230.411 38.0321L231.801 37.9691L232.291 36.6691C232.303 36.6388 232.324 36.6127 232.351 36.5942C232.378 36.5757 232.41 36.5655 232.442 36.565C232.475 36.5644 232.507 36.5736 232.534 36.5912C232.562 36.6088 232.584 36.6342 232.597 36.6641V36.6641Z" fill="#108FFF"/>
<path d="M241.67 31.959L242.16 33.259L243.55 33.322C243.585 33.3216 243.619 33.3324 243.648 33.3528C243.677 33.3732 243.698 33.4022 243.709 33.4355C243.721 33.4689 243.721 33.505 243.71 33.5385C243.699 33.572 243.678 33.6013 243.65 33.622L242.562 34.49L242.931 35.832C242.94 35.8645 242.938 35.8988 242.927 35.9305C242.916 35.9621 242.895 35.9897 242.868 36.0094C242.841 36.0291 242.808 36.0401 242.775 36.0409C242.741 36.0418 242.708 36.0324 242.68 36.014L241.515 35.251L240.353 36.017C240.325 36.0354 240.292 36.0448 240.258 36.0439C240.225 36.0431 240.192 36.0321 240.165 36.0124C240.138 35.9927 240.117 35.9651 240.106 35.9335C240.095 35.9018 240.093 35.8675 240.102 35.835L240.471 34.493L239.384 33.62C239.357 33.5987 239.338 33.5698 239.329 33.5372C239.319 33.5046 239.32 33.4698 239.331 33.4377C239.342 33.4055 239.362 33.3775 239.39 33.3574C239.417 33.3372 239.45 33.3259 239.484 33.325L240.874 33.262L241.364 31.962C241.376 31.9307 241.397 31.9037 241.425 31.8847C241.452 31.8657 241.485 31.8555 241.519 31.8555C241.552 31.8555 241.585 31.8657 241.613 31.8847C241.641 31.9037 241.662 31.9307 241.674 31.962L241.67 31.959Z" fill="#108FFF"/>
<path d="M241.39 46.3233C240.555 46.3093 239.99 45.8583 239.99 45.5283C239.99 45.3663 240.131 45.1443 240.3 45.1443C240.522 45.1443 240.7 45.6153 241.391 45.6693V44.0863C240.785 43.8713 240.111 43.6283 240.111 42.7663C240.11 42.5993 240.143 42.434 240.208 42.28C240.272 42.126 240.367 41.9865 240.486 41.8697C240.606 41.7529 240.747 41.6612 240.902 41.6C241.058 41.5387 241.224 41.5093 241.391 41.5133V41.3133C241.394 41.2899 241.401 41.2674 241.413 41.2469C241.424 41.2264 241.44 41.2085 241.458 41.1941C241.477 41.1796 241.498 41.169 241.521 41.1629C241.544 41.1568 241.567 41.1552 241.591 41.1583C241.691 41.1583 241.791 41.2323 241.791 41.3133V41.4953C242.249 41.5083 242.891 41.6503 242.891 41.9803C242.891 42.1083 242.797 42.3643 242.591 42.3643C242.429 42.3643 242.254 42.1493 241.783 42.1153V43.4823C242.369 43.6973 243.009 43.9943 243.009 44.9103C243.021 45.0821 242.998 45.2546 242.943 45.4176C242.887 45.5807 242.8 45.7311 242.686 45.8602C242.572 45.9892 242.433 46.0943 242.278 46.1694C242.123 46.2444 241.955 46.2879 241.783 46.2973V46.5263C241.783 46.6073 241.683 46.6813 241.583 46.6813C241.559 46.6844 241.536 46.6828 241.513 46.6766C241.49 46.6705 241.469 46.6599 241.45 46.6455C241.432 46.6311 241.416 46.6131 241.405 46.5927C241.393 46.5722 241.386 46.5496 241.383 46.5263L241.39 46.3233ZM241.43 43.3603V42.1303C241.053 42.1773 240.783 42.3463 240.783 42.6963C240.784 43.0833 241.074 43.2243 241.431 43.3593L241.43 43.3603ZM241.747 44.2363V45.6573C241.913 45.645 242.068 45.5684 242.178 45.4439C242.289 45.3194 242.347 45.1567 242.34 44.9903C242.339 44.8158 242.28 44.6466 242.173 44.509C242.066 44.3715 241.916 44.2734 241.747 44.2303V44.2363Z" fill="#F8FBFF"/>
<path d="M247.922 82.9406C247.922 82.9406 248.779 99.3896 212.409 99.9516C176.039 100.514 174.755 77.8857 174.755 77.8857" stroke="#108FFF" stroke-width="2" stroke-linecap="round" stroke-dasharray="5 8"/>
<path d="M131.815 27.0229C131.815 27.0229 134.9 1.55379 98.5297 1.01679C62.1597 0.479788 63.546 13.0042 63.546 13.0042" stroke="#108FFF" stroke-width="2" stroke-linecap="round" stroke-dasharray="5 8"/>
<path d="M134.16 30.8562C134.131 31.0312 134.056 31.1954 133.943 31.3319C133.829 31.4685 133.682 31.5724 133.515 31.6331C133.348 31.6938 133.168 31.709 132.994 31.6772C132.819 31.6455 132.656 31.5678 132.522 31.4523L128.204 27.7457C128.071 27.632 127.97 27.4856 127.912 27.3211C127.853 27.1565 127.839 26.9795 127.87 26.8076C127.902 26.6358 127.977 26.4751 128.09 26.3416C128.202 26.2081 128.348 26.1064 128.512 26.0467L133.756 24.1382C133.92 24.0784 134.096 24.0627 134.268 24.0925C134.44 24.1222 134.602 24.1965 134.736 24.308C134.87 24.4194 134.973 24.5641 135.035 24.7276C135.096 24.8911 135.113 25.0678 135.085 25.2401L134.16 30.8562Z" fill="#108FFF"/>
<path d="M248.849 78.8772C248.971 78.7482 249.125 78.654 249.295 78.6042C249.465 78.5543 249.646 78.5507 249.818 78.5936C249.99 78.6365 250.148 78.7245 250.275 78.8484C250.401 78.9723 250.493 79.1278 250.54 79.2989L252.047 84.7865C252.094 84.9549 252.095 85.1325 252.052 85.3016C252.008 85.4707 251.921 85.6255 251.799 85.7505C251.677 85.8755 251.525 85.9664 251.357 86.0141C251.189 86.0618 251.011 86.0647 250.842 86.0225L245.427 84.6726C245.258 84.6304 245.102 84.5446 244.976 84.4237C244.851 84.3028 244.758 84.1511 244.709 83.9835C244.66 83.816 244.656 83.6385 244.697 83.4688C244.737 83.299 244.822 83.1429 244.942 83.0159L248.849 78.8772Z" fill="#108FFF"/>
<path d="M37.13 27.124C36.5767 27.124 36.04 27.0507 35.52 26.904C35.0067 26.7507 34.5933 26.554 34.28 26.314L34.83 25.094C35.13 25.314 35.4867 25.4907 35.9 25.624C36.3133 25.7573 36.7267 25.824 37.14 25.824C37.6 25.824 37.94 25.7573 38.16 25.624C38.38 25.484 38.49 25.3007 38.49 25.074C38.49 24.9073 38.4233 24.7707 38.29 24.664C38.1633 24.5507 37.9967 24.4607 37.79 24.394C37.59 24.3273 37.3167 24.254 36.97 24.174C36.4367 24.0473 36 23.9207 35.66 23.794C35.32 23.6673 35.0267 23.464 34.78 23.184C34.54 22.904 34.42 22.5307 34.42 22.064C34.42 21.6573 34.53 21.2907 34.75 20.964C34.97 20.6307 35.3 20.3673 35.74 20.174C36.1867 19.9807 36.73 19.884 37.37 19.884C37.8167 19.884 38.2533 19.9373 38.68 20.044C39.1067 20.1507 39.48 20.304 39.8 20.504L39.3 21.734C38.6533 21.3673 38.0067 21.184 37.36 21.184C36.9067 21.184 36.57 21.2573 36.35 21.404C36.1367 21.5507 36.03 21.744 36.03 21.984C36.03 22.224 36.1533 22.404 36.4 22.524C36.6533 22.6373 37.0367 22.7507 37.55 22.864C38.0833 22.9907 38.52 23.1173 38.86 23.244C39.2 23.3707 39.49 23.5707 39.73 23.844C39.9767 24.1173 40.1 24.4873 40.1 24.954C40.1 25.354 39.9867 25.7207 39.76 26.054C39.54 26.3807 39.2067 26.6407 38.76 26.834C38.3133 27.0273 37.77 27.124 37.13 27.124Z" fill="#108FFF"/>
<path d="M44.367 21.544C45.0336 21.544 45.5703 21.744 45.977 22.144C46.3903 22.544 46.597 23.1373 46.597 23.924V27.004H45.037V24.164C45.037 23.7373 44.9436 23.4207 44.757 23.214C44.5703 23.0007 44.3003 22.894 43.947 22.894C43.5536 22.894 43.2403 23.0173 43.007 23.264C42.7736 23.504 42.657 23.864 42.657 24.344V27.004H41.097V19.584H42.657V22.184C42.8636 21.9773 43.1136 21.8207 43.407 21.714C43.7003 21.6007 44.0203 21.544 44.367 21.544Z" fill="#108FFF"/>
<path d="M50.181 21.544C51.0144 21.544 51.6544 21.744 52.101 22.144C52.5477 22.5373 52.771 23.134 52.771 23.934V27.004H51.311V26.334C51.0177 26.834 50.471 27.084 49.671 27.084C49.2577 27.084 48.8977 27.014 48.591 26.874C48.291 26.734 48.061 26.5407 47.901 26.294C47.741 26.0473 47.661 25.7673 47.661 25.454C47.661 24.954 47.8477 24.5607 48.221 24.274C48.601 23.9873 49.1844 23.844 49.971 23.844H51.211C51.211 23.504 51.1077 23.244 50.901 23.064C50.6944 22.8773 50.3844 22.784 49.971 22.784C49.6844 22.784 49.401 22.8307 49.121 22.924C48.8477 23.0107 48.6144 23.1307 48.421 23.284L47.861 22.194C48.1544 21.9873 48.5044 21.8273 48.911 21.714C49.3244 21.6007 49.7477 21.544 50.181 21.544ZM50.061 26.034C50.3277 26.034 50.5644 25.974 50.771 25.854C50.9777 25.7273 51.1244 25.544 51.211 25.304V24.754H50.141C49.501 24.754 49.181 24.964 49.181 25.384C49.181 25.584 49.2577 25.744 49.411 25.864C49.571 25.9773 49.7877 26.034 50.061 26.034Z" fill="#108FFF"/>
<path d="M55.6729 22.334C55.8596 22.074 56.1096 21.8773 56.4229 21.744C56.7429 21.6107 57.1096 21.544 57.5229 21.544V22.984C57.3496 22.9707 57.2329 22.964 57.1729 22.964C56.7262 22.964 56.3762 23.0907 56.1229 23.344C55.8696 23.5907 55.7429 23.964 55.7429 24.464V27.004H54.1829V21.624H55.6729V22.334Z" fill="#108FFF"/>
<path d="M63.6716 24.334C63.6716 24.354 63.6617 24.494 63.6417 24.754H59.5716C59.645 25.0873 59.8183 25.3507 60.0917 25.544C60.365 25.7373 60.705 25.834 61.1117 25.834C61.3917 25.834 61.6383 25.794 61.8517 25.714C62.0717 25.6273 62.275 25.494 62.4617 25.314L63.2917 26.214C62.785 26.794 62.045 27.084 61.0716 27.084C60.465 27.084 59.9283 26.9673 59.4617 26.734C58.995 26.494 58.635 26.164 58.3817 25.744C58.1283 25.324 58.0016 24.8473 58.0016 24.314C58.0016 23.7873 58.125 23.314 58.3717 22.894C58.625 22.4673 58.9683 22.1373 59.4016 21.904C59.8416 21.664 60.3317 21.544 60.8717 21.544C61.3983 21.544 61.875 21.6573 62.3017 21.884C62.7283 22.1107 63.0617 22.4373 63.3017 22.864C63.5483 23.284 63.6716 23.774 63.6716 24.334ZM60.8817 22.724C60.5283 22.724 60.2316 22.824 59.9916 23.024C59.7516 23.224 59.605 23.4973 59.5517 23.844H62.2017C62.1483 23.504 62.0017 23.234 61.7617 23.034C61.5217 22.8273 61.2283 22.724 60.8817 22.724Z" fill="#108FFF"/>
<path d="M72.8823 21.624L70.4523 27.334C70.2056 27.954 69.8989 28.3907 69.5323 28.644C69.1723 28.8973 68.7356 29.024 68.2223 29.024C67.9423 29.024 67.6656 28.9807 67.3923 28.894C67.1189 28.8073 66.8956 28.6873 66.7223 28.534L67.2923 27.424C67.4123 27.5307 67.5489 27.614 67.7023 27.674C67.8623 27.734 68.0189 27.764 68.1723 27.764C68.3856 27.764 68.5589 27.7107 68.6923 27.604C68.8256 27.504 68.9456 27.334 69.0523 27.094L69.0723 27.044L66.7423 21.624H68.3523L69.8623 25.274L71.3823 21.624H72.8823Z" fill="#108FFF"/>
<path d="M75.9324 27.084C75.3657 27.084 74.8557 26.9673 74.4024 26.734C73.9557 26.494 73.6057 26.164 73.3524 25.744C73.099 25.324 72.9724 24.8473 72.9724 24.314C72.9724 23.7807 73.099 23.304 73.3524 22.884C73.6057 22.464 73.9557 22.1373 74.4024 21.904C74.8557 21.664 75.3657 21.544 75.9324 21.544C76.499 21.544 77.0057 21.664 77.4524 21.904C77.899 22.1373 78.249 22.464 78.5024 22.884C78.7557 23.304 78.8824 23.7807 78.8824 24.314C78.8824 24.8473 78.7557 25.324 78.5024 25.744C78.249 26.164 77.899 26.494 77.4524 26.734C77.0057 26.9673 76.499 27.084 75.9324 27.084ZM75.9324 25.804C76.3324 25.804 76.659 25.6707 76.9124 25.404C77.1724 25.1307 77.3024 24.7673 77.3024 24.314C77.3024 23.8607 77.1724 23.5007 76.9124 23.234C76.659 22.9607 76.3324 22.824 75.9324 22.824C75.5324 22.824 75.2024 22.9607 74.9424 23.234C74.6824 23.5007 74.5524 23.8607 74.5524 24.314C74.5524 24.7673 74.6824 25.1307 74.9424 25.404C75.2024 25.6707 75.5324 25.804 75.9324 25.804Z" fill="#108FFF"/>
<path d="M85.3451 21.624V27.004H83.8651V26.364C83.6584 26.5973 83.4118 26.7773 83.1251 26.904C82.8384 27.024 82.5284 27.084 82.1951 27.084C81.4884 27.084 80.9284 26.8807 80.5151 26.474C80.1018 26.0673 79.8951 25.464 79.8951 24.664V21.624H81.4551V24.434C81.4551 25.3007 81.8184 25.734 82.5451 25.734C82.9184 25.734 83.2184 25.614 83.4451 25.374C83.6718 25.1273 83.7851 24.764 83.7851 24.284V21.624H85.3451Z" fill="#108FFF"/>
<path d="M88.2803 22.334C88.467 22.074 88.717 21.8773 89.0303 21.744C89.3503 21.6107 89.717 21.544 90.1303 21.544V22.984C89.957 22.9707 89.8403 22.964 89.7803 22.964C89.3337 22.964 88.9837 23.0907 88.7303 23.344C88.477 23.5907 88.3503 23.964 88.3503 24.464V27.004H86.7903V21.624H88.2803V22.334Z" fill="#108FFF"/>
<path d="M40.14 33.624V39.004H38.66V38.364C38.4533 38.5973 38.2067 38.7773 37.92 38.904C37.6333 39.024 37.3233 39.084 36.99 39.084C36.2833 39.084 35.7233 38.8807 35.31 38.474C34.8967 38.0673 34.69 37.464 34.69 36.664V33.624H36.25V36.434C36.25 37.3007 36.6133 37.734 37.34 37.734C37.7133 37.734 38.0133 37.614 38.24 37.374C38.4667 37.1273 38.58 36.764 38.58 36.284V33.624H40.14Z" fill="#108FFF"/>
<path d="M44.8552 33.544C45.5219 33.544 46.0586 33.744 46.4652 34.144C46.8786 34.544 47.0852 35.1373 47.0852 35.924V39.004H45.5252V36.164C45.5252 35.7373 45.4319 35.4207 45.2452 35.214C45.0586 35.0007 44.7886 34.894 44.4352 34.894C44.0419 34.894 43.7286 35.0173 43.4952 35.264C43.2619 35.504 43.1452 35.864 43.1452 36.344V39.004H41.5852V33.624H43.0752V34.254C43.2819 34.0273 43.5386 33.854 43.8452 33.734C44.1519 33.6073 44.4886 33.544 44.8552 33.544Z" fill="#108FFF"/>
<path d="M48.4993 33.624H50.0593V39.004H48.4993V33.624ZM49.2793 32.874C48.9926 32.874 48.7593 32.7907 48.5793 32.624C48.3993 32.4573 48.3093 32.2507 48.3093 32.004C48.3093 31.7573 48.3993 31.5507 48.5793 31.384C48.7593 31.2173 48.9926 31.134 49.2793 31.134C49.566 31.134 49.7993 31.214 49.9793 31.374C50.1593 31.534 50.2493 31.734 50.2493 31.974C50.2493 32.234 50.1593 32.4507 49.9793 32.624C49.7993 32.7907 49.566 32.874 49.2793 32.874Z" fill="#108FFF"/>
<path d="M56.9671 33.624V40.944H55.4071V38.434C55.0205 38.8673 54.4838 39.084 53.7971 39.084C53.2905 39.084 52.8305 38.9707 52.4171 38.744C52.0105 38.5173 51.6905 38.194 51.4571 37.774C51.2238 37.354 51.1071 36.8673 51.1071 36.314C51.1071 35.7607 51.2238 35.274 51.4571 34.854C51.6905 34.434 52.0105 34.1107 52.4171 33.884C52.8305 33.6573 53.2905 33.544 53.7971 33.544C54.5305 33.544 55.0905 33.7773 55.4771 34.244V33.624H56.9671ZM54.0671 37.804C54.4605 37.804 54.7871 37.6707 55.0471 37.404C55.3071 37.1307 55.4371 36.7673 55.4371 36.314C55.4371 35.8607 55.3071 35.5007 55.0471 35.234C54.7871 34.9607 54.4605 34.824 54.0671 34.824C53.6671 34.824 53.3371 34.9607 53.0771 35.234C52.8171 35.5007 52.6871 35.8607 52.6871 36.314C52.6871 36.7673 52.8171 37.1307 53.0771 37.404C53.3371 37.6707 53.6671 37.804 54.0671 37.804Z" fill="#108FFF"/>
<path d="M63.8314 33.624V39.004H62.3514V38.364C62.1447 38.5973 61.8981 38.7773 61.6114 38.904C61.3247 39.024 61.0147 39.084 60.6814 39.084C59.9747 39.084 59.4147 38.8807 59.0014 38.474C58.5881 38.0673 58.3814 37.464 58.3814 36.664V33.624H59.9414V36.434C59.9414 37.3007 60.3047 37.734 61.0314 37.734C61.4047 37.734 61.7047 37.614 61.9314 37.374C62.1581 37.1273 62.2714 36.764 62.2714 36.284V33.624H63.8314Z" fill="#108FFF"/>
<path d="M70.5467 36.334C70.5467 36.354 70.5367 36.494 70.5167 36.754H66.4467C66.52 37.0873 66.6933 37.3507 66.9667 37.544C67.24 37.7373 67.58 37.834 67.9867 37.834C68.2667 37.834 68.5133 37.794 68.7267 37.714C68.9467 37.6273 69.15 37.494 69.3367 37.314L70.1667 38.214C69.66 38.794 68.92 39.084 67.9467 39.084C67.34 39.084 66.8033 38.9673 66.3367 38.734C65.87 38.494 65.51 38.164 65.2567 37.744C65.0033 37.324 64.8766 36.8473 64.8766 36.314C64.8766 35.7873 65 35.314 65.2467 34.894C65.5 34.4673 65.8433 34.1373 66.2767 33.904C66.7167 33.664 67.2067 33.544 67.7467 33.544C68.2733 33.544 68.75 33.6573 69.1767 33.884C69.6033 34.1107 69.9367 34.4373 70.1767 34.864C70.4233 35.284 70.5467 35.774 70.5467 36.334ZM67.7567 34.724C67.4033 34.724 67.1067 34.824 66.8667 35.024C66.6267 35.224 66.48 35.4973 66.4267 35.844H69.0767C69.0233 35.504 68.8767 35.234 68.6367 35.034C68.3967 34.8273 68.1033 34.724 67.7567 34.724Z" fill="#108FFF"/>
<path d="M36.21 46.334C36.3967 46.074 36.6467 45.8773 36.96 45.744C37.28 45.6107 37.6467 45.544 38.06 45.544V46.984C37.8867 46.9707 37.77 46.964 37.71 46.964C37.2633 46.964 36.9133 47.0907 36.66 47.344C36.4067 47.5907 36.28 47.964 36.28 48.464V51.004H34.72V45.624H36.21V46.334Z" fill="#108FFF"/>
<path d="M44.2088 48.334C44.2088 48.354 44.1988 48.494 44.1788 48.754H40.1088C40.1821 49.0873 40.3554 49.3507 40.6288 49.544C40.9021 49.7373 41.2421 49.834 41.6488 49.834C41.9288 49.834 42.1754 49.794 42.3888 49.714C42.6088 49.6273 42.8121 49.494 42.9988 49.314L43.8288 50.214C43.3221 50.794 42.5821 51.084 41.6088 51.084C41.0021 51.084 40.4654 50.9673 39.9988 50.734C39.5321 50.494 39.1721 50.164 38.9188 49.744C38.6654 49.324 38.5388 48.8473 38.5388 48.314C38.5388 47.7873 38.6621 47.314 38.9088 46.894C39.1621 46.4673 39.5054 46.1373 39.9388 45.904C40.3788 45.664 40.8688 45.544 41.4088 45.544C41.9354 45.544 42.4121 45.6573 42.8388 45.884C43.2654 46.1107 43.5988 46.4373 43.8388 46.864C44.0854 47.284 44.2088 47.774 44.2088 48.334ZM41.4188 46.724C41.0654 46.724 40.7688 46.824 40.5288 47.024C40.2888 47.224 40.1421 47.4973 40.0888 47.844H42.7388C42.6854 47.504 42.5388 47.234 42.2988 47.034C42.0588 46.8273 41.7654 46.724 41.4188 46.724Z" fill="#108FFF"/>
<path d="M46.9574 45.744H48.3374V46.944H46.9974V51.004H45.4374V46.944H44.6074V45.744H45.4374V45.504C45.4374 44.8907 45.6174 44.404 45.9774 44.044C46.344 43.684 46.8574 43.504 47.5174 43.504C47.7507 43.504 47.9707 43.5307 48.1774 43.584C48.3907 43.6307 48.5674 43.7007 48.7074 43.794L48.2974 44.924C48.1174 44.7973 47.9074 44.734 47.6674 44.734C47.194 44.734 46.9574 44.994 46.9574 45.514V45.744Z" fill="#108FFF"/>
<path d="M54.3162 48.334C54.3162 48.354 54.3062 48.494 54.2862 48.754H50.2162C50.2895 49.0873 50.4628 49.3507 50.7362 49.544C51.0095 49.7373 51.3495 49.834 51.7562 49.834C52.0362 49.834 52.2828 49.794 52.4962 49.714C52.7162 49.6273 52.9195 49.494 53.1062 49.314L53.9362 50.214C53.4295 50.794 52.6895 51.084 51.7162 51.084C51.1095 51.084 50.5728 50.9673 50.1062 50.734C49.6395 50.494 49.2795 50.164 49.0262 49.744C48.7728 49.324 48.6462 48.8473 48.6462 48.314C48.6462 47.7873 48.7695 47.314 49.0162 46.894C49.2695 46.4673 49.6128 46.1373 50.0462 45.904C50.4862 45.664 50.9762 45.544 51.5162 45.544C52.0428 45.544 52.5195 45.6573 52.9462 45.884C53.3728 46.1107 53.7062 46.4373 53.9462 46.864C54.1928 47.284 54.3162 47.774 54.3162 48.334ZM51.5262 46.724C51.1728 46.724 50.8762 46.824 50.6362 47.024C50.3962 47.224 50.2495 47.4973 50.1962 47.844H52.8462C52.7928 47.504 52.6462 47.234 52.4062 47.034C52.1662 46.8273 51.8728 46.724 51.5262 46.724Z" fill="#108FFF"/>
<path d="M56.8448 46.334C57.0314 46.074 57.2814 45.8773 57.5948 45.744C57.9148 45.6107 58.2814 45.544 58.6948 45.544V46.984C58.5214 46.9707 58.4048 46.964 58.3448 46.964C57.8981 46.964 57.5481 47.0907 57.2948 47.344C57.0414 47.5907 56.9148 47.964 56.9148 48.464V51.004H55.3548V45.624H56.8448V46.334Z" fill="#108FFF"/>
<path d="M61.1124 46.334C61.299 46.074 61.549 45.8773 61.8624 45.744C62.1824 45.6107 62.549 45.544 62.9624 45.544V46.984C62.789 46.9707 62.6724 46.964 62.6124 46.964C62.1657 46.964 61.8157 47.0907 61.5624 47.344C61.309 47.5907 61.1824 47.964 61.1824 48.464V51.004H59.6224V45.624H61.1124V46.334Z" fill="#108FFF"/>
<path d="M66.0306 45.544C66.864 45.544 67.504 45.744 67.9506 46.144C68.3973 46.5373 68.6206 47.134 68.6206 47.934V51.004H67.1606V50.334C66.8673 50.834 66.3206 51.084 65.5206 51.084C65.1073 51.084 64.7473 51.014 64.4406 50.874C64.1406 50.734 63.9106 50.5407 63.7506 50.294C63.5906 50.0473 63.5106 49.7673 63.5106 49.454C63.5106 48.954 63.6973 48.5607 64.0706 48.274C64.4506 47.9873 65.034 47.844 65.8206 47.844H67.0606C67.0606 47.504 66.9573 47.244 66.7506 47.064C66.544 46.8773 66.234 46.784 65.8206 46.784C65.534 46.784 65.2506 46.8307 64.9706 46.924C64.6973 47.0107 64.464 47.1307 64.2706 47.284L63.7106 46.194C64.004 45.9873 64.354 45.8273 64.7606 45.714C65.174 45.6007 65.5973 45.544 66.0306 45.544ZM65.9106 50.034C66.1773 50.034 66.414 49.974 66.6206 49.854C66.8273 49.7273 66.974 49.544 67.0606 49.304V48.754H65.9906C65.3506 48.754 65.0306 48.964 65.0306 49.384C65.0306 49.584 65.1073 49.744 65.2606 49.864C65.4206 49.9773 65.6373 50.034 65.9106 50.034Z" fill="#108FFF"/>
<path d="M70.0325 43.584H71.5925V51.004H70.0325V43.584Z" fill="#108FFF"/>
<path d="M78.4724 51.084C77.899 51.084 77.3824 50.9673 76.9224 50.734C76.469 50.494 76.1124 50.164 75.8524 49.744C75.599 49.324 75.4724 48.8473 75.4724 48.314C75.4724 47.7807 75.599 47.304 75.8524 46.884C76.1124 46.464 76.469 46.1373 76.9224 45.904C77.3824 45.664 77.899 45.544 78.4724 45.544C79.039 45.544 79.5324 45.664 79.9524 45.904C80.379 46.1373 80.689 46.474 80.8824 46.914L79.6724 47.564C79.3924 47.0707 78.989 46.824 78.4624 46.824C78.0557 46.824 77.719 46.9573 77.4524 47.224C77.1857 47.4907 77.0524 47.854 77.0524 48.314C77.0524 48.774 77.1857 49.1373 77.4524 49.404C77.719 49.6707 78.0557 49.804 78.4624 49.804C78.9957 49.804 79.399 49.5573 79.6724 49.064L80.8824 49.724C80.689 50.1507 80.379 50.484 79.9524 50.724C79.5324 50.964 79.039 51.084 78.4724 51.084Z" fill="#108FFF"/>
<path d="M84.2722 51.084C83.7055 51.084 83.1955 50.9673 82.7422 50.734C82.2955 50.494 81.9455 50.164 81.6922 49.744C81.4389 49.324 81.3122 48.8473 81.3122 48.314C81.3122 47.7807 81.4389 47.304 81.6922 46.884C81.9455 46.464 82.2955 46.1373 82.7422 45.904C83.1955 45.664 83.7055 45.544 84.2722 45.544C84.8389 45.544 85.3455 45.664 85.7922 45.904C86.2389 46.1373 86.5889 46.464 86.8422 46.884C87.0955 47.304 87.2222 47.7807 87.2222 48.314C87.2222 48.8473 87.0955 49.324 86.8422 49.744C86.5889 50.164 86.2389 50.494 85.7922 50.734C85.3455 50.9673 84.8389 51.084 84.2722 51.084ZM84.2722 49.804C84.6722 49.804 84.9989 49.6707 85.2522 49.404C85.5122 49.1307 85.6422 48.7673 85.6422 48.314C85.6422 47.8607 85.5122 47.5007 85.2522 47.234C84.9989 46.9607 84.6722 46.824 84.2722 46.824C83.8722 46.824 83.5422 46.9607 83.2822 47.234C83.0222 47.5007 82.8922 47.8607 82.8922 48.314C82.8922 48.7673 83.0222 49.1307 83.2822 49.404C83.5422 49.6707 83.8722 49.804 84.2722 49.804Z" fill="#108FFF"/>
<path d="M93.7449 43.584V51.004H92.2549V50.384C91.8683 50.8507 91.3083 51.084 90.5749 51.084C90.0683 51.084 89.6083 50.9707 89.1949 50.744C88.7883 50.5173 88.4683 50.194 88.2349 49.774C88.0016 49.354 87.8849 48.8673 87.8849 48.314C87.8849 47.7607 88.0016 47.274 88.2349 46.854C88.4683 46.434 88.7883 46.1107 89.1949 45.884C89.6083 45.6573 90.0683 45.544 90.5749 45.544C91.2616 45.544 91.7983 45.7607 92.1849 46.194V43.584H93.7449ZM90.8449 49.804C91.2383 49.804 91.5649 49.6707 91.8249 49.404C92.0849 49.1307 92.2149 48.7673 92.2149 48.314C92.2149 47.8607 92.0849 47.5007 91.8249 47.234C91.5649 46.9607 91.2383 46.824 90.8449 46.824C90.4449 46.824 90.1149 46.9607 89.8549 47.234C89.5949 47.5007 89.4649 47.8607 89.4649 48.314C89.4649 48.7673 89.5949 49.1307 89.8549 49.404C90.1149 49.6707 90.4449 49.804 90.8449 49.804Z" fill="#108FFF"/>
<path d="M100.459 48.334C100.459 48.354 100.449 48.494 100.429 48.754H96.3588C96.4321 49.0873 96.6054 49.3507 96.8788 49.544C97.1521 49.7373 97.4921 49.834 97.8988 49.834C98.1788 49.834 98.4254 49.794 98.6388 49.714C98.8588 49.6273 99.0621 49.494 99.2488 49.314L100.079 50.214C99.5721 50.794 98.8321 51.084 97.8588 51.084C97.2521 51.084 96.7154 50.9673 96.2488 50.734C95.7821 50.494 95.4221 50.164 95.1688 49.744C94.9154 49.324 94.7888 48.8473 94.7888 48.314C94.7888 47.7873 94.9121 47.314 95.1588 46.894C95.4121 46.4673 95.7554 46.1373 96.1888 45.904C96.6288 45.664 97.1188 45.544 97.6588 45.544C98.1854 45.544 98.6621 45.6573 99.0888 45.884C99.5154 46.1107 99.8488 46.4373 100.089 46.864C100.335 47.284 100.459 47.774 100.459 48.334ZM97.6688 46.724C97.3154 46.724 97.0188 46.824 96.7788 47.024C96.5388 47.224 96.3921 47.4973 96.3388 47.844H98.9888C98.9354 47.504 98.7888 47.234 98.5488 47.034C98.3088 46.8273 98.0154 46.724 97.6688 46.724Z" fill="#108FFF"/>
<path d="M43.36 57.624L41.41 63.004H39.91L38.7 59.664L37.45 63.004H35.95L34.01 57.624H35.48L36.75 61.264L38.07 57.624H39.39L40.67 61.264L41.98 57.624H43.36Z" fill="#108FFF"/>
<path d="M44.0852 57.624H45.6452V63.004H44.0852V57.624ZM44.8652 56.874C44.5786 56.874 44.3452 56.7907 44.1652 56.624C43.9852 56.4573 43.8952 56.2507 43.8952 56.004C43.8952 55.7573 43.9852 55.5507 44.1652 55.384C44.3452 55.2173 44.5786 55.134 44.8652 55.134C45.1519 55.134 45.3852 55.214 45.5652 55.374C45.7452 55.534 45.8352 55.734 45.8352 55.974C45.8352 56.234 45.7452 56.4507 45.5652 56.624C45.3852 56.7907 45.1519 56.874 44.8652 56.874Z" fill="#108FFF"/>
<path d="M50.5631 62.744C50.4097 62.8573 50.2197 62.944 49.9931 63.004C49.7731 63.0573 49.5397 63.084 49.2931 63.084C48.6531 63.084 48.1564 62.9207 47.8031 62.594C47.4564 62.2673 47.2831 61.7873 47.2831 61.154V58.944H46.4531V57.744H47.2831V56.434H48.8431V57.744H50.1831V58.944H48.8431V61.134C48.8431 61.3607 48.8997 61.5373 49.0131 61.664C49.1331 61.784 49.2997 61.844 49.5131 61.844C49.7597 61.844 49.9697 61.7773 50.1431 61.644L50.5631 62.744Z" fill="#108FFF"/>
<path d="M54.7088 57.544C55.3754 57.544 55.9121 57.744 56.3188 58.144C56.7321 58.544 56.9388 59.1373 56.9388 59.924V63.004H55.3788V60.164C55.3788 59.7373 55.2854 59.4207 55.0988 59.214C54.9121 59.0007 54.6421 58.894 54.2888 58.894C53.8954 58.894 53.5821 59.0173 53.3488 59.264C53.1154 59.504 52.9988 59.864 52.9988 60.344V63.004H51.4388V55.584H52.9988V58.184C53.2054 57.9773 53.4554 57.8207 53.7488 57.714C54.0421 57.6007 54.3621 57.544 54.7088 57.544Z" fill="#108FFF"/>
<path d="M66.5249 57.624L64.0949 63.334C63.8482 63.954 63.5415 64.3907 63.1749 64.644C62.8149 64.8973 62.3782 65.024 61.8649 65.024C61.5849 65.024 61.3082 64.9807 61.0349 64.894C60.7615 64.8073 60.5382 64.6873 60.3649 64.534L60.9349 63.424C61.0549 63.5307 61.1915 63.614 61.3449 63.674C61.5049 63.734 61.6615 63.764 61.8149 63.764C62.0282 63.764 62.2015 63.7107 62.3349 63.604C62.4682 63.504 62.5882 63.334 62.6949 63.094L62.7149 63.044L60.3849 57.624H61.9949L63.5049 61.274L65.0249 57.624H66.5249Z" fill="#108FFF"/>
<path d="M69.5749 63.084C69.0083 63.084 68.4983 62.9673 68.0449 62.734C67.5983 62.494 67.2483 62.164 66.9949 61.744C66.7416 61.324 66.6149 60.8473 66.6149 60.314C66.6149 59.7807 66.7416 59.304 66.9949 58.884C67.2483 58.464 67.5983 58.1373 68.0449 57.904C68.4983 57.664 69.0083 57.544 69.5749 57.544C70.1416 57.544 70.6483 57.664 71.0949 57.904C71.5416 58.1373 71.8916 58.464 72.1449 58.884C72.3983 59.304 72.5249 59.7807 72.5249 60.314C72.5249 60.8473 72.3983 61.324 72.1449 61.744C71.8916 62.164 71.5416 62.494 71.0949 62.734C70.6483 62.9673 70.1416 63.084 69.5749 63.084ZM69.5749 61.804C69.9749 61.804 70.3016 61.6707 70.5549 61.404C70.8149 61.1307 70.9449 60.7673 70.9449 60.314C70.9449 59.8607 70.8149 59.5007 70.5549 59.234C70.3016 58.9607 69.9749 58.824 69.5749 58.824C69.1749 58.824 68.8449 58.9607 68.5849 59.234C68.3249 59.5007 68.1949 59.8607 68.1949 60.314C68.1949 60.7673 68.3249 61.1307 68.5849 61.404C68.8449 61.6707 69.1749 61.804 69.5749 61.804Z" fill="#108FFF"/>
<path d="M78.9877 57.624V63.004H77.5077V62.364C77.301 62.5973 77.0543 62.7773 76.7677 62.904C76.481 63.024 76.171 63.084 75.8377 63.084C75.131 63.084 74.571 62.8807 74.1577 62.474C73.7443 62.0673 73.5377 61.464 73.5377 60.664V57.624H75.0977V60.434C75.0977 61.3007 75.461 61.734 76.1877 61.734C76.561 61.734 76.861 61.614 77.0877 61.374C77.3143 61.1273 77.4277 60.764 77.4277 60.284V57.624H78.9877Z" fill="#108FFF"/>
<path d="M81.9229 58.334C82.1096 58.074 82.3596 57.8773 82.6729 57.744C82.9929 57.6107 83.3596 57.544 83.7729 57.544V58.984C83.5996 58.9707 83.4829 58.964 83.4229 58.964C82.9762 58.964 82.6262 59.0907 82.3729 59.344C82.1196 59.5907 81.9929 59.964 81.9929 60.464V63.004H80.4329V57.624H81.9229V58.334Z" fill="#108FFF"/>
<path d="M36.43 69.744H37.81V70.944H36.47V75.004H34.91V70.944H34.08V69.744H34.91V69.504C34.91 68.8907 35.09 68.404 35.45 68.044C35.8167 67.684 36.33 67.504 36.99 67.504C37.2233 67.504 37.4433 67.5307 37.65 67.584C37.8633 67.6307 38.04 67.7007 38.18 67.794L37.77 68.924C37.59 68.7973 37.38 68.734 37.14 68.734C36.6667 68.734 36.43 68.994 36.43 69.514V69.744Z" fill="#108FFF"/>
<path d="M40.878 70.334C41.0646 70.074 41.3146 69.8773 41.628 69.744C41.948 69.6107 42.3146 69.544 42.728 69.544V70.984C42.5546 70.9707 42.438 70.964 42.378 70.964C41.9313 70.964 41.5813 71.0907 41.328 71.344C41.0746 71.5907 40.948 71.964 40.948 72.464V75.004H39.388V69.624H40.878V70.334Z" fill="#108FFF"/>
<path d="M43.6556 69.624H45.2156V75.004H43.6556V69.624ZM44.4356 68.874C44.1489 68.874 43.9156 68.7907 43.7356 68.624C43.5556 68.4573 43.4656 68.2507 43.4656 68.004C43.4656 67.7573 43.5556 67.5507 43.7356 67.384C43.9156 67.2173 44.1489 67.134 44.4356 67.134C44.7222 67.134 44.9556 67.214 45.1356 67.374C45.3156 67.534 45.4056 67.734 45.4056 67.974C45.4056 68.234 45.3156 68.4507 45.1356 68.624C44.9556 68.7907 44.7222 68.874 44.4356 68.874Z" fill="#108FFF"/>
<path d="M51.9334 72.334C51.9334 72.354 51.9234 72.494 51.9034 72.754H47.8334C47.9067 73.0873 48.08 73.3507 48.3534 73.544C48.6267 73.7373 48.9667 73.834 49.3734 73.834C49.6534 73.834 49.9 73.794 50.1134 73.714C50.3334 73.6273 50.5367 73.494 50.7234 73.314L51.5534 74.214C51.0467 74.794 50.3067 75.084 49.3334 75.084C48.7267 75.084 48.19 74.9673 47.7234 74.734C47.2567 74.494 46.8967 74.164 46.6434 73.744C46.39 73.324 46.2634 72.8473 46.2634 72.314C46.2634 71.7873 46.3867 71.314 46.6334 70.894C46.8867 70.4673 47.23 70.1373 47.6634 69.904C48.1034 69.664 48.5934 69.544 49.1334 69.544C49.66 69.544 50.1367 69.6573 50.5634 69.884C50.99 70.1107 51.3234 70.4373 51.5634 70.864C51.81 71.284 51.9334 71.774 51.9334 72.334ZM49.1434 70.724C48.79 70.724 48.4934 70.824 48.2534 71.024C48.0134 71.224 47.8667 71.4973 47.8134 71.844H50.4634C50.41 71.504 50.2634 71.234 50.0234 71.034C49.7834 70.8273 49.49 70.724 49.1434 70.724Z" fill="#108FFF"/>
<path d="M56.242 69.544C56.9086 69.544 57.4453 69.744 57.852 70.144C58.2653 70.544 58.472 71.1373 58.472 71.924V75.004H56.912V72.164C56.912 71.7373 56.8186 71.4207 56.632 71.214C56.4453 71.0007 56.1753 70.894 55.822 70.894C55.4286 70.894 55.1153 71.0173 54.882 71.264C54.6486 71.504 54.532 71.864 54.532 72.344V75.004H52.972V69.624H54.462V70.254C54.6686 70.0273 54.9253 69.854 55.232 69.734C55.5386 69.6073 55.8753 69.544 56.242 69.544Z" fill="#108FFF"/>
<path d="M65.4246 67.584V75.004H63.9346V74.384C63.548 74.8507 62.988 75.084 62.2546 75.084C61.748 75.084 61.288 74.9707 60.8746 74.744C60.468 74.5173 60.148 74.194 59.9146 73.774C59.6813 73.354 59.5646 72.8673 59.5646 72.314C59.5646 71.7607 59.6813 71.274 59.9146 70.854C60.148 70.434 60.468 70.1107 60.8746 69.884C61.288 69.6573 61.748 69.544 62.2546 69.544C62.9413 69.544 63.478 69.7607 63.8646 70.194V67.584H65.4246ZM62.5246 73.804C62.918 73.804 63.2446 73.6707 63.5046 73.404C63.7646 73.1307 63.8946 72.7673 63.8946 72.314C63.8946 71.8607 63.7646 71.5007 63.5046 71.234C63.2446 70.9607 62.918 70.824 62.5246 70.824C62.1246 70.824 61.7946 70.9607 61.5346 71.234C61.2746 71.5007 61.1446 71.8607 61.1446 72.314C61.1446 72.7673 61.2746 73.1307 61.5346 73.404C61.7946 73.6707 62.1246 73.804 62.5246 73.804Z" fill="#108FFF"/>
<path d="M68.6784 75.084C68.2318 75.084 67.7951 75.0307 67.3685 74.924C66.9418 74.8107 66.6018 74.6707 66.3484 74.504L66.8685 73.384C67.1085 73.5373 67.3984 73.664 67.7384 73.764C68.0784 73.8573 68.4118 73.904 68.7384 73.904C69.3984 73.904 69.7285 73.7407 69.7285 73.414C69.7285 73.2607 69.6385 73.1507 69.4585 73.084C69.2785 73.0173 69.0018 72.9607 68.6284 72.914C68.1884 72.8473 67.8251 72.7707 67.5384 72.684C67.2518 72.5973 67.0018 72.444 66.7884 72.224C66.5818 72.004 66.4785 71.6907 66.4785 71.284C66.4785 70.944 66.5751 70.644 66.7684 70.384C66.9684 70.1173 67.2551 69.9107 67.6284 69.764C68.0084 69.6173 68.4551 69.544 68.9684 69.544C69.3484 69.544 69.7251 69.5873 70.0984 69.674C70.4784 69.754 70.7918 69.8673 71.0384 70.014L70.5184 71.124C70.0451 70.8573 69.5284 70.724 68.9684 70.724C68.6351 70.724 68.3851 70.7707 68.2184 70.864C68.0518 70.9573 67.9684 71.0773 67.9684 71.224C67.9684 71.3907 68.0584 71.5073 68.2384 71.574C68.4184 71.6407 68.7051 71.704 69.0984 71.764C69.5384 71.8373 69.8984 71.9173 70.1784 72.004C70.4584 72.084 70.7018 72.234 70.9084 72.454C71.1151 72.674 71.2184 72.9807 71.2184 73.374C71.2184 73.7073 71.1184 74.004 70.9184 74.264C70.7184 74.524 70.4251 74.7273 70.0384 74.874C69.6584 75.014 69.2051 75.084 68.6784 75.084Z" fill="#108FFF"/>
<path d="M271.19 24.5239V27.0039H269.57V24.5039L266.86 20.0039H268.58L270.45 23.1139L272.32 20.0039H273.91L271.19 24.5239Z" fill="#108FFF"/>
<path d="M276.442 27.0839C275.876 27.0839 275.366 26.9672 274.912 26.7339C274.466 26.4939 274.116 26.1639 273.862 25.7439C273.609 25.3239 273.482 24.8472 273.482 24.3139C273.482 23.7806 273.609 23.3039 273.862 22.8839C274.116 22.4639 274.466 22.1372 274.912 21.9039C275.366 21.6639 275.876 21.5439 276.442 21.5439C277.009 21.5439 277.516 21.6639 277.962 21.9039C278.409 22.1372 278.759 22.4639 279.012 22.8839C279.266 23.3039 279.392 23.7806 279.392 24.3139C279.392 24.8472 279.266 25.3239 279.012 25.7439C278.759 26.1639 278.409 26.4939 277.962 26.7339C277.516 26.9672 277.009 27.0839 276.442 27.0839ZM276.442 25.8039C276.842 25.8039 277.169 25.6706 277.422 25.4039C277.682 25.1306 277.812 24.7672 277.812 24.3139C277.812 23.8606 277.682 23.5006 277.422 23.2339C277.169 22.9606 276.842 22.8239 276.442 22.8239C276.042 22.8239 275.712 22.9606 275.452 23.2339C275.192 23.5006 275.062 23.8606 275.062 24.3139C275.062 24.7672 275.192 25.1306 275.452 25.4039C275.712 25.6706 276.042 25.8039 276.442 25.8039Z" fill="#108FFF"/>
<path d="M285.855 21.6239V27.0039H284.375V26.3639C284.168 26.5972 283.922 26.7772 283.635 26.9039C283.348 27.0239 283.038 27.0839 282.705 27.0839C281.998 27.0839 281.438 26.8806 281.025 26.4739C280.612 26.0672 280.405 25.4639 280.405 24.6639V21.6239H281.965V24.4339C281.965 25.3006 282.328 25.7339 283.055 25.7339C283.428 25.7339 283.728 25.6139 283.955 25.3739C284.182 25.1272 284.295 24.7639 284.295 24.2839V21.6239H285.855Z" fill="#108FFF"/>
<path d="M295.682 21.6239V26.1039C295.682 27.0906 295.426 27.8239 294.912 28.3039C294.399 28.7839 293.649 29.0239 292.662 29.0239C292.142 29.0239 291.649 28.9606 291.182 28.8339C290.716 28.7072 290.329 28.5239 290.022 28.2839L290.642 27.1639C290.869 27.3506 291.156 27.4972 291.502 27.6039C291.849 27.7172 292.196 27.7739 292.542 27.7739C293.082 27.7739 293.479 27.6506 293.732 27.4039C293.992 27.1639 294.122 26.7972 294.122 26.3039V26.0739C293.716 26.5206 293.149 26.7439 292.422 26.7439C291.929 26.7439 291.476 26.6372 291.062 26.4239C290.656 26.2039 290.332 25.8972 290.092 25.5039C289.852 25.1106 289.732 24.6572 289.732 24.1439C289.732 23.6306 289.852 23.1772 290.092 22.7839C290.332 22.3906 290.656 22.0872 291.062 21.8739C291.476 21.6539 291.929 21.5439 292.422 21.5439C293.202 21.5439 293.796 21.8006 294.202 22.3139V21.6239H295.682ZM292.732 25.4639C293.146 25.4639 293.482 25.3439 293.742 25.1039C294.009 24.8572 294.142 24.5372 294.142 24.1439C294.142 23.7506 294.009 23.4339 293.742 23.1939C293.482 22.9472 293.146 22.8239 292.732 22.8239C292.319 22.8239 291.979 22.9472 291.712 23.1939C291.446 23.4339 291.312 23.7506 291.312 24.1439C291.312 24.5372 291.446 24.8572 291.712 25.1039C291.979 25.3439 292.319 25.4639 292.732 25.4639Z" fill="#108FFF"/>
<path d="M302.404 24.3339C302.404 24.3539 302.394 24.4939 302.374 24.7539H298.304C298.378 25.0872 298.551 25.3506 298.824 25.5439C299.098 25.7372 299.438 25.8339 299.844 25.8339C300.124 25.8339 300.371 25.7939 300.584 25.7139C300.804 25.6272 301.008 25.4939 301.194 25.3139L302.024 26.2139C301.518 26.7939 300.778 27.0839 299.804 27.0839C299.198 27.0839 298.661 26.9672 298.194 26.7339C297.728 26.4939 297.368 26.1639 297.114 25.7439C296.861 25.3239 296.734 24.8472 296.734 24.3139C296.734 23.7872 296.858 23.3139 297.104 22.8939C297.358 22.4672 297.701 22.1372 298.134 21.9039C298.574 21.6639 299.064 21.5439 299.604 21.5439C300.131 21.5439 300.608 21.6572 301.034 21.8839C301.461 22.1106 301.794 22.4372 302.034 22.8639C302.281 23.2839 302.404 23.7739 302.404 24.3339ZM299.614 22.7239C299.261 22.7239 298.964 22.8239 298.724 23.0239C298.484 23.2239 298.338 23.4972 298.284 23.8439H300.934C300.881 23.5039 300.734 23.2339 300.494 23.0339C300.254 22.8272 299.961 22.7239 299.614 22.7239Z" fill="#108FFF"/>
<path d="M306.913 26.7439C306.759 26.8572 306.569 26.9439 306.343 27.0039C306.123 27.0572 305.889 27.0839 305.643 27.0839C305.003 27.0839 304.506 26.9206 304.153 26.5939C303.806 26.2672 303.633 25.7872 303.633 25.1539V22.9439H302.803V21.7439H303.633V20.4339H305.193V21.7439H306.533V22.9439H305.193V25.1339C305.193 25.3606 305.249 25.5372 305.363 25.6639C305.483 25.7839 305.649 25.8439 305.863 25.8439C306.109 25.8439 306.319 25.7772 306.493 25.6439L306.913 26.7439Z" fill="#108FFF"/>
<path d="M269.89 33.5439C270.723 33.5439 271.363 33.7439 271.81 34.1439C272.257 34.5372 272.48 35.1339 272.48 35.9339V39.0039H271.02V38.3339C270.727 38.8339 270.18 39.0839 269.38 39.0839C268.967 39.0839 268.607 39.0139 268.3 38.8739C268 38.7339 267.77 38.5406 267.61 38.2939C267.45 38.0472 267.37 37.7672 267.37 37.4539C267.37 36.9539 267.557 36.5606 267.93 36.2739C268.31 35.9872 268.893 35.8439 269.68 35.8439H270.92C270.92 35.5039 270.817 35.2439 270.61 35.0639C270.403 34.8772 270.093 34.7839 269.68 34.7839C269.393 34.7839 269.11 34.8306 268.83 34.9239C268.557 35.0106 268.323 35.1306 268.13 35.2839L267.57 34.1939C267.863 33.9872 268.213 33.8272 268.62 33.7139C269.033 33.6006 269.457 33.5439 269.89 33.5439ZM269.77 38.0339C270.037 38.0339 270.273 37.9739 270.48 37.8539C270.687 37.7272 270.833 37.5439 270.92 37.3039V36.7539H269.85C269.21 36.7539 268.89 36.9639 268.89 37.3839C268.89 37.5839 268.967 37.7439 269.12 37.8639C269.28 37.9772 269.497 38.0339 269.77 38.0339Z" fill="#108FFF"/>
<path d="M282.434 33.6239L280.484 39.0039H278.984L277.774 35.6639L276.524 39.0039H275.024L273.084 33.6239H274.554L275.824 37.2639L277.144 33.6239H278.464L279.744 37.2639L281.054 33.6239H282.434Z" fill="#108FFF"/>
<path d="M288.283 36.3339C288.283 36.3539 288.273 36.4939 288.253 36.7539H284.183C284.256 37.0872 284.43 37.3506 284.703 37.5439C284.976 37.7372 285.316 37.8339 285.723 37.8339C286.003 37.8339 286.25 37.7939 286.463 37.7139C286.683 37.6272 286.886 37.4939 287.073 37.3139L287.903 38.2139C287.396 38.7939 286.656 39.0839 285.683 39.0839C285.076 39.0839 284.54 38.9672 284.073 38.7339C283.606 38.4939 283.246 38.1639 282.993 37.7439C282.74 37.3239 282.613 36.8472 282.613 36.3139C282.613 35.7872 282.736 35.3139 282.983 34.8939C283.236 34.4672 283.58 34.1372 284.013 33.9039C284.453 33.6639 284.943 33.5439 285.483 33.5439C286.01 33.5439 286.486 33.6572 286.913 33.8839C287.34 34.1106 287.673 34.4372 287.913 34.8639C288.16 35.2839 288.283 35.7739 288.283 36.3339ZM285.493 34.7239C285.14 34.7239 284.843 34.8239 284.603 35.0239C284.363 35.2239 284.216 35.4972 284.163 35.8439H286.813C286.76 35.5039 286.613 35.2339 286.373 35.0339C286.133 34.8272 285.84 34.7239 285.493 34.7239Z" fill="#108FFF"/>
<path d="M291.132 39.0839C290.685 39.0839 290.248 39.0306 289.822 38.9239C289.395 38.8106 289.055 38.6706 288.802 38.5039L289.322 37.3839C289.562 37.5372 289.852 37.6639 290.192 37.7639C290.532 37.8572 290.865 37.9039 291.192 37.9039C291.852 37.9039 292.182 37.7406 292.182 37.4139C292.182 37.2606 292.092 37.1506 291.912 37.0839C291.732 37.0172 291.455 36.9606 291.082 36.9139C290.642 36.8472 290.278 36.7706 289.992 36.6839C289.705 36.5972 289.455 36.4439 289.242 36.2239C289.035 36.0039 288.932 35.6906 288.932 35.2839C288.932 34.9439 289.028 34.6439 289.222 34.3839C289.422 34.1172 289.708 33.9106 290.082 33.7639C290.462 33.6172 290.908 33.5439 291.422 33.5439C291.802 33.5439 292.178 33.5872 292.552 33.6739C292.932 33.7539 293.245 33.8672 293.492 34.0139L292.972 35.1239C292.498 34.8572 291.982 34.7239 291.422 34.7239C291.088 34.7239 290.838 34.7706 290.672 34.8639C290.505 34.9572 290.422 35.0772 290.422 35.2239C290.422 35.3906 290.512 35.5072 290.692 35.5739C290.872 35.6406 291.158 35.7039 291.552 35.7639C291.992 35.8372 292.352 35.9172 292.632 36.0039C292.912 36.0839 293.155 36.2339 293.362 36.4539C293.568 36.6739 293.672 36.9806 293.672 37.3739C293.672 37.7072 293.572 38.0039 293.372 38.2639C293.172 38.5239 292.878 38.7272 292.492 38.8739C292.112 39.0139 291.658 39.0839 291.132 39.0839Z" fill="#108FFF"/>
<path d="M297.194 39.0839C296.628 39.0839 296.118 38.9672 295.664 38.7339C295.218 38.4939 294.868 38.1639 294.614 37.7439C294.361 37.3239 294.234 36.8472 294.234 36.3139C294.234 35.7806 294.361 35.3039 294.614 34.8839C294.868 34.4639 295.218 34.1372 295.664 33.9039C296.118 33.6639 296.628 33.5439 297.194 33.5439C297.761 33.5439 298.268 33.6639 298.714 33.9039C299.161 34.1372 299.511 34.4639 299.764 34.8839C300.018 35.3039 300.144 35.7806 300.144 36.3139C300.144 36.8472 300.018 37.3239 299.764 37.7439C299.511 38.1639 299.161 38.4939 298.714 38.7339C298.268 38.9672 297.761 39.0839 297.194 39.0839ZM297.194 37.8039C297.594 37.8039 297.921 37.6706 298.174 37.4039C298.434 37.1306 298.564 36.7672 298.564 36.3139C298.564 35.8606 298.434 35.5006 298.174 35.2339C297.921 34.9606 297.594 34.8239 297.194 34.8239C296.794 34.8239 296.464 34.9606 296.204 35.2339C295.944 35.5006 295.814 35.8606 295.814 36.3139C295.814 36.7672 295.944 37.1306 296.204 37.4039C296.464 37.6706 296.794 37.8039 297.194 37.8039Z" fill="#108FFF"/>
<path d="M308.077 33.5439C308.75 33.5439 309.284 33.7439 309.677 34.1439C310.077 34.5372 310.277 35.1306 310.277 35.9239V39.0039H308.717V36.1639C308.717 35.7372 308.627 35.4206 308.447 35.2139C308.274 35.0006 308.024 34.8939 307.697 34.8939C307.33 34.8939 307.04 35.0139 306.827 35.2539C306.614 35.4872 306.507 35.8372 306.507 36.3039V39.0039H304.947V36.1639C304.947 35.3172 304.607 34.8939 303.927 34.8939C303.567 34.8939 303.28 35.0139 303.067 35.2539C302.854 35.4872 302.747 35.8372 302.747 36.3039V39.0039H301.187V33.6239H302.677V34.2439C302.877 34.0172 303.12 33.8439 303.407 33.7239C303.7 33.6039 304.02 33.5439 304.367 33.5439C304.747 33.5439 305.09 33.6206 305.397 33.7739C305.704 33.9206 305.95 34.1372 306.137 34.4239C306.357 34.1439 306.634 33.9272 306.967 33.7739C307.307 33.6206 307.677 33.5439 308.077 33.5439Z" fill="#108FFF"/>
<path d="M317.004 36.3339C317.004 36.3539 316.994 36.4939 316.974 36.7539H312.904C312.977 37.0872 313.15 37.3506 313.424 37.5439C313.697 37.7372 314.037 37.8339 314.444 37.8339C314.724 37.8339 314.97 37.7939 315.184 37.7139C315.404 37.6272 315.607 37.4939 315.794 37.3139L316.624 38.2139C316.117 38.7939 315.377 39.0839 314.404 39.0839C313.797 39.0839 313.26 38.9672 312.794 38.7339C312.327 38.4939 311.967 38.1639 311.714 37.7439C311.46 37.3239 311.334 36.8472 311.334 36.3139C311.334 35.7872 311.457 35.3139 311.704 34.8939C311.957 34.4672 312.3 34.1372 312.734 33.9039C313.174 33.6639 313.664 33.5439 314.204 33.5439C314.73 33.5439 315.207 33.6572 315.634 33.8839C316.06 34.1106 316.394 34.4372 316.634 34.8639C316.88 35.2839 317.004 35.7739 317.004 36.3339ZM314.214 34.7239C313.86 34.7239 313.564 34.8239 313.324 35.0239C313.084 35.2239 312.937 35.4972 312.884 35.8439H315.534C315.48 35.5039 315.334 35.2339 315.094 35.0339C314.854 34.8272 314.56 34.7239 314.214 34.7239Z" fill="#108FFF"/>
<path d="M274.2 51.0039L274.19 46.8039L272.13 50.2639H271.4L269.35 46.8939V51.0039H267.83V44.0039H269.17L271.79 48.3539L274.37 44.0039H275.7L275.72 51.0039H274.2Z" fill="#108FFF"/>
<path d="M282.611 45.6239L280.181 51.3339C279.934 51.9539 279.628 52.3906 279.261 52.6439C278.901 52.8972 278.464 53.0239 277.951 53.0239C277.671 53.0239 277.394 52.9806 277.121 52.8939C276.848 52.8072 276.624 52.6872 276.451 52.5339L277.021 51.4239C277.141 51.5306 277.278 51.6139 277.431 51.6739C277.591 51.7339 277.748 51.7639 277.901 51.7639C278.114 51.7639 278.288 51.7106 278.421 51.6039C278.554 51.5039 278.674 51.3339 278.781 51.0939L278.801 51.0439L276.471 45.6239H278.081L279.591 49.2739L281.111 45.6239H282.611Z" fill="#108FFF"/>
<path d="M282.701 53.0239C282.154 53.0239 281.738 52.9239 281.451 52.7239L281.871 51.5939C282.051 51.7206 282.271 51.7839 282.531 51.7839C282.731 51.7839 282.888 51.7172 283.001 51.5839C283.114 51.4572 283.171 51.2639 283.171 51.0039V45.6239H284.731V50.9939C284.731 51.6206 284.551 52.1139 284.191 52.4739C283.838 52.8406 283.341 53.0239 282.701 53.0239ZM283.951 44.8739C283.664 44.8739 283.431 44.7906 283.251 44.6239C283.071 44.4572 282.981 44.2506 282.981 44.0039C282.981 43.7572 283.071 43.5506 283.251 43.3839C283.431 43.2172 283.664 43.1339 283.951 43.1339C284.238 43.1339 284.471 43.2139 284.651 43.3739C284.831 43.5339 284.921 43.7339 284.921 43.9739C284.921 44.2339 284.831 44.4506 284.651 44.6239C284.471 44.7906 284.238 44.8739 283.951 44.8739Z" fill="#108FFF"/>
<path d="M288.727 51.0839C288.161 51.0839 287.651 50.9672 287.197 50.7339C286.751 50.4939 286.401 50.1639 286.147 49.7439C285.894 49.3239 285.767 48.8472 285.767 48.3139C285.767 47.7806 285.894 47.3039 286.147 46.8839C286.401 46.4639 286.751 46.1372 287.197 45.9039C287.651 45.6639 288.161 45.5439 288.727 45.5439C289.294 45.5439 289.801 45.6639 290.247 45.9039C290.694 46.1372 291.044 46.4639 291.297 46.8839C291.551 47.3039 291.677 47.7806 291.677 48.3139C291.677 48.8472 291.551 49.3239 291.297 49.7439C291.044 50.1639 290.694 50.4939 290.247 50.7339C289.801 50.9672 289.294 51.0839 288.727 51.0839ZM288.727 49.8039C289.127 49.8039 289.454 49.6706 289.707 49.4039C289.967 49.1306 290.097 48.7672 290.097 48.3139C290.097 47.8606 289.967 47.5006 289.707 47.2339C289.454 46.9606 289.127 46.8239 288.727 46.8239C288.327 46.8239 287.997 46.9606 287.737 47.2339C287.477 47.5006 287.347 47.8606 287.347 48.3139C287.347 48.7672 287.477 49.1306 287.737 49.4039C287.997 49.6706 288.327 49.8039 288.727 49.8039Z" fill="#108FFF"/>
<path d="M295.9 45.5439C296.4 45.5439 296.853 45.6606 297.26 45.8939C297.673 46.1206 297.997 46.4439 298.23 46.8639C298.463 47.2772 298.58 47.7606 298.58 48.3139C298.58 48.8672 298.463 49.3539 298.23 49.7739C297.997 50.1872 297.673 50.5106 297.26 50.7439C296.853 50.9706 296.4 51.0839 295.9 51.0839C295.16 51.0839 294.597 50.8506 294.21 50.3839V51.0039H292.72V43.5839H294.28V46.1939C294.673 45.7606 295.213 45.5439 295.9 45.5439ZM295.63 49.8039C296.03 49.8039 296.357 49.6706 296.61 49.4039C296.87 49.1306 297 48.7672 297 48.3139C297 47.8606 296.87 47.5006 296.61 47.2339C296.357 46.9606 296.03 46.8239 295.63 46.8239C295.23 46.8239 294.9 46.9606 294.64 47.2339C294.387 47.5006 294.26 47.8606 294.26 48.3139C294.26 48.7672 294.387 49.1306 294.64 49.4039C294.9 49.6706 295.23 49.8039 295.63 49.8039Z" fill="#108FFF"/>
<path d="M273.27 57.6239V62.1039C273.27 63.0906 273.013 63.8239 272.5 64.3039C271.987 64.7839 271.237 65.0239 270.25 65.0239C269.73 65.0239 269.237 64.9606 268.77 64.8339C268.303 64.7072 267.917 64.5239 267.61 64.2839L268.23 63.1639C268.457 63.3506 268.743 63.4972 269.09 63.6039C269.437 63.7172 269.783 63.7739 270.13 63.7739C270.67 63.7739 271.067 63.6506 271.32 63.4039C271.58 63.1639 271.71 62.7972 271.71 62.3039V62.0739C271.303 62.5206 270.737 62.7439 270.01 62.7439C269.517 62.7439 269.063 62.6372 268.65 62.4239C268.243 62.2039 267.92 61.8972 267.68 61.5039C267.44 61.1106 267.32 60.6572 267.32 60.1439C267.32 59.6306 267.44 59.1772 267.68 58.7839C267.92 58.3906 268.243 58.0872 268.65 57.8739C269.063 57.6539 269.517 57.5439 270.01 57.5439C270.79 57.5439 271.383 57.8006 271.79 58.3139V57.6239H273.27ZM270.32 61.4639C270.733 61.4639 271.07 61.3439 271.33 61.1039C271.597 60.8572 271.73 60.5372 271.73 60.1439C271.73 59.7506 271.597 59.4339 271.33 59.1939C271.07 58.9472 270.733 58.8239 270.32 58.8239C269.907 58.8239 269.567 58.9472 269.3 59.1939C269.033 59.4339 268.9 59.7506 268.9 60.1439C268.9 60.5372 269.033 60.8572 269.3 61.1039C269.567 61.3439 269.907 61.4639 270.32 61.4639Z" fill="#108FFF"/>
<path d="M277.282 63.0839C276.715 63.0839 276.205 62.9672 275.752 62.7339C275.305 62.4939 274.955 62.1639 274.702 61.7439C274.449 61.3239 274.322 60.8472 274.322 60.3139C274.322 59.7806 274.449 59.3039 274.702 58.8839C274.955 58.4639 275.305 58.1372 275.752 57.9039C276.205 57.6639 276.715 57.5439 277.282 57.5439C277.849 57.5439 278.355 57.6639 278.802 57.9039C279.249 58.1372 279.599 58.4639 279.852 58.8839C280.105 59.3039 280.232 59.7806 280.232 60.3139C280.232 60.8472 280.105 61.3239 279.852 61.7439C279.599 62.1639 279.249 62.4939 278.802 62.7339C278.355 62.9672 277.849 63.0839 277.282 63.0839ZM277.282 61.8039C277.682 61.8039 278.009 61.6706 278.262 61.4039C278.522 61.1306 278.652 60.7672 278.652 60.3139C278.652 59.8606 278.522 59.5006 278.262 59.2339C278.009 58.9606 277.682 58.8239 277.282 58.8239C276.882 58.8239 276.552 58.9606 276.292 59.2339C276.032 59.5006 275.902 59.8606 275.902 60.3139C275.902 60.7672 276.032 61.1306 276.292 61.4039C276.552 61.6706 276.882 61.8039 277.282 61.8039Z" fill="#108FFF"/>
<path d="M283.835 63.0839C283.268 63.0839 282.758 62.9672 282.305 62.7339C281.858 62.4939 281.508 62.1639 281.255 61.7439C281.001 61.3239 280.875 60.8472 280.875 60.3139C280.875 59.7806 281.001 59.3039 281.255 58.8839C281.508 58.4639 281.858 58.1372 282.305 57.9039C282.758 57.6639 283.268 57.5439 283.835 57.5439C284.401 57.5439 284.908 57.6639 285.355 57.9039C285.801 58.1372 286.151 58.4639 286.405 58.8839C286.658 59.3039 286.785 59.7806 286.785 60.3139C286.785 60.8472 286.658 61.3239 286.405 61.7439C286.151 62.1639 285.801 62.4939 285.355 62.7339C284.908 62.9672 284.401 63.0839 283.835 63.0839ZM283.835 61.8039C284.235 61.8039 284.561 61.6706 284.815 61.4039C285.075 61.1306 285.205 60.7672 285.205 60.3139C285.205 59.8606 285.075 59.5006 284.815 59.2339C284.561 58.9606 284.235 58.8239 283.835 58.8239C283.435 58.8239 283.105 58.9606 282.845 59.2339C282.585 59.5006 282.455 59.8606 282.455 60.3139C282.455 60.7672 282.585 61.1306 282.845 61.4039C283.105 61.6706 283.435 61.8039 283.835 61.8039Z" fill="#108FFF"/>
<path d="M293.308 55.5839V63.0039H291.818V62.3839C291.431 62.8506 290.871 63.0839 290.138 63.0839C289.631 63.0839 289.171 62.9706 288.758 62.7439C288.351 62.5172 288.031 62.1939 287.798 61.7739C287.564 61.3539 287.448 60.8672 287.448 60.3139C287.448 59.7606 287.564 59.2739 287.798 58.8539C288.031 58.4339 288.351 58.1106 288.758 57.8839C289.171 57.6572 289.631 57.5439 290.138 57.5439C290.824 57.5439 291.361 57.7606 291.748 58.1939V55.5839H293.308ZM290.408 61.8039C290.801 61.8039 291.128 61.6706 291.388 61.4039C291.648 61.1306 291.778 60.7672 291.778 60.3139C291.778 59.8606 291.648 59.5006 291.388 59.2339C291.128 58.9606 290.801 58.8239 290.408 58.8239C290.008 58.8239 289.678 58.9606 289.418 59.2339C289.158 59.5006 289.028 59.8606 289.028 60.3139C289.028 60.7672 289.158 61.1306 289.418 61.4039C289.678 61.6706 290.008 61.8039 290.408 61.8039Z" fill="#108FFF"/>
<path d="M294.751 57.6239H296.311V63.0039H294.751V57.6239ZM295.531 56.8739C295.245 56.8739 295.011 56.7906 294.831 56.6239C294.651 56.4572 294.561 56.2506 294.561 56.0039C294.561 55.7572 294.651 55.5506 294.831 55.3839C295.011 55.2172 295.245 55.1339 295.531 55.1339C295.818 55.1339 296.051 55.2139 296.231 55.3739C296.411 55.5339 296.501 55.7339 296.501 55.9739C296.501 56.2339 296.411 56.4506 296.231 56.6239C296.051 56.7906 295.818 56.8739 295.531 56.8739Z" fill="#108FFF"/>
<path d="M303.029 60.3339C303.029 60.3539 303.019 60.4939 302.999 60.7539H298.929C299.003 61.0872 299.176 61.3506 299.449 61.5439C299.723 61.7372 300.063 61.8339 300.469 61.8339C300.749 61.8339 300.996 61.7939 301.209 61.7139C301.429 61.6272 301.633 61.4939 301.819 61.3139L302.649 62.2139C302.143 62.7939 301.403 63.0839 300.429 63.0839C299.823 63.0839 299.286 62.9672 298.819 62.7339C298.353 62.4939 297.993 62.1639 297.739 61.7439C297.486 61.3239 297.359 60.8472 297.359 60.3139C297.359 59.7872 297.483 59.3139 297.729 58.8939C297.983 58.4672 298.326 58.1372 298.759 57.9039C299.199 57.6639 299.689 57.5439 300.229 57.5439C300.756 57.5439 301.233 57.6572 301.659 57.8839C302.086 58.1106 302.419 58.4372 302.659 58.8639C302.906 59.2839 303.029 59.7739 303.029 60.3339ZM300.239 58.7239C299.886 58.7239 299.589 58.8239 299.349 59.0239C299.109 59.2239 298.963 59.4972 298.909 59.8439H301.559C301.506 59.5039 301.359 59.2339 301.119 59.0339C300.879 58.8272 300.586 58.7239 300.239 58.7239Z" fill="#108FFF"/>
<path d="M305.878 63.0839C305.431 63.0839 304.994 63.0306 304.568 62.9239C304.141 62.8106 303.801 62.6706 303.548 62.5039L304.068 61.3839C304.308 61.5372 304.598 61.6639 304.938 61.7639C305.278 61.8572 305.611 61.9039 305.938 61.9039C306.598 61.9039 306.928 61.7406 306.928 61.4139C306.928 61.2606 306.838 61.1506 306.658 61.0839C306.478 61.0172 306.201 60.9606 305.828 60.9139C305.388 60.8472 305.024 60.7706 304.738 60.6839C304.451 60.5972 304.201 60.4439 303.988 60.2239C303.781 60.0039 303.678 59.6906 303.678 59.2839C303.678 58.9439 303.774 58.6439 303.968 58.3839C304.168 58.1172 304.454 57.9106 304.828 57.7639C305.208 57.6172 305.654 57.5439 306.168 57.5439C306.548 57.5439 306.924 57.5872 307.298 57.6739C307.678 57.7539 307.991 57.8672 308.238 58.0139L307.718 59.1239C307.244 58.8572 306.728 58.7239 306.168 58.7239C305.834 58.7239 305.584 58.7706 305.418 58.8639C305.251 58.9572 305.168 59.0772 305.168 59.2239C305.168 59.3906 305.258 59.5072 305.438 59.5739C305.618 59.6406 305.904 59.7039 306.298 59.7639C306.738 59.8372 307.098 59.9172 307.378 60.0039C307.658 60.0839 307.901 60.2339 308.108 60.4539C308.314 60.6739 308.418 60.9806 308.418 61.3739C308.418 61.7072 308.318 62.0039 308.118 62.2639C307.918 62.5239 307.624 62.7272 307.238 62.8739C306.858 63.0139 306.404 63.0839 305.878 63.0839Z" fill="#108FFF"/>
<path d="M317.702 63.1239L316.862 62.3439C316.196 62.8639 315.416 63.1239 314.522 63.1239C314.016 63.1239 313.559 63.0439 313.152 62.8839C312.746 62.7172 312.426 62.4872 312.192 62.1939C311.966 61.9006 311.852 61.5706 311.852 61.2039C311.852 60.7706 311.972 60.3906 312.212 60.0639C312.459 59.7306 312.852 59.4139 313.392 59.1139C313.139 58.8539 312.956 58.6072 312.842 58.3739C312.729 58.1339 312.672 57.8872 312.672 57.6339C312.672 57.2939 312.762 56.9939 312.942 56.7339C313.122 56.4739 313.376 56.2739 313.702 56.1339C314.036 55.9872 314.419 55.9139 314.852 55.9139C315.459 55.9139 315.946 56.0606 316.312 56.3539C316.679 56.6406 316.862 57.0306 316.862 57.5239C316.862 57.8839 316.752 58.2039 316.532 58.4839C316.319 58.7639 315.972 59.0339 315.492 59.2939L316.772 60.4839C316.926 60.1639 317.042 59.8006 317.122 59.3939L318.372 59.7839C318.239 60.4039 318.026 60.9339 317.732 61.3739L318.552 62.1339L317.702 63.1239ZM314.852 56.9739C314.619 56.9739 314.432 57.0339 314.292 57.1539C314.159 57.2739 314.092 57.4272 314.092 57.6139C314.092 57.7539 314.129 57.8872 314.202 58.0139C314.276 58.1339 314.419 58.2972 314.632 58.5039C314.972 58.3239 315.209 58.1639 315.342 58.0239C315.476 57.8772 315.542 57.7206 315.542 57.5539C315.542 57.3806 315.482 57.2406 315.362 57.1339C315.242 57.0272 315.072 56.9739 314.852 56.9739ZM314.632 61.9039C315.119 61.9039 315.556 61.7672 315.942 61.4939L314.252 59.9139C313.939 60.0939 313.716 60.2706 313.582 60.4439C313.449 60.6172 313.382 60.8139 313.382 61.0339C313.382 61.2939 313.496 61.5039 313.722 61.6639C313.949 61.8239 314.252 61.9039 314.632 61.9039Z" fill="#108FFF"/>
<path d="M269.21 70.3339C269.397 70.0739 269.647 69.8772 269.96 69.7439C270.28 69.6106 270.647 69.5439 271.06 69.5439V70.9839C270.887 70.9706 270.77 70.9639 270.71 70.9639C270.263 70.9639 269.913 71.0906 269.66 71.3439C269.407 71.5906 269.28 71.9639 269.28 72.4639V75.0039H267.72V69.6239H269.21V70.3339Z" fill="#108FFF"/>
<path d="M277.209 72.3339C277.209 72.3539 277.199 72.4939 277.179 72.7539H273.109C273.182 73.0872 273.356 73.3506 273.629 73.5439C273.902 73.7372 274.242 73.8339 274.649 73.8339C274.929 73.8339 275.176 73.7939 275.389 73.7139C275.609 73.6272 275.812 73.4939 275.999 73.3139L276.829 74.2139C276.322 74.7939 275.582 75.0839 274.609 75.0839C274.002 75.0839 273.466 74.9672 272.999 74.7339C272.532 74.4939 272.172 74.1639 271.919 73.7439C271.666 73.3239 271.539 72.8472 271.539 72.3139C271.539 71.7872 271.662 71.3139 271.909 70.8939C272.162 70.4672 272.506 70.1372 272.939 69.9039C273.379 69.6639 273.869 69.5439 274.409 69.5439C274.936 69.5439 275.412 69.6572 275.839 69.8839C276.266 70.1106 276.599 70.4372 276.839 70.8639C277.086 71.2839 277.209 71.7739 277.209 72.3339ZM274.419 70.7239C274.066 70.7239 273.769 70.8239 273.529 71.0239C273.289 71.2239 273.142 71.4972 273.089 71.8439H275.739C275.686 71.5039 275.539 71.2339 275.299 71.0339C275.059 70.8272 274.766 70.7239 274.419 70.7239Z" fill="#108FFF"/>
<path d="M286.79 69.6239L284.84 75.0039H283.34L282.13 71.6639L280.88 75.0039H279.38L277.44 69.6239H278.91L280.18 73.2639L281.5 69.6239H282.82L284.1 73.2639L285.41 69.6239H286.79Z" fill="#108FFF"/>
<path d="M289.509 69.5439C290.343 69.5439 290.983 69.7439 291.429 70.1439C291.876 70.5372 292.099 71.1339 292.099 71.9339V75.0039H290.639V74.3339C290.346 74.8339 289.799 75.0839 288.999 75.0839C288.586 75.0839 288.226 75.0139 287.919 74.8739C287.619 74.7339 287.389 74.5406 287.229 74.2939C287.069 74.0472 286.989 73.7672 286.989 73.4539C286.989 72.9539 287.176 72.5606 287.549 72.2739C287.929 71.9872 288.513 71.8439 289.299 71.8439H290.539C290.539 71.5039 290.436 71.2439 290.229 71.0639C290.023 70.8772 289.713 70.7839 289.299 70.7839C289.013 70.7839 288.729 70.8306 288.449 70.9239C288.176 71.0106 287.943 71.1306 287.749 71.2839L287.189 70.1939C287.483 69.9872 287.833 69.8272 288.239 69.7139C288.653 69.6006 289.076 69.5439 289.509 69.5439ZM289.389 74.0339C289.656 74.0339 289.893 73.9739 290.099 73.8539C290.306 73.7272 290.453 73.5439 290.539 73.3039V72.7539H289.469C288.829 72.7539 288.509 72.9639 288.509 73.3839C288.509 73.5839 288.586 73.7439 288.739 73.8639C288.899 73.9772 289.116 74.0339 289.389 74.0339Z" fill="#108FFF"/>
<path d="M295.001 70.3339C295.188 70.0739 295.438 69.8772 295.751 69.7439C296.071 69.6106 296.438 69.5439 296.851 69.5439V70.9839C296.678 70.9706 296.561 70.9639 296.501 70.9639C296.054 70.9639 295.704 71.0906 295.451 71.3439C295.198 71.5906 295.071 71.9639 295.071 72.4639V75.0039H293.511V69.6239H295.001V70.3339Z" fill="#108FFF"/>
<path d="M303.21 67.5839V75.0039H301.72V74.3839C301.333 74.8506 300.773 75.0839 300.04 75.0839C299.533 75.0839 299.073 74.9706 298.66 74.7439C298.253 74.5172 297.933 74.1939 297.7 73.7739C297.467 73.3539 297.35 72.8672 297.35 72.3139C297.35 71.7606 297.467 71.2739 297.7 70.8539C297.933 70.4339 298.253 70.1106 298.66 69.8839C299.073 69.6572 299.533 69.5439 300.04 69.5439C300.727 69.5439 301.263 69.7606 301.65 70.1939V67.5839H303.21ZM300.31 73.8039C300.703 73.8039 301.03 73.6706 301.29 73.4039C301.55 73.1306 301.68 72.7672 301.68 72.3139C301.68 71.8606 301.55 71.5006 301.29 71.2339C301.03 70.9606 300.703 70.8239 300.31 70.8239C299.91 70.8239 299.58 70.9606 299.32 71.2339C299.06 71.5006 298.93 71.8606 298.93 72.3139C298.93 72.7672 299.06 73.1306 299.32 73.4039C299.58 73.6706 299.91 73.8039 300.31 73.8039Z" fill="#108FFF"/>
<path d="M306.464 75.0839C306.017 75.0839 305.58 75.0306 305.154 74.9239C304.727 74.8106 304.387 74.6706 304.134 74.5039L304.654 73.3839C304.894 73.5372 305.184 73.6639 305.524 73.7639C305.864 73.8572 306.197 73.9039 306.524 73.9039C307.184 73.9039 307.514 73.7406 307.514 73.4139C307.514 73.2606 307.424 73.1506 307.244 73.0839C307.064 73.0172 306.787 72.9606 306.414 72.9139C305.974 72.8472 305.61 72.7706 305.324 72.6839C305.037 72.5972 304.787 72.4439 304.574 72.2239C304.367 72.0039 304.264 71.6906 304.264 71.2839C304.264 70.9439 304.36 70.6439 304.554 70.3839C304.754 70.1172 305.04 69.9106 305.414 69.7639C305.794 69.6172 306.24 69.5439 306.754 69.5439C307.134 69.5439 307.51 69.5872 307.884 69.6739C308.264 69.7539 308.577 69.8672 308.824 70.0139L308.304 71.1239C307.83 70.8572 307.314 70.7239 306.754 70.7239C306.42 70.7239 306.17 70.7706 306.004 70.8639C305.837 70.9572 305.754 71.0772 305.754 71.2239C305.754 71.3906 305.844 71.5072 306.024 71.5739C306.204 71.6406 306.49 71.7039 306.884 71.7639C307.324 71.8372 307.684 71.9172 307.964 72.0039C308.244 72.0839 308.487 72.2339 308.694 72.4539C308.9 72.6739 309.004 72.9806 309.004 73.3739C309.004 73.7072 308.904 74.0039 308.704 74.2639C308.504 74.5239 308.21 74.7272 307.824 74.8739C307.444 75.0139 306.99 75.0839 306.464 75.0839Z" fill="#108FFF"/>
<path d="M156.19 28.5238V31.0038H154.57V28.5038L151.86 24.0038H153.58L155.45 27.1138L157.32 24.0038H158.91L156.19 28.5238Z" fill="#108FFF"/>
<path d="M161.442 31.0838C160.876 31.0838 160.366 30.9671 159.912 30.7338C159.466 30.4938 159.116 30.1638 158.862 29.7438C158.609 29.3238 158.482 28.8471 158.482 28.3138C158.482 27.7805 158.609 27.3038 158.862 26.8838C159.116 26.4638 159.466 26.1371 159.912 25.9038C160.366 25.6638 160.876 25.5438 161.442 25.5438C162.009 25.5438 162.516 25.6638 162.962 25.9038C163.409 26.1371 163.759 26.4638 164.012 26.8838C164.266 27.3038 164.392 27.7805 164.392 28.3138C164.392 28.8471 164.266 29.3238 164.012 29.7438C163.759 30.1638 163.409 30.4938 162.962 30.7338C162.516 30.9671 162.009 31.0838 161.442 31.0838ZM161.442 29.8038C161.842 29.8038 162.169 29.6705 162.422 29.4038C162.682 29.1305 162.812 28.7671 162.812 28.3138C162.812 27.8605 162.682 27.5005 162.422 27.2338C162.169 26.9605 161.842 26.8238 161.442 26.8238C161.042 26.8238 160.712 26.9605 160.452 27.2338C160.192 27.5005 160.062 27.8605 160.062 28.3138C160.062 28.7671 160.192 29.1305 160.452 29.4038C160.712 29.6705 161.042 29.8038 161.442 29.8038Z" fill="#108FFF"/>
<path d="M170.855 25.6238V31.0038H169.375V30.3638C169.168 30.5971 168.922 30.7771 168.635 30.9038C168.348 31.0238 168.038 31.0838 167.705 31.0838C166.998 31.0838 166.438 30.8805 166.025 30.4738C165.612 30.0671 165.405 29.4638 165.405 28.6638V25.6238H166.965V28.4338C166.965 29.3005 167.328 29.7338 168.055 29.7338C168.428 29.7338 168.728 29.6138 168.955 29.3738C169.182 29.1271 169.295 28.7638 169.295 28.2838V25.6238H170.855Z" fill="#108FFF"/>
<path d="M173.79 26.3338C173.977 26.0738 174.227 25.8771 174.54 25.7438C174.86 25.6105 175.227 25.5438 175.64 25.5438V26.9838C175.467 26.9705 175.35 26.9638 175.29 26.9638C174.844 26.9638 174.494 27.0905 174.24 27.3438C173.987 27.5905 173.86 27.9638 173.86 28.4638V31.0038H172.3V25.6238H173.79V26.3338Z" fill="#108FFF"/>
<path d="M181.149 25.7438H182.529V26.9438H181.189V31.0038H179.629V26.9438H178.799V25.7438H179.629V25.5038C179.629 24.8905 179.809 24.4038 180.169 24.0438C180.536 23.6838 181.049 23.5038 181.709 23.5038C181.942 23.5038 182.162 23.5305 182.369 23.5838C182.582 23.6305 182.759 23.7005 182.899 23.7938L182.489 24.9238C182.309 24.7971 182.099 24.7338 181.859 24.7338C181.386 24.7338 181.149 24.9938 181.149 25.5138V25.7438Z" fill="#108FFF"/>
<path d="M185.597 26.3338C185.783 26.0738 186.033 25.8771 186.347 25.7438C186.667 25.6105 187.033 25.5438 187.447 25.5438V26.9838C187.273 26.9705 187.157 26.9638 187.097 26.9638C186.65 26.9638 186.3 27.0905 186.047 27.3438C185.793 27.5905 185.667 27.9638 185.667 28.4638V31.0038H184.107V25.6238H185.597V26.3338Z" fill="#108FFF"/>
<path d="M188.374 25.6238H189.934V31.0038H188.374V25.6238ZM189.154 24.8738C188.868 24.8738 188.634 24.7905 188.454 24.6238C188.274 24.4571 188.184 24.2505 188.184 24.0038C188.184 23.7571 188.274 23.5505 188.454 23.3838C188.634 23.2171 188.868 23.1338 189.154 23.1338C189.441 23.1338 189.674 23.2138 189.854 23.3738C190.034 23.5338 190.124 23.7338 190.124 23.9738C190.124 24.2338 190.034 24.4505 189.854 24.6238C189.674 24.7905 189.441 24.8738 189.154 24.8738Z" fill="#108FFF"/>
<path d="M196.652 28.3338C196.652 28.3538 196.642 28.4938 196.622 28.7538H192.552C192.626 29.0871 192.799 29.3505 193.072 29.5438C193.346 29.7371 193.686 29.8338 194.092 29.8338C194.372 29.8338 194.619 29.7938 194.832 29.7138C195.052 29.6271 195.256 29.4938 195.442 29.3138L196.272 30.2138C195.766 30.7938 195.026 31.0838 194.052 31.0838C193.446 31.0838 192.909 30.9671 192.442 30.7338C191.976 30.4938 191.616 30.1638 191.362 29.7438C191.109 29.3238 190.982 28.8471 190.982 28.3138C190.982 27.7871 191.106 27.3138 191.352 26.8938C191.606 26.4671 191.949 26.1371 192.382 25.9038C192.822 25.6638 193.312 25.5438 193.852 25.5438C194.379 25.5438 194.856 25.6571 195.282 25.8838C195.709 26.1105 196.042 26.4371 196.282 26.8638C196.529 27.2838 196.652 27.7738 196.652 28.3338ZM193.862 26.7238C193.509 26.7238 193.212 26.8238 192.972 27.0238C192.732 27.2238 192.586 27.4971 192.532 27.8438H195.182C195.129 27.5038 194.982 27.2338 194.742 27.0338C194.502 26.8271 194.209 26.7238 193.862 26.7238Z" fill="#108FFF"/>
<path d="M200.961 25.5438C201.627 25.5438 202.164 25.7438 202.571 26.1438C202.984 26.5438 203.191 27.1371 203.191 27.9238V31.0038H201.631V28.1638C201.631 27.7371 201.537 27.4205 201.351 27.2138C201.164 27.0005 200.894 26.8938 200.541 26.8938C200.147 26.8938 199.834 27.0171 199.601 27.2638C199.367 27.5038 199.251 27.8638 199.251 28.3438V31.0038H197.691V25.6238H199.181V26.2538C199.387 26.0271 199.644 25.8538 199.951 25.7338C200.257 25.6071 200.594 25.5438 200.961 25.5438Z" fill="#108FFF"/>
<path d="M210.143 23.5838V31.0038H208.653V30.3838C208.267 30.8505 207.707 31.0838 206.973 31.0838C206.467 31.0838 206.007 30.9705 205.593 30.7438C205.187 30.5171 204.867 30.1938 204.633 29.7738C204.4 29.3538 204.283 28.8671 204.283 28.3138C204.283 27.7605 204.4 27.2738 204.633 26.8538C204.867 26.4338 205.187 26.1105 205.593 25.8838C206.007 25.6571 206.467 25.5438 206.973 25.5438C207.66 25.5438 208.197 25.7605 208.583 26.1938V23.5838H210.143ZM207.243 29.8038C207.637 29.8038 207.963 29.6705 208.223 29.4038C208.483 29.1305 208.613 28.7671 208.613 28.3138C208.613 27.8605 208.483 27.5005 208.223 27.2338C207.963 26.9605 207.637 26.8238 207.243 26.8238C206.843 26.8238 206.513 26.9605 206.253 27.2338C205.993 27.5005 205.863 27.8605 205.863 28.3138C205.863 28.7671 205.993 29.1305 206.253 29.4038C206.513 29.6705 206.843 29.8038 207.243 29.8038Z" fill="#108FFF"/>
<path d="M154.53 43.0838C154.083 43.0838 153.647 43.0305 153.22 42.9238C152.793 42.8105 152.453 42.6705 152.2 42.5038L152.72 41.3838C152.96 41.5371 153.25 41.6638 153.59 41.7638C153.93 41.8571 154.263 41.9038 154.59 41.9038C155.25 41.9038 155.58 41.7405 155.58 41.4138C155.58 41.2605 155.49 41.1505 155.31 41.0838C155.13 41.0171 154.853 40.9605 154.48 40.9138C154.04 40.8471 153.677 40.7705 153.39 40.6838C153.103 40.5971 152.853 40.4438 152.64 40.2238C152.433 40.0038 152.33 39.6905 152.33 39.2838C152.33 38.9438 152.427 38.6438 152.62 38.3838C152.82 38.1171 153.107 37.9105 153.48 37.7638C153.86 37.6171 154.307 37.5438 154.82 37.5438C155.2 37.5438 155.577 37.5871 155.95 37.6738C156.33 37.7538 156.643 37.8671 156.89 38.0138L156.37 39.1238C155.897 38.8571 155.38 38.7238 154.82 38.7238C154.487 38.7238 154.237 38.7705 154.07 38.8638C153.903 38.9571 153.82 39.0771 153.82 39.2238C153.82 39.3905 153.91 39.5071 154.09 39.5738C154.27 39.6405 154.557 39.7038 154.95 39.7638C155.39 39.8371 155.75 39.9171 156.03 40.0038C156.31 40.0838 156.553 40.2338 156.76 40.4538C156.967 40.6738 157.07 40.9805 157.07 41.3738C157.07 41.7071 156.97 42.0038 156.77 42.2638C156.57 42.5238 156.277 42.7271 155.89 42.8738C155.51 43.0138 155.057 43.0838 154.53 43.0838Z" fill="#108FFF"/>
<path d="M158.033 37.6238H159.593V43.0038H158.033V37.6238ZM158.813 36.8738C158.526 36.8738 158.293 36.7905 158.113 36.6238C157.933 36.4571 157.843 36.2505 157.843 36.0038C157.843 35.7571 157.933 35.5505 158.113 35.3838C158.293 35.2171 158.526 35.1338 158.813 35.1338C159.099 35.1338 159.333 35.2138 159.513 35.3738C159.693 35.5338 159.783 35.7338 159.783 35.9738C159.783 36.2338 159.693 36.4505 159.513 36.6238C159.333 36.7905 159.099 36.8738 158.813 36.8738Z" fill="#108FFF"/>
<path d="M166.59 37.6238V42.1038C166.59 43.0905 166.334 43.8238 165.82 44.3038C165.307 44.7838 164.557 45.0238 163.57 45.0238C163.05 45.0238 162.557 44.9605 162.09 44.8338C161.624 44.7071 161.237 44.5238 160.93 44.2838L161.55 43.1638C161.777 43.3505 162.064 43.4971 162.41 43.6038C162.757 43.7171 163.104 43.7738 163.45 43.7738C163.99 43.7738 164.387 43.6505 164.64 43.4038C164.9 43.1638 165.03 42.7971 165.03 42.3038V42.0738C164.624 42.5205 164.057 42.7438 163.33 42.7438C162.837 42.7438 162.384 42.6371 161.97 42.4238C161.564 42.2038 161.24 41.8971 161 41.5038C160.76 41.1105 160.64 40.6571 160.64 40.1438C160.64 39.6305 160.76 39.1771 161 38.7838C161.24 38.3905 161.564 38.0871 161.97 37.8738C162.384 37.6538 162.837 37.5438 163.33 37.5438C164.11 37.5438 164.704 37.8005 165.11 38.3138V37.6238H166.59ZM163.64 41.4638C164.054 41.4638 164.39 41.3438 164.65 41.1038C164.917 40.8571 165.05 40.5371 165.05 40.1438C165.05 39.7505 164.917 39.4338 164.65 39.1938C164.39 38.9471 164.054 38.8238 163.64 38.8238C163.227 38.8238 162.887 38.9471 162.62 39.1938C162.354 39.4338 162.22 39.7505 162.22 40.1438C162.22 40.5371 162.354 40.8571 162.62 41.1038C162.887 41.3438 163.227 41.4638 163.64 41.4638Z" fill="#108FFF"/>
<path d="M171.312 37.5438C171.979 37.5438 172.516 37.7438 172.922 38.1438C173.336 38.5438 173.542 39.1371 173.542 39.9238V43.0038H171.982V40.1638C171.982 39.7371 171.889 39.4205 171.702 39.2138C171.516 39.0005 171.246 38.8938 170.892 38.8938C170.499 38.8938 170.186 39.0171 169.952 39.2638C169.719 39.5038 169.602 39.8638 169.602 40.3438V43.0038H168.042V37.6238H169.532V38.2538C169.739 38.0271 169.996 37.8538 170.302 37.7338C170.609 37.6071 170.946 37.5438 171.312 37.5438Z" fill="#108FFF"/>
<path d="M183.208 37.6238V43.0038H181.728V42.3638C181.522 42.5971 181.275 42.7771 180.988 42.9038C180.702 43.0238 180.392 43.0838 180.058 43.0838C179.352 43.0838 178.792 42.8805 178.378 42.4738C177.965 42.0671 177.758 41.4638 177.758 40.6638V37.6238H179.318V40.4338C179.318 41.3005 179.682 41.7338 180.408 41.7338C180.782 41.7338 181.082 41.6138 181.308 41.3738C181.535 41.1271 181.648 40.7638 181.648 40.2838V37.6238H183.208Z" fill="#108FFF"/>
<path d="M187.834 37.5438C188.334 37.5438 188.787 37.6605 189.194 37.8938C189.607 38.1205 189.93 38.4438 190.164 38.8638C190.397 39.2771 190.514 39.7605 190.514 40.3138C190.514 40.8671 190.397 41.3538 190.164 41.7738C189.93 42.1871 189.607 42.5105 189.194 42.7438C188.787 42.9705 188.334 43.0838 187.834 43.0838C187.147 43.0838 186.607 42.8671 186.214 42.4338V44.9438H184.654V37.6238H186.144V38.2438C186.53 37.7771 187.094 37.5438 187.834 37.5438ZM187.564 41.8038C187.964 41.8038 188.29 41.6705 188.544 41.4038C188.804 41.1305 188.934 40.7671 188.934 40.3138C188.934 39.8605 188.804 39.5005 188.544 39.2338C188.29 38.9605 187.964 38.8238 187.564 38.8238C187.164 38.8238 186.834 38.9605 186.574 39.2338C186.32 39.5005 186.194 39.8605 186.194 40.3138C186.194 40.7671 186.32 41.1305 186.574 41.4038C186.834 41.6705 187.164 41.8038 187.564 41.8038Z" fill="#108FFF"/>
<path d="M203.03 37.6238L201.08 43.0038H199.58L198.37 39.6638L197.12 43.0038H195.62L193.68 37.6238H195.15L196.42 41.2638L197.74 37.6238H199.06L200.34 41.2638L201.65 37.6238H203.03Z" fill="#108FFF"/>
<path d="M203.755 37.6238H205.315V43.0038H203.755V37.6238ZM204.535 36.8738C204.249 36.8738 204.015 36.7905 203.835 36.6238C203.655 36.4571 203.565 36.2505 203.565 36.0038C203.565 35.7571 203.655 35.5505 203.835 35.3838C204.015 35.2171 204.249 35.1338 204.535 35.1338C204.822 35.1338 205.055 35.2138 205.235 35.3738C205.415 35.5338 205.505 35.7338 205.505 35.9738C205.505 36.2338 205.415 36.4505 205.235 36.6238C205.055 36.7905 204.822 36.8738 204.535 36.8738Z" fill="#108FFF"/>
<path d="M210.233 42.7438C210.08 42.8571 209.89 42.9438 209.663 43.0038C209.443 43.0571 209.21 43.0838 208.963 43.0838C208.323 43.0838 207.826 42.9205 207.473 42.5938C207.126 42.2671 206.953 41.7871 206.953 41.1538V38.9438H206.123V37.7438H206.953V36.4338H208.513V37.7438H209.853V38.9438H208.513V41.1338C208.513 41.3605 208.57 41.5371 208.683 41.6638C208.803 41.7838 208.97 41.8438 209.183 41.8438C209.43 41.8438 209.64 41.7771 209.813 41.6438L210.233 42.7438Z" fill="#108FFF"/>
<path d="M214.379 37.5438C215.045 37.5438 215.582 37.7438 215.989 38.1438C216.402 38.5438 216.609 39.1371 216.609 39.9238V43.0038H215.049V40.1638C215.049 39.7371 214.955 39.4205 214.769 39.2138C214.582 39.0005 214.312 38.8938 213.959 38.8938C213.565 38.8938 213.252 39.0171 213.019 39.2638C212.785 39.5038 212.669 39.8638 212.669 40.3438V43.0038H211.109V35.5838H212.669V38.1838C212.875 37.9771 213.125 37.8205 213.419 37.7138C213.712 37.6005 214.032 37.5438 214.379 37.5438Z" fill="#108FFF"/>
<path d="M158.06 49.6238L155.63 55.3338C155.383 55.9538 155.077 56.3905 154.71 56.6438C154.35 56.8971 153.913 57.0238 153.4 57.0238C153.12 57.0238 152.843 56.9805 152.57 56.8938C152.297 56.8071 152.073 56.6871 151.9 56.5338L152.47 55.4238C152.59 55.5305 152.727 55.6138 152.88 55.6738C153.04 55.7338 153.197 55.7638 153.35 55.7638C153.563 55.7638 153.737 55.7105 153.87 55.6038C154.003 55.5038 154.123 55.3338 154.23 55.0938L154.25 55.0438L151.92 49.6238H153.53L155.04 53.2738L156.56 49.6238H158.06Z" fill="#108FFF"/>
<path d="M161.11 55.0838C160.544 55.0838 160.034 54.9671 159.58 54.7338C159.134 54.4938 158.784 54.1638 158.53 53.7438C158.277 53.3238 158.15 52.8471 158.15 52.3138C158.15 51.7805 158.277 51.3038 158.53 50.8838C158.784 50.4638 159.134 50.1371 159.58 49.9038C160.034 49.6638 160.544 49.5438 161.11 49.5438C161.677 49.5438 162.184 49.6638 162.63 49.9038C163.077 50.1371 163.427 50.4638 163.68 50.8838C163.934 51.3038 164.06 51.7805 164.06 52.3138C164.06 52.8471 163.934 53.3238 163.68 53.7438C163.427 54.1638 163.077 54.4938 162.63 54.7338C162.184 54.9671 161.677 55.0838 161.11 55.0838ZM161.11 53.8038C161.51 53.8038 161.837 53.6705 162.09 53.4038C162.35 53.1305 162.48 52.7671 162.48 52.3138C162.48 51.8605 162.35 51.5005 162.09 51.2338C161.837 50.9605 161.51 50.8238 161.11 50.8238C160.71 50.8238 160.38 50.9605 160.12 51.2338C159.86 51.5005 159.73 51.8605 159.73 52.3138C159.73 52.7671 159.86 53.1305 160.12 53.4038C160.38 53.6705 160.71 53.8038 161.11 53.8038Z" fill="#108FFF"/>
<path d="M170.523 49.6238V55.0038H169.043V54.3638C168.836 54.5971 168.59 54.7771 168.303 54.9038C168.016 55.0238 167.706 55.0838 167.373 55.0838C166.666 55.0838 166.106 54.8805 165.693 54.4738C165.28 54.0671 165.073 53.4638 165.073 52.6638V49.6238H166.633V52.4338C166.633 53.3005 166.996 53.7338 167.723 53.7338C168.096 53.7338 168.396 53.6138 168.623 53.3738C168.85 53.1271 168.963 52.7638 168.963 52.2838V49.6238H170.523Z" fill="#108FFF"/>
<path d="M173.458 50.3338C173.645 50.0738 173.895 49.8771 174.208 49.7438C174.528 49.6105 174.895 49.5438 175.308 49.5438V50.9838C175.135 50.9705 175.018 50.9638 174.958 50.9638C174.511 50.9638 174.161 51.0905 173.908 51.3438C173.655 51.5905 173.528 51.9638 173.528 52.4638V55.0038H171.968V49.6238H173.458V50.3338Z" fill="#108FFF"/>
<path d="M184.527 49.6238V55.0038H183.047V54.3638C182.84 54.5971 182.593 54.7771 182.307 54.9038C182.02 55.0238 181.71 55.0838 181.377 55.0838C180.67 55.0838 180.11 54.8805 179.697 54.4738C179.283 54.0671 179.077 53.4638 179.077 52.6638V49.6238H180.637V52.4338C180.637 53.3005 181 53.7338 181.727 53.7338C182.1 53.7338 182.4 53.6138 182.627 53.3738C182.853 53.1271 182.967 52.7638 182.967 52.2838V49.6238H184.527Z" fill="#108FFF"/>
<path d="M189.242 49.5438C189.909 49.5438 190.445 49.7438 190.852 50.1438C191.265 50.5438 191.472 51.1371 191.472 51.9238V55.0038H189.912V52.1638C189.912 51.7371 189.819 51.4205 189.632 51.2138C189.445 51.0005 189.175 50.8938 188.822 50.8938C188.429 50.8938 188.115 51.0171 187.882 51.2638C187.649 51.5038 187.532 51.8638 187.532 52.3438V55.0038H185.972V49.6238H187.462V50.2538C187.669 50.0271 187.925 49.8538 188.232 49.7338C188.539 49.6071 188.875 49.5438 189.242 49.5438Z" fill="#108FFF"/>
<path d="M192.886 49.6238H194.446V55.0038H192.886V49.6238ZM193.666 48.8738C193.379 48.8738 193.146 48.7905 192.966 48.6238C192.786 48.4571 192.696 48.2505 192.696 48.0038C192.696 47.7571 192.786 47.5505 192.966 47.3838C193.146 47.2171 193.379 47.1338 193.666 47.1338C193.953 47.1338 194.186 47.2138 194.366 47.3738C194.546 47.5338 194.636 47.7338 194.636 47.9738C194.636 48.2338 194.546 48.4505 194.366 48.6238C194.186 48.7905 193.953 48.8738 193.666 48.8738Z" fill="#108FFF"/>
<path d="M201.354 49.6238V56.9438H199.794V54.4338C199.407 54.8671 198.871 55.0838 198.184 55.0838C197.677 55.0838 197.217 54.9705 196.804 54.7438C196.397 54.5171 196.077 54.1938 195.844 53.7738C195.611 53.3538 195.494 52.8671 195.494 52.3138C195.494 51.7605 195.611 51.2738 195.844 50.8538C196.077 50.4338 196.397 50.1105 196.804 49.8838C197.217 49.6571 197.677 49.5438 198.184 49.5438C198.917 49.5438 199.477 49.7771 199.864 50.2438V49.6238H201.354ZM198.454 53.8038C198.847 53.8038 199.174 53.6705 199.434 53.4038C199.694 53.1305 199.824 52.7671 199.824 52.3138C199.824 51.8605 199.694 51.5005 199.434 51.2338C199.174 50.9605 198.847 50.8238 198.454 50.8238C198.054 50.8238 197.724 50.9605 197.464 51.2338C197.204 51.5005 197.074 51.8605 197.074 52.3138C197.074 52.7671 197.204 53.1305 197.464 53.4038C197.724 53.6705 198.054 53.8038 198.454 53.8038Z" fill="#108FFF"/>
<path d="M208.218 49.6238V55.0038H206.738V54.3638C206.532 54.5971 206.285 54.7771 205.998 54.9038C205.712 55.0238 205.402 55.0838 205.068 55.0838C204.362 55.0838 203.802 54.8805 203.388 54.4738C202.975 54.0671 202.768 53.4638 202.768 52.6638V49.6238H204.328V52.4338C204.328 53.3005 204.692 53.7338 205.418 53.7338C205.792 53.7338 206.092 53.6138 206.318 53.3738C206.545 53.1271 206.658 52.7638 206.658 52.2838V49.6238H208.218Z" fill="#108FFF"/>
<path d="M214.933 52.3338C214.933 52.3538 214.923 52.4938 214.903 52.7538H210.833C210.907 53.0871 211.08 53.3505 211.353 53.5438C211.627 53.7371 211.967 53.8338 212.373 53.8338C212.653 53.8338 212.9 53.7938 213.113 53.7138C213.333 53.6271 213.537 53.4938 213.723 53.3138L214.553 54.2138C214.047 54.7938 213.307 55.0838 212.333 55.0838C211.727 55.0838 211.19 54.9671 210.723 54.7338C210.257 54.4938 209.897 54.1638 209.643 53.7438C209.39 53.3238 209.263 52.8471 209.263 52.3138C209.263 51.7871 209.387 51.3138 209.633 50.8938C209.887 50.4671 210.23 50.1371 210.663 49.9038C211.103 49.6638 211.593 49.5438 212.133 49.5438C212.66 49.5438 213.137 49.6571 213.563 49.8838C213.99 50.1105 214.323 50.4371 214.563 50.8638C214.81 51.2838 214.933 51.7738 214.933 52.3338ZM212.143 50.7238C211.79 50.7238 211.493 50.8238 211.253 51.0238C211.013 51.2238 210.867 51.4971 210.813 51.8438H213.463C213.41 51.5038 213.263 51.2338 213.023 51.0338C212.783 50.8271 212.49 50.7238 212.143 50.7238Z" fill="#108FFF"/>
<path d="M154.21 62.3338C154.397 62.0738 154.647 61.8771 154.96 61.7438C155.28 61.6105 155.647 61.5438 156.06 61.5438V62.9838C155.887 62.9705 155.77 62.9638 155.71 62.9638C155.263 62.9638 154.913 63.0905 154.66 63.3438C154.407 63.5905 154.28 63.9638 154.28 64.4638V67.0038H152.72V61.6238H154.21V62.3338Z" fill="#108FFF"/>
<path d="M162.209 64.3338C162.209 64.3538 162.199 64.4938 162.179 64.7538H158.109C158.182 65.0871 158.356 65.3505 158.629 65.5438C158.902 65.7371 159.242 65.8338 159.649 65.8338C159.929 65.8338 160.176 65.7938 160.389 65.7138C160.609 65.6271 160.812 65.4938 160.999 65.3138L161.829 66.2138C161.322 66.7938 160.582 67.0838 159.609 67.0838C159.002 67.0838 158.466 66.9671 157.999 66.7338C157.532 66.4938 157.172 66.1638 156.919 65.7438C156.666 65.3238 156.539 64.8471 156.539 64.3138C156.539 63.7871 156.662 63.3138 156.909 62.8938C157.162 62.4671 157.506 62.1371 157.939 61.9038C158.379 61.6638 158.869 61.5438 159.409 61.5438C159.936 61.5438 160.412 61.6571 160.839 61.8838C161.266 62.1105 161.599 62.4371 161.839 62.8638C162.086 63.2838 162.209 63.7738 162.209 64.3338ZM159.419 62.7238C159.066 62.7238 158.769 62.8238 158.529 63.0238C158.289 63.2238 158.142 63.4971 158.089 63.8438H160.739C160.686 63.5038 160.539 63.2338 160.299 63.0338C160.059 62.8271 159.766 62.7238 159.419 62.7238Z" fill="#108FFF"/>
<path d="M164.957 61.7438H166.337V62.9438H164.997V67.0038H163.437V62.9438H162.607V61.7438H163.437V61.5038C163.437 60.8905 163.617 60.4038 163.977 60.0438C164.344 59.6838 164.857 59.5038 165.517 59.5038C165.751 59.5038 165.971 59.5305 166.177 59.5838C166.391 59.6305 166.567 59.7005 166.707 59.7938L166.297 60.9238C166.117 60.7971 165.907 60.7338 165.667 60.7338C165.194 60.7338 164.957 60.9938 164.957 61.5138V61.7438Z" fill="#108FFF"/>
<path d="M172.316 64.3338C172.316 64.3538 172.306 64.4938 172.286 64.7538H168.216C168.29 65.0871 168.463 65.3505 168.736 65.5438C169.01 65.7371 169.35 65.8338 169.756 65.8338C170.036 65.8338 170.283 65.7938 170.496 65.7138C170.716 65.6271 170.92 65.4938 171.106 65.3138L171.936 66.2138C171.43 66.7938 170.69 67.0838 169.716 67.0838C169.11 67.0838 168.573 66.9671 168.106 66.7338C167.64 66.4938 167.28 66.1638 167.026 65.7438C166.773 65.3238 166.646 64.8471 166.646 64.3138C166.646 63.7871 166.77 63.3138 167.016 62.8938C167.27 62.4671 167.613 62.1371 168.046 61.9038C168.486 61.6638 168.976 61.5438 169.516 61.5438C170.043 61.5438 170.52 61.6571 170.946 61.8838C171.373 62.1105 171.706 62.4371 171.946 62.8638C172.193 63.2838 172.316 63.7738 172.316 64.3338ZM169.526 62.7238C169.173 62.7238 168.876 62.8238 168.636 63.0238C168.396 63.2238 168.25 63.4971 168.196 63.8438H170.846C170.793 63.5038 170.646 63.2338 170.406 63.0338C170.166 62.8271 169.873 62.7238 169.526 62.7238Z" fill="#108FFF"/>
<path d="M174.845 62.3338C175.032 62.0738 175.282 61.8771 175.595 61.7438C175.915 61.6105 176.282 61.5438 176.695 61.5438V62.9838C176.522 62.9705 176.405 62.9638 176.345 62.9638C175.898 62.9638 175.548 63.0905 175.295 63.3438C175.042 63.5905 174.915 63.9638 174.915 64.4638V67.0038H173.355V61.6238H174.845V62.3338Z" fill="#108FFF"/>
<path d="M179.112 62.3338C179.299 62.0738 179.549 61.8771 179.862 61.7438C180.182 61.6105 180.549 61.5438 180.962 61.5438V62.9838C180.789 62.9705 180.672 62.9638 180.612 62.9638C180.166 62.9638 179.816 63.0905 179.562 63.3438C179.309 63.5905 179.182 63.9638 179.182 64.4638V67.0038H177.622V61.6238H179.112V62.3338Z" fill="#108FFF"/>
<path d="M184.031 61.5438C184.864 61.5438 185.504 61.7438 185.951 62.1438C186.397 62.5371 186.621 63.1338 186.621 63.9338V67.0038H185.161V66.3338C184.867 66.8338 184.321 67.0838 183.521 67.0838C183.107 67.0838 182.747 67.0138 182.441 66.8738C182.141 66.7338 181.911 66.5405 181.751 66.2938C181.591 66.0471 181.511 65.7671 181.511 65.4538C181.511 64.9538 181.697 64.5605 182.071 64.2738C182.451 63.9871 183.034 63.8438 183.821 63.8438H185.061C185.061 63.5038 184.957 63.2438 184.751 63.0638C184.544 62.8771 184.234 62.7838 183.821 62.7838C183.534 62.7838 183.251 62.8305 182.971 62.9238C182.697 63.0105 182.464 63.1305 182.271 63.2838L181.711 62.1938C182.004 61.9871 182.354 61.8271 182.761 61.7138C183.174 61.6005 183.597 61.5438 184.031 61.5438ZM183.911 66.0338C184.177 66.0338 184.414 65.9738 184.621 65.8538C184.827 65.7271 184.974 65.5438 185.061 65.3038V64.7538H183.991C183.351 64.7538 183.031 64.9638 183.031 65.3838C183.031 65.5838 183.107 65.7438 183.261 65.8638C183.421 65.9771 183.637 66.0338 183.911 66.0338Z" fill="#108FFF"/>
<path d="M188.033 59.5838H189.593V67.0038H188.033V59.5838Z" fill="#108FFF"/>
<path d="M193.872 61.6238H195.432V67.0038H193.872V61.6238ZM194.652 60.8738C194.366 60.8738 194.132 60.7905 193.952 60.6238C193.772 60.4571 193.682 60.2505 193.682 60.0038C193.682 59.7571 193.772 59.5505 193.952 59.3838C194.132 59.2171 194.366 59.1338 194.652 59.1338C194.939 59.1338 195.172 59.2138 195.352 59.3738C195.532 59.5338 195.622 59.7338 195.622 59.9738C195.622 60.2338 195.532 60.4505 195.352 60.6238C195.172 60.7905 194.939 60.8738 194.652 60.8738Z" fill="#108FFF"/>
<path d="M202.36 59.5838V67.0038H200.87V66.3838C200.484 66.8505 199.924 67.0838 199.19 67.0838C198.684 67.0838 198.224 66.9705 197.81 66.7438C197.404 66.5171 197.084 66.1938 196.85 65.7738C196.617 65.3538 196.5 64.8671 196.5 64.3138C196.5 63.7605 196.617 63.2738 196.85 62.8538C197.084 62.4338 197.404 62.1105 197.81 61.8838C198.224 61.6571 198.684 61.5438 199.19 61.5438C199.877 61.5438 200.414 61.7605 200.8 62.1938V59.5838H202.36ZM199.46 65.8038C199.854 65.8038 200.18 65.6705 200.44 65.4038C200.7 65.1305 200.83 64.7671 200.83 64.3138C200.83 63.8605 200.7 63.5005 200.44 63.2338C200.18 62.9605 199.854 62.8238 199.46 62.8238C199.06 62.8238 198.73 62.9605 198.47 63.2338C198.21 63.5005 198.08 63.8605 198.08 64.3138C198.08 64.7671 198.21 65.1305 198.47 65.4038C198.73 65.6705 199.06 65.8038 199.46 65.8038Z" fill="#108FFF"/>
<defs>
<linearGradient id="paint0_linear_376_91" x1="12.1292" y1="52.9955" x2="12.1292" y2="37.3643" gradientUnits="userSpaceOnUse">
<stop stop-color="#108FFF"/>
<stop offset="1" stop-color="#FFF2F4"/>
</linearGradient>
</defs>
</svg>
