<svg width="15" height="15" viewBox="0 0 15 15" fill="none" xmlns="http://www.w3.org/2000/svg">
<path fill-rule="evenodd" clip-rule="evenodd" d="M4.24964 15H10.7496C13.2923 15 15 13.2164 15 10.5625V4.43754C15 1.78358 13.2923 0 10.7504 0H4.24964C1.70767 0 0 1.78358 0 4.43754V10.5625C0 13.2164 1.70767 15 4.24964 15ZM4.87517 6.75003C3.84118 6.75003 3.00102 5.90873 3.00102 4.87503C3.00102 3.84133 3.84118 3.00003 4.87517 3.00003C5.9084 3.00003 6.74931 3.84133 6.74931 4.87503C6.74931 5.90873 5.9084 6.75003 4.87517 6.75003ZM13.3666 9.70052C13.6177 10.3445 13.4872 11.1185 13.2187 11.7562C12.9005 12.5148 12.2911 13.0891 11.5233 13.3398C11.1824 13.4513 10.825 13.5001 10.4682 13.5001H4.14743C3.51844 13.5001 2.96185 13.3491 2.50557 13.0682C2.21974 12.8917 2.16921 12.4846 2.38113 12.2206C2.7356 11.7795 3.08554 11.3367 3.4385 10.8901C4.11123 10.0357 4.56449 9.78798 5.06829 10.0055C5.27267 10.0953 5.47781 10.2299 5.68898 10.3723C6.2516 10.7547 7.03369 11.2802 8.0639 10.7098C8.76889 10.315 9.17779 9.63766 9.53387 9.04785L9.53983 9.03798C9.56507 8.99659 9.59008 8.95521 9.61503 8.91394C9.73469 8.71594 9.85275 8.52059 9.98631 8.34061C10.1537 8.11538 10.7744 7.41105 11.5784 7.91259C12.0905 8.22838 12.5211 8.65562 12.9819 9.11306C13.1576 9.28798 13.2828 9.48689 13.3666 9.70052Z" fill="#319EFF"/>
</svg>
