<svg width="26" height="26" viewBox="0 0 26 26" fill="none" xmlns="http://www.w3.org/2000/svg">
<path fill-rule="evenodd" clip-rule="evenodd" d="M9.49473 3.39634C9.70284 2.58014 10.4442 1.97457 11.3156 1.97457H14.6713C15.5428 1.97457 16.2841 2.58014 16.4922 3.39634H9.49473ZM21.0445 3.39644H18.4692C18.2221 1.48759 16.6223 0 14.6713 0H11.3157C9.36468 0 7.76488 1.48759 7.51776 3.39644H4.95548C2.22411 3.39644 0 5.64757 0 8.41211C0 8.41211 0.0650325 10.5711 0.104052 11.2425C0.104052 11.3741 0.169085 11.4926 0.273137 11.5584L1.52176 12.4273C3.66783 13.8504 6.17679 14.868 8.82751 15.3761C9.0005 15.409 9.16958 15.3208 9.25933 15.1681C10.0306 13.8688 11.4431 13.0328 12.9935 13.0328C14.5543 13.0328 15.9538 13.878 16.703 15.176C16.7914 15.3314 16.9631 15.4222 17.1374 15.388C19.8102 14.8811 22.3192 13.8622 24.4782 12.4141C24.5303 12.3878 25.1026 12.006 25.7282 11.5439C25.8309 11.4676 25.8933 11.3412 25.8959 11.2122C25.922 9.58243 26 8.41211 26 8.41211C26 5.64757 23.7759 3.39644 21.0445 3.39644Z" fill="#268AFF"/>
<path fill-rule="evenodd" clip-rule="evenodd" d="M25.5058 14.0861L25.5578 14.0598C25.6098 14.0335 25.6878 14.0203 25.7529 14.0598C25.8699 14.1256 25.8699 14.2836 25.8699 14.2836L25.7659 20.9975C25.7659 23.762 23.5548 26 20.8234 26H5.16358C2.43222 26 0.221111 23.762 0.221111 20.9975L0.130066 14.2836C0.130066 14.2836 0.130066 14.1256 0.247124 14.0598C0.351176 13.994 0.481241 14.073 0.494248 14.0861C3.12156 15.8502 6.28214 17.0218 9.5988 17.5089C10.067 17.5747 10.5353 17.2719 10.6653 16.798C10.9515 15.7185 11.8749 15.0076 12.9805 15.0076H13.0065H13.0195C14.1251 15.0076 15.0485 15.7185 15.3347 16.798C15.4647 17.2719 15.933 17.5747 16.4012 17.5089C19.7179 17.0218 22.8784 15.8502 25.5058 14.0861ZM12.9935 20.5631C13.5398 20.5631 13.969 20.1287 13.969 19.5758V17.8775C13.969 17.3378 13.5398 16.8902 12.9935 16.8902C12.4603 16.8902 12.018 17.3378 12.018 17.8775V19.5758C12.018 20.1287 12.4603 20.5631 12.9935 20.5631Z" fill="#77BFFF"/>
</svg>
