<?xml version="1.0" encoding="UTF-8" standalone="no"?>
<svg
   xmlns:dc="http://purl.org/dc/elements/1.1/"
   xmlns:cc="http://creativecommons.org/ns#"
   xmlns:rdf="http://www.w3.org/1999/02/22-rdf-syntax-ns#"
   xmlns:svg="http://www.w3.org/2000/svg"
   xmlns="http://www.w3.org/2000/svg"
   xmlns:sodipodi="http://sodipodi.sourceforge.net/DTD/sodipodi-0.dtd"
   xmlns:inkscape="http://www.inkscape.org/namespaces/inkscape"
   width="64"
   height="64"
   viewBox="0 0 16.933333 16.933334"
   version="1.1"
   id="svg8"
   inkscape:version="0.92.3 (2405546, 2018-03-11)"
   sodipodi:docname="30-Human resource.svg"
   inkscape:export-filename="/home/wanzabuyumna/@WANZ_DESIGN/NICON STUDIO MAGANG/Style Line/Style Line/Icon 8/Icon 8.png"
   inkscape:export-xdpi="96"
   inkscape:export-ydpi="96">
  <defs
     id="defs2" />
  <sodipodi:namedview
     id="base"
     pagecolor="#ffffff"
     bordercolor="#959595"
     borderopacity="1"
     inkscape:pageopacity="0"
     inkscape:pageshadow="2"
     inkscape:zoom="8.0000004"
     inkscape:cx="38.324581"
     inkscape:cy="27.432366"
     inkscape:document-units="px"
     inkscape:current-layer="layer1"
     inkscape:document-rotation="0"
     showgrid="false"
     units="px"
     inkscape:window-width="1920"
     inkscape:window-height="1040"
     inkscape:window-x="0"
     inkscape:window-y="0"
     inkscape:window-maximized="1"
     inkscape:pagecheckerboard="0">
    <inkscape:grid
       type="xygrid"
       id="grid846" />
  </sodipodi:namedview>
  <metadata
     id="metadata5">
    <rdf:RDF>
      <cc:Work
         rdf:about="">
        <dc:format>image/svg+xml</dc:format>
        <dc:type
           rdf:resource="http://purl.org/dc/dcmitype/StillImage" />
      </cc:Work>
    </rdf:RDF>
  </metadata>
  <g
     inkscape:label="30-Human resource"
     inkscape:groupmode="layer"
     id="layer1">
    <path
       style="color:#000000;font-style:normal;font-variant:normal;font-weight:normal;font-stretch:normal;font-size:medium;line-height:normal;font-family:sans-serif;font-variant-ligatures:normal;font-variant-position:normal;font-variant-caps:normal;font-variant-numeric:normal;font-variant-alternates:normal;font-feature-settings:normal;text-indent:0;text-align:start;text-decoration:none;text-decoration-line:none;text-decoration-style:solid;text-decoration-color:#000000;letter-spacing:normal;word-spacing:normal;text-transform:none;writing-mode:lr-tb;direction:ltr;text-orientation:mixed;dominant-baseline:auto;baseline-shift:baseline;text-anchor:start;white-space:normal;shape-padding:0;clip-rule:nonzero;display:inline;overflow:visible;visibility:visible;opacity:1;isolation:auto;mix-blend-mode:normal;color-interpolation:sRGB;color-interpolation-filters:linearRGB;solid-color:#000000;solid-opacity:1;vector-effect:none;fill:#000000;fill-opacity:1;fill-rule:nonzero;stroke:none;stroke-width:1.99999964;stroke-linecap:butt;stroke-linejoin:round;stroke-miterlimit:4;stroke-dasharray:none;stroke-dashoffset:0;stroke-opacity:1;color-rendering:auto;image-rendering:auto;shape-rendering:auto;text-rendering:auto;enable-background:accumulate"
       d="M 33.794922,2.0019531 C 32.199828,2.0168445 31.186445,2.171978 30.396484,2.5839844 29.511886,3.0455025 29.197955,3.7145265 28.978516,4.2363281 28.758925,4.7581297 28.635377,5.1352 28.271484,5.5664062 27.907894,5.997613 27.276278,6.5144563 25.974609,7.0644531 24.672939,7.61445 23.860339,7.709229 23.294922,7.6699219 22.729504,7.6306148 22.370591,7.453313 21.841797,7.2480469 21.313003,7.0428185 20.604069,6.8049352 19.664062,7.1152344 c -0.84616,0.2793071 -1.65699,0.8982232 -2.77539,2.03125 -1.118438,1.1330646 -1.734525,1.9771596 -1.994141,2.8046876 -0.266456,0.84994 -0.09918,1.516139 0.169922,2.169922 0.215433,0.523502 0.394452,0.879327 0.443359,1.439453 0.04876,0.560126 -0.03024,1.36722 -0.560546,2.671875 -0.529588,1.304693 -1.037392,1.943214 -1.462891,2.310547 -0.425537,0.36737 -0.798661,0.49834 -1.314453,0.716797 -0.515773,0.218456 -1.187434,0.523538 -1.638672,1.394531 -0.386834,0.746683 -0.5455248,1.783221 -0.5332031,3.34375 -0.011339,1.560529 0.1439881,2.594673 0.5332031,3.345703 0.406791,0.785234 1.016013,1.138646 1.638672,1.402344 0.515792,0.218456 0.888916,0.341653 1.314453,0.708984 0.425499,0.36737 0.933303,1.005854 1.462891,2.310547 0.529549,1.304693 0.609455,2.111749 0.560546,2.671875 -0.04876,0.560126 -0.227887,0.915953 -0.443359,1.439453 -0.167433,0.407324 -0.292277,0.79863 -0.306641,1.283203 L 3.8515625,47.960938 c -2.5806613,2.082444 -2.3336203,6.000553 -0.074219,8.259765 2.2592885,2.259213 6.1791803,2.506254 8.2617182,-0.07422 l 9.001954,-11.158203 c 0.262677,-0.04951 0.53023,-0.134407 0.802734,-0.240234 0.528793,-0.205228 0.887708,-0.380653 1.453125,-0.419922 0.565418,-0.03931 1.378018,0.06351 2.679687,0.613281 1.301671,0.549997 1.933133,1.059028 2.296876,1.490235 0.36359,0.431206 0.487591,0.814136 0.707031,1.335937 0.21959,0.521802 0.561149,1.207254 1.417969,1.654297 0.758853,0.395906 1.801637,0.562603 3.396484,0.576172 1.594848,0.01512 2.613318,-0.126651 3.410156,-0.525391 0.870312,-0.435401 1.211094,-1.105062 1.439453,-1.623047 0.228284,-0.517984 0.359395,-0.897295 0.730469,-1.322265 0.37115,-0.425008 1.015243,-0.925352 2.326172,-1.453125 1.310929,-0.527773 2.120923,-0.609454 2.685547,-0.560547 0.564661,0.04876 0.922062,0.227145 1.447265,0.441406 0.525204,0.214299 1.243484,0.458035 2.169922,0.169922 0.85081,-0.264945 1.682637,-0.87051 2.820313,-1.984375 1.137675,-1.113827 1.755912,-1.92424 2.037109,-2.769531 0.281197,-0.845292 0.139692,-1.472864 -0.132812,-2.169922 -0.206363,-0.527092 -0.380653,-0.894196 -0.419922,-1.455078 -0.03931,-0.560844 0.05933,-1.360741 0.611328,-2.65625 0.551886,-1.295508 1.062633,-1.927577 1.5,-2.296875 0.437367,-0.36926 0.8313,-0.501079 1.365234,-0.744141 0.533972,-0.243023 1.210176,-0.614382 1.646485,-1.505859 0.377196,-0.77057 0.55479,-1.879549 0.568359,-3.544922 -0.01512,-1.665335 -0.168183,-2.717455 -0.568359,-3.535156 -0.400215,-0.8177 -0.994819,-1.217016 -1.646485,-1.513672 -0.533934,-0.243024 -0.927867,-0.374957 -1.365234,-0.744141 -0.437367,-0.36926 -0.948114,-1.001366 -1.5,-2.296875 -0.551887,-1.295508 -0.650635,-2.095368 -0.611328,-2.65625 0.03931,-0.560844 0.213522,-0.918219 0.419922,-1.445312 0.206362,-0.52713 0.445681,-1.237502 0.132812,-2.177735 C 52.580131,10.783653 51.961894,9.9732396 50.824219,8.859375 49.686543,7.7455482 48.854716,7.1397181 48.003906,6.875 47.077468,6.5866221 46.359188,6.8306227 45.833984,7.0449219 45.308781,7.2592211 44.95138,7.4374588 44.386719,7.4863281 43.822095,7.535084 43.012101,7.4522695 41.701172,6.9257812 40.390243,6.398008 39.746074,5.8976268 39.375,5.4726562 39.00385,5.0476484 38.87289,4.6683749 38.644531,4.1503906 38.416248,3.6324062 38.072253,2.9611579 37.205078,2.5273438 36.40824,2.1287169 35.389978,1.9886114 33.794922,2.0019531 Z m 0.01367,2.0019531 C 35.261577,3.9921897 36.010289,4.161317 36.3125,4.3125 c 0.22715,0.1137638 0.323523,0.2328284 0.507812,0.6503906 0.184064,0.417676 0.431821,1.1156452 1.048829,1.8222656 0.61697,0.7066206 1.571065,1.3920508 3.085937,2.0019532 1.514835,0.6098645 2.673942,0.7724015 3.609375,0.6914062 0.935433,-0.080882 1.605007,-0.4108819 2.029297,-0.5839844 0.340913,-0.1390866 0.532501,-0.1969966 0.820312,-0.1074218 0.389293,0.1209449 0.971958,0.4838486 2.007813,1.4980466 1.035893,1.014161 1.418622,1.604758 1.542969,1.978516 0.07861,0.23622 0.0706,0.387492 -0.0957,0.8125 -0.1663,0.425008 -0.489189,1.101979 -0.554688,2.037109 -0.06539,0.935093 0.123205,2.079202 0.761719,3.578125 0.638513,1.498923 1.342978,2.436783 2.058594,3.041016 0.715578,0.604271 1.411759,0.853286 1.824218,1.041016 0.41246,0.187842 0.54224,0.291397 0.683594,0.580078 C 55.812657,23.700854 56,24.484497 56,25.998047 c -0.01512,1.513474 -0.181298,2.274657 -0.369141,2.658203 -0.136819,0.279307 -0.259264,0.380631 -0.671875,0.568359 -0.412459,0.187843 -1.10864,0.436783 -1.824218,1.041016 -0.715578,0.604271 -1.420081,1.542092 -2.058594,3.041016 -0.638514,1.498922 -0.827218,2.644948 -0.761719,3.580078 0.06539,0.935129 0.388351,1.612101 0.554688,2.037109 0.119811,0.30652 0.20153,0.494982 0.0957,0.8125 -0.137575,0.413632 -0.507076,0.964355 -1.542969,1.978516 -1.035855,1.014198 -1.627893,1.379823 -2.007813,1.498047 -0.247937,0.0771 -0.396022,0.06373 -0.820312,-0.109375 -0.42429,-0.173103 -1.093826,-0.502989 -2.029297,-0.583985 -0.935433,-0.08088 -2.09454,0.08353 -3.609375,0.69336 -1.514872,0.609902 -2.468967,1.295332 -3.085937,2.001953 -0.617008,0.70662 -0.864689,1.40459 -1.048829,1.822265 -0.184062,0.417676 -0.285349,0.539046 -0.507812,0.650391 -0.345827,0.173102 -1.050942,0.320688 -2.503906,0.308594 -1.452964,-0.01134 -2.124854,-0.162964 -2.486328,-0.351563 -0.22526,-0.117543 -0.318986,-0.229805 -0.496094,-0.65039 -0.176882,-0.420775 -0.420591,-1.134511 -1.025391,-1.851563 -0.6048,-0.717014 -1.544652,-1.409356 -3.048828,-2.044922 -1.504215,-0.635565 -2.658985,-0.824849 -3.595703,-0.759765 -0.936681,0.06501 -1.609909,0.386888 -2.037109,0.552734 -0.282331,0.109606 -0.504798,0.201908 -0.826172,0.0957 -0.32126,-0.105827 -0.96801,-0.503534 -1.986328,-1.535156 -1.018356,-1.031622 -1.40574,-1.680781 -1.50586,-2 -0.07899,-0.252095 -0.05434,-0.390365 0.119141,-0.8125 0.17348,-0.422098 0.500544,-1.089555 0.582031,-2.023438 0.08164,-0.933846 -0.08844,-2.091981 -0.701172,-3.601562 -0.612737,-1.509581 -1.297072,-2.45682 -2.007812,-3.070313 -0.71074,-0.613493 -1.414168,-0.861525 -1.837891,-1.041015 C 12.531355,28.722816 12.41694,28.638518 12.304688,28.421875 12.159553,28.141434 11.991434,27.42662 12.003906,26 c -0.01134,-1.426621 0.155269,-2.139481 0.300782,-2.419922 0.114519,-0.221102 0.226781,-0.300828 0.65039,-0.480469 0.423723,-0.179527 1.127151,-0.427485 1.837891,-1.041015 0.71074,-0.613493 1.395075,-1.560732 2.007812,-3.070313 0.612737,-1.509543 0.782696,-2.66182 0.701172,-3.595703 -0.08164,-0.933846 -0.408438,-1.607162 -0.582031,-2.029297 -0.118299,-0.288 -0.219298,-0.493282 -0.119141,-0.8125 0.100158,-0.31937 0.487504,-0.96834 1.50586,-2 1.018318,-1.0316216 1.664955,-1.4291025 1.986328,-1.535156 0.32126,-0.1062047 0.550568,-0.011257 0.826172,0.095703 0.4272,0.1659213 1.100428,0.4876887 2.037109,0.5527344 0.936718,0.065008 2.091488,-0.1243893 3.595703,-0.7597656 1.504176,-0.6355654 2.444028,-1.3278699 3.048828,-2.0449219 0.6048,-0.7170142 0.848471,-1.4249661 1.025391,-1.8457031 0.12548,-0.2982047 0.196528,-0.4999666 0.496094,-0.65625 0.344693,-0.1799055 1.033345,-0.3410431 2.486328,-0.3535157 z m 0.111328,5.9980468 c -4.375541,0.02438 -8.527796,1.850736 -11.521484,5.007813 -0.149672,-0.01134 -0.300846,-0.01533 -0.453126,-0.0078 -0.198803,0.01512 -0.400012,0.04865 -0.599609,0.101563 -1.652069,0.43748 -2.777735,2.17668 -2.183594,3.867187 l 0.195313,0.572266 c -2.903018,6.589304 -1.040645,14.366536 4.603516,18.914062 5.796509,4.670287 14.063178,4.723917 19.917968,0.126953 5.752932,-4.517025 7.695577,-12.358505 4.761719,-19.023437 l 0.197266,-0.589844 c 0.594104,-1.690507 -0.531563,-3.429707 -2.183594,-3.867187 -0.199559,-0.05291 -0.400844,-0.0872 -0.599609,-0.101563 -0.156853,-0.01134 -0.289495,-0.01716 -0.44336,-0.0059 -3.031559,-3.197443 -7.263746,-5.0176304 -11.691406,-4.994141 z m 11.74414,7 c 0.145869,-0.01975 0.303655,-0.0096 0.472657,0.03516 0.620598,0.16441 0.997534,0.765267 0.820312,1.269532 l -2.878906,8.195312 -4.851563,5.859375 c -0.147401,0.178772 -0.227759,0.403043 -0.228515,0.634766 v 6.072265 c -3.218457,1.231975 -6.781114,1.230804 -9.996094,0 v -6.072265 c -4.53e-4,-0.231685 -0.08074,-0.456033 -0.228515,-0.634766 l -4.851563,-5.859375 -2.878906,-8.195312 c -0.17726,-0.504265 0.199525,-1.105198 0.820312,-1.269532 0.168945,-0.0446 0.326673,-0.05342 0.472657,-0.0332 0.437837,0.05877 0.764081,0.390117 0.933593,0.900391 l 1.84961,4.478515 c 0.04951,0.121325 0.121048,0.230865 0.21289,0.324219 l 4.998047,4.998047 C 30.517543,27.893677 30.772985,28 31.039062,28 h 5.921876 c 0.266078,-2.27e-4 0.521444,-0.106323 0.708984,-0.294922 l 4.998047,-4.998047 c 0.09184,-0.09335 0.163757,-0.202894 0.21289,-0.324219 l 1.84961,-4.478515 c 0.169512,-0.510293 0.495995,-0.843089 0.933593,-0.902344 z M 34.003906,18 c 2.193875,0 3.994141,1.776832 3.994141,4.001953 0,2.225072 -1.795024,3.996094 -3.994141,3.996094 -2.199116,0 -4.007812,-1.771022 -4.007812,-3.996094 C 29.996094,19.776832 31.809981,18 34.003906,18 Z m 1.998047,12 c -1.304089,0.03024 -1.304089,1.971086 0,2 h 0.996094 c 1.363238,0.03024 1.363238,-2.030236 0,-2 z m 16.992188,16 c -0.552492,0.002 -0.998211,0.451453 -0.996094,1.003906 V 60 h -1.992188 v -8.998047 c 0.0021,-0.55302 -0.445026,-1.00281 -0.998047,-1.003906 H 43 c -0.552302,0.0022 -0.998172,0.451642 -0.996094,1.003906 V 60 h -1.99414 v -4.998047 c 0.0021,-0.555326 -0.448581,-1.006023 -1.003907,-1.003906 H 32.996094 C 32.443829,54.00025 31.997883,54.449689 32,55.001953 V 60 h -1.011719 c -1.363276,-0.03024 -1.363276,2.030274 0,2 h 30 c 1.360819,0 1.33629,-2 0,-2 H 60 V 47.003906 C 60.002098,46.451453 59.556398,46.001965 59.003906,46 Z"
       transform="scale(0.26458334)"
       id="path844"
       inkscape:connector-curvature="0"
       sodipodi:nodetypes="cccccccccccccccccccccccccccccccccccccccccccccccccccccccccccccccccccccccccccccccccccccccccccccccccccccccccccccccccccccccccccccccccccccccccccccccccccccccccccccccccccccccccccccccccccccccccccccccccccccccccccc" />
  </g>
</svg>
