<svg width="13" height="16" viewBox="0 0 13 16" fill="none" xmlns="http://www.w3.org/2000/svg">
<path fill-rule="evenodd" clip-rule="evenodd" d="M0 6.36064C0 2.84309 2.93944 0 6.49499 0C10.0606 0 13 2.84309 13 6.36064C13 8.13317 12.3554 9.77877 11.2943 11.1736C10.1238 12.7121 8.68106 14.0526 7.05712 15.1048C6.68545 15.348 6.35002 15.3663 5.94211 15.1048C4.30892 14.0526 2.86618 12.7121 1.70568 11.1736C0.64387 9.77877 0 8.13317 0 6.36064ZM4.3544 6.55869C4.3544 7.73707 5.31596 8.66387 6.49498 8.66387C7.67476 8.66387 8.64558 7.73707 8.64558 6.55869C8.64558 5.38949 7.67476 4.41758 6.49498 4.41758C5.31596 4.41758 4.3544 5.38949 4.3544 6.55869Z" fill="#CBCBCB"/>
</svg>
