<svg width="21" height="21" viewBox="0 0 21 21" fill="none" xmlns="http://www.w3.org/2000/svg">
<path fill-rule="evenodd" clip-rule="evenodd" d="M15.939 2.53006C15.939 1.13353 17.073 -0.000488281 18.4695 -0.000488281C19.8661 -0.000488281 21.0001 1.13353 21.0001 2.53006C21.0001 3.92659 19.8661 5.06061 18.4695 5.06061C17.073 5.06061 15.939 3.92659 15.939 2.53006ZM11.8962 13.397L14.9307 9.48154L14.8887 9.50253C15.0567 9.27153 15.0882 8.97752 14.9727 8.71501C14.8583 8.45251 14.6052 8.274 14.3333 8.25301C14.0487 8.22151 13.7663 8.3475 13.5972 8.57852L11.0572 11.8651L8.1476 9.57603C7.9691 9.43953 7.7591 9.38599 7.54909 9.40804C7.34014 9.43953 7.15114 9.55399 7.02408 9.72198L3.91708 13.7656L3.85303 13.8601C3.67452 14.1951 3.75852 14.6256 4.07353 14.8576C4.22053 14.9521 4.37804 15.0151 4.55654 15.0151C4.79909 15.0256 5.02905 14.8986 5.17605 14.7001L7.8116 11.3075L10.8042 13.5556L10.8987 13.6176C11.2347 13.7961 11.6547 13.7131 11.8962 13.397ZM14.1223 1.86884C14.0803 2.13135 14.0593 2.39384 14.0593 2.65636C14.0593 5.01889 15.9703 6.92888 18.3223 6.92888C18.5849 6.92888 18.8369 6.89842 19.0994 6.85643V15.329C19.0994 18.8896 16.9993 21.0002 13.4293 21.0002H5.67067C2.09955 21.0002 -0.000488281 18.8896 -0.000488281 15.329V7.55994C-0.000488281 3.98987 2.09955 1.86884 5.67067 1.86884H14.1223Z" fill="#319EFF"/>
</svg>
