<svg width="22" height="21" viewBox="0 0 22 21" fill="none" xmlns="http://www.w3.org/2000/svg">
<path fill-rule="evenodd" clip-rule="evenodd" d="M19.3232 7.5046L20.0797 8.2608C20.6785 8.84895 21.0042 9.64716 21.0042 10.4874C21.0147 11.3276 20.689 12.1269 20.1007 12.7245C20.0937 12.7322 20.0867 12.7389 20.0797 12.7457C20.0762 12.7491 20.0727 12.7525 20.0692 12.756L19.3232 13.5017C19.029 13.7957 18.8609 14.1948 18.8609 14.616V15.6967C18.8609 17.4402 17.4425 18.8591 15.6984 18.8591H14.6163C14.196 18.8591 13.7968 19.0261 13.5026 19.3202L12.7461 20.0764C12.1262 20.6971 11.3172 21.0006 10.5082 21.0006C9.6992 21.0006 8.8902 20.6971 8.27031 20.0879L7.50334 19.3202C7.20915 19.0261 6.80991 18.8591 6.38964 18.8591H5.30747C3.56338 18.8591 2.145 17.4402 2.145 15.6967V14.616C2.145 14.1948 1.9769 13.7957 1.68271 13.4912L0.926242 12.7455C-0.303023 11.5177 -0.313529 9.51062 0.915736 8.27235L1.68271 7.5046C1.9769 7.21052 2.145 6.81142 2.145 6.38081V5.30953C2.145 3.56607 3.56338 2.14926 5.30747 2.14926H6.38964C6.80991 2.14926 7.20915 1.98016 7.50334 1.68609L8.25981 0.929889C9.48907 -0.308383 11.4958 -0.308383 12.7356 0.920437L13.5026 1.68609C13.7968 1.98016 14.196 2.14926 14.6163 2.14926H15.6984C17.4425 2.14926 18.8609 3.56607 18.8609 5.30953V6.39236C18.8609 6.81142 19.029 7.21052 19.3232 7.5046ZM7.79749 14.1212C8.04964 14.1212 8.28079 14.0267 8.44889 13.8481L13.8493 8.45079C14.2065 8.0937 14.2065 7.5045 13.8493 7.1474C13.492 6.79136 12.9142 6.79136 12.557 7.1474L7.15659 12.5458C6.79937 12.9029 6.79937 13.4911 7.15659 13.8481C7.32469 14.0267 7.55584 14.1212 7.79749 14.1212ZM12.2837 13.1971C12.2837 13.7117 12.6934 14.1213 13.2083 14.1213C13.7126 14.1213 14.1223 13.7117 14.1223 13.1971C14.1223 12.694 13.7126 12.2833 13.2083 12.2833C12.6934 12.2833 12.2837 12.694 12.2837 13.1971ZM7.80788 6.88501C8.31219 6.88501 8.72194 7.29462 8.72194 7.79875C8.72194 8.31443 8.31219 8.72299 7.80788 8.72299C7.30356 8.72299 6.8833 8.31443 6.8833 7.79875C6.8833 7.29462 7.30356 6.88501 7.80788 6.88501Z" fill="#319EFF"/>
</svg>
