<svg width="19" height="19" viewBox="0 0 19 19" fill="none" xmlns="http://www.w3.org/2000/svg">
<path fill-rule="evenodd" clip-rule="evenodd" d="M8.26913 1.44299C7.63232 1.44299 7.09055 1.88552 6.93848 2.48197H12.052C11.8999 1.88552 11.3581 1.44299 10.7213 1.44299H8.26913ZM13.4966 2.48199H15.3785C17.3745 2.48199 18.9998 4.12703 18.9998 6.14725C18.9998 6.14725 18.9428 7.00248 18.9238 8.19345C18.9219 8.28773 18.8763 8.38008 18.8012 8.43588C18.344 8.77355 17.9258 9.05253 17.8878 9.07177C16.31 10.13 14.4766 10.8746 12.5233 11.245C12.396 11.27 12.2705 11.2036 12.2059 11.0901C11.6584 10.1415 10.6357 9.52391 9.49516 9.52391C8.3622 9.52391 7.33 10.1348 6.76637 11.0843C6.70079 11.1959 6.57723 11.2603 6.45082 11.2363C4.51376 10.865 2.68032 10.1213 1.11205 9.08139L0.199598 8.44646C0.123561 8.39836 0.0760373 8.31178 0.0760373 8.21558C0.0475233 7.72495 0 6.14725 0 6.14725C0 4.12703 1.6253 2.48199 3.62128 2.48199H5.4937C5.67428 1.08707 6.84336 0 8.26906 0H10.7213C12.147 0 13.316 1.08707 13.4966 2.48199ZM18.6769 10.2745L18.6389 10.2937C16.719 11.5828 14.4093 12.439 11.9856 12.795C11.6435 12.8431 11.3013 12.6218 11.2063 12.2755C10.9971 11.4866 10.3223 10.9671 9.51442 10.9671H9.50492H9.48591C8.67801 10.9671 8.00318 11.4866 7.79408 12.2755C7.69903 12.6218 7.35686 12.8431 7.01469 12.795C4.59101 12.439 2.28137 11.5828 0.36143 10.2937C0.351925 10.2841 0.256878 10.2264 0.180841 10.2745C0.0952992 10.3226 0.0952992 10.438 0.0952992 10.438L0.161832 15.3443C0.161832 17.3645 1.77762 18.9999 3.7736 18.9999H15.2172C17.2132 18.9999 18.829 17.3645 18.829 15.3443L18.905 10.438C18.905 10.438 18.905 10.3226 18.8195 10.2745C18.772 10.2456 18.7149 10.2552 18.6769 10.2745ZM10.2085 14.3054C10.2085 14.7094 9.89484 15.0269 9.49565 15.0269C9.10596 15.0269 8.7828 14.7094 8.7828 14.3054V13.0644C8.7828 12.6699 9.10596 12.3429 9.49565 12.3429C9.89484 12.3429 10.2085 12.6699 10.2085 13.0644V14.3054Z" fill="#319EFF"/>
</svg>
