<svg width="190" height="202" viewBox="0 0 190 202" fill="none" xmlns="http://www.w3.org/2000/svg">
<g clip-path="url(#clip0_644_1874)">
<path d="M219.392 183.397H-51.4365V183.533H219.392V183.397Z" fill="#EBEBEB"/>
<path d="M57.1334 188.566H43.0503V188.701H57.1334V188.566Z" fill="#EBEBEB"/>
<path d="M6.28256 187.094H-23.0211V187.23H6.28256V187.094Z" fill="#EBEBEB"/>
<path d="M42.5086 193.609H28.2522V193.745H42.5086V193.609Z" fill="#EBEBEB"/>
<path d="M109.468 192.697H88.4357V192.833H109.468V192.697Z" fill="#EBEBEB"/>
<path d="M120.079 192.697H114.289V192.833H120.079V192.697Z" fill="#EBEBEB"/>
<path d="M192.261 190.406H162.708V190.542H192.261V190.406Z" fill="#EBEBEB"/>
<path d="M76.9364 159.185H-27.6523C-28.4716 159.184 -29.2569 158.857 -29.8358 158.275C-30.4146 157.694 -30.7397 156.907 -30.7397 156.085V8.73289C-30.7326 7.91642 -30.4043 7.13574 -29.8263 6.56042C-29.2482 5.98511 -28.467 5.66162 -27.6523 5.66022H76.9364C77.7566 5.66022 78.5433 5.9868 79.1233 6.56813C79.7034 7.14946 80.0292 7.93791 80.0292 8.76003V156.085C80.0292 156.908 79.7034 157.696 79.1233 158.277C78.5433 158.859 77.7566 159.185 76.9364 159.185ZM-27.6523 5.76879C-28.4357 5.77023 -29.1866 6.08315 -29.74 6.63887C-30.2935 7.19459 -30.6043 7.9477 -30.6043 8.73289V156.085C-30.6043 156.871 -30.2935 157.624 -29.74 158.179C-29.1866 158.735 -28.4357 159.048 -27.6523 159.05H76.9364C77.7203 159.048 78.4717 158.735 79.026 158.18C79.5803 157.624 79.8924 156.871 79.8938 156.085V8.73289C79.8924 7.9472 79.5803 7.19411 79.026 6.63854C78.4717 6.08298 77.7203 5.77023 76.9364 5.76879H-27.6523Z" fill="#EBEBEB"/>
<path d="M194.102 159.185H89.5082C88.6884 159.184 87.9025 158.857 87.3228 158.276C86.7431 157.695 86.4168 156.907 86.4153 156.085V8.73289C86.4239 7.91592 86.7534 7.13525 87.3323 6.56008C87.9112 5.98492 88.693 5.6616 89.5082 5.66022H194.102C194.916 5.66304 195.696 5.98716 196.273 6.56233C196.85 7.13749 197.177 7.91736 197.184 8.73289V156.085C197.184 156.906 196.86 157.693 196.282 158.274C195.705 158.855 194.921 159.182 194.102 159.185ZM89.5082 5.76879C88.7243 5.77023 87.9729 6.08298 87.4186 6.63854C86.8642 7.19411 86.5522 7.9472 86.5508 8.73289V156.085C86.5522 156.871 86.8642 157.624 87.4186 158.18C87.9729 158.735 88.7243 159.048 89.5082 159.05H194.102C194.886 159.048 195.638 158.735 196.192 158.18C196.746 157.624 197.058 156.871 197.06 156.085V8.73289C197.058 7.9472 196.746 7.19411 196.192 6.63854C195.638 6.08298 194.886 5.77023 194.102 5.76879H89.5082Z" fill="#EBEBEB"/>
<path d="M63.4762 183.398C63.4762 183.398 54.8855 173.115 53.8834 162.291C52.4264 146.612 68.0857 165.58 72.7439 161.547C77.4022 157.513 62.6637 138.833 74.6018 135.207C86.5399 131.58 89.427 145.299 94.1502 155.331C101.891 171.78 102.394 130.022 115.394 150.065C123.871 163.137 119.305 183.392 119.305 183.392L63.4762 183.398Z" fill="#F5F5F5"/>
<path d="M118.249 183.398C118.249 183.398 109.143 174.104 111.7 164.294C115.405 150.07 121.45 167.28 126.238 163.621C131.026 159.962 125.561 143.024 135.728 139.734C145.895 136.444 143.885 148.887 144.394 157.991C145.223 172.898 158.391 135.044 162.107 153.23C164.528 165.081 153.982 183.392 153.982 183.392L118.249 183.398Z" fill="#F5F5F5"/>
<path d="M140.18 183.397C140.597 182.361 141.886 174.945 153.776 169.055C148.668 175.89 147.276 180.998 147.541 183.397H140.18Z" fill="#E0E0E0"/>
<path d="M5.81673 183.398C5.78423 181.834 4.533 168.512 -7.46471 161.797C-3.82478 172.111 -4.62643 179.825 -6.27307 183.398H5.81673Z" fill="#F5F5F5"/>
<path d="M40.4178 183.397C40.4178 182.442 41.0461 174.304 46.9177 170.2C45.1357 176.487 45.5311 181.215 46.3381 183.397H40.4178Z" fill="#F5F5F5"/>
<path d="M43.6786 183.397C43.8194 182.768 43.9657 178.294 49.7776 174.739C47.611 178.864 47.2319 181.964 47.5352 183.397H43.6786Z" fill="#F5F5F5"/>
<path d="M78.7942 183.398C78.4638 182.154 78.1334 173.305 64.8899 166.27C69.8786 174.413 70.6911 180.564 70.0086 183.398H78.7942Z" fill="#E0E0E0"/>
<path d="M82.9758 183.397C83.0733 182.458 85.2779 175.765 77.2234 170.45C78.7238 176.622 77.6351 181.259 76.3297 183.397H82.9758Z" fill="#E0E0E0"/>
<path d="M144.438 183.397C144.34 182.637 144.871 177.22 137.353 172.915C139.725 177.909 139.714 181.666 139.059 183.397H144.438Z" fill="white"/>
<path d="M155.444 57.5102C165.275 54.5244 151.317 47.7385 135.917 47.0762C99.5506 45.4801 90.6565 37.3044 64.8845 34.4597C56.8571 33.5749 62.3929 45.5561 80.9771 50.8329C104.518 57.5156 145.31 53.6178 135.332 57.8142C125.355 62.0107 135.939 74.5348 156.923 70.7184C173.173 67.7651 196.052 80.995 187.841 69.5457C182.646 62.3038 170.443 64.9422 164.804 64.421C159.165 63.8999 140.901 61.9292 155.444 57.5102Z" fill="#F5F5F5"/>
<path d="M144.979 81.9939C141.534 83.3565 132.89 80.4032 127.397 80.501C121.905 80.5987 113.384 82.6725 108.943 78.2372C104.501 73.8019 127.5 76.3643 132.234 76.7931C141.014 77.5803 150.022 80.0341 144.979 81.9939Z" fill="#FAFAFA"/>
<path d="M163.428 18.7381C165.313 16.876 170.508 20.3287 173.666 19.9976C176.823 19.6664 181.585 16.7403 184.466 22.2125C187.348 27.6847 173.904 25.2852 171.147 24.9269C166.034 24.2374 160.666 21.4687 163.428 18.7381Z" fill="#F5F5F5"/>
<path d="M-14.0946 56.3593C-12.2096 54.4972 -7.01514 57.9499 -3.85727 57.6188C-0.69941 57.2876 4.06176 54.3344 6.94338 59.8337C9.825 65.333 -3.61352 62.9064 -6.37598 62.5481C-11.4892 61.8586 -16.857 59.09 -14.0946 56.3593Z" fill="#F5F5F5"/>
<path d="M2.14971 17.6958C7.0788 21.5285 20.929 18.4612 29.2651 20.4481C37.6012 22.4351 50.0918 29.3241 57.8917 21.9465C65.6915 14.5688 30.0722 12.1747 22.7706 11.4744C9.22918 10.1878 -5.07058 12.0879 2.14971 17.6958Z" fill="#FAFAFA"/>
<path d="M54.9992 117.433C62.0137 107.466 50.7201 37.8093 35.532 33.2871C20.344 28.765 19.4448 107.053 24.9481 116.347C31.1609 126.841 47.3673 128.29 54.9992 117.433Z" fill="#EBEBEB"/>
<path d="M40.8728 97.4061C41.4707 97.4056 42.0476 97.6273 42.4918 98.0285C42.936 98.4296 43.2161 98.9815 43.2778 99.5776C45.7713 127.458 45.7024 155.508 43.0719 183.376H38.2458C40.8542 155.66 40.9321 127.764 38.4787 100.034C38.4477 99.7001 38.4867 99.3637 38.593 99.0461C38.6993 98.7285 38.8706 98.4367 39.096 98.1893C39.3214 97.9419 39.5959 97.7445 39.9019 97.6096C40.2078 97.4747 40.5385 97.4054 40.8728 97.4061Z" fill="#E0E0E0"/>
<path d="M166.353 146.547C162.437 140.983 168.747 102.075 177.23 99.545C185.712 97.0152 186.216 140.749 183.145 145.945C179.673 151.808 170.643 152.616 166.353 146.547Z" fill="#EBEBEB"/>
<path d="M179.456 131.607C179.282 131.551 179.125 131.452 179 131.319C178.874 131.186 178.784 131.024 178.738 130.847C178.692 130.669 178.692 130.484 178.737 130.306C178.782 130.129 178.871 129.966 178.995 129.832L181.032 127.487C181.225 127.264 181.499 127.127 181.793 127.106C182.087 127.085 182.378 127.182 182.6 127.376C182.823 127.569 182.96 127.844 182.98 128.138C183.001 128.433 182.904 128.724 182.711 128.947L180.675 131.292C180.529 131.466 180.334 131.589 180.116 131.645C179.897 131.702 179.666 131.688 179.456 131.607Z" fill="white"/>
<path d="M171.851 120.234C171.627 120.223 171.411 120.142 171.235 120.003C171.058 119.864 170.929 119.674 170.865 119.458L169.782 116.108C169.692 115.827 169.718 115.521 169.853 115.258C169.988 114.996 170.221 114.798 170.502 114.708C170.783 114.618 171.088 114.643 171.35 114.778C171.612 114.914 171.81 115.148 171.9 115.43L172.983 118.785C173.03 118.925 173.049 119.073 173.039 119.221C173.029 119.369 172.989 119.513 172.922 119.646C172.856 119.778 172.764 119.896 172.651 119.992C172.539 120.088 172.409 120.161 172.268 120.207C172.132 120.24 171.991 120.25 171.851 120.234Z" fill="white"/>
<path d="M174.245 135.364C173.909 135.365 173.586 135.491 173.338 135.718C173.089 135.945 172.934 136.256 172.902 136.591C171.51 152.164 171.548 167.832 173.016 183.397H175.724C174.264 167.911 174.221 152.324 175.594 136.83C175.61 136.643 175.588 136.454 175.527 136.276C175.467 136.099 175.37 135.935 175.243 135.797C175.116 135.659 174.962 135.55 174.79 135.475C174.618 135.4 174.432 135.362 174.245 135.364Z" fill="#E0E0E0"/>
<path d="M35.18 93.9208C34.9347 93.9218 34.6916 93.8739 34.465 93.7797L25.0997 89.9253C24.6343 89.7338 24.2638 89.3648 24.0698 88.8995C23.8758 88.4343 23.8741 87.9108 24.0652 87.4443C24.2562 86.9778 24.6244 86.6065 25.0886 86.4121C25.5528 86.2176 26.0751 86.216 26.5405 86.4074L35.9058 90.2619C36.3133 90.4287 36.6501 90.7324 36.8585 91.121C37.067 91.5095 37.134 91.9586 37.0482 92.3913C36.9624 92.824 36.729 93.2132 36.3881 93.4923C36.0473 93.7714 35.6201 93.9229 35.18 93.9208Z" fill="white"/>
<path d="M47.611 84.6268C47.3796 84.6276 47.15 84.5852 46.934 84.5019C46.467 84.3188 46.0912 83.9581 45.8883 83.4986C45.6854 83.039 45.6719 82.5177 45.8506 82.0481L47.7464 77.0863C47.926 76.6155 48.2848 76.2354 48.744 76.0298C49.2031 75.8241 49.725 75.8097 50.1947 75.9897C50.6645 76.1696 51.0437 76.5293 51.2489 76.9894C51.4541 77.4496 51.4684 77.9726 51.2889 78.4435L49.3931 83.4053C49.2553 83.7665 49.0109 84.0769 48.6925 84.2951C48.3741 84.5134 47.9968 84.6291 47.611 84.6268Z" fill="white"/>
<path d="M33.5442 72.0158C33.1631 72.0161 32.7908 71.9013 32.4758 71.6863C32.1608 71.4713 31.9178 71.1661 31.7784 70.8106L29.6118 65.219C29.5211 64.9866 29.4769 64.7386 29.4819 64.4891C29.4868 64.2396 29.5408 63.9935 29.6406 63.7649C29.7404 63.5363 29.8842 63.3296 30.0638 63.1567C30.2433 62.9838 30.4551 62.848 30.6869 62.7571C30.9188 62.6662 31.1663 62.622 31.4152 62.6269C31.6642 62.6319 31.9097 62.686 32.1378 62.786C32.3659 62.8861 32.5721 63.0302 32.7447 63.2101C32.9172 63.3901 33.0527 63.6023 33.1434 63.8347L35.31 69.4263C35.4008 69.659 35.4448 69.9074 35.4395 70.1572C35.4342 70.407 35.3796 70.6533 35.2789 70.8818C35.1782 71.1104 35.0334 71.3168 34.8528 71.489C34.6722 71.6613 34.4594 71.796 34.2267 71.8855C34.0096 71.9725 33.7779 72.0167 33.5442 72.0158Z" fill="white"/>
<path d="M83.9779 207.914C141.98 207.914 189 205.162 189 201.768C189 198.374 141.98 195.623 83.9779 195.623C25.9759 195.623 -21.0441 198.374 -21.0441 201.768C-21.0441 205.162 25.9759 207.914 83.9779 207.914Z" fill="#F5F5F5"/>
<path d="M36.9187 202.062C36.8609 202.062 36.8042 202.045 36.7562 202.013C31.2421 198.327 33.2788 194.136 35.635 189.282C38.6899 182.979 42.4978 175.135 32.385 164.467C23.7781 155.401 19.5965 146.715 20.6148 140.006C20.8693 138.246 21.5361 136.572 22.5604 135.121C23.5848 133.67 24.9376 132.482 26.508 131.656C26.5799 131.618 26.6639 131.61 26.7416 131.634C26.8193 131.658 26.8843 131.712 26.9224 131.784C26.9605 131.856 26.9685 131.94 26.9446 132.018C26.9207 132.096 26.8669 132.161 26.7951 132.199C25.3028 132.981 24.0167 134.107 23.0423 135.484C22.0678 136.861 21.4327 138.449 21.189 140.12C20.2032 146.634 24.3306 155.163 32.8129 164.093C43.2182 175.054 39.3128 183.094 36.1766 189.565C33.8475 194.364 32.0059 198.153 37.0974 201.551C37.1611 201.595 37.2051 201.662 37.2202 201.738C37.2354 201.814 37.2205 201.893 37.1787 201.958C37.1465 201.995 37.1062 202.023 37.061 202.041C37.0158 202.059 36.9671 202.066 36.9187 202.062Z" fill="#37474F"/>
<path d="M24.6664 133.268C28.2793 129.251 26.9035 123.29 25.6468 120.131C22.8139 121.293 20.5119 128.79 24.6664 133.268Z" fill="#37474F"/>
<path d="M24.661 154.077C19.9757 145.168 11.2604 144.061 6.34756 143.648C9.25626 149.522 16.9045 156.824 24.661 154.077Z" fill="#37474F"/>
<path d="M34.2158 192.697C40.4395 182.458 29.6876 175.059 24.0327 167.589C21.8552 175.135 23.4639 188.11 34.2158 192.697Z" fill="#37474F"/>
<path d="M33.2408 164.978C25.6901 156.118 27.418 149.696 29.4492 145.548C33.5279 150.798 39.6649 160.108 33.2408 164.978Z" fill="#37474F"/>
<path d="M22.4294 135.668C24.6285 133.051 28.4363 133.437 30.5001 133.98C30.0072 135.869 25.5493 137.937 22.4294 135.668Z" fill="#37474F"/>
<path d="M38.7008 182.637C39.5295 175.879 42.4924 176.405 44.7673 173.409C45.0523 174.418 45.1171 175.476 44.9572 176.513C44.7974 177.549 44.4167 178.539 43.8411 179.414C43.2655 180.29 42.5084 181.031 41.6214 181.587C40.7344 182.144 39.7382 182.502 38.7008 182.637Z" fill="#37474F"/>
<path d="M127.348 56.381C123.698 57.2225 118.514 59.28 113.915 61.1203C113.985 60.7751 114.025 60.4246 114.034 60.0726C113.796 60.5014 113.558 60.9249 113.325 61.3592L113.152 61.4298C113.171 60.9643 113.138 60.4982 113.054 60.04C112.932 60.6559 112.666 61.2343 112.28 61.7283C112.261 61.755 112.241 61.7804 112.22 61.8043L111.299 62.1789C111.41 61.2503 111.41 60.3117 111.299 59.3831C111.218 60.2658 111.077 61.1419 110.877 62.0052C110.844 62.1355 110.817 62.2658 110.779 62.4015L109.582 62.8955C109.501 62.5644 109.414 62.2332 109.327 61.9021L108.894 63.205L108.396 63.4113C108.326 62.9117 108.212 62.4193 108.055 61.9401C108.003 62.526 107.906 63.1069 107.762 63.6773L107.356 63.851C107.335 62.9599 107.23 62.0729 107.042 61.2017C106.96 61.8803 106.879 62.5481 106.803 63.2212L106.69 64.1278C104.908 64.8879 103.792 65.3819 103.792 65.3819C103.792 65.3819 103.662 58.9217 103.792 49.1282C103.922 39.3347 105.866 31.3219 109.853 27.4132C113.839 23.5045 122.343 22.8151 126.357 26.2895C130.371 29.7639 131.503 37.9178 129.981 45.8818C129.098 50.4908 137.602 54.0141 127.348 56.381Z" fill="#37474F"/>
<path d="M91.664 100.761L92.0432 99.6047C92.1927 99.1495 92.4407 98.733 92.7693 98.3848C93.0979 98.0367 93.4992 97.7655 93.9444 97.5907L98.9547 95.6092L101.463 96.8361C100.791 99.5776 97.7035 102.346 97.7035 102.346L96.9181 103.209C96.5894 103.587 96.1435 103.842 95.6522 103.935C95.1609 104.028 94.6529 103.952 94.2098 103.72L92.3248 102.634C92.0121 102.45 91.7743 102.161 91.6533 101.818C91.5324 101.476 91.5362 101.101 91.664 100.761Z" fill="#B55B52"/>
<path d="M119.955 68.9323C119.857 69.8498 119.754 70.6532 119.63 71.4947C119.505 72.3361 119.359 73.1613 119.213 73.9865C118.904 75.6151 118.552 77.2872 118.129 78.9266C117.707 80.5661 117.252 82.1839 116.727 83.8125C116.201 85.4411 115.589 87.0426 114.923 88.6387L114.831 88.8612C114.703 89.166 114.519 89.444 114.289 89.681C113.163 90.8104 111.941 91.8403 110.638 92.7591C109.425 93.6603 108.179 94.4637 106.939 95.2455C105.698 96.0272 104.431 96.7492 103.147 97.417C101.863 98.0847 100.585 98.7741 99.231 99.3822C98.8259 99.5657 98.3688 99.598 97.942 99.4734C97.5153 99.3487 97.147 99.0753 96.9038 98.7024C96.6606 98.3295 96.5584 97.8818 96.6156 97.44C96.6729 96.9982 96.8858 96.5914 97.216 96.2932H97.2431C98.2885 95.354 99.3718 94.4203 100.433 93.4974C101.495 92.5745 102.568 91.6516 103.608 90.7233C104.648 89.795 105.677 88.8667 106.657 87.9438C107.586 87.0856 108.458 86.168 109.268 85.1968L108.64 86.2337C109.1 84.7843 109.517 83.3131 109.902 81.8147C110.286 80.3164 110.627 78.7963 110.936 77.2654C111.245 75.7345 111.543 74.1982 111.808 72.651L112.193 70.3383L112.545 68.0746V67.966C112.608 67.4801 112.766 67.0115 113.009 66.5867C113.253 66.162 113.578 65.7896 113.965 65.4906C114.352 65.1917 114.795 64.9721 115.267 64.8445C115.739 64.7169 116.231 64.6836 116.716 64.7467C117.2 64.8098 117.668 64.968 118.092 65.2122C118.516 65.4564 118.887 65.7819 119.185 66.1701C119.484 66.5582 119.703 67.0015 119.83 67.4745C119.958 67.9475 119.991 68.441 119.928 68.9269L119.955 68.9323Z" fill="#B55B52"/>
<path d="M120.112 58.4765C109.967 59.7251 108.233 79.1058 109.154 82.9982C110.584 86.3477 116.808 84.6268 116.808 84.6268C116.808 84.6268 126.671 69.9257 120.112 58.4765Z" fill="#37474F"/>
<path d="M117.831 84.0459C117.603 84.6055 117.296 85.13 116.922 85.604C116.892 85.6417 116.853 85.67 116.808 85.6854C116.266 85.9189 112.366 87.4118 109.1 85.1914C109.043 85.1554 109 85.1021 108.975 85.0394C108.665 84.1996 108.526 83.3064 108.564 82.4119C108.565 82.3618 108.579 82.3128 108.602 82.2688C108.626 82.2248 108.66 82.1871 108.701 82.1586C108.742 82.1301 108.79 82.1116 108.839 82.1047C108.889 82.0978 108.939 82.1026 108.986 82.1187C110.221 82.5639 114.083 83.8179 117.517 83.6008C117.572 83.5973 117.626 83.6079 117.675 83.6315C117.725 83.6551 117.767 83.6909 117.798 83.7355C117.83 83.7801 117.849 83.8321 117.855 83.8864C117.861 83.9407 117.853 83.9957 117.831 84.0459Z" fill="white"/>
<path d="M159.702 201.763C164.647 201.763 164.284 201.687 167.057 201.589C169.43 201.508 170.026 201.806 171.932 201.763C173.53 201.725 173.357 200.194 172.728 198.43C172.414 197.545 171.954 196.459 171.504 195.031H163.986C163.114 196.98 161.191 198.446 158.434 198.831C155.796 199.179 157.725 201.763 159.702 201.763Z" fill="#37474F"/>
<path d="M118.834 201.763C125.122 201.763 125.723 199.049 128.042 197.61C130.046 196.383 130.842 196.725 132.917 195.552C134.287 194.782 133.68 193.082 132.581 192.176C131.572 191.36 130.674 190.414 129.91 189.364L123.779 192.078C123.443 194.554 122.284 198.723 118.59 198.983C115.963 199.195 116.889 201.763 118.834 201.763Z" fill="#37474F"/>
<path d="M120.074 96.95C120.074 96.95 108.157 127.351 106.576 142.427C106.533 154.913 123.795 192.094 123.795 192.094C124.337 193.023 129.288 190.352 129.927 189.38C123.568 173.821 126.91 154.354 121.174 142.932C133.469 125.408 143.008 92.9871 143.008 92.9871L120.074 96.95Z" fill="#DDEEFC"/>
<path opacity="0.2" d="M118.032 104.518C117.996 104.522 117.96 104.512 117.931 104.49C117.903 104.467 117.885 104.434 117.88 104.398C117.876 104.362 117.886 104.326 117.908 104.298C117.931 104.269 117.963 104.251 117.999 104.246C119.49 103.924 120.81 103.064 121.71 101.831C121.729 101.801 121.759 101.779 121.793 101.771C121.827 101.763 121.864 101.769 121.894 101.787C121.909 101.796 121.923 101.808 121.933 101.822C121.944 101.836 121.951 101.853 121.955 101.87C121.959 101.887 121.96 101.905 121.957 101.923C121.954 101.94 121.947 101.957 121.937 101.972C121.01 103.278 119.625 104.185 118.059 104.512L118.032 104.518Z" fill="white"/>
<path opacity="0.2" d="M131.243 110.978C128.589 116.363 128.172 124.398 128.383 130.554C131.702 123.829 134.662 116.932 137.25 109.892L137.223 109.865C136.789 109.463 136.268 109.167 135.701 109.003C135.133 108.838 134.535 108.809 133.954 108.917C133.373 109.025 132.826 109.268 132.355 109.625C131.884 109.983 131.503 110.446 131.243 110.978Z" fill="black"/>
<path d="M126.948 95.7775C126.948 95.7775 130.116 124.175 136.405 143.55C139.547 153.214 157.475 175.162 163.986 195.048C165.199 195.721 169.273 195.764 171.504 195.048C171.504 195.048 161.5 151.341 150.726 142.144C150.694 118.524 151.539 107.124 146.393 92.3791L126.948 95.7775Z" fill="#DDEEFC"/>
<path opacity="0.2" d="M168.747 192.409C168.716 192.41 168.685 192.399 168.66 192.379C168.635 192.36 168.618 192.332 168.612 192.301C164.159 165.911 148.213 142.899 148.029 142.687C148.021 142.657 148.021 142.625 148.029 142.595C148.029 142.568 148.305 139.338 148.571 127.34C148.831 116.048 147.791 103.796 147.661 102.319C146.816 102.46 142.553 103.041 139.324 100.918C139.309 100.909 139.296 100.896 139.286 100.881C139.276 100.866 139.269 100.849 139.266 100.831C139.262 100.814 139.262 100.796 139.266 100.778C139.269 100.76 139.276 100.743 139.287 100.728C139.307 100.699 139.339 100.679 139.374 100.672C139.409 100.665 139.446 100.671 139.476 100.69C142.959 102.981 147.709 102.037 147.758 102.026C147.774 102.018 147.792 102.014 147.81 102.014C147.827 102.014 147.845 102.018 147.861 102.026C147.877 102.037 147.89 102.052 147.901 102.069C147.911 102.086 147.918 102.104 147.921 102.124C147.921 102.254 149.118 115.332 148.841 127.324C148.576 138.529 148.3 142.101 148.3 142.552C149.058 143.637 164.495 166.308 168.883 192.23C168.886 192.248 168.885 192.266 168.881 192.284C168.877 192.301 168.87 192.318 168.859 192.333C168.848 192.347 168.835 192.36 168.819 192.369C168.804 192.379 168.787 192.385 168.769 192.387L168.747 192.409Z" fill="white"/>
<path d="M162.562 192.208C162.805 193.123 162.986 194.054 163.103 194.993C163.131 195.165 163.211 195.323 163.334 195.446C163.457 195.569 163.615 195.65 163.786 195.677C166.662 196.117 170.459 195.476 171.656 195.248C171.709 195.24 171.761 195.221 171.806 195.192C171.852 195.163 171.891 195.125 171.922 195.08C171.952 195.035 171.973 194.985 171.983 194.932C171.994 194.878 171.993 194.824 171.981 194.771L171.645 192.165C171.612 191.982 171.517 191.815 171.376 191.694C171.235 191.572 171.056 191.503 170.871 191.497L162.968 191.649C162.9 191.647 162.832 191.661 162.771 191.691C162.71 191.721 162.657 191.766 162.617 191.821C162.577 191.876 162.551 191.94 162.541 192.008C162.532 192.075 162.539 192.144 162.562 192.208Z" fill="#DDEEFC"/>
<path opacity="0.2" d="M162.562 192.208C162.805 193.123 162.986 194.054 163.103 194.993C163.131 195.165 163.211 195.323 163.334 195.446C163.457 195.569 163.615 195.65 163.786 195.677C166.662 196.117 170.459 195.476 171.656 195.248C171.709 195.24 171.761 195.221 171.806 195.192C171.852 195.163 171.891 195.125 171.922 195.08C171.952 195.035 171.973 194.985 171.983 194.932C171.994 194.878 171.993 194.824 171.981 194.771L171.645 192.165C171.612 191.982 171.517 191.815 171.376 191.694C171.235 191.572 171.056 191.503 170.871 191.497L162.968 191.649C162.9 191.647 162.832 191.661 162.771 191.691C162.71 191.721 162.657 191.766 162.617 191.821C162.577 191.876 162.551 191.94 162.541 192.008C162.532 192.075 162.539 192.144 162.562 192.208Z" fill="black"/>
<path d="M122.029 189.657C122.273 190.341 122.701 191.568 122.988 192.485C123.033 192.63 123.133 192.752 123.267 192.823C123.401 192.894 123.558 192.909 123.703 192.865C125.989 192.208 129.342 190.39 130.436 189.782C130.541 189.722 130.625 189.631 130.676 189.521C130.726 189.411 130.741 189.287 130.718 189.168L130.23 186.535C130.215 186.451 130.181 186.372 130.131 186.303C130.081 186.234 130.016 186.176 129.942 186.135C129.867 186.094 129.784 186.07 129.699 186.065C129.614 186.06 129.529 186.074 129.45 186.106L122.36 188.924C122.22 188.979 122.107 189.086 122.046 189.223C121.984 189.36 121.978 189.516 122.029 189.657Z" fill="#DDEEFC"/>
<path opacity="0.2" d="M122.029 189.657C122.273 190.341 122.701 191.568 122.988 192.485C123.033 192.63 123.133 192.752 123.267 192.823C123.401 192.894 123.558 192.909 123.703 192.865C125.989 192.208 129.342 190.39 130.436 189.782C130.541 189.722 130.625 189.631 130.676 189.521C130.726 189.411 130.741 189.287 130.718 189.168L130.23 186.535C130.215 186.451 130.181 186.372 130.131 186.303C130.081 186.234 130.016 186.176 129.942 186.135C129.867 186.094 129.784 186.07 129.699 186.065C129.614 186.06 129.529 186.074 129.45 186.106L122.36 188.924C122.22 188.979 122.107 189.086 122.046 189.223C121.984 189.36 121.978 189.516 122.029 189.657Z" fill="black"/>
<path d="M119.933 95.8209C120.004 96.1738 119.635 97.6884 119.083 99.0293C120.058 99.6916 123.416 100.424 127.657 100.609C128.058 99.9522 128.307 98.2204 128.621 97.5147C128.931 98.7234 129.591 99.8133 130.517 100.647C132.894 100.61 135.264 100.376 137.602 99.9467C145.862 98.3941 147.812 95.8209 147.812 95.8209C147.812 95.8209 146.231 91.0436 145.781 89.3064C141.507 89.6267 120.155 90.251 119.933 95.8209Z" fill="white"/>
<path d="M112.209 71.7715C113.413 75.68 114.814 79.5249 116.407 83.2913C119.63 91.5973 118.871 93.4268 119.706 96.836C122.016 97.7334 124.47 98.206 126.948 98.2312C127.334 97.3649 127.829 96.5513 128.421 95.81C129.076 96.2497 131.102 97.5146 132.267 97.5906C137.532 96.7763 144.324 94.7297 146.707 92.1999C144.893 84.8602 144.237 76.8583 143.176 59.2528C142.926 55.1758 139.341 52.4289 135.473 53.3572C134.439 53.6069 133.35 53.9001 132.223 54.2204C127.923 55.4961 124.407 56.5764 120.773 58.2376C119.57 58.7805 118.335 59.394 117.16 59.9966C115.104 61.0838 113.488 62.8509 112.585 64.9975C111.683 67.1441 111.55 69.5378 112.209 71.7715Z" fill="#37474F"/>
<path d="M157.253 100.734L156.435 99.8327C156.116 99.4773 155.878 99.0556 155.74 98.5977C155.601 98.1398 155.565 97.657 155.634 97.1835L156.408 91.8362L158.716 90.2673C160.752 92.2108 161.619 96.266 161.619 96.266L161.977 97.3518C162.135 97.8219 162.134 98.3314 161.973 98.8009C161.813 99.2703 161.501 99.6732 161.088 99.9467L159.198 101.032C158.89 101.219 158.527 101.292 158.171 101.237C157.816 101.182 157.491 101.004 157.253 100.734Z" fill="#B55B52"/>
<path d="M145.895 58.4928C146.593 59.1443 147.178 59.7197 147.791 60.3494C148.403 60.9792 148.971 61.6035 149.551 62.2386C150.694 63.5198 151.799 64.8336 152.855 66.2016C153.911 67.5697 154.924 68.9594 155.883 70.4089C156.842 71.8584 157.741 73.3567 158.591 74.8931L158.7 75.0885C158.778 75.2335 158.842 75.3863 158.889 75.5445C159.305 77.0867 159.591 78.6611 159.745 80.2512C159.918 81.7496 159.994 83.2316 160.054 84.6974C160.113 86.1631 160.113 87.6289 160.081 89.0892C160.048 90.5496 159.983 91.9936 159.842 93.4757C159.801 93.9204 159.603 94.3357 159.282 94.6462C158.962 94.9567 158.541 95.1419 158.097 95.1682C157.652 95.1944 157.212 95.06 156.858 94.7894C156.503 94.5187 156.257 94.1296 156.165 93.6928V93.6602C155.867 92.2813 155.623 90.8753 155.325 89.491C155.027 88.1066 154.783 86.7223 154.496 85.3543C154.209 83.9862 153.917 82.6399 153.603 81.3207C153.323 80.0871 152.961 78.8738 152.519 77.6889L152.817 78.3349C151.95 77.0483 151.057 75.7779 150.109 74.5348C149.161 73.2916 148.17 72.0647 147.146 70.8595C146.122 69.6543 145.082 68.4654 144.01 67.3037L142.385 65.5719C141.843 65.029 141.301 64.4101 140.787 63.9161L140.727 63.851C140.018 63.1628 139.611 62.2205 139.596 61.2314C139.58 60.2423 139.957 59.2875 140.643 58.5769C141.33 57.8664 142.27 57.4584 143.257 57.4426C144.244 57.4268 145.197 57.8046 145.906 58.4928H145.895Z" fill="#B55B52"/>
<path d="M135.013 53.4332C144.584 49.8285 155.054 66.1908 156.051 70.0886C156.327 73.7204 150.006 75.0668 150.006 75.0668C150.006 75.0668 134.487 66.6468 135.013 53.4332Z" fill="#37474F"/>
<path d="M122.723 66.3156C122.664 66.3154 122.605 66.2998 122.554 66.2703C122.503 66.2407 122.46 66.1984 122.43 66.1474C122.408 66.1089 122.393 66.0664 122.388 66.0224C122.382 65.9783 122.385 65.9335 122.397 65.8906C122.408 65.8477 122.428 65.8075 122.455 65.7724C122.482 65.7373 122.516 65.7079 122.555 65.6859C123.34 65.2245 126.639 61.9944 127.971 59.2854C127.991 59.2452 128.018 59.2093 128.052 59.1798C128.085 59.1503 128.125 59.1278 128.167 59.1136C128.209 59.0995 128.254 59.0939 128.299 59.0973C128.343 59.1007 128.387 59.113 128.426 59.1334C128.506 59.1741 128.567 59.2449 128.596 59.3302C128.624 59.4156 128.618 59.5087 128.578 59.5894C127.137 62.4558 123.703 65.7673 122.869 66.2722C122.824 66.2979 122.774 66.3128 122.723 66.3156Z" fill="#DDEEFC"/>
<path d="M121.558 66.1473C121.498 66.1465 121.438 66.1316 121.385 66.1039C120.372 65.5067 118.568 63.0909 118.801 59.9477C118.8 59.8998 118.808 59.8522 118.826 59.8078C118.844 59.7634 118.871 59.7234 118.906 59.6902C118.94 59.657 118.981 59.6314 119.026 59.6152C119.071 59.5989 119.119 59.5923 119.167 59.5957C119.214 59.5991 119.261 59.6126 119.303 59.6351C119.345 59.6577 119.382 59.6889 119.411 59.7267C119.441 59.7645 119.462 59.808 119.473 59.8545C119.485 59.901 119.486 59.9494 119.478 59.9966C119.256 63.0312 121.076 65.1322 121.731 65.5176C121.797 65.5545 121.848 65.6122 121.877 65.6815C121.905 65.7509 121.91 65.8279 121.89 65.9004C121.87 65.9728 121.827 66.0364 121.767 66.0812C121.706 66.126 121.633 66.1492 121.558 66.1473Z" fill="#DDEEFC"/>
<path d="M126.048 41.7885C126.682 45.7895 128.361 52.8035 131.611 54.4267C131.611 54.4267 127.939 55.1216 122.138 62.3146C118.915 59.9803 120.166 58.4385 120.166 58.4385C124.001 55.9902 123.145 53.4006 121.423 50.8383L126.048 41.7885Z" fill="#B55B52"/>
<path d="M123.373 60.8434C125.935 60.3331 127.988 63.7587 127.988 63.7587C127.988 63.7587 132.397 57.5536 133.231 53.9869C132.349 53.8287 131.475 53.624 130.615 53.3735C130.615 53.3735 124.304 58.9325 123.373 60.8434Z" fill="white"/>
<path d="M120.914 61.2615C120.914 61.2615 119.007 62.5698 119.289 65.8107C116.851 60.6209 119.045 58.8239 119.045 58.8239C119.585 58.217 120.329 57.8305 121.136 57.7382C120.696 58.2083 120.434 58.817 120.393 59.4598C120.353 60.1027 120.537 60.7397 120.914 61.2615Z" fill="white"/>
<path opacity="0.2" d="M124.163 45.4801L121.423 50.8383C121.838 51.433 122.201 52.0634 122.506 52.7221C123.941 51.8155 125.404 49.1554 124.976 47.4344C124.823 46.7397 124.548 46.0778 124.163 45.4801Z" fill="black"/>
<path d="M111.781 47.4616H110.519C110.497 47.4612 110.476 47.4562 110.456 47.4469C110.437 47.4375 110.419 47.424 110.405 47.4073C110.392 47.3897 110.383 47.3694 110.378 47.3479C110.373 47.3263 110.373 47.304 110.378 47.2824L111.007 44.3781C111.013 44.3455 111.031 44.3162 111.056 44.2954C111.082 44.2745 111.114 44.2634 111.147 44.2641C111.181 44.2642 111.213 44.2755 111.24 44.2961C111.266 44.3167 111.285 44.3455 111.294 44.3781L111.922 47.2824C111.927 47.304 111.927 47.3263 111.922 47.3479C111.918 47.3694 111.908 47.3897 111.895 47.4073C111.881 47.4235 111.863 47.4366 111.844 47.4459C111.824 47.4553 111.803 47.4606 111.781 47.4616ZM110.698 47.163H111.602L111.158 45.1109L110.698 47.163Z" fill="white"/>
<path d="M125.891 33.26C127.386 39.5085 128.145 42.1143 126.103 46.3487C123.021 52.722 115.269 53.5689 111.987 47.9773C109.035 42.9503 107.112 33.5748 112.166 29.0147C117.219 24.4545 124.396 27.0115 125.891 33.26Z" fill="#B55B52"/>
<path d="M108.417 35.9418C114.154 34.818 117.626 29.2481 120.334 29.4273C119.922 33.6508 123.226 38.4227 126.482 38.5367C130.885 38.6887 126.807 27.8421 123.849 26.1266C120.729 24.2971 107.405 24.1668 108.417 35.9418Z" fill="#37474F"/>
<path d="M123.811 38.7756C123.323 38.7651 122.851 38.5998 122.463 38.3033C120.475 36.8755 119.272 32.4402 120.036 29.3513C120.041 29.3092 120.055 29.2687 120.076 29.2323C120.098 29.196 120.127 29.1647 120.162 29.1405C120.197 29.1164 120.236 29.0999 120.278 29.0921C120.319 29.0844 120.362 29.0856 120.403 29.0957C120.444 29.1058 120.482 29.1245 120.516 29.1507C120.549 29.1768 120.576 29.2097 120.596 29.2472C120.615 29.2847 120.627 29.326 120.629 29.3683C120.632 29.4106 120.625 29.4529 120.61 29.4924C119.911 32.3317 121.016 36.5498 122.804 37.8201C123.078 38.0378 123.414 38.1611 123.764 38.1718C124.113 38.1826 124.456 38.0802 124.743 37.8798C124.775 37.8587 124.812 37.8441 124.85 37.837C124.887 37.8299 124.926 37.8304 124.964 37.8384C125.002 37.8465 125.038 37.862 125.07 37.884C125.101 37.906 125.128 37.9341 125.149 37.9667C125.192 38.033 125.207 38.1136 125.191 38.1909C125.175 38.2683 125.129 38.336 125.063 38.3793C124.692 38.628 124.258 38.7655 123.811 38.7756Z" fill="#37474F"/>
<path d="M117.209 38.3087C117.355 38.8516 117.209 39.3402 116.894 39.4596C116.58 39.579 116.19 39.2479 116.044 38.7322C115.898 38.2164 116.044 37.6953 116.358 37.5813C116.672 37.4673 117.062 37.7876 117.209 38.3087Z" fill="#37474F"/>
<path d="M110.825 41.7557C111.156 41.6769 111.325 41.1873 111.201 40.6622C111.077 40.137 110.707 39.7751 110.375 39.8539C110.043 39.9326 109.875 40.4222 109.999 40.9473C110.123 41.4725 110.493 41.8344 110.825 41.7557Z" fill="#37474F"/>
<path d="M110.481 39.8613L109.197 39.9319C109.197 39.9319 110.08 40.6702 110.481 39.8613Z" fill="#37474F"/>
<path d="M113.114 40.8331C113.011 42.1797 112.738 43.5077 112.301 44.7852C113.135 45.1869 114.154 44.492 114.154 44.492L113.114 40.8331Z" fill="#A02724"/>
<path d="M117.339 45.2901C117.061 45.3942 116.775 45.4723 116.483 45.5235C116.463 45.5266 116.443 45.5256 116.424 45.5206C116.405 45.5156 116.387 45.5068 116.371 45.4946C116.355 45.4824 116.342 45.4671 116.332 45.4497C116.323 45.4323 116.317 45.4131 116.315 45.3932C116.31 45.351 116.321 45.3085 116.346 45.2743C116.371 45.2401 116.409 45.2166 116.45 45.2087C117.11 45.0921 117.735 44.8281 118.279 44.4362C118.823 44.0443 119.272 43.5345 119.592 42.9449C119.609 42.9068 119.639 42.8765 119.678 42.8604C119.716 42.8442 119.759 42.8434 119.798 42.858C119.816 42.8672 119.833 42.8801 119.846 42.8957C119.86 42.9114 119.87 42.9295 119.877 42.9492C119.883 42.9689 119.886 42.9897 119.884 43.0103C119.883 43.031 119.877 43.0512 119.868 43.0697C119.325 44.0958 118.425 44.886 117.339 45.2901Z" fill="#37474F"/>
<path d="M128.979 39.1882C128.865 39.7933 128.626 40.3679 128.279 40.8755C127.931 41.383 127.481 41.8123 126.958 42.136C125.637 42.8743 124.602 41.3977 124.662 39.6496C124.716 38.0698 125.469 35.7843 126.948 35.7843C128.426 35.7843 129.325 37.5758 128.979 39.1882Z" fill="#B55B52"/>
<path d="M113.98 36.0612C114.002 36.0264 114.03 35.9964 114.064 35.973C114.097 35.9497 114.135 35.9335 114.175 35.9255C114.553 35.8708 114.912 35.7226 115.218 35.4942C115.525 35.2657 115.769 34.9643 115.93 34.6172C115.944 34.5797 115.965 34.5455 115.992 34.5169C116.02 34.4882 116.053 34.4657 116.09 34.4509C116.127 34.436 116.166 34.4291 116.206 34.4306C116.246 34.4322 116.285 34.4421 116.32 34.4597C116.396 34.4964 116.456 34.5599 116.488 34.6381C116.52 34.7163 116.522 34.8036 116.494 34.8832C116.297 35.3251 115.992 35.7103 115.608 36.0034C115.224 36.2965 114.772 36.4881 114.294 36.5606C114.213 36.5715 114.13 36.5497 114.064 36.4999C113.998 36.4502 113.955 36.3764 113.942 36.2946C113.926 36.2148 113.94 36.1319 113.98 36.0612Z" fill="#37474F"/>
<path d="M108.531 38.4933C108.495 38.5095 108.457 38.5179 108.417 38.5179C108.378 38.5179 108.339 38.5095 108.304 38.4933C108.267 38.4763 108.233 38.4522 108.205 38.4222C108.178 38.3922 108.156 38.3571 108.142 38.3187C108.128 38.2803 108.122 38.2396 108.123 38.1987C108.125 38.1579 108.135 38.1178 108.152 38.0807C108.331 37.6059 108.616 37.1787 108.987 36.8322C109.357 36.4858 109.801 36.2294 110.286 36.0829C110.325 36.0752 110.366 36.0756 110.405 36.0841C110.444 36.0926 110.481 36.1091 110.514 36.1325C110.546 36.1559 110.573 36.1857 110.594 36.2202C110.614 36.2546 110.628 36.2929 110.633 36.3327C110.645 36.4163 110.625 36.5015 110.578 36.5716C110.531 36.6418 110.46 36.6921 110.378 36.7127C109.996 36.8329 109.647 37.0393 109.357 37.316C109.066 37.5926 108.843 37.9322 108.705 38.3087C108.69 38.3498 108.667 38.3875 108.637 38.4193C108.607 38.451 108.571 38.4763 108.531 38.4933Z" fill="#37474F"/>
<path d="M116.51 37.5541L115.226 37.6247C115.226 37.6247 116.109 38.3793 116.51 37.5541Z" fill="#37474F"/>
<path d="M121.547 63.8673C122.035 63.7731 122.53 63.7259 123.026 63.7261C123.15 63.7296 123.269 63.7726 123.366 63.8488C123.464 63.9249 123.534 64.0303 123.568 64.1496C123.725 64.6925 124.017 65.6805 124.191 66.1528C124.434 66.8314 122.517 68.2266 122.517 68.2266C122.517 68.2266 120.935 67.472 120.892 66.4731C120.887 65.7661 120.94 65.0598 121.049 64.3613C121.067 64.2357 121.125 64.1194 121.215 64.0302C121.305 63.941 121.422 63.8838 121.547 63.8673Z" fill="#DDEEFC"/>
<path d="M125.512 83.7419C125.382 80.6095 123.346 66.3048 123.346 66.3048L121.824 66.4948C121.71 68.5306 120.632 80.7615 120.632 84.0025C120.632 87.2435 123.394 90.8644 123.394 90.8644C123.394 90.8644 125.642 86.8689 125.512 83.7419Z" fill="#DDEEFC"/>
<path d="M148.836 75.0614C149.298 75.4512 149.812 75.7746 150.363 76.0222C150.41 76.0331 150.458 76.0331 150.504 76.0222C151.1 75.9734 155.238 75.4794 157.107 72.0104C157.14 71.9507 157.155 71.8829 157.15 71.815C157.035 70.9275 156.746 70.0715 156.3 69.296C156.276 69.2524 156.241 69.2151 156.2 69.1872C156.159 69.1592 156.111 69.1414 156.062 69.1351C156.012 69.1287 155.962 69.1341 155.915 69.1507C155.868 69.1674 155.825 69.1948 155.791 69.2309C154.903 70.1972 152.059 73.0961 148.912 74.4968C148.856 74.5165 148.808 74.5511 148.771 74.5968C148.734 74.6425 148.71 74.6975 148.702 74.7559C148.694 74.8142 148.703 74.8736 148.726 74.9275C148.75 74.9814 148.788 75.0277 148.836 75.0614Z" fill="white"/>
<path d="M106.728 110.609L104.068 116.038C103.942 116.294 103.765 116.521 103.548 116.707C103.332 116.892 103.079 117.031 102.807 117.115C102.535 117.2 102.248 117.228 101.965 117.197C101.682 117.167 101.408 117.079 101.159 116.939L66.8778 97.5744L69.8948 91.4344L105.715 107.797C105.967 107.913 106.193 108.079 106.38 108.284C106.568 108.489 106.713 108.729 106.807 108.991C106.902 109.252 106.943 109.53 106.929 109.808C106.916 110.086 106.847 110.358 106.728 110.609Z" fill="#DDEEFC"/>
<path opacity="0.4" d="M106.728 110.609L104.068 116.038C103.942 116.294 103.765 116.521 103.548 116.707C103.332 116.892 103.079 117.031 102.807 117.115C102.535 117.2 102.248 117.228 101.965 117.197C101.682 117.167 101.408 117.079 101.159 116.939L66.8778 97.5744L69.8948 91.4344L105.715 107.797C105.967 107.913 106.193 108.079 106.38 108.284C106.568 108.489 106.713 108.729 106.807 108.991C106.902 109.252 106.943 109.53 106.929 109.808C106.916 110.086 106.847 110.358 106.728 110.609Z" fill="black"/>
<path d="M69.9219 69.372C69.8786 69.2634 69.8406 69.1603 69.8027 69.0572C69.6565 68.6771 69.4994 68.3026 69.3369 67.928L69.2665 67.7814C69.1256 67.4557 68.974 67.1354 68.8169 66.8151C68.7627 66.7011 68.7032 66.5925 68.6436 66.4785C68.5082 66.2071 68.3673 65.9356 68.2211 65.6696C68.1615 65.5719 68.1073 65.4687 68.0532 65.3656C67.8528 65.0073 67.6415 64.6544 67.4248 64.2798L67.349 64.1604C67.154 63.851 66.9536 63.5415 66.7478 63.2375L66.5257 62.9227C66.3524 62.6729 66.1682 62.4232 65.984 62.1735L65.7728 61.8858C65.5182 61.5546 65.2582 61.2235 64.9928 60.9032L64.9116 60.8109C64.6678 60.5177 64.4132 60.23 64.1587 59.9477L63.8987 59.6654C63.682 59.4374 63.4653 59.2094 63.2433 58.9868L62.9833 58.7208C62.6799 58.4204 62.3712 58.1273 62.057 57.8413L61.992 57.7816C61.6941 57.5102 61.3908 57.2388 61.0766 56.989L60.7787 56.7447L60.0204 56.1476L59.7171 55.9142C59.356 55.6536 58.9949 55.3984 58.6337 55.1487H58.5958C58.2438 54.9153 57.8863 54.6818 57.5125 54.4592L57.1659 54.2475C56.8896 54.0792 56.6242 53.9164 56.3154 53.7535L55.9634 53.5581C55.568 53.3409 55.1726 53.1292 54.7609 52.9283C40.2824 45.8058 23.2148 50.9034 16.6553 64.3287L14.4887 68.6717C21.0481 55.2736 38.1158 50.176 52.5997 57.2985C53.0059 57.4993 53.4068 57.7111 53.7967 57.9228C53.9159 57.9879 54.0351 58.0531 54.1488 58.1236C54.4359 58.2811 54.723 58.4494 55.0046 58.6177L55.3459 58.824C55.7088 59.052 56.0663 59.28 56.4292 59.5188L56.4671 59.546C56.8354 59.7957 57.1875 60.0509 57.5504 60.3114L57.8538 60.5449C58.1083 60.7403 58.3629 60.9357 58.6067 61.1366L58.9154 61.3863C59.2241 61.6469 59.5275 61.9292 59.8254 62.1735L59.8904 62.2332C60.21 62.5209 60.5133 62.8195 60.8166 63.1181C60.9087 63.205 60.99 63.2918 61.0766 63.3787C61.2987 63.6013 61.5154 63.8293 61.732 64.0573L61.992 64.345C62.252 64.6273 62.5012 64.8879 62.7449 65.2082L62.8262 65.3005C63.0934 65.6226 63.3534 65.9483 63.6062 66.2776L63.8228 66.5708C64.007 66.8151 64.1857 67.0648 64.3645 67.32C64.4349 67.4231 64.5107 67.5262 64.5811 67.6348C64.787 67.9388 64.9874 68.2428 65.1824 68.5523C65.2095 68.5957 65.2366 68.6337 65.2582 68.6771C65.4749 69.0246 65.6861 69.3829 65.8865 69.7629L66.0545 70.0723C66.2007 70.3383 66.3415 70.6152 66.4824 70.8812L66.6503 71.2178C66.8074 71.5381 66.959 71.8584 67.0998 72.1787C67.1269 72.2275 67.1486 72.2818 67.1703 72.3307C67.3328 72.6998 67.4898 73.0799 67.6361 73.4544L67.7553 73.7693C67.8636 74.057 67.9611 74.3122 68.0586 74.6216C68.1019 74.7411 68.1398 74.8605 68.1778 74.9799C68.2861 75.3056 68.3836 75.6314 68.4811 75.9625C68.4811 76.0222 68.519 76.082 68.5352 76.1471C68.6436 76.5325 68.7411 76.9234 68.8277 77.3088C68.8277 77.4174 68.8765 77.526 68.8982 77.6346C68.9632 77.9277 69.0227 78.2209 69.0769 78.514C69.0769 78.6389 69.1257 78.7638 69.1419 78.8886C69.2015 79.2143 69.2502 79.5455 69.2936 79.8767C69.2936 79.9472 69.2936 80.0124 69.3206 80.0829C69.3748 80.4792 69.4127 80.8755 69.4452 81.2718V81.5976C69.4669 81.898 69.4831 82.1965 69.494 82.4933C69.494 82.6182 69.494 82.7485 69.494 82.8733C69.494 83.199 69.494 83.5248 69.494 83.8559V84.0785C69.494 84.2034 69.494 84.3282 69.494 84.4477C69.494 84.8114 69.4615 85.1805 69.429 85.5334C69.429 85.7071 69.3911 85.8809 69.3748 86.0763C69.3423 86.3839 69.3044 86.6933 69.2611 87.0046C69.2611 87.1946 69.2015 87.3846 69.169 87.5475C69.1202 87.8461 69.0661 88.1446 69.0065 88.4378C68.9686 88.6278 68.9252 88.8178 68.8873 88.9807C68.8169 89.2847 68.7411 89.5887 68.6598 89.8873C68.6057 90.0773 68.5569 90.2673 68.5027 90.4627L68.3727 90.8807C68.2915 91.1467 68.2048 91.4236 68.1128 91.6733C68.064 91.8199 68.0098 91.9611 67.9557 92.1076C67.8582 92.3791 67.7498 92.6505 67.6361 92.9219C67.5873 93.0468 67.5386 93.1717 67.4844 93.2965C67.3165 93.6874 67.1432 94.0783 66.9428 94.4637L69.0823 90.0936C69.2719 89.7081 69.4452 89.3173 69.624 88.9264C69.6781 88.8015 69.7269 88.6767 69.7756 88.5518C69.8894 88.2804 69.9923 88.0089 70.0952 87.7375C70.1494 87.5963 70.1981 87.4498 70.2523 87.3086C70.3444 87.0426 70.431 86.7657 70.5123 86.516L70.6423 86.0926L70.7073 85.8863C70.7398 85.7668 70.7669 85.642 70.7994 85.5171C70.8752 85.2185 70.9565 84.92 71.0215 84.616C71.0648 84.4259 71.1081 84.2414 71.146 84.0731C71.2056 83.7745 71.2598 83.4759 71.3085 83.1828C71.341 82.9928 71.3735 82.8027 71.4006 82.6399C71.4439 82.3304 71.4819 82.021 71.5144 81.7061C71.5144 81.5324 71.5523 81.3587 71.5685 81.1633C71.601 80.7995 71.6173 80.4358 71.6335 80.0775C71.6335 79.9744 71.6335 79.8712 71.6335 79.7681V79.4803C71.6335 79.1546 71.6335 78.8235 71.6335 78.4977C71.6335 78.3729 71.6335 78.248 71.6335 78.1232C71.6335 77.8246 71.6335 77.5206 71.5848 77.222C71.5848 77.1134 71.5848 77.0048 71.5848 76.9017C71.5848 76.5 71.5144 76.1037 71.4656 75.7074C71.4656 75.6422 71.4656 75.5716 71.4385 75.5011C71.3952 75.1753 71.3464 74.8442 71.2869 74.513L71.2219 74.1439C71.1677 73.8507 71.1081 73.5576 71.0431 73.2644C71.0431 73.1559 70.9998 73.0473 70.9727 72.9387C70.8806 72.5478 70.7831 72.157 70.6802 71.7715C70.6589 71.711 70.6409 71.6494 70.626 71.587C70.5285 71.2612 70.431 70.9355 70.3227 70.6098C70.2848 70.4903 70.2469 70.3709 70.2036 70.2515C70.1277 69.9366 70.0248 69.6543 69.9219 69.372Z" fill="#DDEEFC"/>
<path opacity="0.4" d="M69.9219 69.372C69.8786 69.2634 69.8406 69.1603 69.8027 69.0572C69.6565 68.6771 69.4994 68.3026 69.3369 67.928L69.2665 67.7814C69.1256 67.4557 68.974 67.1354 68.8169 66.8151C68.7627 66.7011 68.7032 66.5925 68.6436 66.4785C68.5082 66.2071 68.3673 65.9356 68.2211 65.6696C68.1615 65.5719 68.1073 65.4687 68.0532 65.3656C67.8528 65.0073 67.6415 64.6544 67.4248 64.2798L67.349 64.1604C67.154 63.851 66.9536 63.5415 66.7478 63.2375L66.5257 62.9227C66.3524 62.6729 66.1682 62.4232 65.984 62.1735L65.7728 61.8858C65.5182 61.5546 65.2582 61.2235 64.9928 60.9032L64.9116 60.8109C64.6678 60.5177 64.4132 60.23 64.1587 59.9477L63.8987 59.6654C63.682 59.4374 63.4653 59.2094 63.2433 58.9868L62.9833 58.7208C62.6799 58.4204 62.3712 58.1273 62.057 57.8413L61.992 57.7816C61.6941 57.5102 61.3908 57.2388 61.0766 56.989L60.7787 56.7447L60.0204 56.1476L59.7171 55.9142C59.356 55.6536 58.9949 55.3984 58.6337 55.1487H58.5958C58.2438 54.9153 57.8863 54.6818 57.5125 54.4592L57.1659 54.2475C56.8896 54.0792 56.6242 53.9164 56.3154 53.7535L55.9634 53.5581C55.568 53.3409 55.1726 53.1292 54.7609 52.9283C40.2824 45.8058 23.2148 50.9034 16.6553 64.3287L14.4887 68.6717C21.0481 55.2736 38.1158 50.176 52.5997 57.2985C53.0059 57.4993 53.4068 57.7111 53.7967 57.9228C53.9159 57.9879 54.0351 58.0531 54.1488 58.1236C54.4359 58.2811 54.723 58.4494 55.0046 58.6177L55.3459 58.824C55.7088 59.052 56.0663 59.28 56.4292 59.5188L56.4671 59.546C56.8354 59.7957 57.1875 60.0509 57.5504 60.3114L57.8538 60.5449C58.1083 60.7403 58.3629 60.9357 58.6067 61.1366L58.9154 61.3863C59.2241 61.6469 59.5275 61.9292 59.8254 62.1735L59.8904 62.2332C60.21 62.5209 60.5133 62.8195 60.8166 63.1181C60.9087 63.205 60.99 63.2918 61.0766 63.3787C61.2987 63.6013 61.5154 63.8293 61.732 64.0573L61.992 64.345C62.252 64.6273 62.5012 64.8879 62.7449 65.2082L62.8262 65.3005C63.0934 65.6226 63.3534 65.9483 63.6062 66.2776L63.8228 66.5708C64.007 66.8151 64.1857 67.0648 64.3645 67.32C64.4349 67.4231 64.5107 67.5262 64.5811 67.6348C64.787 67.9388 64.9874 68.2428 65.1824 68.5523C65.2095 68.5957 65.2366 68.6337 65.2582 68.6771C65.4749 69.0246 65.6861 69.3829 65.8865 69.7629L66.0545 70.0723C66.2007 70.3383 66.3415 70.6152 66.4824 70.8812L66.6503 71.2178C66.8074 71.5381 66.959 71.8584 67.0998 72.1787C67.1269 72.2275 67.1486 72.2818 67.1703 72.3307C67.3328 72.6998 67.4898 73.0799 67.6361 73.4544L67.7553 73.7693C67.8636 74.057 67.9611 74.3122 68.0586 74.6216C68.1019 74.7411 68.1398 74.8605 68.1778 74.9799C68.2861 75.3056 68.3836 75.6314 68.4811 75.9625C68.4811 76.0222 68.519 76.082 68.5352 76.1471C68.6436 76.5325 68.7411 76.9234 68.8277 77.3088C68.8277 77.4174 68.8765 77.526 68.8982 77.6346C68.9632 77.9277 69.0227 78.2209 69.0769 78.514C69.0769 78.6389 69.1257 78.7638 69.1419 78.8886C69.2015 79.2143 69.2502 79.5455 69.2936 79.8767C69.2936 79.9472 69.2936 80.0124 69.3206 80.0829C69.3748 80.4792 69.4127 80.8755 69.4452 81.2718V81.5976C69.4669 81.898 69.4831 82.1965 69.494 82.4933C69.494 82.6182 69.494 82.7485 69.494 82.8733C69.494 83.199 69.494 83.5248 69.494 83.8559V84.0785C69.494 84.2034 69.494 84.3282 69.494 84.4477C69.494 84.8114 69.4615 85.1805 69.429 85.5334C69.429 85.7071 69.3911 85.8809 69.3748 86.0763C69.3423 86.3839 69.3044 86.6933 69.2611 87.0046C69.2611 87.1946 69.2015 87.3846 69.169 87.5475C69.1202 87.8461 69.0661 88.1446 69.0065 88.4378C68.9686 88.6278 68.9252 88.8178 68.8873 88.9807C68.8169 89.2847 68.7411 89.5887 68.6598 89.8873C68.6057 90.0773 68.5569 90.2673 68.5027 90.4627L68.3727 90.8807C68.2915 91.1467 68.2048 91.4236 68.1128 91.6733C68.064 91.8199 68.0098 91.9611 67.9557 92.1076C67.8582 92.3791 67.7498 92.6505 67.6361 92.9219C67.5873 93.0468 67.5386 93.1717 67.4844 93.2965C67.3165 93.6874 67.1432 94.0783 66.9428 94.4637L69.0823 90.0936C69.2719 89.7081 69.4452 89.3173 69.624 88.9264C69.6781 88.8015 69.7269 88.6767 69.7756 88.5518C69.8894 88.2804 69.9923 88.0089 70.0952 87.7375C70.1494 87.5963 70.1981 87.4498 70.2523 87.3086C70.3444 87.0426 70.431 86.7657 70.5123 86.516L70.6423 86.0926L70.7073 85.8863C70.7398 85.7668 70.7669 85.642 70.7994 85.5171C70.8752 85.2185 70.9565 84.92 71.0215 84.616C71.0648 84.4259 71.1081 84.2414 71.146 84.0731C71.2056 83.7745 71.2598 83.4759 71.3085 83.1828C71.341 82.9928 71.3735 82.8027 71.4006 82.6399C71.4439 82.3304 71.4819 82.021 71.5144 81.7061C71.5144 81.5324 71.5523 81.3587 71.5685 81.1633C71.601 80.7995 71.6173 80.4358 71.6335 80.0775C71.6335 79.9744 71.6335 79.8712 71.6335 79.7681V79.4803C71.6335 79.1546 71.6335 78.8235 71.6335 78.4977C71.6335 78.3729 71.6335 78.248 71.6335 78.1232C71.6335 77.8246 71.6335 77.5206 71.5848 77.222C71.5848 77.1134 71.5848 77.0048 71.5848 76.9017C71.5848 76.5 71.5144 76.1037 71.4656 75.7074C71.4656 75.6422 71.4656 75.5716 71.4385 75.5011C71.3952 75.1753 71.3464 74.8442 71.2869 74.513L71.2219 74.1439C71.1677 73.8507 71.1081 73.5576 71.0431 73.2644C71.0431 73.1559 70.9998 73.0473 70.9727 72.9387C70.8806 72.5478 70.7831 72.157 70.6802 71.7715C70.6589 71.711 70.6409 71.6494 70.626 71.587C70.5285 71.2612 70.431 70.9355 70.3227 70.6098C70.2848 70.4903 70.2469 70.3709 70.2036 70.2515C70.1277 69.9366 70.0248 69.6543 69.9219 69.372Z" fill="black"/>
<path d="M27.4884 108.665C26.9468 108.405 26.443 108.122 25.9339 107.856L25.4789 107.601C25.1052 107.39 24.7368 107.178 24.3956 106.955L23.9514 106.689C23.4802 106.396 23.0144 106.097 22.5594 105.788L22.5052 105.755C22.0321 105.43 21.5717 105.099 21.124 104.762L20.7231 104.458C20.3927 104.208 20.0677 103.948 19.7427 103.687L19.3527 103.367C18.9519 103.03 18.5565 102.694 18.1719 102.346L18.0853 102.27C17.6736 101.896 17.2728 101.516 16.8828 101.125L16.5415 100.783C16.2545 100.495 15.9999 100.202 15.702 99.9033L15.3607 99.5341C15.0249 99.165 14.6999 98.7904 14.3803 98.4158L14.2828 98.2964C13.9308 97.8784 13.5949 97.4549 13.2699 97.0261L12.9883 96.6515C12.7499 96.3312 12.517 96.0055 12.2895 95.6797L12.0079 95.2726C11.737 94.8763 11.4662 94.48 11.2279 94.0782L11.125 93.9154C10.8433 93.4648 10.5833 93.0033 10.3125 92.5419C10.2367 92.4116 10.1662 92.2759 10.0958 92.1402C9.90444 91.7964 9.72388 91.4489 9.55416 91.0979C9.47833 90.9513 9.4025 90.8047 9.33209 90.6581C9.13167 90.2456 8.93668 89.833 8.7471 89.4149C8.7471 89.3498 8.68751 89.2847 8.65501 89.2141C8.44377 88.7364 8.24335 88.2478 8.05377 87.7592C7.99961 87.6235 7.95086 87.4823 7.90211 87.3466C7.76128 86.9829 7.63128 86.6137 7.5067 86.2608C7.45253 86.1034 7.39837 85.9514 7.34962 85.794C7.21601 85.3742 7.08601 84.9507 6.95962 84.5236C6.95962 84.4476 6.91088 84.3662 6.88921 84.2848C6.74838 83.7853 6.6238 83.2805 6.51005 82.7756C6.47755 82.6344 6.44505 82.4933 6.41797 82.3576C6.3313 81.9776 6.25547 81.5921 6.18505 81.2121C6.18505 81.0547 6.12547 80.8918 6.09839 80.7344C6.02978 80.3037 5.96478 79.8748 5.90339 79.4478C5.90339 79.3609 5.90339 79.2686 5.86548 79.1818C5.80048 78.6714 5.75173 78.1557 5.71381 77.64C5.71381 77.4988 5.71381 77.3631 5.71381 77.222C5.68673 76.8311 5.66507 76.4457 5.65423 76.0548V75.5662C5.65423 75.1428 5.65423 74.7193 5.65423 74.2905V73.9973C5.65423 73.8399 5.65423 73.6824 5.65423 73.525C5.65423 73.0527 5.69756 72.575 5.7409 72.1027C5.7409 71.8801 5.78965 71.6521 5.81131 71.4241C5.85465 71.0223 5.90339 70.6206 5.95756 70.2189C5.99547 69.98 6.03339 69.7357 6.07672 69.4914C6.14172 69.1078 6.21214 68.7224 6.28797 68.3351C6.33672 68.0908 6.39089 67.8465 6.44505 67.6022C6.53533 67.2114 6.63283 66.8205 6.73755 66.4296C6.80796 66.1799 6.86754 65.9302 6.94338 65.6859C7.01921 65.4416 7.05171 65.3222 7.11129 65.143C7.21962 64.801 7.32795 64.459 7.44712 64.117C7.51753 63.927 7.58253 63.7424 7.64753 63.5741C7.78295 63.2158 7.91836 62.8684 8.06461 62.4883L8.2596 62.0052C8.48168 61.4949 8.70918 60.99 8.95292 60.4906L6.78629 64.8336C6.54255 65.3384 6.31505 65.8433 6.09839 66.3482C6.02798 66.5111 5.96298 66.6739 5.89798 66.8313C5.75173 67.1842 5.61631 67.5371 5.48632 67.9171C5.4159 68.1017 5.3509 68.2917 5.2859 68.46C5.16674 68.802 5.05299 69.144 4.94466 69.4914C4.88508 69.6706 4.83091 69.8552 4.77675 70.0343C4.77675 70.1266 4.71716 70.2135 4.6955 70.3058C4.67383 70.398 4.61425 70.6206 4.57633 70.7835C4.468 71.1744 4.3705 71.5598 4.27842 71.9507C4.22426 72.195 4.17551 72.4393 4.12134 72.6835C4.04551 73.0672 3.97509 73.4526 3.91009 73.8399C3.86676 74.0842 3.82885 74.3285 3.79093 74.5727C3.73676 74.9745 3.68802 75.3762 3.64468 75.7779C3.64468 76.0005 3.59593 76.2285 3.57427 76.4565C3.53635 76.9288 3.50927 77.4011 3.4876 77.8734C3.4876 78.0091 3.4876 78.1394 3.4876 78.2697C3.4876 78.2969 3.4876 78.324 3.4876 78.3512V78.6443C3.4876 79.0678 3.4876 79.4912 3.4876 79.9201C3.4876 80.0829 3.4876 80.2458 3.4876 80.4087C3.4876 80.7941 3.5201 81.185 3.54718 81.5704C3.54718 81.7116 3.54718 81.8527 3.54718 81.9884C3.5851 82.5313 3.63927 83.0199 3.69885 83.5356C3.69885 83.6225 3.69885 83.7093 3.73676 83.8016C3.79635 84.2305 3.86135 84.6594 3.93176 85.0828C3.95884 85.2457 3.99134 85.4031 4.01842 85.566C4.08884 85.946 4.16467 86.326 4.25134 86.706C4.25134 86.8471 4.31092 86.9883 4.34342 87.1294C4.45717 87.6343 4.58717 88.1392 4.72258 88.6386L4.79299 88.8721C4.91758 89.3009 5.04757 89.7244 5.18299 90.1478C5.23174 90.3053 5.2859 90.4573 5.34007 90.6093C5.46465 90.9784 5.59465 91.3476 5.73548 91.695C5.78423 91.8362 5.8384 91.9719 5.88714 92.113C6.08214 92.6016 6.27714 93.0848 6.48838 93.5679C6.52088 93.6331 6.55338 93.6982 6.58047 93.7634C6.77005 94.1814 6.96504 94.5994 7.16546 95.012L7.38753 95.4517C7.56809 95.8136 7.74864 96.1611 7.92919 96.494L8.14586 96.8958C8.40585 97.3572 8.68751 97.8132 8.95834 98.2692L9.06126 98.4321C9.31042 98.8338 9.57041 99.2301 9.84124 99.621L10.1229 100.028C10.3504 100.354 10.5833 100.68 10.8216 101L11.1033 101.374C11.4337 101.803 11.7695 102.232 12.1162 102.65L12.2137 102.764C12.5333 103.144 12.8583 103.519 13.1941 103.888L13.5353 104.252C13.8116 104.55 14.077 104.843 14.3803 105.137L14.7162 105.479C15.1116 105.864 15.507 106.25 15.9186 106.619L15.9999 106.695C16.3899 107.057 16.7853 107.399 17.1861 107.721L17.5815 108.041C17.9011 108.302 18.2261 108.557 18.5565 108.812L18.9573 109.116C19.4069 109.452 19.8673 109.784 20.3386 110.104L20.3927 110.136C20.8477 110.446 21.3135 110.745 21.7848 111.038L22.2289 111.309C22.5919 111.526 22.9602 111.743 23.3123 111.95L23.7673 112.205C24.2764 112.487 24.7964 112.759 25.3272 113.019C44.0957 122.248 66.2115 115.647 74.7264 98.2692L76.8605 93.8991C68.3782 111.298 46.2623 117.9 27.4884 108.665Z" fill="#DDEEFC"/>
<path opacity="0.4" d="M27.4884 108.665C26.9468 108.405 26.443 108.122 25.9339 107.856L25.4789 107.601C25.1052 107.39 24.7368 107.178 24.3956 106.955L23.9514 106.689C23.4802 106.396 23.0144 106.097 22.5594 105.788L22.5052 105.755C22.0321 105.43 21.5717 105.099 21.124 104.762L20.7231 104.458C20.3927 104.208 20.0677 103.948 19.7427 103.687L19.3527 103.367C18.9519 103.03 18.5565 102.694 18.1719 102.346L18.0853 102.27C17.6736 101.896 17.2728 101.516 16.8828 101.125L16.5415 100.783C16.2545 100.495 15.9999 100.202 15.702 99.9033L15.3607 99.5341C15.0249 99.165 14.6999 98.7904 14.3803 98.4158L14.2828 98.2964C13.9308 97.8784 13.5949 97.4549 13.2699 97.0261L12.9883 96.6515C12.7499 96.3312 12.517 96.0055 12.2895 95.6797L12.0079 95.2726C11.737 94.8763 11.4662 94.48 11.2279 94.0782L11.125 93.9154C10.8433 93.4648 10.5833 93.0033 10.3125 92.5419C10.2367 92.4116 10.1662 92.2759 10.0958 92.1402C9.90444 91.7964 9.72388 91.4489 9.55416 91.0979C9.47833 90.9513 9.4025 90.8047 9.33209 90.6581C9.13167 90.2456 8.93668 89.833 8.7471 89.4149C8.7471 89.3498 8.68751 89.2847 8.65501 89.2141C8.44377 88.7364 8.24335 88.2478 8.05377 87.7592C7.99961 87.6235 7.95086 87.4823 7.90211 87.3466C7.76128 86.9829 7.63128 86.6137 7.5067 86.2608C7.45253 86.1034 7.39837 85.9514 7.34962 85.794C7.21601 85.3742 7.08601 84.9507 6.95962 84.5236C6.95962 84.4476 6.91088 84.3662 6.88921 84.2848C6.74838 83.7853 6.6238 83.2805 6.51005 82.7756C6.47755 82.6344 6.44505 82.4933 6.41797 82.3576C6.3313 81.9776 6.25547 81.5921 6.18505 81.2121C6.18505 81.0547 6.12547 80.8918 6.09839 80.7344C6.02978 80.3037 5.96478 79.8748 5.90339 79.4478C5.90339 79.3609 5.90339 79.2686 5.86548 79.1818C5.80048 78.6714 5.75173 78.1557 5.71381 77.64C5.71381 77.4988 5.71381 77.3631 5.71381 77.222C5.68673 76.8311 5.66507 76.4457 5.65423 76.0548V75.5662C5.65423 75.1428 5.65423 74.7193 5.65423 74.2905V73.9973C5.65423 73.8399 5.65423 73.6824 5.65423 73.525C5.65423 73.0527 5.69756 72.575 5.7409 72.1027C5.7409 71.8801 5.78965 71.6521 5.81131 71.4241C5.85465 71.0223 5.90339 70.6206 5.95756 70.2189C5.99547 69.98 6.03339 69.7357 6.07672 69.4914C6.14172 69.1078 6.21214 68.7224 6.28797 68.3351C6.33672 68.0908 6.39089 67.8465 6.44505 67.6022C6.53533 67.2114 6.63283 66.8205 6.73755 66.4296C6.80796 66.1799 6.86754 65.9302 6.94338 65.6859C7.01921 65.4416 7.05171 65.3222 7.11129 65.143C7.21962 64.801 7.32795 64.459 7.44712 64.117C7.51753 63.927 7.58253 63.7424 7.64753 63.5741C7.78295 63.2158 7.91836 62.8684 8.06461 62.4883L8.2596 62.0052C8.48168 61.4949 8.70918 60.99 8.95292 60.4906L6.78629 64.8336C6.54255 65.3384 6.31505 65.8433 6.09839 66.3482C6.02798 66.5111 5.96298 66.6739 5.89798 66.8313C5.75173 67.1842 5.61631 67.5371 5.48632 67.9171C5.4159 68.1017 5.3509 68.2917 5.2859 68.46C5.16674 68.802 5.05299 69.144 4.94466 69.4914C4.88508 69.6706 4.83091 69.8552 4.77675 70.0343C4.77675 70.1266 4.71716 70.2135 4.6955 70.3058C4.67383 70.398 4.61425 70.6206 4.57633 70.7835C4.468 71.1744 4.3705 71.5598 4.27842 71.9507C4.22426 72.195 4.17551 72.4393 4.12134 72.6835C4.04551 73.0672 3.97509 73.4526 3.91009 73.8399C3.86676 74.0842 3.82885 74.3285 3.79093 74.5727C3.73676 74.9745 3.68802 75.3762 3.64468 75.7779C3.64468 76.0005 3.59593 76.2285 3.57427 76.4565C3.53635 76.9288 3.50927 77.4011 3.4876 77.8734C3.4876 78.0091 3.4876 78.1394 3.4876 78.2697C3.4876 78.2969 3.4876 78.324 3.4876 78.3512V78.6443C3.4876 79.0678 3.4876 79.4912 3.4876 79.9201C3.4876 80.0829 3.4876 80.2458 3.4876 80.4087C3.4876 80.7941 3.5201 81.185 3.54718 81.5704C3.54718 81.7116 3.54718 81.8527 3.54718 81.9884C3.5851 82.5313 3.63927 83.0199 3.69885 83.5356C3.69885 83.6225 3.69885 83.7093 3.73676 83.8016C3.79635 84.2305 3.86135 84.6594 3.93176 85.0828C3.95884 85.2457 3.99134 85.4031 4.01842 85.566C4.08884 85.946 4.16467 86.326 4.25134 86.706C4.25134 86.8471 4.31092 86.9883 4.34342 87.1294C4.45717 87.6343 4.58717 88.1392 4.72258 88.6386L4.79299 88.8721C4.91758 89.3009 5.04757 89.7244 5.18299 90.1478C5.23174 90.3053 5.2859 90.4573 5.34007 90.6093C5.46465 90.9784 5.59465 91.3476 5.73548 91.695C5.78423 91.8362 5.8384 91.9719 5.88714 92.113C6.08214 92.6016 6.27714 93.0848 6.48838 93.5679C6.52088 93.6331 6.55338 93.6982 6.58047 93.7634C6.77005 94.1814 6.96504 94.5994 7.16546 95.012L7.38753 95.4517C7.56809 95.8136 7.74864 96.1611 7.92919 96.494L8.14586 96.8958C8.40585 97.3572 8.68751 97.8132 8.95834 98.2692L9.06126 98.4321C9.31042 98.8338 9.57041 99.2301 9.84124 99.621L10.1229 100.028C10.3504 100.354 10.5833 100.68 10.8216 101L11.1033 101.374C11.4337 101.803 11.7695 102.232 12.1162 102.65L12.2137 102.764C12.5333 103.144 12.8583 103.519 13.1941 103.888L13.5353 104.252C13.8116 104.55 14.077 104.843 14.3803 105.137L14.7162 105.479C15.1116 105.864 15.507 106.25 15.9186 106.619L15.9999 106.695C16.3899 107.057 16.7853 107.399 17.1861 107.721L17.5815 108.041C17.9011 108.302 18.2261 108.557 18.5565 108.812L18.9573 109.116C19.4069 109.452 19.8673 109.784 20.3386 110.104L20.3927 110.136C20.8477 110.446 21.3135 110.745 21.7848 111.038L22.2289 111.309C22.5919 111.526 22.9602 111.743 23.3123 111.95L23.7673 112.205C24.2764 112.487 24.7964 112.759 25.3272 113.019C44.0957 122.248 66.2115 115.647 74.7264 98.2692L76.8605 93.8991C68.3782 111.298 46.2623 117.9 27.4884 108.665Z" fill="black"/>
<path d="M19.6561 46.3378L19.3582 45.8818C20.7015 45.0016 22.1 44.2092 23.5452 43.5094L23.7835 43.998C22.3576 44.6857 20.9788 45.4673 19.6561 46.3378ZM27.8405 42.3205L27.6618 41.8102C34.109 39.6237 41.0035 39.1083 47.7031 40.3119L47.611 40.8548C41.0028 39.6678 34.2026 40.172 27.8405 42.3205Z" fill="#DDEEFC"/>
<path d="M8.90959 60.4906C17.419 43.1186 39.5295 36.5172 58.3033 45.7515C77.0772 54.9858 85.3862 76.5543 76.8876 93.9263C68.389 111.298 46.2623 117.91 27.4884 108.676C8.7146 99.4419 0.400154 77.8626 8.90959 60.4906ZM69.1202 90.1044C75.6797 76.7063 69.2665 60.0563 54.7826 52.9338C40.2986 45.8112 23.2364 50.9088 16.677 64.3341C10.1175 77.7594 16.5361 94.3823 31.0146 101.505C45.4931 108.627 62.5499 103.535 69.1202 90.1044Z" fill="#DDEEFC"/>
<path d="M108.894 106.239L106.186 111.733C106.062 111.984 105.89 112.209 105.678 112.392C105.467 112.576 105.221 112.715 104.955 112.802C104.688 112.888 104.407 112.921 104.129 112.896C103.85 112.872 103.579 112.792 103.331 112.661L68.5027 94.2791L72.0614 87.048L107.876 103.41C108.131 103.526 108.36 103.691 108.55 103.897C108.74 104.103 108.887 104.345 108.982 104.609C109.077 104.872 109.118 105.153 109.103 105.433C109.088 105.713 109.017 105.987 108.894 106.239Z" fill="#DDEEFC"/>
<path opacity="0.1" d="M69.6186 90.3487C76.308 76.6954 69.7702 59.7305 54.9938 52.4723C40.2174 45.2141 22.8464 50.4094 16.157 64.0627C9.4675 77.716 16.0161 94.6863 30.7817 101.945C45.5473 109.203 62.9237 104.018 69.6131 90.3487" fill="white"/>
<path opacity="0.1" d="M55.0101 52.4615C51.3719 50.6655 47.4245 49.5838 43.3807 49.2748L13.8658 71.4078C13.2822 75.2149 13.5242 79.1033 14.5753 82.8082L55.0101 52.4615Z" fill="white"/>
<path d="M98.6839 96.0869C96.4848 95.2943 94.9736 96.7601 93.4515 97.5201C93.1915 97.6504 93.2673 98.4213 93.7873 98.4973C94.1008 98.5715 94.4261 98.5813 94.7435 98.5263C95.0609 98.4712 95.364 98.3524 95.6344 98.177C96.176 98.6764 98.1152 99.5124 99.5343 98.0087C99.4941 97.2856 99.1917 96.6021 98.6839 96.0869Z" fill="#B55B52"/>
<path d="M127.744 44.6278H126.487C126.465 44.6283 126.443 44.6238 126.423 44.6145C126.402 44.6052 126.384 44.5914 126.37 44.5741C126.356 44.5568 126.346 44.5365 126.341 44.5148C126.336 44.493 126.336 44.4704 126.341 44.4486L126.969 41.5497C126.977 41.5161 126.995 41.4861 127.022 41.4644C127.048 41.4427 127.081 41.4307 127.115 41.4302C127.149 41.4298 127.182 41.4417 127.208 41.4636C127.234 41.4856 127.251 41.5161 127.256 41.5497L127.885 44.4486C127.89 44.4701 127.89 44.4926 127.885 44.5142C127.881 44.5358 127.871 44.5561 127.858 44.5735C127.844 44.5911 127.827 44.6052 127.807 44.6147C127.788 44.6242 127.766 44.6286 127.744 44.6278ZM126.66 44.3346H127.549L127.105 42.2826L126.66 44.3346Z" fill="white"/>
<path d="M91.4203 28.5153L88.3491 33.4011L87.8616 33.0917C87.1622 32.681 86.5376 32.1542 86.0145 31.5337C85.6155 31.0115 85.3146 30.421 85.1262 29.791C84.8174 28.493 84.5913 27.1766 84.4491 25.8498C84.3246 24.802 84.0212 24.1234 83.55 23.8303C83.3545 23.6934 83.1321 23.5999 82.8976 23.5559C82.6632 23.5119 82.4221 23.5184 82.1904 23.5751C81.6805 23.7527 81.2566 24.1174 81.0042 24.5957C80.8194 24.8696 80.6932 25.1788 80.6335 25.5039C80.5739 25.8291 80.582 26.1631 80.6575 26.4849C80.8092 27.1418 81.3509 27.8367 82.2825 28.5804L78.5234 33.184C76.9172 32.0299 75.7912 30.3235 75.3601 28.3904C74.9737 26.5229 75.5371 24.3894 77.0501 21.9899C78.2237 20.1188 79.5616 18.8521 81.0638 18.1898C81.9565 17.7429 82.9501 17.5368 83.9464 17.5921C84.9428 17.6473 85.9076 17.9618 86.7458 18.5047C87.483 18.9817 88.0781 19.6494 88.4682 20.4373C89.0013 21.72 89.3144 23.0837 89.3945 24.4708C89.4427 25.394 89.6517 26.3016 90.012 27.1526C90.36 27.718 90.8443 28.1865 91.4203 28.5153ZM89.5407 34.3892L92.8286 29.1559L97.4381 32.0657L94.1448 37.3044L89.5407 34.3892Z" fill="#DDEEFC"/>
<path d="M134.894 15.7523L130.831 13.5373L131.053 13.1302C131.346 12.5496 131.734 12.0228 132.202 11.5721C132.597 11.2248 133.052 10.9526 133.545 10.7687C134.57 10.4476 135.613 10.192 136.67 10.0032C137.499 9.84578 138.024 9.57434 138.236 9.17805C138.336 9.01799 138.401 8.83853 138.427 8.65142C138.453 8.4643 138.44 8.27377 138.387 8.0923C138.222 7.68974 137.907 7.36687 137.51 7.19112C137.282 7.05693 137.028 6.9713 136.765 6.93954C136.503 6.90779 136.236 6.93059 135.982 7.00655C135.316 7.29443 134.76 7.78924 134.395 8.41802L130.528 5.66022C131.365 4.3121 132.669 3.32058 134.19 2.87527C135.663 2.47354 137.396 2.81555 139.389 3.9013C140.751 4.55911 141.884 5.61283 142.639 6.92512C143.04 7.61846 143.255 8.40429 143.261 9.2056C143.268 10.0069 143.067 10.7962 142.677 11.4961C142.336 12.1143 141.832 12.6269 141.22 12.9782C140.224 13.4748 139.151 13.7962 138.046 13.9282C137.312 14.0124 136.598 14.2275 135.939 14.5634C135.495 14.8633 135.135 15.2727 134.894 15.7523ZM130.105 14.5417L134.439 16.914L132.353 20.7576L128.02 18.3852L130.105 14.5417Z" fill="#DDEEFC"/>
<path d="M141.475 27.1852L140.392 23.7217L140.738 23.6131C141.219 23.4474 141.725 23.3648 142.233 23.3688C142.643 23.387 143.045 23.4828 143.419 23.6511C144.169 24.03 144.893 24.458 145.586 24.9323C145.766 25.0894 145.978 25.2056 146.207 25.2731C146.436 25.3405 146.677 25.3576 146.913 25.3231C147.059 25.2856 147.196 25.2179 147.314 25.1245C147.433 25.031 147.53 24.9138 147.601 24.7803C147.724 24.4643 147.724 24.1136 147.601 23.7977C147.546 23.5972 147.45 23.4103 147.32 23.2487C147.189 23.0871 147.027 22.9542 146.843 22.8585C146.312 22.6563 145.732 22.6296 145.185 22.7825L144.519 19.1127C145.724 18.8137 146.997 18.9702 148.094 19.5524C149.137 20.1278 149.925 21.2661 150.456 22.9671C150.858 24.0783 150.917 25.2855 150.623 26.4306C150.469 27.038 150.16 27.5946 149.726 28.0458C149.292 28.497 148.748 28.8272 148.148 29.0038C147.62 29.1672 147.058 29.1804 146.523 29.0418C145.694 28.7747 144.916 28.3691 144.221 27.8421C143.763 27.4873 143.246 27.2171 142.694 27.0441C142.282 26.989 141.863 27.0375 141.475 27.1852ZM139.444 23.89L140.597 27.5978L137.347 28.6184L136.194 24.9106L139.444 23.89Z" fill="#DDEEFC"/>
</g>
<defs>
<clipPath id="clip0_644_1874">
<rect width="190" height="202" fill="white"/>
</clipPath>
</defs>
</svg>
