<svg width="17" height="20" viewBox="0 0 17 20" fill="none" xmlns="http://www.w3.org/2000/svg">
<path fill-rule="evenodd" clip-rule="evenodd" d="M15.2071 6.79633C15.2071 8.05226 15.539 8.79253 16.2695 9.64559C16.8231 10.2741 17 11.0808 17 11.956C17 12.8302 16.7128 13.6601 16.1373 14.3339C15.384 15.1417 14.3215 15.6573 13.2372 15.747C11.6659 15.8809 10.0937 15.9937 8.5005 15.9937C6.90634 15.9937 5.33505 15.9263 3.76375 15.747C2.67846 15.6573 1.61602 15.1417 0.863666 14.3339C0.28822 13.6601 0 12.8302 0 11.956C0 11.0808 0.177901 10.2741 0.730488 9.64559C1.48384 8.79253 1.79392 8.05226 1.79392 6.79633V6.3703C1.79392 4.68834 2.21333 3.58852 3.077 2.51186C4.36106 0.941697 6.41935 0 8.45577 0H8.54522C10.6254 0 12.7502 0.987019 14.0125 2.62466C14.8314 3.67916 15.2071 4.73265 15.2071 6.3703V6.79633ZM5.57378 18.0608C5.57378 17.5573 6.03592 17.3266 6.46328 17.2279C6.9632 17.1222 10.0094 17.1222 10.5093 17.2279C10.9367 17.3266 11.3988 17.5573 11.3988 18.0608C11.374 18.5402 11.0927 18.9653 10.7041 19.2352C10.2002 19.628 9.60885 19.8768 8.99067 19.9664C8.64878 20.0107 8.31286 20.0117 7.9829 19.9664C7.36372 19.8768 6.77237 19.628 6.26948 19.2342C5.87989 18.9653 5.59862 18.5402 5.57378 18.0608Z" fill="#7DB35C"/>
<path d="M5.5 9L7.5 11L11.5 7" stroke="white" stroke-width="1.5" stroke-linecap="round" stroke-linejoin="round"/>
</svg>
