<svg width="17" height="14" viewBox="0 0 17 14" fill="none" xmlns="http://www.w3.org/2000/svg">
<path fill-rule="evenodd" clip-rule="evenodd" d="M10.0541 3.70411C10.0541 5.76037 8.3714 7.40821 6.27169 7.40821C4.17275 7.40821 2.48933 5.76037 2.48933 3.70411C2.48933 1.64784 4.17275 0 6.27169 0C8.3714 0 10.0541 1.64784 10.0541 3.70411ZM0.555664 11.6024C0.555664 9.69888 3.18886 9.22263 6.27182 9.22263C9.37153 9.22263 11.988 9.71527 11.988 11.6202C11.988 13.5237 9.35479 14 6.27182 14C3.17211 14 0.555664 13.5073 0.555664 11.6024ZM11.5795 3.77124C11.5795 4.81838 11.2583 5.79546 10.6951 6.60708C10.6365 6.69056 10.6883 6.8031 10.7903 6.82098C10.9318 6.84409 11.0772 6.85825 11.2256 6.86123C12.702 6.89924 14.027 5.96837 14.393 4.56647C14.9356 2.48636 13.3435 0.618655 11.3154 0.618655C11.0954 0.618655 10.8846 0.641014 10.6791 0.682005C10.651 0.687968 10.6205 0.701383 10.6053 0.725232C10.5855 0.755789 10.6 0.79529 10.6198 0.821375C11.2294 1.65834 11.5795 2.67715 11.5795 3.77124ZM14.0247 8.32405C15.0171 8.5141 15.6693 8.9009 15.9395 9.46509C16.1686 9.92717 16.1686 10.4638 15.9395 10.9259C15.5263 11.7993 14.1929 12.0803 13.6747 12.1526C13.5673 12.1675 13.4813 12.0781 13.4928 11.9723C13.7576 9.55154 11.6518 8.40379 11.1069 8.13996C11.0841 8.12729 11.0788 8.1094 11.081 8.09748C11.0826 8.09002 11.0925 8.0781 11.11 8.07586C12.2888 8.0535 13.5567 8.21225 14.0247 8.32405Z" fill="#71B1FC"/>
</svg>
