<svg width="123" height="109" viewBox="0 0 123 109" fill="none" xmlns="http://www.w3.org/2000/svg">
<path d="M3.55207 105.407H119.038C119.038 81.8142 107.758 86.7428 107.501 95.4101C107.034 92.8262 104.929 92.0738 103.64 92.3188C102.782 92.4879 102.1 94.436 102.269 97.539C101.155 94.6868 98.1222 90.569 94.9376 90.1432C86.4861 89.0233 83.4007 95.5092 83.0624 100.099C82.3961 99.6253 81.5996 99.3686 80.7818 99.3646C79.9838 99.3624 79.2042 99.6046 78.5479 100.059C78.2431 98.7616 77.5188 97.6013 76.4875 96.7577C75.4562 95.9141 74.1754 95.4342 72.8436 95.3926C69.8165 95.3926 67.326 97.8656 66.941 101.062C66.4833 100.603 65.937 100.242 65.3353 100.002C64.7336 99.761 64.0892 99.6455 63.4414 99.662C61.435 99.662 59.7435 100.77 59.2186 102.287C58.4077 102.04 57.564 101.918 56.7164 101.925C56.3675 101.923 56.0189 101.943 55.6724 101.983C55.8043 101.581 55.8712 101.159 55.8707 100.735C55.9057 99.8176 55.5786 98.9229 54.9599 98.2442C54.3413 97.5655 53.4806 97.1572 52.5636 97.1074C51.854 97.1279 51.1693 97.3734 50.6085 97.8085C50.0476 98.2436 49.6395 98.8457 49.4431 99.5279C49.3353 99.2523 49.1536 99.0118 48.9179 98.8327C48.6823 98.6537 48.4019 98.5431 48.1075 98.513C47.39 98.513 46.7718 99.2188 46.5093 100.222C46.0729 99.977 45.5808 99.8484 45.0803 99.8487C44.2086 99.891 43.3892 100.277 42.8011 100.922C42.2131 101.567 41.9043 102.418 41.9424 103.29C40.089 101.588 37.6516 100.665 35.1357 100.712C33.7581 100.708 32.393 100.974 31.117 101.493C31.362 99.6387 30.8196 97.9239 29.5656 97.1307C28.3115 96.3375 26.7017 96.6757 25.3602 97.8248C23.6105 93.5786 19.6968 90.6215 15.1648 90.6215C11.9685 90.6506 3.55207 94.0919 3.55207 105.407Z" fill="#A7D18D"/>
<path d="M54.8675 17.9178H16.5355V105.407H54.8675V17.9178Z" fill="#F0F5F9"/>
<path d="M105.885 17.9178H54.8733V105.407H105.885V17.9178Z" fill="#F0F5F9"/>
<path d="M54.8733 37.457H23.3246V48.539H54.8733V37.457Z" fill="#02629E"/>
<path d="M31.6128 37.457H31.0296V48.539H31.6128V37.457Z" fill="#004679"/>
<path d="M39.3935 37.457H38.8103V48.539H39.3935V37.457Z" fill="#004679"/>
<path d="M47.1684 37.457H46.5851V48.539H47.1684V37.457Z" fill="#004679"/>
<path opacity="0.1" d="M35.7073 48.539H26.8242L33.0068 37.457H41.884L35.7073 48.539Z" fill="#F0F5F9"/>
<path opacity="0.1" d="M45.1037 48.539H42.1465L48.3291 37.457H51.2804L45.1037 48.539Z" fill="#F0F5F9"/>
<path d="M97.7256 52.3302H82.5258L76.2965 48.539H54.8733V37.457H97.7256V52.3302Z" fill="#02629E"/>
<path d="M60.5601 37.457H59.9769V48.539H60.5601V37.457Z" fill="#05568D"/>
<path d="M68.335 37.457H67.7517V48.539H68.335V37.457Z" fill="#05568D"/>
<path d="M76.1099 37.457H75.5266V48.539H76.1099V37.457Z" fill="#05568D"/>
<path d="M83.8906 37.457H83.3073V52.3302H83.8906V37.457Z" fill="#05568D"/>
<path d="M91.6655 37.457H91.0822V52.3302H91.6655V37.457Z" fill="#05568D"/>
<path opacity="0.1" d="M72.9486 48.539H64.0713L70.2539 37.457H79.1312L72.9486 48.539Z" fill="#F0F5F9"/>
<path opacity="0.1" d="M97.7256 52.3302H88.0784L96.3782 37.457H97.7256V52.3302Z" fill="#F0F5F9"/>
<path opacity="0.1" d="M80.811 51.2862L78.6062 49.9447L85.5704 37.457H88.5275L80.811 51.2862Z" fill="#F0F5F9"/>
<path d="M54.8675 14.4182H16.5355V17.9178H54.8675V14.4182Z" fill="#DFE4E8"/>
<path d="M105.885 14.4182H54.8733V17.9178H105.885V14.4182Z" fill="#DFE4E8"/>
<path d="M54.8675 33.9575H16.5355V37.4571H54.8675V33.9575Z" fill="#DFE4E8"/>
<path d="M105.885 33.9575H54.8733V37.4571H105.885V33.9575Z" fill="#DFE4E8"/>
<path d="M54.8675 102.782H16.5355V105.407H54.8675V102.782Z" fill="#DFE4E8"/>
<path d="M105.885 102.782H54.8733V105.407H105.885V102.782Z" fill="#B8C0C9"/>
<path d="M54.8733 66.6202H23.3246V77.7022H54.8733V66.6202Z" fill="#02629E"/>
<path d="M31.6128 66.6202H31.0296V77.7022H31.6128V66.6202Z" fill="#004679"/>
<path d="M39.3935 66.6202H38.8103V77.7022H39.3935V66.6202Z" fill="#004679"/>
<path d="M47.1684 66.6202H46.5851V77.7022H47.1684V66.6202Z" fill="#004679"/>
<path opacity="0.1" d="M35.7073 77.7022H26.8242L33.0068 66.6202H41.884L35.7073 77.7022Z" fill="#F0F5F9"/>
<path opacity="0.1" d="M45.1037 77.7022H42.1465L48.3291 66.6202H51.2804L45.1037 77.7022Z" fill="#F0F5F9"/>
<path d="M97.7256 81.4934H82.5258L76.2965 77.7022H54.8733V66.6202H97.7256V81.4934Z" fill="#02629E"/>
<path d="M60.5601 66.6202H59.9769V77.7022H60.5601V66.6202Z" fill="#05568D"/>
<path d="M68.335 66.6202H67.7517V77.7022H68.335V66.6202Z" fill="#05568D"/>
<path d="M76.1099 66.6202H75.5266V77.7022H76.1099V66.6202Z" fill="#05568D"/>
<path d="M83.8906 66.6202H83.3073V81.4934H83.8906V66.6202Z" fill="#05568D"/>
<path d="M91.6655 66.6202H91.0822V81.4934H91.6655V66.6202Z" fill="#05568D"/>
<path opacity="0.1" d="M72.9486 77.7022H64.0713L70.2539 66.6202H79.1312L72.9486 77.7022Z" fill="#F0F5F9"/>
<path opacity="0.1" d="M97.7256 81.4934H88.0784L96.3782 66.6202H97.7256V81.4934Z" fill="#F0F5F9"/>
<path opacity="0.1" d="M80.811 80.4494L78.6062 79.1079L85.5704 66.6202H88.5275L80.811 80.4494Z" fill="#F0F5F9"/>
<path d="M54.8675 63.1206H16.5355V66.6202H54.8675V63.1206Z" fill="#DFE4E8"/>
<path d="M105.885 63.1206H54.8733V66.6202H105.885V63.1206Z" fill="#DFE4E8"/>
<path d="M27.1859 94.7919H22.0356V102.783H27.1859V94.7919Z" fill="#02629E"/>
<path d="M23.418 94.7919H22.0356V102.783H23.418V94.7919Z" fill="#0270AB"/>
<path d="M32.9193 94.7919H27.7691V102.783H32.9193V94.7919Z" fill="#02629E"/>
<path d="M29.1514 94.7919H27.7691V102.783H29.1514V94.7919Z" fill="#0270AB"/>
<path d="M43.6397 94.7919H38.4895V102.783H43.6397V94.7919Z" fill="#02629E"/>
<path d="M39.8718 94.7919H38.4895V102.783H39.8718V94.7919Z" fill="#0270AB"/>
<path d="M49.3731 94.7919H44.2229V102.783H49.3731V94.7919Z" fill="#02629E"/>
<path d="M45.6053 94.7919H44.2229V102.783H45.6053V94.7919Z" fill="#0270AB"/>
<path d="M79.3995 94.7919H62.1174V102.783H79.3995V94.7919Z" fill="#02629E"/>
<path d="M66.7602 94.7919H62.1174V102.783H66.7602V94.7919Z" fill="#0270AB"/>
<path d="M98.6354 94.7919H81.3534V102.783H98.6354V94.7919Z" fill="#02629E"/>
<path d="M85.9961 94.7919H81.3534V102.783H85.9961V94.7919Z" fill="#0270AB"/>
<path d="M92.1321 2.73553H70.0498V14.4183H92.1321V2.73553Z" fill="#F0F5F9"/>
<path d="M101.581 2.73553H92.1321V14.4183H101.581V2.73553Z" fill="#DADFE3"/>
<path d="M92.1379 0H68.0609V2.7355H92.1379V0Z" fill="#DFE4E8"/>
<path d="M103.576 0H92.1321V2.7355H103.576V0Z" fill="#DFE4E8"/>
<path d="M80.0411 6.80078H75.3983V14.4182H80.0411V6.80078Z" fill="#004679"/>
<path d="M17.6612 10.1604H16.5646V14.4124H17.6612V10.1604Z" fill="#F0F5F9"/>
<path d="M54.8849 10.1604H53.7884V14.4124H54.8849V10.1604Z" fill="#F0F5F9"/>
<path d="M46.8709 10.1604H45.7744V14.4124H46.8709V10.1604Z" fill="#F0F5F9"/>
<path d="M35.6315 10.1604H34.535V14.4124H35.6315V10.1604Z" fill="#F0F5F9"/>
<path d="M24.3862 10.1604H23.2896V14.4124H24.3862V10.1604Z" fill="#F0F5F9"/>
<path d="M54.885 10.1604H16.5646V11.0236H54.885V10.1604Z" fill="#F0F5F9"/>
<path d="M54.885 12.2893H16.5646V13.1525H54.885V12.2893Z" fill="#F0F5F9"/>
<path d="M55.9815 10.1604H54.8849V14.4124H55.9815V10.1604Z" fill="#DADFE3"/>
<path d="M93.2053 10.1604H92.1087V14.4124H93.2053V10.1604Z" fill="#DADFE3"/>
<path d="M85.1913 10.1604H84.0947V14.4124H85.1913V10.1604Z" fill="#DADFE3"/>
<path d="M73.946 10.1604H72.8494V14.4124H73.946V10.1604Z" fill="#DADFE3"/>
<path d="M62.7065 10.1604H61.61V14.4124H62.7065V10.1604Z" fill="#DADFE3"/>
<path d="M93.2053 10.1604H54.8849V11.0236H93.2053V10.1604Z" fill="#DADFE3"/>
<path d="M93.2053 12.2893H54.8849V13.1525H93.2053V12.2893Z" fill="#DADFE3"/>
<path d="M103.832 98.8571H102.765V105.401H103.832V98.8571Z" fill="#6E331B"/>
<path d="M105.337 91.4788C105.337 96.7281 104.421 100.945 103.302 100.945C102.182 100.945 101.295 96.7048 101.295 91.4788C101.295 86.2528 102.205 82.0066 103.331 82.0066C104.456 82.0066 105.337 86.2469 105.337 91.4788Z" fill="#A7D18D"/>
<path d="M97.1365 98.8571H96.0691V105.401H97.1365V98.8571Z" fill="#6E331B"/>
<path d="M98.6413 91.4788C98.6413 96.7281 97.7314 100.945 96.6057 100.945C95.48 100.945 94.5701 96.7048 94.5701 91.4788C94.5701 86.2528 95.4625 82.0066 96.629 82.0066C97.7956 82.0066 98.6413 86.2469 98.6413 91.4788Z" fill="#A7D18D"/>
<path d="M18.3553 98.8571H17.2879V105.401H18.3553V98.8571Z" fill="#6E331B"/>
<path d="M19.8601 91.4788C19.8601 96.7281 18.9502 100.945 17.8245 100.945C16.6988 100.945 15.7889 96.7048 15.7889 91.4788C15.7889 86.2528 16.7046 82.0066 17.8245 82.0066C18.9444 82.0066 19.8601 86.2469 19.8601 91.4788Z" fill="#A7D18D"/>
<path d="M1.80228 109H120.624C121.101 109 121.558 108.811 121.895 108.474C122.232 108.137 122.421 107.68 122.421 107.204C122.421 106.727 122.232 106.27 121.895 105.933C121.558 105.596 121.101 105.407 120.624 105.407H1.80228C1.32529 105.407 0.867758 105.596 0.529932 105.933C0.192106 106.27 0.00154364 106.727 0 107.204C0.00154364 107.681 0.192106 108.137 0.529932 108.474C0.867758 108.811 1.32529 109 1.80228 109Z" fill="#A7D18D"/>
<path d="M26.6901 102.135C27.5579 102.135 28.3902 102.48 29.0038 103.093C29.6174 103.707 29.9622 104.539 29.9622 105.407H23.4238C23.4238 104.54 23.7677 103.709 24.3801 103.095C24.9925 102.482 25.8233 102.137 26.6901 102.135Z" fill="#A7D18D"/>
<path d="M22.2573 103.558C22.7446 103.558 23.2119 103.752 23.5564 104.096C23.901 104.441 24.0946 104.908 24.0946 105.395H20.4258C20.4258 104.909 20.6186 104.443 20.9619 104.098C21.3052 103.754 21.771 103.56 22.2573 103.558Z" fill="#A7D18D"/>
<path d="M18.746 104.491C18.9848 104.497 19.2118 104.597 19.3785 104.768C19.5452 104.939 19.6385 105.168 19.6384 105.407H17.8245C17.8245 105.286 17.8484 105.167 17.8947 105.055C17.9411 104.944 18.0091 104.843 18.0948 104.757C18.1804 104.672 18.282 104.605 18.3938 104.559C18.5056 104.514 18.6253 104.491 18.746 104.491Z" fill="#A7D18D"/>
<path d="M15.6606 103.698C16.1138 103.698 16.5485 103.878 16.869 104.199C17.1895 104.519 17.3695 104.954 17.3695 105.407H13.9575C13.9575 104.955 14.1367 104.521 14.4559 104.201C14.7752 103.88 15.2084 103.7 15.6606 103.698Z" fill="#A7D18D"/>
<path d="M110.079 103.418C110.626 103.448 111.139 103.693 111.506 104.1C111.873 104.506 112.064 105.041 112.039 105.588H108.113C108.088 105.04 108.281 104.504 108.649 104.098C109.017 103.691 109.531 103.447 110.079 103.418Z" fill="#A7D18D"/>
<path d="M107.67 104.293C107.841 104.292 108.01 104.325 108.167 104.39C108.325 104.455 108.469 104.55 108.59 104.67C108.71 104.791 108.806 104.934 108.872 105.091C108.937 105.249 108.971 105.417 108.971 105.588H106.37C106.37 105.417 106.403 105.249 106.469 105.091C106.534 104.934 106.63 104.791 106.751 104.67C106.872 104.55 107.015 104.455 107.173 104.39C107.331 104.325 107.5 104.292 107.67 104.293Z" fill="#A7D18D"/>
<path d="M104.981 103.173C105.909 103.173 106.661 104.252 106.661 105.588H103.302C103.302 104.252 104.054 103.173 104.981 103.173Z" fill="#A7D18D"/>
<path d="M88.8541 102.135C87.9858 102.137 87.1535 102.483 86.5401 103.097C85.9266 103.712 85.582 104.545 85.582 105.413H92.1321C92.1321 104.544 91.7867 103.71 91.172 103.095C90.5573 102.48 89.7235 102.135 88.8541 102.135Z" fill="#A7D18D"/>
<path d="M93.3919 103.774C92.9573 103.774 92.5404 103.947 92.233 104.254C91.9256 104.561 91.753 104.978 91.753 105.413H95.0309C95.0309 104.978 94.8582 104.561 94.5509 104.254C94.2435 103.947 93.8266 103.774 93.3919 103.774Z" fill="#A7D18D"/>
<path d="M44.1763 102.707C44.894 102.707 45.5824 102.992 46.0899 103.499C46.5975 104.007 46.8826 104.695 46.8826 105.413H41.4699C41.4699 104.695 41.7551 104.007 42.2626 103.499C42.7701 102.992 43.4585 102.707 44.1763 102.707Z" fill="#A7D18D"/>
<path d="M40.4259 104.06C40.7848 104.06 41.129 104.202 41.3827 104.456C41.6365 104.71 41.7791 105.054 41.7791 105.413H39.0727C39.0727 105.054 39.2153 104.71 39.4691 104.456C39.7228 104.202 40.067 104.06 40.4259 104.06Z" fill="#A7D18D"/>
</svg>
