<svg width="31" height="22" viewBox="0 0 31 22" fill="none" xmlns="http://www.w3.org/2000/svg">
<path d="M6.30859 18.2603C6.30859 21.2521 10.337 22.0001 15.0549 22.0001C19.7986 22.0001 23.8012 21.2249 23.8012 18.2331C23.8012 15.24 19.7728 14.4921 15.0549 14.4921C10.3112 14.4921 6.30859 15.2673 6.30859 18.2603Z" fill="#268AFF"/>
<path d="M15.0549 11.6416C18.2671 11.6416 20.8427 9.05099 20.8427 5.82017C20.8427 2.58812 18.2671 0 15.0549 0C11.8428 0 9.26715 2.58812 9.26715 5.82017C9.26715 9.05099 11.8428 11.6416 15.0549 11.6416Z" fill="#268AFF"/>
<path d="M23.316 5.92528C23.316 7.57226 22.8248 9.10656 21.9629 10.382C21.8743 10.5133 21.9531 10.6904 22.1095 10.7176C22.3249 10.7548 22.5478 10.7758 22.7743 10.782C25.0335 10.8415 27.0613 9.37899 27.6214 7.17724C28.4513 3.90679 26.0148 0.970703 22.9122 0.970703C22.5748 0.970703 22.2523 1.00661 21.9383 1.07101C21.8952 1.08091 21.8497 1.10073 21.825 1.13912C21.7955 1.18617 21.8177 1.24933 21.8472 1.29019C22.7792 2.60407 23.316 4.20647 23.316 5.92528Z" fill="#77BFFF"/>
<path d="M29.9878 14.8729C29.5741 13.9875 28.5757 13.3782 27.0576 13.0798C26.3411 12.9039 24.402 12.6563 22.5983 12.6897C22.5712 12.6934 22.5564 12.7132 22.554 12.7256C22.5503 12.743 22.5577 12.7714 22.5934 12.79C23.4269 13.2049 26.6489 15.0091 26.2438 18.8145C26.2266 18.9792 26.3583 19.1216 26.522 19.0969C27.3149 18.9829 29.355 18.5421 29.9878 17.1688C30.3375 16.4431 30.3375 15.5998 29.9878 14.8729Z" fill="#77BFFF"/>
<path d="M7.47595 10.7818C7.70249 10.7756 7.9241 10.7558 8.14079 10.7174C8.29715 10.6901 8.37595 10.5131 8.2873 10.3818C7.42548 9.10632 6.93424 7.57202 6.93424 5.92504C6.93424 4.20623 7.47103 2.60382 8.40303 1.28995C8.43258 1.24908 8.45351 1.18593 8.42519 1.13887C8.40057 1.10172 8.35379 1.08067 8.31192 1.07076C7.99674 1.00637 7.67417 0.970459 7.33683 0.970459C4.23426 0.970459 1.79776 3.90655 2.6288 7.17699C3.18899 9.37875 5.21674 10.8412 7.47595 10.7818Z" fill="#77BFFF"/>
<path d="M7.65763 12.7905C7.6921 12.7707 7.69949 12.7434 7.69579 12.7249C7.69333 12.7137 7.67979 12.6939 7.6527 12.6902C5.84779 12.6568 3.90992 12.9044 3.19214 13.079C1.6741 13.3787 0.676841 13.988 0.263165 14.8734C-0.0877215 15.6003 -0.0877215 16.4423 0.263165 17.1693C0.895991 18.5426 2.93605 18.9834 3.72893 19.0973C3.89268 19.1209 4.02319 18.9797 4.00595 18.8138C3.60089 15.0096 6.82289 13.2053 7.65763 12.7905Z" fill="#77BFFF"/>
</svg>
