<svg width="360" height="521" viewBox="0 0 360 521" fill="none" xmlns="http://www.w3.org/2000/svg">
<g clip-path="url(#clip0_451_381)">
<path d="M0 -19H360V521H90C40.2944 521 0 480.706 0 431V-19Z" fill="#037FFB"/>
<path d="M45 161H0V206H45V161Z" fill="#59AAF8"/>
<path d="M90 206H0V251H90V206Z" fill="#2D9AFF"/>
<g clip-path="url(#clip1_451_381)">
<path d="M90 -19V71H114.56C114.553 73.687 115.077 76.3489 116.102 78.8329C117.127 81.3168 118.632 83.5741 120.531 85.475C122.43 87.376 124.686 88.8832 127.169 89.9102C129.652 90.9373 132.313 91.464 135 91.46C140.413 91.46 145.604 89.3097 149.432 85.482C153.26 81.6544 155.41 76.4631 155.41 71.05H180V-18.95L90 -19Z" fill="#7AB8F4"/>
</g>
<path d="M217.726 196.91L217.217 197.298C199.051 211.583 182.768 237.376 175.86 250.81L151.189 214.986L174.365 227.674C188.121 209.165 207.514 194.581 215.483 189.611C213.845 186.468 211.377 183.833 208.346 181.991C205.315 180.149 201.837 179.171 198.288 179.162H148.946C143.791 179.162 138.847 181.207 135.201 184.846C131.556 188.485 129.508 193.42 129.508 198.567V246.332C129.508 251.479 131.556 256.414 135.201 260.054C138.847 263.693 143.791 265.737 148.946 265.737H198.288C203.443 265.737 208.387 263.693 212.033 260.054C215.678 256.414 217.726 251.479 217.726 246.332V210.956C217.726 205.98 219.538 201.174 222.825 197.432L229.688 189.611C225.398 191.512 221.376 193.965 217.726 196.91Z" fill="white"/>
<path d="M140.798 316.289L140.765 302.489L133.996 313.857H131.598L124.862 302.784V316.289H119.867V293.288H124.27L132.879 307.582L141.356 293.288H145.727L145.792 316.289H140.798Z" fill="white"/>
<path d="M162.289 308.14V316.289H156.967V308.074L148.062 293.288H153.714L159.858 303.507L166.002 293.288H171.227L162.289 308.14Z" fill="white"/>
<path d="M177.372 316.683C175.816 316.683 174.382 316.398 173.067 315.829C171.775 315.237 170.713 314.405 169.88 313.332L172.837 309.783C174.086 311.47 175.51 312.313 177.109 312.313C179.278 312.313 180.362 311.043 180.362 308.502V297.56H172.279V293.288H185.652V308.206C185.652 311.032 184.951 313.156 183.549 314.58C182.147 315.982 180.088 316.683 177.372 316.683Z" fill="white"/>
<path d="M202.049 316.683C199.661 316.683 197.503 316.168 195.576 315.139C193.67 314.109 192.169 312.696 191.074 310.9C190.001 309.082 189.464 307.045 189.464 304.789C189.464 302.532 190.001 300.506 191.074 298.71C192.169 296.892 193.67 295.468 195.576 294.438C197.503 293.409 199.661 292.894 202.049 292.894C204.436 292.894 206.583 293.409 208.489 294.438C210.394 295.468 211.895 296.892 212.99 298.71C214.085 300.506 214.633 302.532 214.633 304.789C214.633 307.045 214.085 309.082 212.99 310.9C211.895 312.696 210.394 314.109 208.489 315.139C206.583 316.168 204.436 316.683 202.049 316.683ZM202.049 312.149C203.407 312.149 204.633 311.842 205.729 311.229C206.824 310.593 207.678 309.717 208.292 308.6C208.927 307.483 209.244 306.212 209.244 304.789C209.244 303.365 208.927 302.094 208.292 300.977C207.678 299.86 206.824 298.995 205.729 298.381C204.633 297.746 203.407 297.428 202.049 297.428C200.69 297.428 199.464 297.746 198.368 298.381C197.273 298.995 196.408 299.86 195.773 300.977C195.159 302.094 194.853 303.365 194.853 304.789C194.853 306.212 195.159 307.483 195.773 308.6C196.408 309.717 197.273 310.593 198.368 311.229C199.464 311.842 200.69 312.149 202.049 312.149Z" fill="white"/>
<path d="M235.522 304.329C236.837 304.745 237.866 305.446 238.611 306.431C239.356 307.395 239.728 308.589 239.728 310.013C239.728 312.028 238.94 313.584 237.363 314.679C235.807 315.752 233.529 316.289 230.528 316.289H218.634V293.288H229.871C232.675 293.288 234.822 293.825 236.311 294.898C237.823 295.972 238.578 297.428 238.578 299.268C238.578 300.386 238.304 301.382 237.757 302.259C237.231 303.135 236.486 303.825 235.522 304.329ZM223.924 297.297V302.719H229.214C230.528 302.719 231.525 302.489 232.204 302.029C232.883 301.569 233.222 300.889 233.222 299.991C233.222 299.093 232.883 298.425 232.204 297.987C231.525 297.527 230.528 297.297 229.214 297.297H223.924ZM230.134 312.28C231.536 312.28 232.587 312.05 233.288 311.59C234.011 311.13 234.372 310.418 234.372 309.454C234.372 307.549 232.96 306.596 230.134 306.596H223.924V312.28H230.134Z" fill="white"/>
<g clip-path="url(#clip2_451_381)">
<path d="M110.41 26.0001C110.417 28.6845 109.894 31.3439 108.871 33.826C107.848 36.308 106.346 38.5639 104.45 40.4644C102.554 42.365 100.302 43.8728 97.8221 44.9017C95.3426 45.9305 92.6845 46.4601 90 46.4601V71.05H0V-18.95H90V5.64005C95.4044 5.64004 100.588 7.7835 104.414 11.6003C108.241 15.4171 110.397 20.5957 110.41 26.0001Z" fill="#91C4F5"/>
<path opacity="0.61" d="M0 -19L45 26L0 71V-19Z" fill="#7AB8F4"/>
</g>
<path opacity="0.56" d="M270 -19H180V71H270V-19Z" fill="#59AAF8"/>
<path d="M270 -19H180V71H270V-19Z" fill="#59AAF8"/>
<path d="M215.46 25.9999V70.9999H196.38V24.8799C198.7 25.6245 201.123 26.0024 203.56 25.9999H215.46Z" fill="#4099EF"/>
<path d="M253.62 25.6599V70.9999H234.56V25.9999H250.02C251.228 26.0028 252.434 25.889 253.62 25.6599Z" fill="#4099EF"/>
<path d="M180 -19H270V6C270 11.3043 267.893 16.3914 264.142 20.1421C260.391 23.8929 255.304 26 250 26H203.57C197.319 26 191.324 23.5167 186.903 19.0965C182.483 14.6763 180 8.68115 180 2.43V-19Z" fill="#91C4F5"/>
<path d="M225 35.54C230.269 35.54 234.54 31.2688 234.54 26C234.54 20.7312 230.269 16.46 225 16.46C219.731 16.46 215.46 20.7312 215.46 26C215.46 31.2688 219.731 35.54 225 35.54Z" fill="#83BDF4"/>
<g clip-path="url(#clip3_451_381)">
<path d="M360 -19H270V71H360V-19Z" fill="#3F9DF7"/>
<path d="M360 -19V71H290C284.696 71 279.609 68.8929 275.858 65.1421C272.107 61.3914 270 56.3043 270 51V-3.08C270 -7.30225 271.677 -11.3516 274.663 -14.3371C277.648 -17.3227 281.698 -19 285.92 -19H360Z" fill="#59AAF8"/>
<path d="M360 -19V71H312.64C310.014 71 307.413 70.4827 304.986 69.4776C302.56 68.4725 300.355 66.9993 298.498 65.1421C294.747 61.3914 292.64 56.3043 292.64 51V-3.08C292.64 -7.30225 294.317 -11.3516 297.303 -14.3371C300.288 -17.3227 304.338 -19 308.56 -19H360Z" fill="#3F9DF6"/>
<path d="M360 -18.96V70.96H359.83C347.895 70.96 336.449 66.2189 328.01 57.7798C319.571 49.3406 314.83 37.8947 314.83 25.96C314.83 14.0252 319.571 2.57929 328.01 -5.85985C336.449 -14.299 347.895 -19.04 359.83 -19.04L360 -18.96Z" fill="#318EE7"/>
<path d="M360 -6.42993V58.4601H359.84C355.579 58.4601 351.359 57.6202 347.423 55.9886C343.486 54.357 339.91 51.9655 336.898 48.9509C333.886 45.9364 331.498 42.3578 329.87 38.4197C328.242 34.4817 327.406 30.2614 327.41 26.0001C327.41 17.3991 330.827 9.1504 336.909 3.0686C342.99 -3.01321 351.239 -6.42993 359.84 -6.42993H360Z" fill="#59AAF8"/>
</g>
<path d="M90 71H0V161H90V71Z" fill="#7AB8F4"/>
<path d="M45 161C69.8528 161 90 140.853 90 116C90 91.1472 69.8528 71 45 71C20.1472 71 0 91.1472 0 116C0 140.853 20.1472 161 45 161Z" fill="#2691F5"/>
<path d="M270.03 126.09V71H180.03H155.44C155.44 73.6803 154.912 76.3343 153.886 78.8106C152.861 81.2868 151.357 83.5368 149.462 85.4321C147.567 87.3273 145.317 88.8307 142.841 89.8564C140.364 90.8821 137.71 91.41 135.03 91.41C129.619 91.418 124.426 89.2766 120.593 85.4568C116.76 81.637 114.601 76.4513 114.59 71.04H90V126.04H135V126.16C135.003 135.386 138.669 144.234 145.193 150.757C151.716 157.281 160.564 160.947 169.79 160.95H190.21C199.436 160.947 208.283 157.281 214.807 150.757C221.331 144.234 224.997 135.386 225 126.16V126.04H241.62V192.09L225 208.81H270L254.65 192.09V126.04L270.03 126.09Z" fill="#2D9AFF"/>
<path d="M360.13 71H270.13V251H360.13V71Z" fill="#1990FF"/>
<path opacity="0.34" d="M360.13 251H270.13V341H360.13V251Z" fill="#7AB8F4"/>
<path d="M360.13 251H270.13V269.93H315.13C319.045 269.962 322.789 271.539 325.546 274.319C328.303 277.098 329.85 280.855 329.85 284.77C329.851 286.903 329.391 289.012 328.5 290.95C327.609 292.889 326.31 294.611 324.69 296H269.99V314.92H284.69L310.75 340.98H337.51L311.42 314.92H360.13V296H346.86C348.13 292.392 348.776 288.595 348.77 284.77C348.778 279.626 347.605 274.549 345.34 269.93H360.13V251Z" fill="#91C4F5"/>
<path d="M360.13 123.13V198.88C350.084 198.88 340.449 194.889 333.345 187.785C326.241 180.681 322.25 171.046 322.25 161C322.25 156.026 323.23 151.101 325.134 146.505C327.037 141.91 329.828 137.735 333.345 134.218C336.863 130.702 341.039 127.912 345.635 126.01C350.23 124.107 355.156 123.129 360.13 123.13Z" fill="#0A7BE7"/>
<path d="M295.87 161C295.87 178.008 302.627 194.32 314.653 206.347C326.68 218.373 342.992 225.13 360 225.13V251C336.131 251 313.239 241.518 296.36 224.64C279.482 207.761 270 184.869 270 161C270 137.131 279.482 114.239 296.36 97.3604C313.239 80.4821 336.131 71 360 71V96.87C342.992 96.87 326.68 103.627 314.653 115.653C302.627 127.68 295.87 143.992 295.87 161Z" fill="#0A7BE7"/>
<path d="M0 251H90V341H0V251Z" fill="#91C4F5"/>
<path opacity="0.61" d="M90 251L45 296L90 341V251Z" fill="#5FA7EB"/>
<circle cx="90" cy="431" r="90" fill="#7AB8F4"/>
<path d="M180 431C180 450.676 173.552 469.809 161.644 485.472C149.736 501.134 133.023 512.463 114.063 517.723C95.1041 522.984 74.9433 521.887 56.667 514.6C38.3907 507.313 23.0059 494.237 12.8676 477.375C2.72937 460.512 -1.60374 440.792 0.531583 421.233C2.66691 401.673 11.153 383.353 24.6909 369.075C38.2288 354.797 56.0725 345.349 75.4906 342.177C94.9088 339.005 114.831 342.284 132.209 351.512L90 431H180Z" fill="#91C4F5"/>
<path d="M180 431C180 446.379 176.059 461.502 168.553 474.925C161.047 488.349 150.226 499.625 137.123 507.677C124.021 515.73 109.073 520.29 93.7067 520.924C78.3403 521.557 63.068 518.242 49.347 511.295C35.626 504.348 23.914 494.001 15.3287 481.241C6.74335 468.481 1.57104 453.734 0.305318 438.407C-0.960409 423.08 1.72267 407.684 8.09854 393.688C14.4744 379.693 24.3303 367.565 36.7259 358.461L90 431H180Z" fill="#2D9AFF"/>
<rect x="180" y="341" width="180" height="119" fill="#2D9AFF"/>
<rect x="250" y="460" width="40" height="19" fill="#2D9AFF"/>
<rect x="180" y="479" width="180" height="42" fill="#2D9AFF"/>
<rect x="281" y="491" width="63" height="18" rx="9" fill="#7AB8F4"/>
<circle cx="204" cy="500" r="9" fill="#7AB8F4"/>
<circle cx="232" cy="500" r="9" fill="#7AB8F4"/>
</g>
<defs>
<clipPath id="clip0_451_381">
<rect width="360" height="521" fill="white"/>
</clipPath>
<clipPath id="clip1_451_381">
<rect width="90" height="110.41" fill="white" transform="translate(90 -19)"/>
</clipPath>
<clipPath id="clip2_451_381">
<rect width="110.41" height="90" fill="white" transform="translate(0 -19)"/>
</clipPath>
<clipPath id="clip3_451_381">
<rect width="90" height="90" fill="white" transform="translate(270 -19)"/>
</clipPath>
</defs>
</svg>
