<svg width="217" height="205" viewBox="0 0 217 205" fill="none" xmlns="http://www.w3.org/2000/svg">
<g clip-path="url(#clip0_644_1694)">
<path d="M190.566 34.766C177.578 5.15295 146.405 -5.99697 121.808 13.886C112.203 21.6429 106.211 33.9882 94.45 38.942C83.4149 43.5878 69.4357 42.2202 57.5028 44.7362C32.0919 50.0606 -2.12003 70.262 0.489973 101.389C1.63315 115.024 10.8308 130.167 15.3774 142.924C20.5974 157.603 23.7294 175.967 37.5468 184.742C61.2351 199.807 89.8094 187.493 111.149 175.346C122.633 168.816 128.954 164.801 141.32 167.041C152.768 169.129 163.077 176.437 174.264 167.766C182.663 161.257 183.357 148.066 190.409 140.32C198.354 131.592 206.409 130.96 210.538 117.842C215.544 101.927 208.168 91.9824 203.183 77.7631C198.197 63.5439 196.684 48.6982 190.566 34.766Z" fill="#BEE1FE"/>
<g opacity="0.7">
<path d="M190.566 34.766C177.578 5.15295 146.405 -5.99697 121.808 13.886C112.203 21.6429 106.211 33.9882 94.45 38.942C83.4149 43.5878 69.4357 42.2202 57.5028 44.7362C32.0919 50.0606 -2.12003 70.262 0.489973 101.389C1.63315 115.024 10.8308 130.167 15.3774 142.924C20.5974 157.603 23.7294 175.967 37.5468 184.742C61.2351 199.807 89.8094 187.493 111.149 175.346C122.633 168.816 128.954 164.801 141.32 167.041C152.768 169.129 163.077 176.437 174.264 167.766C182.663 161.257 183.357 148.066 190.409 140.32C198.354 131.592 206.409 130.96 210.538 117.842C215.544 101.927 208.168 91.9824 203.183 77.7631C198.197 63.5439 196.684 48.6982 190.566 34.766Z" fill="white"/>
</g>
<path d="M91.7408 209.469C136.305 209.469 172.432 207.218 172.432 204.442C172.432 201.666 136.305 199.415 91.7408 199.415C47.1765 199.415 11.05 201.666 11.05 204.442C11.05 207.218 47.1765 209.469 91.7408 209.469Z" fill="#1F92FD"/>
<path opacity="0.8" d="M91.7408 209.469C136.305 209.469 172.432 207.218 172.432 204.442C172.432 201.666 136.305 199.415 91.7408 199.415C47.1765 199.415 11.05 201.666 11.05 204.442C11.05 207.218 47.1765 209.469 91.7408 209.469Z" fill="white"/>
<path d="M152.376 13.2909H71.2419C65.6404 13.2909 61.0994 17.8319 61.0994 23.4334V194.722C61.0994 200.324 65.6404 204.865 71.2419 204.865H152.376C157.978 204.865 162.519 200.324 162.519 194.722V23.4334C162.519 17.8319 157.978 13.2909 152.376 13.2909Z" fill="#A9D7FF"/>
<path d="M158.009 34.3275H65.6043V183.828H158.009V34.3275Z" fill="white" stroke="#DFF0FF" stroke-width="1.33739" stroke-miterlimit="10"/>
<path d="M125.972 94.8647C133.794 87.0429 133.794 74.3611 125.972 66.5392C118.15 58.7174 105.468 58.7174 97.6463 66.5393C89.8244 74.3611 89.8244 87.0429 97.6463 94.8647C105.468 102.687 118.15 102.687 125.972 94.8647Z" fill="#37474F"/>
<path d="M138.105 174.427H85.5186C85.4002 174.428 85.2829 174.405 85.1734 174.36C85.0638 174.315 84.9642 174.249 84.8803 174.166C84.7964 174.083 84.7298 173.983 84.6843 173.874C84.6389 173.765 84.6155 173.648 84.6155 173.529C84.6148 173.41 84.6377 173.293 84.6828 173.183C84.728 173.073 84.7945 172.973 84.8784 172.889C84.9624 172.805 85.0623 172.739 85.1721 172.694C85.282 172.648 85.3998 172.626 85.5186 172.626H138.105C138.223 172.626 138.34 172.65 138.45 172.695C138.559 172.74 138.658 172.807 138.742 172.891C138.825 172.975 138.891 173.075 138.936 173.184C138.981 173.294 139.003 173.411 139.003 173.529C139.003 173.767 138.908 173.996 138.74 174.164C138.571 174.333 138.343 174.427 138.105 174.427Z" fill="#37474F"/>
<path d="M139.817 111.991H83.8012C82.6451 111.991 81.7079 112.928 81.7079 114.084V120.687C81.7079 121.843 82.6451 122.78 83.8012 122.78H139.817C140.973 122.78 141.91 121.843 141.91 120.687V114.084C141.91 112.928 140.973 111.991 139.817 111.991Z" fill="#37474F"/>
<path d="M139.817 132.171H83.8012C82.6451 132.171 81.7079 133.108 81.7079 134.264V140.868C81.7079 142.024 82.6451 142.961 83.8012 142.961H139.817C140.973 142.961 141.91 142.024 141.91 140.868V134.264C141.91 133.108 140.973 132.171 139.817 132.171Z" fill="#37474F"/>
<path d="M121.782 90.6931L115.889 87.3001V84.497C116.742 83.4646 117.36 82.2586 117.7 80.963C117.903 81.0351 118.116 81.0721 118.331 81.0726C119.062 81.0726 119.527 78.8072 119.605 77.189C120.456 75.3881 119.297 74.3336 119.297 74.3336C119.297 74.3336 119.777 73.8534 120.096 71.9272C120.414 70.001 118.974 70.8049 117.851 69.0405C116.729 67.2762 115.925 65.3552 112.24 65.3552C111.224 65.3218 110.222 65.5947 109.364 66.1384C108.506 66.682 107.831 67.4713 107.427 68.4037C106.51 68.407 105.595 68.5138 104.702 68.7221C103.575 69.0405 103.256 72.7311 104.217 74.177C104.647 74.9672 104.876 75.8509 104.885 76.7505C104.629 76.4373 104.363 76.3538 104.217 77.0637C103.898 78.6662 105.182 80.9108 105.182 80.9108L105.845 80.7229C106.179 82.1075 106.824 83.398 107.73 84.497V87.3001L101.836 90.6931C101.148 91.0905 100.576 91.6618 100.179 92.3499C99.7811 93.038 99.5715 93.8186 99.5708 94.6133V96.5551C103.076 99.2629 107.38 100.732 111.809 100.732C116.238 100.732 120.542 99.2629 124.047 96.5551V94.6133C124.048 93.8184 123.839 93.0374 123.441 92.3491C123.043 91.6609 122.471 91.0896 121.782 90.6931Z" fill="#DDFFFF"/>
<path d="M89.3344 140.278C89.1993 140.276 89.0702 140.222 88.9742 140.126C88.9229 140.081 88.8819 140.024 88.854 139.961C88.8261 139.898 88.8119 139.83 88.8124 139.761C88.814 139.667 88.8411 139.575 88.8907 139.495L89.8303 137.992L87.9981 138.049C87.9291 138.053 87.8599 138.043 87.7951 138.019C87.7303 137.994 87.6714 137.957 87.6223 137.908C87.5371 137.812 87.4901 137.689 87.4901 137.561C87.4901 137.433 87.5371 137.309 87.6223 137.214C87.6704 137.163 87.7289 137.124 87.7939 137.099C87.8589 137.074 87.9286 137.063 87.9981 137.068L89.8042 137.135L88.8751 135.637C88.8245 135.556 88.7974 135.462 88.7968 135.366C88.7963 135.297 88.8104 135.229 88.8383 135.166C88.8662 135.103 88.9072 135.046 88.9586 135C89.0545 134.905 89.1836 134.851 89.3188 134.849C89.4077 134.85 89.4947 134.875 89.5695 134.924C89.6444 134.972 89.704 135.04 89.7416 135.121L90.6342 136.733L91.5164 135.131C91.5582 135.045 91.6227 134.973 91.7027 134.921C91.7828 134.87 91.8754 134.841 91.9705 134.839C92.0365 134.839 92.1017 134.853 92.1619 134.88C92.2221 134.907 92.276 134.946 92.3203 134.995C92.4161 135.095 92.4686 135.228 92.4664 135.366C92.4661 135.456 92.4428 135.544 92.3986 135.622L91.4537 137.135L93.286 137.068C93.3555 137.063 93.4252 137.074 93.4902 137.099C93.5551 137.124 93.6137 137.163 93.6618 137.214C93.7508 137.306 93.7996 137.43 93.7975 137.558C93.7972 137.688 93.7488 137.812 93.6618 137.908C93.6126 137.957 93.5537 137.994 93.489 138.019C93.4242 138.043 93.355 138.053 93.286 138.049L91.4433 137.992L92.362 139.479C92.4135 139.562 92.4406 139.658 92.4403 139.756C92.4403 139.894 92.3853 140.027 92.2874 140.125C92.1895 140.223 92.0568 140.278 91.9183 140.278C91.8288 140.277 91.7416 140.249 91.6674 140.199C91.5932 140.149 91.5353 140.079 91.5007 139.996L90.629 138.43L89.7625 139.996C89.724 140.078 89.6637 140.148 89.5882 140.197C89.5126 140.247 89.4248 140.275 89.3344 140.278Z" fill="#DDFFFF"/>
<path d="M97.8013 140.278C97.6661 140.276 97.537 140.222 97.4411 140.126C97.3897 140.081 97.3487 140.024 97.3208 139.961C97.2929 139.898 97.2788 139.83 97.2793 139.761C97.2809 139.667 97.3079 139.575 97.3576 139.495L98.2972 137.992L96.4702 138.049C96.4005 138.052 96.3308 138.041 96.2654 138.017C96.1999 137.993 96.14 137.956 96.0891 137.908C96.0198 137.837 95.9736 137.746 95.9566 137.648C95.9396 137.55 95.9524 137.449 95.9935 137.358C96.0347 137.267 96.1021 137.191 96.1871 137.139C96.2721 137.088 96.3707 137.063 96.4702 137.068L98.2711 137.135L97.3419 135.637C97.2914 135.556 97.2643 135.462 97.2636 135.366C97.2631 135.297 97.2773 135.229 97.3052 135.166C97.3331 135.103 97.3741 135.046 97.4254 135C97.5214 134.905 97.6505 134.851 97.7856 134.849C97.8746 134.85 97.9615 134.875 98.0364 134.924C98.1112 134.972 98.1709 135.04 98.2084 135.121L99.1011 136.733L99.9832 135.131C100.025 135.045 100.09 134.973 100.17 134.921C100.25 134.87 100.342 134.841 100.437 134.839C100.503 134.838 100.569 134.852 100.629 134.879C100.689 134.906 100.743 134.946 100.787 134.995C100.835 135.044 100.874 135.102 100.9 135.165C100.926 135.229 100.939 135.297 100.938 135.366C100.937 135.456 100.911 135.544 100.865 135.622L99.9206 137.135L101.758 137.078C101.827 137.073 101.896 137.084 101.96 137.109C102.024 137.135 102.082 137.174 102.129 137.224C102.218 137.317 102.266 137.44 102.264 137.569C102.264 137.698 102.216 137.823 102.129 137.918C102.08 137.967 102.022 138.005 101.959 138.029C101.895 138.053 101.826 138.064 101.758 138.059L99.9102 138.002L100.829 139.49C100.88 139.573 100.907 139.669 100.907 139.766C100.907 139.905 100.852 140.038 100.754 140.135C100.656 140.233 100.524 140.288 100.385 140.288C100.296 140.287 100.208 140.26 100.134 140.21C100.06 140.16 100.002 140.089 99.9676 140.006L99.0958 138.44L98.2293 140.006C98.1894 140.086 98.1285 140.154 98.0531 140.202C97.9776 140.25 97.8906 140.276 97.8013 140.278Z" fill="#DDFFFF"/>
<path d="M106.273 140.278C106.136 140.277 106.005 140.223 105.908 140.126C105.857 140.081 105.816 140.024 105.788 139.961C105.76 139.898 105.746 139.83 105.746 139.761C105.748 139.667 105.775 139.575 105.824 139.495L106.764 137.992L104.937 138.049C104.839 138.053 104.741 138.027 104.657 137.976C104.574 137.924 104.507 137.849 104.466 137.759C104.425 137.67 104.412 137.57 104.428 137.473C104.444 137.376 104.488 137.285 104.556 137.214C104.605 137.163 104.665 137.124 104.731 137.099C104.796 137.074 104.867 137.063 104.937 137.068L106.738 137.135L105.809 135.637C105.758 135.556 105.731 135.462 105.73 135.366C105.732 135.297 105.747 135.23 105.775 135.167C105.803 135.104 105.843 135.048 105.892 135C105.989 134.904 106.121 134.85 106.258 134.849C106.346 134.851 106.432 134.877 106.505 134.925C106.579 134.973 106.638 135.041 106.675 135.121L107.568 136.733L108.45 135.131C108.492 135.045 108.556 134.973 108.636 134.921C108.716 134.87 108.809 134.841 108.904 134.839C108.97 134.838 109.036 134.852 109.096 134.879C109.156 134.906 109.21 134.946 109.254 134.995C109.302 135.044 109.341 135.102 109.367 135.165C109.393 135.229 109.406 135.297 109.405 135.366C109.403 135.456 109.378 135.544 109.332 135.622L108.387 137.135L110.225 137.068C110.292 137.061 110.361 137.069 110.425 137.09C110.489 137.112 110.548 137.148 110.598 137.194C110.647 137.241 110.686 137.297 110.712 137.36C110.737 137.423 110.749 137.49 110.747 137.558C110.748 137.687 110.701 137.811 110.616 137.908C110.567 137.957 110.508 137.994 110.444 138.019C110.379 138.043 110.31 138.053 110.241 138.049L108.398 137.992L109.311 139.479C109.363 139.562 109.39 139.658 109.39 139.756C109.388 139.824 109.373 139.892 109.345 139.955C109.317 140.017 109.277 140.074 109.228 140.121C109.182 140.17 109.128 140.209 109.067 140.236C109.005 140.263 108.94 140.277 108.873 140.278C108.784 140.276 108.698 140.249 108.624 140.199C108.551 140.149 108.494 140.078 108.461 139.996L107.584 138.43L106.717 139.996C106.678 140.081 106.615 140.152 106.537 140.202C106.458 140.252 106.367 140.278 106.273 140.278Z" fill="#DDFFFF"/>
<path d="M114.74 140.278C114.603 140.277 114.472 140.223 114.375 140.126C114.276 140.03 114.22 139.899 114.218 139.761C114.217 139.667 114.242 139.575 114.291 139.495L115.231 137.992L113.404 138.049C113.334 138.052 113.264 138.041 113.199 138.017C113.134 137.993 113.074 137.956 113.023 137.908C112.938 137.812 112.891 137.689 112.891 137.561C112.891 137.433 112.938 137.309 113.023 137.214C113.073 137.165 113.133 137.127 113.198 137.102C113.264 137.077 113.334 137.065 113.404 137.068L115.21 137.135L114.286 135.637C114.235 135.556 114.208 135.462 114.208 135.366C114.209 135.297 114.225 135.23 114.252 135.167C114.28 135.104 114.32 135.048 114.37 135C114.467 134.904 114.598 134.85 114.735 134.849C114.824 134.85 114.911 134.875 114.986 134.924C115.061 134.972 115.12 135.04 115.158 135.121L116.045 136.733L116.927 135.131C116.969 135.045 117.034 134.973 117.114 134.921C117.194 134.87 117.286 134.841 117.381 134.839C117.448 134.838 117.513 134.852 117.573 134.879C117.634 134.906 117.687 134.946 117.731 134.995C117.78 135.044 117.818 135.102 117.844 135.165C117.87 135.229 117.883 135.297 117.883 135.366C117.881 135.456 117.856 135.544 117.81 135.622L116.865 137.135L118.702 137.068C118.77 137.061 118.838 137.069 118.902 137.09C118.966 137.112 119.025 137.148 119.075 137.194C119.124 137.241 119.163 137.297 119.189 137.36C119.215 137.423 119.227 137.49 119.224 137.558C119.225 137.687 119.179 137.811 119.094 137.908C119.044 137.957 118.986 137.994 118.921 138.019C118.856 138.043 118.787 138.053 118.718 138.049L116.875 137.992L117.789 139.479C117.84 139.562 117.867 139.658 117.867 139.756C117.867 139.825 117.853 139.893 117.825 139.956C117.797 140.019 117.756 140.075 117.705 140.121C117.66 140.17 117.605 140.209 117.544 140.236C117.483 140.263 117.417 140.277 117.35 140.278C117.261 140.276 117.175 140.249 117.102 140.199C117.028 140.149 116.971 140.078 116.938 139.996L116.061 138.43L115.194 139.996C115.154 140.082 115.09 140.155 115.01 140.205C114.929 140.255 114.835 140.28 114.74 140.278Z" fill="#DDFFFF"/>
<path d="M123.207 140.278C123.07 140.277 122.939 140.223 122.842 140.126C122.761 140.045 122.709 139.938 122.695 139.824C122.681 139.71 122.705 139.594 122.763 139.495L123.698 137.992L121.871 138.049C121.801 138.052 121.731 138.041 121.666 138.017C121.6 137.993 121.54 137.956 121.49 137.908C121.404 137.812 121.357 137.689 121.357 137.561C121.357 137.433 121.404 137.309 121.49 137.214C121.54 137.165 121.6 137.127 121.665 137.102C121.731 137.077 121.801 137.065 121.871 137.068L123.677 137.135L122.748 135.637C122.697 135.556 122.67 135.462 122.669 135.366C122.671 135.228 122.728 135.097 122.826 135C122.923 134.904 123.054 134.85 123.191 134.849C123.28 134.85 123.367 134.875 123.442 134.924C123.517 134.972 123.577 135.04 123.614 135.121L124.502 136.733L125.384 135.131C125.426 135.045 125.49 134.973 125.57 134.921C125.65 134.87 125.743 134.841 125.838 134.839C125.905 134.838 125.971 134.852 126.032 134.879C126.093 134.906 126.148 134.946 126.193 134.995C126.289 135.095 126.341 135.228 126.339 135.366C126.337 135.456 126.312 135.544 126.266 135.622L125.321 137.135L127.158 137.068C127.226 137.061 127.294 137.069 127.359 137.09C127.423 137.112 127.482 137.148 127.531 137.194C127.581 137.241 127.62 137.297 127.645 137.36C127.671 137.423 127.683 137.49 127.68 137.558C127.682 137.687 127.635 137.811 127.55 137.908C127.501 137.957 127.442 137.994 127.377 138.019C127.312 138.043 127.243 138.053 127.174 138.049L125.331 137.992L126.245 139.479C126.296 139.562 126.324 139.658 126.323 139.756C126.324 139.825 126.31 139.893 126.282 139.956C126.254 140.019 126.213 140.075 126.161 140.121C126.116 140.17 126.061 140.209 126 140.236C125.939 140.263 125.873 140.277 125.807 140.278C125.718 140.276 125.631 140.249 125.558 140.199C125.485 140.149 125.428 140.078 125.394 139.996L124.517 138.43L123.651 139.996C123.612 140.081 123.549 140.152 123.47 140.202C123.392 140.252 123.3 140.278 123.207 140.278Z" fill="#DDFFFF"/>
<path d="M131.674 140.278C131.539 140.276 131.41 140.222 131.314 140.126C131.262 140.081 131.221 140.024 131.193 139.961C131.165 139.898 131.151 139.83 131.152 139.761C131.153 139.667 131.18 139.575 131.23 139.495L132.164 137.992L130.337 138.049C130.27 138.054 130.203 138.045 130.139 138.023C130.076 138 130.017 137.965 129.968 137.919C129.919 137.872 129.88 137.817 129.854 137.755C129.828 137.692 129.815 137.626 129.815 137.558C129.815 137.494 129.827 137.431 129.852 137.372C129.876 137.313 129.911 137.259 129.956 137.214C130.004 137.163 130.063 137.124 130.128 137.099C130.193 137.074 130.263 137.063 130.332 137.068L132.138 137.135L131.209 135.637C131.159 135.556 131.132 135.462 131.131 135.366C131.133 135.228 131.189 135.097 131.288 135C131.385 134.904 131.516 134.85 131.653 134.849C131.742 134.85 131.829 134.875 131.904 134.924C131.979 134.972 132.038 135.04 132.076 135.121L132.963 136.733L133.851 135.131C133.892 135.046 133.956 134.974 134.035 134.923C134.114 134.871 134.205 134.842 134.299 134.839C134.366 134.838 134.432 134.852 134.494 134.879C134.555 134.906 134.61 134.946 134.654 134.995C134.75 135.095 134.803 135.228 134.801 135.366C134.8 135.456 134.777 135.544 134.733 135.622L133.788 137.135L135.62 137.068C135.69 137.063 135.759 137.074 135.824 137.099C135.889 137.124 135.948 137.163 135.996 137.214C136.085 137.306 136.134 137.43 136.132 137.558C136.131 137.688 136.083 137.812 135.996 137.908C135.947 137.957 135.888 137.994 135.823 138.019C135.758 138.043 135.689 138.053 135.62 138.049L133.777 137.992L134.691 139.479C134.742 139.562 134.77 139.658 134.769 139.756C134.767 139.894 134.711 140.025 134.613 140.121C134.518 140.218 134.388 140.275 134.252 140.278C134.164 140.276 134.077 140.249 134.004 140.199C133.931 140.149 133.874 140.078 133.84 139.996L132.963 138.43L132.097 139.996C132.059 140.077 132 140.147 131.925 140.197C131.85 140.246 131.763 140.275 131.674 140.278Z" fill="#DDFFFF"/>
<g style="mix-blend-mode:multiply">
<path d="M158.009 34.5259H65.6043V40.3149H158.009V34.5259Z" fill="#37474F"/>
</g>
<path d="M121.855 23.8614H101.758C101.395 23.8614 101.047 23.7173 100.791 23.4609C100.534 23.2044 100.39 22.8565 100.39 22.4938C100.39 22.1311 100.534 21.7832 100.791 21.5267C101.047 21.2702 101.395 21.1262 101.758 21.1262H121.855C122.218 21.1262 122.566 21.2702 122.822 21.5267C123.079 21.7832 123.223 22.1311 123.223 22.4938C123.223 22.8565 123.079 23.2044 122.822 23.4609C122.566 23.7173 122.218 23.8614 121.855 23.8614Z" fill="#37474F" stroke="#DFF0FF" stroke-width="1.33739" stroke-linecap="round" stroke-linejoin="round"/>
<path d="M117.287 192.274C117.289 191.19 116.968 190.129 116.366 189.227C115.764 188.325 114.908 187.622 113.906 187.206C112.905 186.791 111.802 186.682 110.738 186.893C109.675 187.104 108.698 187.627 107.931 188.393C107.164 189.16 106.642 190.137 106.431 191.201C106.219 192.265 106.328 193.367 106.744 194.369C107.159 195.371 107.863 196.227 108.765 196.829C109.667 197.43 110.727 197.751 111.812 197.75C113.264 197.749 114.656 197.171 115.682 196.145C116.709 195.118 117.286 193.726 117.287 192.274Z" fill="#37474F"/>
<path d="M114.589 189.497H109.035V195.051H114.589V189.497Z" fill="#37474F" stroke="#DFF0FF" stroke-width="1.33739" stroke-linecap="round" stroke-linejoin="round"/>
<path d="M177.97 129.248C177.97 129.248 170.693 110.759 177.171 108.561C183.916 106.27 183.618 118.479 183.357 124.43C182.809 137.146 181.405 139.511 180.356 136.405L177.97 129.248ZM175.783 143.671C177.782 146.281 178.346 143.577 174.739 131.367C173.048 125.625 169.373 114.011 163.735 118.37C158.322 122.546 171.205 137.684 171.205 137.684L175.783 143.671ZM171.92 154.267C173.825 155.959 173.862 153.824 169.336 145.007C167.212 140.878 162.717 132.521 159.037 136.655C155.503 140.643 167.546 150.337 167.546 150.337L171.92 154.267ZM167.744 166.869C169.649 168.565 169.686 166.425 165.16 157.613C163.036 153.484 158.541 145.122 154.861 149.261C151.348 153.26 163.354 162.954 163.354 162.954L167.744 166.869ZM179.802 141.217C176.754 142.408 179.176 143.702 191.907 143.666C197.879 143.666 210.073 143.394 207.473 136.76C204.983 130.386 186.849 138.503 186.849 138.503L179.802 141.217ZM176.331 149.695C173.105 150.253 175.224 152.007 187.711 154.502C193.562 155.677 205.563 157.843 204.336 150.848C203.162 144.104 183.775 148.458 183.775 148.458L176.331 149.695ZM172.447 160.046C169.702 160.443 171.455 161.972 181.953 164.373C186.875 165.501 196.976 167.615 196.099 161.649C195.264 155.907 178.769 159.153 178.769 159.153L172.447 160.046ZM169.498 169.635C166.81 170.319 168.715 171.655 179.416 172.929C184.427 173.524 194.695 174.558 193.197 168.716C191.751 163.11 175.694 168.074 175.694 168.074L169.498 169.635ZM185.231 130.814C183.665 134.322 186.917 133.789 197.973 124.143C203.151 119.617 213.539 110.148 205.312 105.434C197.414 100.903 188.922 122.765 188.922 122.765L185.231 130.814ZM169.905 182.127C168.25 183.092 169.874 183.468 177.464 181.954C181.024 181.25 188.264 179.684 185.816 176.593C183.446 173.618 173.737 179.882 173.737 179.882L169.905 182.127Z" fill="#C4E3FF"/>
<path opacity="0.3" d="M177.97 129.248C177.97 129.248 170.693 110.759 177.171 108.561C183.916 106.27 183.618 118.479 183.357 124.43C182.809 137.146 181.405 139.511 180.356 136.405L177.97 129.248ZM175.783 143.671C177.782 146.281 178.346 143.577 174.739 131.367C173.048 125.625 169.373 114.011 163.735 118.37C158.322 122.546 171.205 137.684 171.205 137.684L175.783 143.671ZM171.92 154.267C173.825 155.959 173.862 153.824 169.336 145.007C167.212 140.878 162.717 132.521 159.037 136.655C155.503 140.643 167.546 150.337 167.546 150.337L171.92 154.267ZM167.744 166.869C169.649 168.565 169.686 166.425 165.16 157.613C163.036 153.484 158.541 145.122 154.861 149.261C151.348 153.26 163.354 162.954 163.354 162.954L167.744 166.869ZM179.802 141.217C176.754 142.408 179.176 143.702 191.907 143.666C197.879 143.666 210.073 143.394 207.473 136.76C204.983 130.386 186.849 138.503 186.849 138.503L179.802 141.217ZM176.331 149.695C173.105 150.253 175.224 152.007 187.711 154.502C193.562 155.677 205.563 157.843 204.336 150.848C203.162 144.104 183.775 148.458 183.775 148.458L176.331 149.695ZM172.447 160.046C169.702 160.443 171.455 161.972 181.953 164.373C186.875 165.501 196.976 167.615 196.099 161.649C195.264 155.907 178.769 159.153 178.769 159.153L172.447 160.046ZM169.498 169.635C166.81 170.319 168.715 171.655 179.416 172.929C184.427 173.524 194.695 174.558 193.197 168.716C191.751 163.11 175.694 168.074 175.694 168.074L169.498 169.635ZM185.231 130.814C183.665 134.322 186.917 133.789 197.973 124.143C203.151 119.617 213.539 110.148 205.312 105.434C197.414 100.903 188.922 122.765 188.922 122.765L185.231 130.814ZM169.905 182.127C168.25 183.092 169.874 183.468 177.464 181.954C181.024 181.25 188.264 179.684 185.816 176.593C183.446 173.618 173.737 179.882 173.737 179.882L169.905 182.127Z" fill="white"/>
<path d="M181.18 137.856L179.912 116.751ZM177.166 144.819L169.148 126.669ZM197.858 139.542L178.643 142.298ZM173.011 154.602L162.608 141.254ZM174.838 150.509L189.172 151.229ZM171.445 160.745L182.407 161.831ZM168.798 167.25L163.354 159.059ZM168.172 170.141L181.06 170.262ZM165.562 194.321C165.648 194.314 165.729 194.273 165.785 194.208C165.842 194.142 165.871 194.057 165.865 193.971C165.045 181.662 169.806 161.502 177.443 144.955C182.323 134.379 201.455 113.593 201.658 113.384C201.72 113.323 201.754 113.239 201.754 113.152C201.754 113.065 201.72 112.982 201.658 112.92C201.628 112.89 201.592 112.865 201.553 112.849C201.514 112.833 201.471 112.824 201.429 112.824C201.386 112.824 201.344 112.833 201.304 112.849C201.265 112.865 201.229 112.89 201.199 112.92C201.006 113.129 181.796 133.993 176.874 144.663C169.096 161.612 164.398 181.406 165.233 194.013C165.24 194.096 165.277 194.173 165.338 194.23C165.399 194.287 165.479 194.319 165.562 194.321ZM181.175 138.179C181.261 138.174 181.342 138.135 181.4 138.07C181.457 138.006 181.487 137.921 181.483 137.835L180.235 116.72C180.233 116.677 180.223 116.635 180.204 116.596C180.186 116.557 180.16 116.522 180.128 116.494C180.096 116.465 180.058 116.443 180.018 116.429C179.977 116.415 179.934 116.409 179.891 116.412C179.805 116.417 179.724 116.457 179.666 116.521C179.609 116.586 179.579 116.67 179.583 116.757L180.851 137.861C180.855 137.944 180.891 138.022 180.952 138.08C181.012 138.137 181.092 138.169 181.175 138.169V138.179ZM177.281 145.117C177.359 145.081 177.42 145.017 177.452 144.937C177.483 144.857 177.482 144.768 177.448 144.689L169.425 126.539C169.39 126.46 169.326 126.398 169.245 126.367C169.165 126.335 169.076 126.337 168.997 126.372C168.918 126.406 168.856 126.471 168.825 126.551C168.793 126.631 168.795 126.721 168.83 126.8L176.848 144.95C176.873 145.008 176.914 145.058 176.967 145.093C177.02 145.128 177.082 145.147 177.145 145.148C177.199 145.151 177.253 145.14 177.302 145.117H177.281ZM178.669 142.611L197.874 139.865C197.92 139.865 197.966 139.854 198.008 139.834C198.05 139.814 198.087 139.786 198.117 139.75C198.147 139.715 198.17 139.674 198.183 139.629C198.196 139.585 198.199 139.538 198.193 139.492C198.187 139.446 198.171 139.402 198.146 139.363C198.122 139.323 198.089 139.29 198.05 139.264C198.012 139.238 197.968 139.22 197.923 139.213C197.877 139.205 197.83 139.207 197.785 139.218L178.581 141.964C178.495 141.969 178.415 142.009 178.358 142.073C178.301 142.138 178.272 142.223 178.278 142.308C178.284 142.394 178.323 142.474 178.388 142.531C178.452 142.588 178.537 142.617 178.622 142.611H178.669ZM173.194 154.863C173.262 154.809 173.306 154.731 173.317 154.645C173.328 154.559 173.304 154.472 173.251 154.403L162.842 141.03C162.789 140.96 162.711 140.915 162.624 140.904C162.537 140.893 162.45 140.916 162.38 140.97C162.311 141.023 162.266 141.101 162.255 141.188C162.244 141.275 162.267 141.362 162.32 141.431L172.75 154.826C172.78 154.865 172.819 154.897 172.863 154.918C172.908 154.94 172.956 154.951 173.006 154.951C173.084 154.947 173.158 154.916 173.215 154.863H173.194ZM189.459 151.245C189.462 151.159 189.431 151.075 189.372 151.011C189.314 150.948 189.232 150.91 189.146 150.906L174.838 150.18C174.758 150.186 174.682 150.221 174.626 150.278C174.569 150.336 174.536 150.412 174.532 150.493C174.528 150.573 174.554 150.652 174.605 150.715C174.655 150.778 174.727 150.82 174.807 150.833L189.141 151.558C189.227 151.561 189.311 151.53 189.375 151.471C189.438 151.413 189.476 151.331 189.48 151.245H189.459ZM182.71 161.863C182.715 161.82 182.711 161.776 182.699 161.735C182.687 161.693 182.667 161.654 182.64 161.621C182.612 161.587 182.579 161.559 182.541 161.539C182.502 161.519 182.46 161.506 182.417 161.502L171.455 160.422C171.413 160.418 171.37 160.422 171.329 160.434C171.288 160.446 171.25 160.467 171.217 160.494C171.184 160.521 171.157 160.555 171.137 160.592C171.117 160.63 171.104 160.672 171.1 160.714C171.093 160.8 171.12 160.885 171.174 160.951C171.229 161.018 171.307 161.06 171.393 161.069L182.355 162.155H182.386C182.47 162.161 182.553 162.133 182.618 162.079C182.682 162.024 182.723 161.947 182.731 161.863H182.71ZM168.955 167.521C169.028 167.473 169.078 167.398 169.096 167.313C169.113 167.228 169.097 167.14 169.049 167.067L163.631 158.877C163.581 158.806 163.506 158.758 163.421 158.741C163.337 158.724 163.249 158.741 163.177 158.788C163.104 158.836 163.053 158.911 163.036 158.996C163.018 159.081 163.035 159.169 163.083 159.242L168.501 167.432C168.532 167.477 168.573 167.514 168.621 167.539C168.67 167.565 168.723 167.578 168.778 167.578C168.848 167.582 168.918 167.562 168.976 167.521H168.955ZM181.389 170.262C181.388 170.176 181.353 170.094 181.293 170.032C181.233 169.971 181.151 169.935 181.065 169.933L168.177 169.813C168.091 169.813 168.009 169.847 167.948 169.907C167.888 169.968 167.854 170.05 167.854 170.136C167.852 170.179 167.86 170.222 167.875 170.263C167.891 170.303 167.915 170.339 167.945 170.37C167.975 170.401 168.011 170.425 168.051 170.441C168.091 170.458 168.134 170.466 168.177 170.465L181.065 170.585C181.109 170.587 181.154 170.581 181.195 170.565C181.236 170.55 181.274 170.527 181.306 170.496C181.338 170.466 181.364 170.43 181.382 170.389C181.4 170.349 181.409 170.306 181.41 170.262H181.389ZM164.095 189.534C164.121 189.476 166.319 183.421 172.927 181.975C173.013 181.956 173.087 181.905 173.134 181.831C173.181 181.758 173.197 181.669 173.178 181.584C173.157 181.5 173.104 181.428 173.032 181.382C172.959 181.337 172.871 181.321 172.787 181.338C165.818 182.863 163.505 189.257 163.479 189.32C163.452 189.402 163.459 189.492 163.497 189.57C163.535 189.648 163.601 189.708 163.683 189.737H163.787C163.857 189.743 163.926 189.727 163.985 189.69C164.045 189.653 164.091 189.599 164.116 189.534H164.095ZM165.562 194.321C165.648 194.314 165.729 194.273 165.785 194.208C165.842 194.142 165.871 194.057 165.865 193.971C165.045 181.662 169.806 161.502 177.443 144.955C182.323 134.379 201.455 113.593 201.658 113.384C201.72 113.323 201.754 113.239 201.754 113.152C201.754 113.065 201.72 112.982 201.658 112.92C201.628 112.89 201.592 112.865 201.553 112.849C201.514 112.833 201.471 112.824 201.429 112.824C201.386 112.824 201.344 112.833 201.304 112.849C201.265 112.865 201.229 112.89 201.199 112.92C201.006 113.129 181.796 133.993 176.874 144.663C169.096 161.612 164.398 181.406 165.233 194.013C165.24 194.096 165.277 194.173 165.338 194.23C165.399 194.287 165.479 194.319 165.562 194.321ZM181.175 138.179C181.261 138.174 181.342 138.135 181.4 138.07C181.457 138.006 181.487 137.921 181.483 137.835L180.235 116.72C180.233 116.677 180.223 116.635 180.204 116.596C180.186 116.557 180.16 116.522 180.128 116.494C180.096 116.465 180.058 116.443 180.018 116.429C179.977 116.415 179.934 116.409 179.891 116.412C179.805 116.417 179.724 116.457 179.666 116.521C179.609 116.586 179.579 116.67 179.583 116.757L180.851 137.861C180.855 137.944 180.891 138.022 180.952 138.08C181.012 138.137 181.092 138.169 181.175 138.169V138.179ZM177.281 145.117C177.359 145.081 177.42 145.017 177.452 144.937C177.483 144.857 177.482 144.768 177.448 144.689L169.425 126.539C169.39 126.46 169.326 126.398 169.245 126.367C169.165 126.335 169.076 126.337 168.997 126.372C168.918 126.406 168.856 126.471 168.825 126.551C168.793 126.631 168.795 126.721 168.83 126.8L176.848 144.95C176.873 145.008 176.914 145.058 176.967 145.093C177.02 145.128 177.082 145.147 177.145 145.148C177.199 145.151 177.253 145.14 177.302 145.117H177.281ZM178.669 142.611L197.874 139.865C197.92 139.865 197.966 139.854 198.008 139.834C198.05 139.814 198.087 139.786 198.117 139.75C198.147 139.715 198.17 139.674 198.183 139.629C198.196 139.585 198.199 139.538 198.193 139.492C198.187 139.446 198.171 139.402 198.146 139.363C198.122 139.323 198.089 139.29 198.05 139.264C198.012 139.238 197.968 139.22 197.923 139.213C197.877 139.205 197.83 139.207 197.785 139.218L178.581 141.964C178.495 141.969 178.415 142.009 178.358 142.073C178.301 142.138 178.272 142.223 178.278 142.308C178.284 142.394 178.323 142.474 178.388 142.531C178.452 142.588 178.537 142.617 178.622 142.611H178.669ZM173.194 154.863C173.262 154.809 173.306 154.731 173.317 154.645C173.328 154.559 173.304 154.472 173.251 154.403L162.842 141.03C162.816 140.995 162.783 140.967 162.746 140.945C162.708 140.923 162.667 140.909 162.624 140.904C162.581 140.898 162.537 140.901 162.496 140.912C162.454 140.924 162.415 140.943 162.38 140.97C162.346 140.996 162.317 141.029 162.296 141.066C162.274 141.104 162.26 141.145 162.255 141.188C162.249 141.231 162.252 141.275 162.263 141.316C162.275 141.358 162.294 141.397 162.32 141.431L172.75 154.826C172.78 154.865 172.819 154.897 172.863 154.918C172.908 154.94 172.956 154.951 173.006 154.951C173.084 154.947 173.158 154.916 173.215 154.863H173.194ZM189.459 151.245C189.462 151.159 189.431 151.075 189.372 151.011C189.314 150.948 189.232 150.91 189.146 150.906L174.838 150.18C174.758 150.186 174.682 150.221 174.626 150.278C174.569 150.336 174.536 150.412 174.532 150.493C174.528 150.573 174.554 150.652 174.605 150.715C174.655 150.778 174.727 150.82 174.807 150.833L189.141 151.558C189.227 151.561 189.311 151.53 189.375 151.471C189.438 151.413 189.476 151.331 189.48 151.245H189.459ZM182.71 161.863C182.715 161.82 182.711 161.776 182.699 161.735C182.687 161.693 182.667 161.654 182.64 161.621C182.612 161.587 182.579 161.559 182.541 161.539C182.502 161.519 182.46 161.506 182.417 161.502L171.455 160.422C171.413 160.418 171.37 160.422 171.329 160.434C171.288 160.446 171.25 160.467 171.217 160.494C171.184 160.521 171.157 160.555 171.137 160.592C171.117 160.63 171.104 160.672 171.1 160.714C171.093 160.8 171.12 160.885 171.174 160.951C171.229 161.018 171.307 161.06 171.393 161.069L182.355 162.155H182.386C182.47 162.161 182.553 162.133 182.618 162.079C182.682 162.024 182.723 161.947 182.731 161.863H182.71ZM168.955 167.521C169.028 167.473 169.078 167.398 169.096 167.313C169.113 167.228 169.097 167.14 169.049 167.067L163.631 158.877C163.581 158.806 163.506 158.758 163.421 158.741C163.337 158.724 163.249 158.741 163.177 158.788C163.104 158.836 163.053 158.911 163.036 158.996C163.018 159.081 163.035 159.169 163.083 159.242L168.501 167.432C168.532 167.477 168.573 167.514 168.621 167.539C168.67 167.565 168.723 167.578 168.778 167.578C168.848 167.582 168.918 167.562 168.976 167.521H168.955ZM181.389 170.262C181.388 170.176 181.353 170.094 181.293 170.032C181.233 169.971 181.151 169.935 181.065 169.933L168.177 169.813C168.091 169.813 168.009 169.847 167.948 169.907C167.888 169.968 167.854 170.05 167.854 170.136C167.852 170.179 167.86 170.222 167.875 170.263C167.891 170.303 167.915 170.339 167.945 170.37C167.975 170.401 168.011 170.425 168.051 170.441C168.091 170.458 168.134 170.466 168.177 170.465L181.065 170.585C181.109 170.587 181.154 170.581 181.195 170.565C181.236 170.55 181.274 170.527 181.306 170.496C181.338 170.466 181.364 170.43 181.382 170.389C181.4 170.349 181.409 170.306 181.41 170.262H181.389ZM164.095 189.534C164.121 189.476 166.319 183.421 172.927 181.975C173.013 181.956 173.087 181.905 173.134 181.831C173.181 181.758 173.197 181.669 173.178 181.584C173.157 181.5 173.104 181.428 173.032 181.382C172.959 181.337 172.871 181.321 172.787 181.338C165.818 182.863 163.505 189.257 163.479 189.32C163.452 189.402 163.459 189.492 163.497 189.57C163.535 189.648 163.601 189.708 163.683 189.737H163.787C163.857 189.743 163.926 189.727 163.985 189.69C164.045 189.653 164.091 189.599 164.116 189.534H164.095Z" fill="#C4E3FF"/>
<path opacity="0.2" d="M181.18 137.856L179.912 116.751ZM177.166 144.819L169.148 126.669ZM197.858 139.542L178.643 142.298ZM173.011 154.602L162.608 141.254ZM174.838 150.509L189.172 151.229ZM171.445 160.745L182.407 161.831ZM168.798 167.25L163.354 159.059ZM168.172 170.141L181.06 170.262ZM165.562 194.321C165.648 194.314 165.729 194.273 165.785 194.208C165.842 194.142 165.871 194.057 165.865 193.971C165.045 181.662 169.806 161.502 177.443 144.955C182.323 134.379 201.455 113.593 201.658 113.384C201.72 113.323 201.754 113.239 201.754 113.152C201.754 113.065 201.72 112.982 201.658 112.92C201.628 112.89 201.592 112.865 201.553 112.849C201.514 112.833 201.471 112.824 201.429 112.824C201.386 112.824 201.344 112.833 201.304 112.849C201.265 112.865 201.229 112.89 201.199 112.92C201.006 113.129 181.796 133.993 176.874 144.663C169.096 161.612 164.398 181.406 165.233 194.013C165.24 194.096 165.277 194.173 165.338 194.23C165.399 194.287 165.479 194.319 165.562 194.321ZM181.175 138.179C181.261 138.174 181.342 138.135 181.4 138.07C181.457 138.006 181.487 137.921 181.483 137.835L180.235 116.72C180.233 116.677 180.223 116.635 180.204 116.596C180.186 116.557 180.16 116.522 180.128 116.494C180.096 116.465 180.058 116.443 180.018 116.429C179.977 116.415 179.934 116.409 179.891 116.412C179.805 116.417 179.724 116.457 179.666 116.521C179.609 116.586 179.579 116.67 179.583 116.757L180.851 137.861C180.855 137.944 180.891 138.022 180.952 138.08C181.012 138.137 181.092 138.169 181.175 138.169V138.179ZM177.281 145.117C177.359 145.081 177.42 145.017 177.452 144.937C177.483 144.857 177.482 144.768 177.448 144.689L169.425 126.539C169.39 126.46 169.326 126.398 169.245 126.367C169.165 126.335 169.076 126.337 168.997 126.372C168.918 126.406 168.856 126.471 168.825 126.551C168.793 126.631 168.795 126.721 168.83 126.8L176.848 144.95C176.873 145.008 176.914 145.058 176.967 145.093C177.02 145.128 177.082 145.147 177.145 145.148C177.199 145.151 177.253 145.14 177.302 145.117H177.281ZM178.669 142.611L197.874 139.865C197.92 139.865 197.966 139.854 198.008 139.834C198.05 139.814 198.087 139.786 198.117 139.75C198.147 139.715 198.17 139.674 198.183 139.629C198.196 139.585 198.199 139.538 198.193 139.492C198.187 139.446 198.171 139.402 198.146 139.363C198.122 139.323 198.089 139.29 198.05 139.264C198.012 139.238 197.968 139.22 197.923 139.213C197.877 139.205 197.83 139.207 197.785 139.218L178.581 141.964C178.495 141.969 178.415 142.009 178.358 142.073C178.301 142.138 178.272 142.223 178.278 142.308C178.284 142.394 178.323 142.474 178.388 142.531C178.452 142.588 178.537 142.617 178.622 142.611H178.669ZM173.194 154.863C173.262 154.809 173.306 154.731 173.317 154.645C173.328 154.559 173.304 154.472 173.251 154.403L162.842 141.03C162.789 140.96 162.711 140.915 162.624 140.904C162.537 140.893 162.45 140.916 162.38 140.97C162.311 141.023 162.266 141.101 162.255 141.188C162.244 141.275 162.267 141.362 162.32 141.431L172.75 154.826C172.78 154.865 172.819 154.897 172.863 154.918C172.908 154.94 172.956 154.951 173.006 154.951C173.084 154.947 173.158 154.916 173.215 154.863H173.194ZM189.459 151.245C189.462 151.159 189.431 151.075 189.372 151.011C189.314 150.948 189.232 150.91 189.146 150.906L174.838 150.18C174.758 150.186 174.682 150.221 174.626 150.278C174.569 150.336 174.536 150.412 174.532 150.493C174.528 150.573 174.554 150.652 174.605 150.715C174.655 150.778 174.727 150.82 174.807 150.833L189.141 151.558C189.227 151.561 189.311 151.53 189.375 151.471C189.438 151.413 189.476 151.331 189.48 151.245H189.459ZM182.71 161.863C182.715 161.82 182.711 161.776 182.699 161.735C182.687 161.693 182.667 161.654 182.64 161.621C182.612 161.587 182.579 161.559 182.541 161.539C182.502 161.519 182.46 161.506 182.417 161.502L171.455 160.422C171.413 160.418 171.37 160.422 171.329 160.434C171.288 160.446 171.25 160.467 171.217 160.494C171.184 160.521 171.157 160.555 171.137 160.592C171.117 160.63 171.104 160.672 171.1 160.714C171.093 160.8 171.12 160.885 171.174 160.951C171.229 161.018 171.307 161.06 171.393 161.069L182.355 162.155H182.386C182.47 162.161 182.553 162.133 182.618 162.079C182.682 162.024 182.723 161.947 182.731 161.863H182.71ZM168.955 167.521C169.028 167.473 169.078 167.398 169.096 167.313C169.113 167.228 169.097 167.14 169.049 167.067L163.631 158.877C163.581 158.806 163.506 158.758 163.421 158.741C163.337 158.724 163.249 158.741 163.177 158.788C163.104 158.836 163.053 158.911 163.036 158.996C163.018 159.081 163.035 159.169 163.083 159.242L168.501 167.432C168.532 167.477 168.573 167.514 168.621 167.539C168.67 167.565 168.723 167.578 168.778 167.578C168.848 167.582 168.918 167.562 168.976 167.521H168.955ZM181.389 170.262C181.388 170.176 181.353 170.094 181.293 170.032C181.233 169.971 181.151 169.935 181.065 169.933L168.177 169.813C168.091 169.813 168.009 169.847 167.948 169.907C167.888 169.968 167.854 170.05 167.854 170.136C167.852 170.179 167.86 170.222 167.875 170.263C167.891 170.303 167.915 170.339 167.945 170.37C167.975 170.401 168.011 170.425 168.051 170.441C168.091 170.458 168.134 170.466 168.177 170.465L181.065 170.585C181.109 170.587 181.154 170.581 181.195 170.565C181.236 170.55 181.274 170.527 181.306 170.496C181.338 170.466 181.364 170.43 181.382 170.389C181.4 170.349 181.409 170.306 181.41 170.262H181.389ZM164.095 189.534C164.121 189.476 166.319 183.421 172.927 181.975C173.013 181.956 173.087 181.905 173.134 181.831C173.181 181.758 173.197 181.669 173.178 181.584C173.157 181.5 173.104 181.428 173.032 181.382C172.959 181.337 172.871 181.321 172.787 181.338C165.818 182.863 163.505 189.257 163.479 189.32C163.452 189.402 163.459 189.492 163.497 189.57C163.535 189.648 163.601 189.708 163.683 189.737H163.787C163.857 189.743 163.926 189.727 163.985 189.69C164.045 189.653 164.091 189.599 164.116 189.534H164.095ZM165.562 194.321C165.648 194.314 165.729 194.273 165.785 194.208C165.842 194.142 165.871 194.057 165.865 193.971C165.045 181.662 169.806 161.502 177.443 144.955C182.323 134.379 201.455 113.593 201.658 113.384C201.72 113.323 201.754 113.239 201.754 113.152C201.754 113.065 201.72 112.982 201.658 112.92C201.628 112.89 201.592 112.865 201.553 112.849C201.514 112.833 201.471 112.824 201.429 112.824C201.386 112.824 201.344 112.833 201.304 112.849C201.265 112.865 201.229 112.89 201.199 112.92C201.006 113.129 181.796 133.993 176.874 144.663C169.096 161.612 164.398 181.406 165.233 194.013C165.24 194.096 165.277 194.173 165.338 194.23C165.399 194.287 165.479 194.319 165.562 194.321ZM181.175 138.179C181.261 138.174 181.342 138.135 181.4 138.07C181.457 138.006 181.487 137.921 181.483 137.835L180.235 116.72C180.233 116.677 180.223 116.635 180.204 116.596C180.186 116.557 180.16 116.522 180.128 116.494C180.096 116.465 180.058 116.443 180.018 116.429C179.977 116.415 179.934 116.409 179.891 116.412C179.805 116.417 179.724 116.457 179.666 116.521C179.609 116.586 179.579 116.67 179.583 116.757L180.851 137.861C180.855 137.944 180.891 138.022 180.952 138.08C181.012 138.137 181.092 138.169 181.175 138.169V138.179ZM177.281 145.117C177.359 145.081 177.42 145.017 177.452 144.937C177.483 144.857 177.482 144.768 177.448 144.689L169.425 126.539C169.39 126.46 169.326 126.398 169.245 126.367C169.165 126.335 169.076 126.337 168.997 126.372C168.918 126.406 168.856 126.471 168.825 126.551C168.793 126.631 168.795 126.721 168.83 126.8L176.848 144.95C176.873 145.008 176.914 145.058 176.967 145.093C177.02 145.128 177.082 145.147 177.145 145.148C177.199 145.151 177.253 145.14 177.302 145.117H177.281ZM178.669 142.611L197.874 139.865C197.92 139.865 197.966 139.854 198.008 139.834C198.05 139.814 198.087 139.786 198.117 139.75C198.147 139.715 198.17 139.674 198.183 139.629C198.196 139.585 198.199 139.538 198.193 139.492C198.187 139.446 198.171 139.402 198.146 139.363C198.122 139.323 198.089 139.29 198.05 139.264C198.012 139.238 197.968 139.22 197.923 139.213C197.877 139.205 197.83 139.207 197.785 139.218L178.581 141.964C178.495 141.969 178.415 142.009 178.358 142.073C178.301 142.138 178.272 142.223 178.278 142.308C178.284 142.394 178.323 142.474 178.388 142.531C178.452 142.588 178.537 142.617 178.622 142.611H178.669ZM173.194 154.863C173.262 154.809 173.306 154.731 173.317 154.645C173.328 154.559 173.304 154.472 173.251 154.403L162.842 141.03C162.816 140.995 162.783 140.967 162.746 140.945C162.708 140.923 162.667 140.909 162.624 140.904C162.581 140.898 162.537 140.901 162.496 140.912C162.454 140.924 162.415 140.943 162.38 140.97C162.346 140.996 162.317 141.029 162.296 141.066C162.274 141.104 162.26 141.145 162.255 141.188C162.249 141.231 162.252 141.275 162.263 141.316C162.275 141.358 162.294 141.397 162.32 141.431L172.75 154.826C172.78 154.865 172.819 154.897 172.863 154.918C172.908 154.94 172.956 154.951 173.006 154.951C173.084 154.947 173.158 154.916 173.215 154.863H173.194ZM189.459 151.245C189.462 151.159 189.431 151.075 189.372 151.011C189.314 150.948 189.232 150.91 189.146 150.906L174.838 150.18C174.758 150.186 174.682 150.221 174.626 150.278C174.569 150.336 174.536 150.412 174.532 150.493C174.528 150.573 174.554 150.652 174.605 150.715C174.655 150.778 174.727 150.82 174.807 150.833L189.141 151.558C189.227 151.561 189.311 151.53 189.375 151.471C189.438 151.413 189.476 151.331 189.48 151.245H189.459ZM182.71 161.863C182.715 161.82 182.711 161.776 182.699 161.735C182.687 161.693 182.667 161.654 182.64 161.621C182.612 161.587 182.579 161.559 182.541 161.539C182.502 161.519 182.46 161.506 182.417 161.502L171.455 160.422C171.413 160.418 171.37 160.422 171.329 160.434C171.288 160.446 171.25 160.467 171.217 160.494C171.184 160.521 171.157 160.555 171.137 160.592C171.117 160.63 171.104 160.672 171.1 160.714C171.093 160.8 171.12 160.885 171.174 160.951C171.229 161.018 171.307 161.06 171.393 161.069L182.355 162.155H182.386C182.47 162.161 182.553 162.133 182.618 162.079C182.682 162.024 182.723 161.947 182.731 161.863H182.71ZM168.955 167.521C169.028 167.473 169.078 167.398 169.096 167.313C169.113 167.228 169.097 167.14 169.049 167.067L163.631 158.877C163.581 158.806 163.506 158.758 163.421 158.741C163.337 158.724 163.249 158.741 163.177 158.788C163.104 158.836 163.053 158.911 163.036 158.996C163.018 159.081 163.035 159.169 163.083 159.242L168.501 167.432C168.532 167.477 168.573 167.514 168.621 167.539C168.67 167.565 168.723 167.578 168.778 167.578C168.848 167.582 168.918 167.562 168.976 167.521H168.955ZM181.389 170.262C181.388 170.176 181.353 170.094 181.293 170.032C181.233 169.971 181.151 169.935 181.065 169.933L168.177 169.813C168.091 169.813 168.009 169.847 167.948 169.907C167.888 169.968 167.854 170.05 167.854 170.136C167.852 170.179 167.86 170.222 167.875 170.263C167.891 170.303 167.915 170.339 167.945 170.37C167.975 170.401 168.011 170.425 168.051 170.441C168.091 170.458 168.134 170.466 168.177 170.465L181.065 170.585C181.109 170.587 181.154 170.581 181.195 170.565C181.236 170.55 181.274 170.527 181.306 170.496C181.338 170.466 181.364 170.43 181.382 170.389C181.4 170.349 181.409 170.306 181.41 170.262H181.389ZM164.095 189.534C164.121 189.476 166.319 183.421 172.927 181.975C173.013 181.956 173.087 181.905 173.134 181.831C173.181 181.758 173.197 181.669 173.178 181.584C173.157 181.5 173.104 181.428 173.032 181.382C172.959 181.337 172.871 181.321 172.787 181.338C165.818 182.863 163.505 189.257 163.479 189.32C163.452 189.402 163.459 189.492 163.497 189.57C163.535 189.648 163.601 189.708 163.683 189.737H163.787C163.857 189.743 163.926 189.727 163.985 189.69C164.045 189.653 164.091 189.599 164.116 189.534H164.095Z" fill="#37474F"/>
<path d="M174.086 185.118H159.308V188.177H160.598L163.265 204.865H170.13L172.797 188.177H174.086V185.118Z" fill="#C4E3FF"/>
<path opacity="0.3" d="M174.086 185.118H159.308V188.177H160.598L163.265 204.865H170.13L172.797 188.177H174.086V185.118Z" fill="white"/>
<path d="M41.039 92.6193L23.8495 87.0078L22.32 82.9675L18.8279 82.8579L12.4908 81.6573L13.2529 82.9675L21.2291 88.7565L23.197 89.7378L41.1747 99.1286L41.039 92.6193Z" fill="white" stroke="#37474F" stroke-width="1.00396" stroke-miterlimit="10"/>
<path d="M22.32 82.9675L20.681 81.9861L17.408 83.1867L17.9509 83.8392L22.32 82.9675Z" fill="white" stroke="#37474F" stroke-width="1.00396" stroke-linejoin="round"/>
<path d="M41.039 92.6193L23.8495 87.0078L22.32 82.9675L18.8279 82.8579L12.4908 81.6573L13.2529 82.9675L21.2291 88.7565L23.197 89.7378L41.1747 99.1286L41.039 92.6193Z" fill="white"/>
<mask id="mask0_644_1694" style="mask-type:luminance" maskUnits="userSpaceOnUse" x="12" y="81" width="30" height="19">
<path d="M41.039 92.6193L23.8495 87.0078L22.32 82.9675L18.8279 82.8579L12.4908 81.6573L13.2529 82.9675L21.2291 88.7565L23.197 89.7378L41.1747 99.1286L41.039 92.6193Z" fill="white"/>
</mask>
<g mask="url(#mask0_644_1694)">
<path opacity="0.5" d="M41.039 92.6193L23.8495 87.0078L22.32 82.9675L18.8279 82.8579L12.4908 81.6573L13.2529 82.9675L21.2291 88.7565L23.197 89.7378L41.1747 99.1286L41.039 92.6193Z" fill="#9DC6EC" stroke="#37474F" stroke-width="1.00396" stroke-miterlimit="10"/>
</g>
<path d="M41.039 92.6193L23.8495 87.0078L22.32 82.9675L18.8279 82.8579L12.4908 81.6573L13.2529 82.9675L21.2291 88.7565L23.197 89.7378L41.1747 99.1286L41.039 92.6193Z" stroke="#37474F" stroke-width="1.00396" stroke-miterlimit="10"/>
<path d="M22.32 82.9675L20.681 81.9861L17.408 83.1867L17.9509 83.8392L22.32 82.9675Z" fill="white"/>
<mask id="mask1_644_1694" style="mask-type:luminance" maskUnits="userSpaceOnUse" x="17" y="81" width="6" height="3">
<path d="M22.32 82.9675L20.681 81.9861L17.408 83.1867L17.9509 83.8392L22.32 82.9675Z" fill="white"/>
</mask>
<g mask="url(#mask1_644_1694)">
<path opacity="0.5" d="M22.32 82.9675L20.681 81.9861L17.408 83.1867L17.9509 83.8392L22.32 82.9675Z" fill="#9DC6EC" stroke="#37474F" stroke-width="1.00396" stroke-linejoin="round"/>
</g>
<path d="M22.32 82.9675L20.681 81.9861L17.408 83.1867L17.9509 83.8392L22.32 82.9675Z" stroke="#37474F" stroke-width="1.00396" stroke-linejoin="round"/>
<path d="M44.6877 56.1993C44.6877 56.1993 44.4215 58.5483 45.0845 60.0569C45.7474 61.5655 49.4275 66.6759 49.4275 66.6759L42.558 72.183C42.558 72.183 39.7079 66.441 39.165 65.5118C38.6221 64.5826 37.9696 60.5841 39.7392 57.7184C41.5088 54.8526 44.0561 54.08 44.6877 56.1993Z" fill="white"/>
<mask id="mask2_644_1694" style="mask-type:luminance" maskUnits="userSpaceOnUse" x="38" y="54" width="12" height="19">
<path d="M44.6877 56.1993C44.6877 56.1993 44.4215 58.5483 45.0845 60.0569C45.7474 61.5655 49.4275 66.6759 49.4275 66.6759L42.558 72.183C42.558 72.183 39.7079 66.441 39.165 65.5118C38.6221 64.5826 37.9696 60.5841 39.7392 57.7184C41.5088 54.8526 44.0561 54.08 44.6877 56.1993Z" fill="white"/>
</mask>
<g mask="url(#mask2_644_1694)">
<g style="mix-blend-mode:multiply" opacity="0.5">
<path d="M41.159 63.7474L44.1396 69.9279L42.5527 72.1882L39.5565 66.8377L41.159 63.7474Z" fill="#9DC6EC"/>
</g>
</g>
<path d="M44.6877 56.1993C44.6877 56.1993 44.4215 58.5483 45.0845 60.0569C45.7474 61.5655 49.4275 66.6759 49.4275 66.6759L42.558 72.183C42.558 72.183 39.7079 66.441 39.165 65.5118C38.6221 64.5826 37.9696 60.5841 39.7392 57.7184C41.5088 54.8526 44.0561 54.08 44.6877 56.1993Z" stroke="#37474F" stroke-width="1.00396" stroke-miterlimit="10"/>
<path d="M46.8175 51.8981C46.3947 49.2881 43.4036 43.9793 38.6586 44.1829C35.5788 44.3186 34.1381 44.9398 32.8018 45.6967C31.7125 46.3385 30.6972 47.0982 29.7742 47.9622C27.4565 50.7444 26.6422 51.5066 27.0911 53.6363C27.0543 54.4858 27.1874 55.3341 27.4826 56.1315C28.1925 58.0263 28.678 59.2635 29.294 60.1665C29.106 61.0487 28.6154 63.3768 28.5893 63.9093C28.5632 64.4417 30.1553 64.0711 30.9591 63.8675C32.4521 67.2083 35.1873 69.526 36.0382 69.7922C37.5207 70.2568 39.8645 67.8191 41.1068 65.9294C42.3492 64.0398 41.4096 61.9152 41.4148 61.0696C41.42 60.224 44.2075 58.3656 45.2411 57.7758C46.2746 57.1859 47.2351 54.5029 46.8175 51.8981Z" fill="white"/>
<mask id="mask3_644_1694" style="mask-type:luminance" maskUnits="userSpaceOnUse" x="26" y="44" width="21" height="26">
<path d="M46.8175 51.8981C46.3947 49.2881 43.4036 43.9793 38.6586 44.1829C35.5788 44.3186 34.1381 44.9398 32.8018 45.6967C31.7125 46.3385 30.6972 47.0982 29.7742 47.9622C27.4565 50.7444 26.6422 51.5066 27.0911 53.6363C27.0543 54.4858 27.1874 55.3341 27.4826 56.1315C28.1925 58.0263 28.678 59.2635 29.294 60.1665C29.106 61.0487 28.6154 63.3768 28.5893 63.9093C28.5632 64.4417 30.1553 64.0711 30.9591 63.8675C32.4521 67.2083 35.1873 69.526 36.0382 69.7922C37.5207 70.2568 39.8645 67.8191 41.1068 65.9294C42.3492 64.0398 41.4096 61.9152 41.4148 61.0696C41.42 60.224 44.2075 58.3656 45.2411 57.7758C46.2746 57.1859 47.2351 54.5029 46.8175 51.8981Z" fill="white"/>
</mask>
<g mask="url(#mask3_644_1694)">
<g style="mix-blend-mode:multiply" opacity="0.5">
<path d="M27.112 53.6363C27.0752 54.4858 27.2083 55.3341 27.5035 56.1315C28.2134 58.0263 28.6989 59.2635 29.3148 60.1665C29.1269 61.0487 28.6362 63.3768 28.6101 63.9093C28.584 64.4417 30.1761 64.0711 30.98 63.8675C32.4729 67.2083 35.2082 69.526 36.0591 69.7922C37.5415 70.2568 39.8853 67.8191 41.1277 65.9294C41.4381 65.4576 41.6396 64.9227 41.7175 64.3634C41.6497 64.1181 41.6027 63.9667 41.6027 63.9667C41.6027 63.9667 40.9032 66.655 39.5147 66.3053C38.1262 65.9555 36.0016 63.1733 34.8167 62.2128C33.6318 61.2523 34.1172 59.9891 33.8823 58.5588C33.6474 57.1285 30.1396 55.8705 29.9047 55.0509C29.6698 54.2314 30.4893 50.8384 30.4893 50.8384C30.4893 50.8384 31.8204 49.0636 31.5333 49.7944C31.3304 50.4281 31.2568 51.096 31.3169 51.7587C31.377 52.4213 31.5695 53.0651 31.8831 53.652C32.1031 54.115 32.4522 54.5047 32.8883 54.7741C33.3244 55.0436 33.8291 55.1814 34.3417 55.171L35.6154 48.86L32.9271 46.6363L29.7951 47.9413C27.4565 50.7444 26.6578 51.5065 27.112 53.6363Z" fill="#9DC6EC"/>
</g>
</g>
<path d="M46.8175 51.8981C46.3947 49.2881 43.4036 43.9793 38.6586 44.1829C35.5788 44.3186 34.1381 44.9398 32.8018 45.6967C31.7125 46.3385 30.6972 47.0982 29.7742 47.9622C27.4565 50.7444 26.6422 51.5066 27.0911 53.6363C27.0543 54.4858 27.1874 55.3341 27.4826 56.1315C28.1925 58.0263 28.678 59.2635 29.294 60.1665C29.106 61.0487 28.6154 63.3768 28.5893 63.9093C28.5632 64.4417 30.1553 64.0711 30.9591 63.8675C32.4521 67.2083 35.1873 69.526 36.0382 69.7922C37.5207 70.2568 39.8645 67.8191 41.1068 65.9294C42.3492 64.0398 41.4096 61.9152 41.4148 61.0696C41.42 60.224 44.2075 58.3656 45.2411 57.7758C46.2746 57.1859 47.2351 54.5029 46.8175 51.8981Z" stroke="#37474F" stroke-miterlimit="10"/>
<path d="M29.9412 58.5901L30.4632 60.083C30.4632 60.083 31.5855 60.4536 32.9532 58.9607" stroke="#37474F" stroke-miterlimit="10" stroke-linecap="round"/>
<path d="M33.7988 65.564C33.7988 65.564 35.0412 65.4387 35.5423 63.6953" stroke="#37474F" stroke-miterlimit="10" stroke-linecap="round"/>
<path d="M29.0695 57.3425C29.0695 57.3425 29.4401 56.2202 31.6795 56.2202" stroke="#37474F" stroke-miterlimit="10" stroke-linecap="round"/>
<path d="M40.5483 42.1053C38.9211 41.8713 37.2801 41.7458 35.6362 41.7295C35.6362 41.7295 30.719 38.895 25.9949 41.9174C21.2708 44.9398 23.5415 50.2329 23.5415 51.5535C23.5415 52.8742 22.0277 52.8794 22.9725 54.5811C23.9173 56.2829 27.112 55.3433 27.112 55.3433C27.1457 54.7014 27.3154 54.0741 27.6096 53.5027C27.9039 52.9313 28.3161 52.4288 28.8189 52.0286C30.5206 50.7079 31.8778 50.4208 32.4416 50.8019C32.4416 50.8019 32.0658 53.6363 32.6295 54.7691C32.6295 54.7691 34.5192 55.7139 35.0881 55.7139C35.6571 55.7139 34.7175 56.5125 36.6019 57.2225C36.9453 57.3458 37.3125 57.3878 37.6748 57.3452C38.0371 57.3026 38.3846 57.1766 38.6899 56.9771C38.9666 55.8287 39.5721 54.1009 40.6996 54.5028C42.3544 55.0927 43.863 59.1643 41.6236 60.5528C44.3171 61.0435 47.5796 56.2776 47.7727 51.9346C47.9659 47.5916 43.3462 42.596 40.5483 42.1053Z" fill="#37474F"/>
<path d="M32.5251 48.9383C32.5251 48.9383 33.9137 48.1919 35.6154 49.7892C37.3171 51.3865 40.6266 53.5215 45.0114 52.347" stroke="white" stroke-width="0.5" stroke-linecap="round" stroke-linejoin="round"/>
<path d="M32.332 47.6594C32.332 47.6594 33.2873 46.1665 34.8846 46.1665C36.4819 46.1665 40.2142 48.4059 43.1949 48.4059" stroke="white" stroke-width="0.5" stroke-linecap="round" stroke-linejoin="round"/>
<path d="M31.2462 50.5356C31.2462 50.5356 29.4349 48.3015 27.7332 50.1128C26.0315 51.9241 27.112 53.6363 27.112 53.6363" stroke="white" stroke-width="0.5" stroke-linecap="round" stroke-linejoin="round"/>
<path d="M24.0061 52.0286C25.0441 51.0925 25.6894 49.7982 25.8122 48.4059C26.0262 46.0621 29.2261 44.0367 31.2462 45.9577" stroke="white" stroke-width="0.5" stroke-linecap="round" stroke-linejoin="round"/>
<path d="M27.3052 43.5043C27.3052 43.5043 30.505 40.414 33.1672 44.3551" stroke="white" stroke-width="0.5" stroke-linecap="round" stroke-linejoin="round"/>
<path d="M53.3477 195.443C53.3477 195.443 55.3156 198.502 55.0964 200.47L54.8824 202.438C54.8824 202.438 47.6631 204.416 46.1337 204.416C44.6042 204.416 36.508 203.649 36.508 203.649L36.1582 202.26C36.1338 202.158 36.1453 202.05 36.1909 201.955C36.2366 201.86 36.3135 201.783 36.4088 201.738L43.6281 198.371L45.904 195.881L53.3477 195.443Z" fill="white" stroke="#37474F" stroke-width="1.00396" stroke-miterlimit="10"/>
<path d="M47.2299 202.876C49.1874 203.028 52.904 201.832 55.0599 201.07L54.9085 202.438C54.9085 202.438 47.6631 204.416 46.1337 204.416C44.6042 204.416 36.508 203.649 36.508 203.649L36.2574 202.657C37.552 202.662 44.6408 202.678 47.2299 202.876Z" fill="#9DC6EC" stroke="#37474F" stroke-width="1.00396" stroke-miterlimit="10"/>
<path d="M43.6385 198.371L33.1307 202.944C33.1307 202.944 32.2328 205.194 33.1307 205.643C34.0285 206.092 53.6035 205.643 53.6035 205.643C53.6035 205.643 54.9555 202.088 52.8205 199.702C50.6855 197.317 43.6385 198.371 43.6385 198.371Z" fill="white" stroke="#37474F" stroke-width="1.00396" stroke-miterlimit="10"/>
<path d="M53.6035 205.643C53.6035 205.643 34.0285 206.092 33.1307 205.643C32.6974 205.423 32.6818 204.792 32.7809 204.192H53.9481C53.8789 204.685 53.7635 205.171 53.6035 205.643Z" fill="#9DC6EC" stroke="#37474F" stroke-width="1.00396" stroke-miterlimit="10"/>
<path d="M38.6691 118.918C38.6691 118.918 35.9234 131.085 34.8846 138.696C33.8458 146.307 33.2351 161.555 33.4543 163.303C33.6736 165.052 44.6042 194.352 44.6042 194.352L45.6952 196.962L53.3477 195.432C53.3477 195.432 49.8503 184.282 48.5401 178.159C47.2299 172.036 44.3641 161.977 44.3641 160.229C44.3641 158.48 51.1501 125.082 51.6356 122.89C52.121 120.698 54.3239 117.331 54.3239 117.331L39.6713 117.033L38.6691 118.918Z" fill="#9DC6EC" stroke="#37474F" stroke-width="1.00396" stroke-miterlimit="10"/>
<path d="M38.6691 118.918C38.6691 118.918 37.0613 130.031 37.7243 137.757C38.3872 145.482 39.8123 161.93 39.8123 164.379C39.8123 166.827 43.7638 181.448 43.9883 186.042C44.338 192.676 43.8473 195.96 43.8473 195.96L43.6124 198.366C43.6124 198.366 48.2217 199.024 49.2291 199.311C50.3927 199.611 51.5936 199.741 52.7944 199.697C52.7944 199.697 54.47 192.321 54.47 186.036C54.47 179.751 53.0763 166.816 52.382 161.575C51.6878 156.335 53.8749 136.118 55.1173 132.343C56.3597 128.569 59.0741 120.578 57.2471 116.496C55.4201 112.413 38.6691 118.918 38.6691 118.918Z" fill="#9DC6EC" stroke="#37474F" stroke-width="1.00396" stroke-miterlimit="10"/>
<path d="M59.2776 114.449L59.1106 119.419C59.1106 119.419 56.1352 120.009 52.1262 120.703C48.8168 121.277 40.5065 120.551 37.7086 120.28C37.4536 120.257 37.2179 120.135 37.0527 119.94C36.8875 119.744 36.8061 119.491 36.8264 119.236L37.0979 114.747L59.2776 114.449Z" fill="#37474F"/>
<path d="M47.6475 64.9115C47.6475 64.9115 42.9495 69.9906 41.1799 73.1487C39.4104 76.3068 38.7109 81.1457 38.0479 84.9563C37.385 88.7669 39.1807 97.714 38.6743 101.822L37.0718 114.763C37.0718 114.763 36.7273 115.639 37.8809 116.6C39.0345 117.56 44.6669 117.91 49.7564 118.166C51.6147 118.26 57.1636 117.065 58.0719 117.007C59.1681 116.939 59.2046 115.546 59.2516 114.449C59.4708 109.297 60.4 95.5634 61.0107 89.5812C62.2687 77.3821 55.3836 65.6058 47.6475 64.9115Z" fill="white" stroke="#37474F" stroke-width="1.00396" stroke-miterlimit="10"/>
<g style="mix-blend-mode:multiply">
<path d="M60.4365 96.5186C60.6453 93.8094 60.8541 91.3508 61.0368 89.5812C61.089 89.0592 61.1203 88.5372 61.1464 88.0152L48.6654 90.1032L37.9435 86.4492C37.9447 88.6678 38.0701 90.8845 38.3193 93.0891L48.8376 96.0331L60.4365 96.5186Z" fill="#9DC6EC"/>
</g>
<g style="mix-blend-mode:multiply">
<path d="M47.1829 65.4231C46.473 66.2113 45.0636 67.8138 43.722 69.5156L51.646 77.57L54.256 76.526L47.1829 65.4231Z" fill="#9DC6EC"/>
</g>
<path d="M47.6475 64.9115C47.6475 64.9115 42.9495 69.9906 41.1799 73.1487C40.6552 74.1085 40.2301 75.1195 39.9114 76.1658L49.3596 65.2508C48.8015 65.0817 48.228 64.9681 47.6475 64.9115Z" fill="#37474F"/>
<g style="mix-blend-mode:multiply">
<path d="M38.4133 82.8996L48.6654 86.2717L61.1151 84.8415C60.92 81.7401 60.231 78.6898 59.0741 75.8056L49.036 79.8303L40.0628 75.7639C39.3291 78.0962 38.7776 80.4819 38.4133 82.8996Z" fill="#9DC6EC"/>
</g>
<g style="mix-blend-mode:multiply">
<path d="M56.0621 109.297C50.8623 110.17 45.527 109.734 40.5379 108.029L38.0375 107.173L37.2597 113.437L40.1098 114.235C45.528 115.75 51.191 116.186 56.7773 115.519L59.0793 115.243C59.1991 114.989 59.2666 114.714 59.2777 114.434C59.3403 113.04 59.4499 111.015 59.5909 108.692L56.0621 109.297Z" fill="#9DC6EC"/>
</g>
<g style="mix-blend-mode:multiply">
<path d="M57.4559 100.768C52.2558 101.644 46.9192 101.206 41.9316 99.494L38.7474 98.403C38.8264 99.5403 38.8106 100.682 38.7004 101.817L38.3298 104.829L41.5035 105.716C46.9196 107.233 52.5808 107.671 58.1658 107.006L59.7318 106.818C59.8623 104.73 60.0137 102.506 60.1755 100.308L57.4559 100.768Z" fill="#9DC6EC"/>
</g>
<path d="M8.4825 78.6933L18.5756 86.8084L19.0106 86.2673L8.91752 78.1523L8.4825 78.6933Z" fill="#37474F"/>
<path d="M52.5073 70.5439C52.5073 70.5439 56.2083 73.0651 56.2918 79.0212C56.3284 81.6312 56.0569 84.0689 55.4566 88.3441C54.8563 92.6193 51.1292 106.541 48.2269 108.232C45.3246 109.924 40.8197 106.729 40.8197 106.729L19.0315 92.2643L13.7645 88.01L11.1545 83.0823L11.974 81.5163L18.3998 86.444L14.939 83.2441L15.6176 82.3828L16.8704 83.2546L20.5244 84.6222L21.323 89.8422L22.4506 90.6148L43.294 98.2308C43.294 98.2308 43.033 87.013 43.2262 84.8676C43.4193 82.7221 43.6855 77.3299 45.9823 73.4201" fill="white"/>
<mask id="mask4_644_1694" style="mask-type:luminance" maskUnits="userSpaceOnUse" x="11" y="70" width="46" height="39">
<path d="M52.5073 70.5439C52.5073 70.5439 56.2083 73.0651 56.2918 79.0212C56.3284 81.6312 56.0569 84.0689 55.4566 88.3441C54.8563 92.6193 51.1292 106.541 48.2269 108.232C45.3246 109.924 40.8197 106.729 40.8197 106.729L19.0315 92.2643L13.7645 88.01L11.1545 83.0823L11.974 81.5163L18.3998 86.444L14.939 83.2441L15.6176 82.3828L16.8704 83.2546L20.5244 84.6222L21.323 89.8422L22.4506 90.6148L43.294 98.2308C43.294 98.2308 43.033 87.013 43.2262 84.8676C43.4193 82.7221 43.6855 77.3299 45.9823 73.4201" fill="white"/>
</mask>
<g mask="url(#mask4_644_1694)">
<g style="mix-blend-mode:multiply" opacity="0.5">
<path d="M43.1478 89.7535C43.1478 93.6267 43.2783 98.2308 43.2783 98.2308L22.4558 90.6461L21.3282 89.8736L20.5296 84.6536L16.8756 83.2859L15.628 82.3985L14.9494 83.2598L18.3998 86.444L11.974 81.5163L11.1962 83.0562L13.8062 87.9839L19.0732 92.2643L20.3991 93.1465L49.1874 102.422L43.1478 89.7535Z" fill="#9DC6EC"/>
</g>
</g>
<path d="M52.5073 70.5439C52.5073 70.5439 56.2083 73.0651 56.2918 79.0212C56.3284 81.6312 56.0569 84.0689 55.4566 88.3441C54.8563 92.6193 51.1292 106.541 48.2269 108.232C45.3246 109.924 40.8197 106.729 40.8197 106.729L19.0315 92.2643L13.7645 88.01L11.1545 83.0823L11.974 81.5163L18.3998 86.444L14.939 83.2441L15.6176 82.3828L16.8704 83.2546L20.5244 84.6222L21.323 89.8422L22.4506 90.6148L43.294 98.2308C43.294 98.2308 43.033 87.013 43.2262 84.8676C43.4193 82.7221 43.6855 77.3299 45.9823 73.4201" stroke="#37474F" stroke-width="1.00396" stroke-miterlimit="10"/>
<path d="M43.294 98.2308L51.2493 103.973L53.3112 100.319C53.3112 100.319 54.7362 99.1965 54.945 98.3508C55.1538 97.5052 54.8876 96.1323 55.1016 95.2867C55.3157 94.441 56.3805 93.6476 56.4797 91.6014C56.5789 89.5551 56.4797 87.8482 56.4797 87.8482C56.4797 87.8482 58.2023 80.7646 58.0144 77.6848C57.8265 74.605 54.8563 69.1606 52.476 69.0405C50.0957 68.9205 47.0002 69.2807 44.599 72.9138C42.1978 76.5469 42.6885 87.1539 42.3126 87.8169C41.9368 88.4798 42.4588 91.7527 42.4588 91.7527C42.2502 91.9083 42.0771 92.1066 41.9511 92.3343C41.8251 92.562 41.749 92.814 41.728 93.0734C41.6862 93.9243 42.605 96.0175 42.605 96.0175L43.294 98.2308Z" fill="white" stroke="#37474F" stroke-width="1.00396" stroke-miterlimit="10"/>
<g style="mix-blend-mode:multiply">
<path d="M42.5215 85.092C42.5378 86.0029 42.4697 86.9134 42.3179 87.8117C41.9838 88.4067 42.3649 91.095 42.4484 91.6431C46.9229 93.0329 51.6542 93.3898 56.2866 92.6871C56.3861 92.3241 56.4456 91.9513 56.4641 91.5753C56.5685 89.5343 56.4641 87.8221 56.4641 87.8221C56.4641 87.8221 56.6155 87.1905 56.8243 86.23C52.0268 86.5349 47.2104 86.1517 42.5215 85.092Z" fill="#9DC6EC"/>
</g>
<g style="mix-blend-mode:multiply">
<path d="M44.2754 73.4932C43.5289 74.9913 43.1113 77.2412 42.8712 79.5223C47.61 81.3308 52.7192 81.9526 57.7534 81.3336C57.9543 80.1264 58.0434 78.9032 58.0197 77.6796C57.9293 76.7124 57.7007 75.7632 57.3411 74.8608C52.9454 74.9634 48.5546 74.5038 44.2754 73.4932Z" fill="#9DC6EC"/>
</g>
<path d="M42.605 96.0749L43.2784 98.2308L51.2336 103.973L53.2955 100.319C53.2955 100.319 54.7206 99.1965 54.9294 98.3508C54.9667 98.2038 54.9894 98.0534 54.9973 97.9019C50.805 97.8295 46.6397 97.2154 42.605 96.0749Z" fill="#37474F"/>
<path d="M48.3626 199.243C48.3626 199.243 48.5401 194.722 49.4066 188.114C50.2731 181.505 48.1904 172.12 47.8406 170.554C47.4909 168.988 48.0181 165.511 47.6684 164.29C47.3186 163.068 45.6273 157.859 46.6244 151.814C47.6214 145.769 48.4305 129.791 48.4305 129.791C48.4305 129.791 45.9197 127.75 45.1836 125.093C44.4476 122.436 45.0114 121.601 45.0114 121.601" stroke="#37474F" stroke-width="1.00396" stroke-miterlimit="10"/>
<path d="M49.5267 121.846L48.561 127.191" stroke="#37474F" stroke-width="1.00396" stroke-miterlimit="10"/>
</g>
<defs>
<clipPath id="clip0_644_1694">
<rect width="217" height="205" fill="white"/>
</clipPath>
</defs>
</svg>
