<svg width="360" height="170" viewBox="0 0 360 170" fill="none" xmlns="http://www.w3.org/2000/svg">
<path d="M0 -90H360V450H0V-90Z" fill="#037FFB"/>
<path d="M45 90H0V135H45V90Z" fill="#59AAF8"/>
<path d="M90 135H0V180H90V135Z" fill="#2D9AFF"/>
<g clip-path="url(#clip0_190_324)">
<path d="M90 -90V0H114.56C114.553 2.68701 115.077 5.34888 116.102 7.83286C117.127 10.3168 118.632 12.5741 120.531 14.475C122.43 16.376 124.686 17.8832 127.169 18.9102C129.652 19.9373 132.313 20.464 135 20.46C140.413 20.46 145.604 18.3097 149.432 14.482C153.26 10.6544 155.41 5.46307 155.41 0.0500031H180V-89.95L90 -90Z" fill="#7AB8F4"/>
</g>
<path d="M90 0H0V90H90V0Z" fill="#7AB8F4"/>
<path d="M45 90C69.8528 90 90 69.8528 90 45C90 20.1472 69.8528 0 45 0C20.1472 0 0 20.1472 0 45C0 69.8528 20.1472 90 45 90Z" fill="#2691F5"/>
<path d="M270.03 55.09V0H180.03H155.44C155.44 2.68028 154.912 5.33432 153.886 7.81058C152.861 10.2868 151.357 12.5368 149.462 14.4321C147.567 16.3273 145.317 17.8307 142.841 18.8564C140.364 19.8821 137.71 20.41 135.03 20.41C129.619 20.418 124.426 18.2766 120.593 14.4568C116.76 10.637 114.601 5.45134 114.59 0.0400085H90V55.04H135V55.16C135.003 64.3861 138.669 73.2335 145.193 79.7573C151.716 86.2811 160.564 89.9474 169.79 89.95H190.21C199.436 89.9474 208.283 86.2811 214.807 79.7573C221.331 73.2335 224.997 64.3861 225 55.16V55.04H241.62V121.09L225 137.81H270L254.65 121.09V55.04L270.03 55.09Z" fill="#2D9AFF"/>
<path d="M360.13 0H270.13V180H360.13V0Z" fill="#1990FF"/>
<path d="M360.13 52.13V127.88C350.084 127.88 340.449 123.889 333.345 116.785C326.241 109.681 322.25 100.046 322.25 90C322.25 85.026 323.23 80.1007 325.134 75.5055C327.037 70.9102 329.828 66.735 333.345 63.2183C336.863 59.7016 341.039 56.9124 345.635 55.0098C350.23 53.1073 355.156 52.1287 360.13 52.13Z" fill="#0A7BE7"/>
<path d="M295.87 90C295.87 107.008 302.627 123.32 314.653 135.347C326.68 147.373 342.992 154.13 360 154.13V180C336.131 180 313.239 170.518 296.36 153.64C279.482 136.761 270 113.869 270 90C270 66.1305 279.482 43.2387 296.36 26.3604C313.239 9.48211 336.131 0 360 0V25.87C342.992 25.87 326.68 32.6266 314.653 44.6533C302.627 56.68 295.87 72.9917 295.87 90Z" fill="#0A7BE7"/>
<defs>
<clipPath id="clip0_190_324">
<rect width="90" height="110.41" fill="white" transform="translate(90 -90)"/>
</clipPath>
</defs>
</svg>
