<svg id="Vector" xmlns="http://www.w3.org/2000/svg" xmlns:xlink="http://www.w3.org/1999/xlink" width="360" height="231" viewBox="0 0 360 231">
  <defs>
    <linearGradient id="linear-gradient" x1="0.5" x2="0.5" y2="1" gradientUnits="objectBoundingBox">
      <stop offset="0" stop-color="#177aff"/>
      <stop offset="1" stop-color="#1d4ebe"/>
    </linearGradient>
  </defs>
  <rect id="Rectangle_1494" data-name="Rectangle 1494" width="360" height="231" fill="url(#linear-gradient)"/>
  <g id="Group_608" data-name="Group 608" transform="translate(-120.882 -97.915)">
    <g id="Group_601" data-name="Group 601" transform="translate(135.654 120.915)" opacity="0.43">
      <path id="Path_2819" data-name="Path 2819" d="M462.33,311.71c3.431-17.056-2.069-31.6-3.441-48.329-1.3-15.834,4.326-29.15,7.446-44.231,2.777-13.421,1.851-28.623-1.634-41.813-4.759-18.009-15.718-34.686-31.508-44.852-24.6-15.841-57.416-13.975-84.594-3.079-11.383,4.564-22.408,10.637-34.6,12.173-17.781,2.241-35.086-5.424-52.407-10.021-23.577-6.258-49.46-6.723-71.706,3.155-25.222,11.2-43.157,36.484-41.062,64.331.95,12.618,5.806,25.071,4.088,37.605-1.744,12.714-9.3,23.349-13.3,35.322-5.457,16.343-5.954,40.361,2.82,56.944H456.423A69.054,69.054,0,0,0,462.33,311.71Z" transform="translate(-135.654 -120.915)" fill="#fff" opacity="0.256"/>
    </g>
    <g id="Group_604" data-name="Group 604" transform="translate(199.441 201.575)">
      <g id="Group_603" data-name="Group 603" transform="translate(0)">
        <g id="Group_602" data-name="Group 602" opacity="0.47">
          <path id="Path_2820" data-name="Path 2820" d="M428.811,289.718a43.139,43.139,0,0,0-14.175-28c-13.012-11.493-32.7-14.391-49.948-11.734-7.226,1.113-14.392,3.085-21.79,2.464-10.791-.905-20.3-7.109-30.122-11.657-13.374-6.191-28.7-9.522-42.923-6.828-16.121,3.054-29.338,14.59-30.915,29.9-.715,6.935,6.547,19.155,4.255,25.728-2.325,6.666-19.3,27.087-18.877,42.62.417,15.475,4.325,20.288,9.849,28.152H414.531c3.439-7.969,6.134-14.343,2.107-24.807-3.218-8.361,5.524-15.246,8.905-23.03A47.337,47.337,0,0,0,428.811,289.718Z" transform="translate(-224.307 -233.019)" fill="#fff" opacity="0.247"/>
        </g>
      </g>
    </g>
    <g id="Group_607" data-name="Group 607" transform="translate(236.708 265.646)">
      <g id="Group_605" data-name="Group 605" transform="translate(79.778)">
        <path id="Path_2821" data-name="Path 2821" d="M457.878,322.786H387.34a.36.36,0,1,1,0-.719h70.538a.36.36,0,1,1,0,.719Z" transform="translate(-386.98 -322.066)" fill="#fff"/>
        <path id="Path_2822" data-name="Path 2822" d="M462.144,345.79h-59.6a.36.36,0,0,1,0-.72h59.6a.36.36,0,0,1,0,.72Z" transform="translate(-391.246 -328.518)" fill="#fff"/>
        <path id="Path_2823" data-name="Path 2823" d="M468.471,335.016H425.1a.36.36,0,1,1,0-.72h43.366a.36.36,0,1,1,0,.72Z" transform="translate(-397.573 -325.496)" fill="#fff"/>
        <path id="Path_2824" data-name="Path 2824" d="M409.1,335.016H387.34a.36.36,0,1,1,0-.72H409.1a.36.36,0,0,1,0,.72Z" transform="translate(-386.98 -325.496)" fill="#fff"/>
      </g>
      <g id="Group_606" data-name="Group 606" transform="translate(0 26.255)">
        <path id="Path_2825" data-name="Path 2825" d="M347,359.276H276.462a.36.36,0,0,1,0-.719H347a.36.36,0,0,1,0,.719Z" transform="translate(-276.102 -358.556)" fill="#fff"/>
        <path id="Path_2826" data-name="Path 2826" d="M336.056,382.279H276.462a.36.36,0,0,1,0-.719h59.594a.36.36,0,1,1,0,.719Z" transform="translate(-276.102 -365.008)" fill="#fff"/>
        <path id="Path_2827" data-name="Path 2827" d="M319.827,371.5H276.462a.36.36,0,1,1,0-.719h43.366a.36.36,0,1,1,0,.719Z" transform="translate(-276.102 -361.986)" fill="#fff"/>
        <path id="Path_2828" data-name="Path 2828" d="M366.013,371.5H344.249a.36.36,0,0,1,0-.719h21.765a.36.36,0,1,1,0,.719Z" transform="translate(-295.116 -361.986)" fill="#fff"/>
      </g>
    </g>
  </g>
  <g id="Group_639" data-name="Group 639" transform="translate(-115.605 -880.407)">
    <g id="Group_616" data-name="Group 616" transform="translate(180.835 1003.258)">
      <g id="Group_609" data-name="Group 609" transform="translate(7.581 6.531)">
        <path id="Path_2829" data-name="Path 2829" d="M476.68,1127.365c-6.152-9.171-7.641-20.459-7.808-28.313A75.657,75.657,0,0,1,470,1084.025l-.426-.138a76.158,76.158,0,0,0-1.14,15.131c.167,7.932,1.673,19.335,7.9,28.62Z" transform="translate(-468.418 -1083.887)" fill="#3c8f7c"/>
      </g>
      <g id="Group_610" data-name="Group 610" transform="translate(6.907 0)">
        <path id="Path_2830" data-name="Path 2830" d="M466.786,1037.9a6.486,6.486,0,0,1-2,4.617,7.6,7.6,0,0,1-1.628-5.059,6.485,6.485,0,0,1,2-4.616A7.6,7.6,0,0,1,466.786,1037.9Z" transform="translate(-463.152 -1032.846)" fill="#3c8f7c"/>
      </g>
      <g id="Group_611" data-name="Group 611" transform="translate(2.617 6.661)">
        <path id="Path_2831" data-name="Path 2831" d="M433.775,1087.9a7.59,7.59,0,0,1,1.163,5.183,6.563,6.563,0,0,1-4.072-2.99,7.591,7.591,0,0,1-1.163-5.183A6.564,6.564,0,0,1,433.775,1087.9Z" transform="translate(-429.624 -1084.908)" fill="#3c8f7c"/>
      </g>
      <g id="Group_612" data-name="Group 612" transform="translate(0 14.028)">
        <path id="Path_2832" data-name="Path 2832" d="M413.9,1143.426a7.237,7.237,0,0,1,3.124,4.185,5.607,5.607,0,0,1-4.727-.69,7.236,7.236,0,0,1-3.124-4.186A5.607,5.607,0,0,1,413.9,1143.426Z" transform="translate(-409.17 -1142.484)" fill="#3c8f7c"/>
      </g>
      <g id="Group_613" data-name="Group 613" transform="translate(0.768 20.336)">
        <ellipse id="Ellipse_159" data-name="Ellipse 159" cx="1.902" cy="3.673" rx="1.902" ry="3.673" transform="matrix(0.568, -0.823, 0.823, 0.568, 0, 3.131)" fill="#3c8f7c"/>
      </g>
      <g id="Group_614" data-name="Group 614" transform="translate(7.878 12.711)">
        <path id="Path_2833" data-name="Path 2833" d="M473.242,1132.894a4.811,4.811,0,0,1,4.188-.4,5.428,5.428,0,0,1-2.5,3.609,4.811,4.811,0,0,1-4.188.4A5.428,5.428,0,0,1,473.242,1132.894Z" transform="translate(-470.74 -1132.188)" fill="#3c8f7c"/>
      </g>
      <g id="Group_615" data-name="Group 615" transform="translate(7.907 17.755)">
        <path id="Path_2834" data-name="Path 2834" d="M473.466,1172.313a4.811,4.811,0,0,1,4.188-.4,5.426,5.426,0,0,1-2.5,3.609,4.81,4.81,0,0,1-4.188.4A5.427,5.427,0,0,1,473.466,1172.313Z" transform="translate(-470.965 -1171.607)" fill="#3c8f7c"/>
      </g>
    </g>
    <g id="Group_625" data-name="Group 625" transform="translate(147.332 1048.984)">
      <g id="Group_617" data-name="Group 617" transform="translate(6.722 7.177)">
        <path id="Path_2835" data-name="Path 2835" d="M236.154,1488.447c-12.9-4.7-21.917-15.9-27.213-24.464a91.917,91.917,0,0,1-8.5-17.682l-.57.227a92.557,92.557,0,0,0,8.558,17.807c5.347,8.654,14.461,19.968,27.517,24.721Z" transform="translate(-199.869 -1446.301)" fill="#96d9c9"/>
      </g>
      <g id="Group_618" data-name="Group 618" transform="translate(2.322)">
        <path id="Path_2836" data-name="Path 2836" d="M170.955,1394.376a9.322,9.322,0,0,1,.75,6.9,8.061,8.061,0,0,1-5.125-4.163,9.321,9.321,0,0,1-.75-6.9A8.061,8.061,0,0,1,170.955,1394.376Z" transform="translate(-165.482 -1390.213)" fill="#96d9c9"/>
      </g>
      <g id="Group_619" data-name="Group 619" transform="translate(0 12.058)">
        <path id="Path_2837" data-name="Path 2837" d="M153.865,1485.015a8.221,8.221,0,0,1,4.681,4.716,7.858,7.858,0,0,1-6.533.311,8.222,8.222,0,0,1-4.682-4.716A7.857,7.857,0,0,1,153.865,1485.015Z" transform="translate(-147.332 -1484.451)" fill="#96d9c9"/>
      </g>
      <g id="Group_620" data-name="Group 620" transform="translate(1.551 19.507)">
        <ellipse id="Ellipse_160" data-name="Ellipse 160" cx="6.062" cy="2.661" rx="6.062" ry="2.661" transform="matrix(0.99, -0.141, 0.141, 0.99, 0, 1.711)" fill="#96d9c9"/>
      </g>
      <g id="Group_621" data-name="Group 621" transform="translate(6.097 26.904)">
        <ellipse id="Ellipse_161" data-name="Ellipse 161" cx="6.062" cy="2.661" rx="6.062" ry="2.661" transform="translate(0 1.711) rotate(-8.113)" fill="#96d9c9"/>
      </g>
      <g id="Group_622" data-name="Group 622" transform="translate(11.862 10.336)">
        <path id="Path_2838" data-name="Path 2838" d="M240.05,1476.878a9.1,9.1,0,0,1,2.538-5.883,7.9,7.9,0,0,1,1.884,5.8,9.1,9.1,0,0,1-2.538,5.883A7.9,7.9,0,0,1,240.05,1476.878Z" transform="translate(-240.035 -1470.995)" fill="#96d9c9"/>
      </g>
      <g id="Group_623" data-name="Group 623" transform="translate(16.616 17.948)">
        <path id="Path_2839" data-name="Path 2839" d="M277.2,1536.412a9.132,9.132,0,0,1,2.452-5.927,7.865,7.865,0,0,1,1.97,5.765,9.131,9.131,0,0,1-2.452,5.927A7.865,7.865,0,0,1,277.2,1536.412Z" transform="translate(-277.193 -1530.484)" fill="#96d9c9"/>
      </g>
      <g id="Group_624" data-name="Group 624" transform="translate(18.184 35.003)">
        <path id="Path_2840" data-name="Path 2840" d="M291.257,1664.16a3.186,3.186,0,0,1,2.772-.131,3.672,3.672,0,0,1-1.81,2.29,3.185,3.185,0,0,1-2.772.131A3.673,3.673,0,0,1,291.257,1664.16Z" transform="translate(-289.447 -1663.773)" fill="#96d9c9"/>
      </g>
    </g>
    <path id="Path_2841" data-name="Path 2841" d="M346.683,1256.476s10.026-22.135,6.674-27.074c-4.632-6.826-10.391,14.12-10.672,12.279-2.653-17.386-2.1-39.313-14.5-42.636-7.053-1.889.466,16.377-.41,21.083s-12.608-12.1-19.834-20.985-11.65-3.985-7.462,6.8c4.05,10.428,18.723,22.647,15.438,23.693s-21.7-13.481-24.477-8.127c-3.4,6.564,24.967,18.151,22.121,19.458s-16.362-4.838-16.362.391,18.675,6.536,18.19,8.8c-.786,3.661-12.518-5.712-13.434-.632-.937,5.2,15.925,5.589,15.336,9.653-.338,2.335-4.586-.109-5.354,3.1-1.752,7.321,24.82,17.579,24.82,17.579Z" transform="translate(-125.419 -170.588)" fill="#3c8f7c"/>
    <g id="Group_636" data-name="Group 636" transform="translate(186.464 1043.488)">
      <g id="Group_635" data-name="Group 635" transform="translate(0 0)">
        <g id="Group_626" data-name="Group 626" transform="translate(8.686 7.554)">
          <path id="Path_2842" data-name="Path 2842" d="M536.709,1458.053l.386-.329c-8.763-10.676-12.505-24.058-14.1-33.4a92.409,92.409,0,0,1-1.378-17.932l-.532-.1a92.988,92.988,0,0,0,1.384,18.045C524.076,1433.763,527.853,1447.264,536.709,1458.053Z" transform="translate(-521.052 -1406.292)" fill="#50bfa5"/>
        </g>
        <g id="Group_627" data-name="Group 627" transform="translate(6.086)">
          <path id="Path_2843" data-name="Path 2843" d="M505.066,1353.209a7.077,7.077,0,0,1-1.489,5.574,10.344,10.344,0,0,1-2.787-5.954,7.077,7.077,0,0,1,1.489-5.573A10.346,10.346,0,0,1,505.066,1353.209Z" transform="translate(-500.73 -1347.255)" fill="#50bfa5"/>
        </g>
        <g id="Group_628" data-name="Group 628" transform="translate(1.758 7.926)">
          <path id="Path_2844" data-name="Path 2844" d="M472.151,1412.6a10.12,10.12,0,0,1,2.271,6.121,8.9,8.9,0,0,1-5.246-3.395,10.12,10.12,0,0,1-2.271-6.121A8.9,8.9,0,0,1,472.151,1412.6Z" transform="translate(-466.905 -1409.201)" fill="#50bfa5"/>
        </g>
        <g id="Group_629" data-name="Group 629" transform="translate(0 16.734)">
          <path id="Path_2845" data-name="Path 2845" d="M458.76,1479.036a10.133,10.133,0,0,1,4.362,4.856,6.6,6.6,0,0,1-5.592-.631,10.132,10.132,0,0,1-4.362-4.855A6.6,6.6,0,0,1,458.76,1479.036Z" transform="translate(-453.168 -1478.039)" fill="#50bfa5"/>
        </g>
        <g id="Group_630" data-name="Group 630" transform="translate(6.808 27.974)">
          <path id="Path_2846" data-name="Path 2846" d="M508.719,1566.2a4.225,4.225,0,0,1,1.958,1.909,2.7,2.7,0,0,1-2.34-.082,4.223,4.223,0,0,1-1.958-1.909A2.7,2.7,0,0,1,508.719,1566.2Z" transform="translate(-506.378 -1565.885)" fill="#50bfa5"/>
        </g>
        <g id="Group_631" data-name="Group 631" transform="translate(7.887 31.909)">
          <path id="Path_2847" data-name="Path 2847" d="M517.152,1596.948a4.224,4.224,0,0,1,1.958,1.909,2.7,2.7,0,0,1-2.341-.082,4.224,4.224,0,0,1-1.958-1.909A2.7,2.7,0,0,1,517.152,1596.948Z" transform="translate(-514.812 -1596.637)" fill="#50bfa5"/>
        </g>
        <g id="Group_632" data-name="Group 632" transform="translate(9.605 14.713)">
          <path id="Path_2848" data-name="Path 2848" d="M530.483,1463.185a5.25,5.25,0,0,1,4.774-.646,5.621,5.621,0,0,1-2.25,4.395,5.248,5.248,0,0,1-4.774.646A5.621,5.621,0,0,1,530.483,1463.185Z" transform="translate(-528.233 -1462.241)" fill="#50bfa5"/>
        </g>
        <g id="Group_633" data-name="Group 633" transform="translate(10.539 20.714)">
          <path id="Path_2849" data-name="Path 2849" d="M537.784,1510.085a5.249,5.249,0,0,1,4.774-.646,5.62,5.62,0,0,1-2.249,4.394,5.25,5.25,0,0,1-4.774.646A5.62,5.62,0,0,1,537.784,1510.085Z" transform="translate(-535.534 -1509.141)" fill="#50bfa5"/>
        </g>
        <g id="Group_634" data-name="Group 634" transform="translate(11.938 29.708)">
          <path id="Path_2850" data-name="Path 2850" d="M547.936,1580.053a3.416,3.416,0,0,1,3.107-.421,3.658,3.658,0,0,1-1.464,2.86,3.417,3.417,0,0,1-3.107.421A3.659,3.659,0,0,1,547.936,1580.053Z" transform="translate(-546.472 -1579.439)" fill="#50bfa5"/>
        </g>
      </g>
    </g>
    <path id="Path_2851" data-name="Path 2851" d="M383.464,1724.714s-12.811-16.449-18.167-18.969c-5.707-2.685-.758,6.62-.758,6.62s-12.2-11.987-15.068-8.994.194,5.794.194,5.794-10.217-1.9-11.707,1.929c-2.289,5.881,14.516,8.807,14.516,8.807s-8.051-1.767-6.44,1.875C348.463,1727.267,383.464,1724.714,383.464,1724.714Z" transform="translate(-166.048 -613.899)" fill="#50bfa5"/>
    <path id="Path_2852" data-name="Path 2852" d="M339.418,1709.33c1.49-3.828,11.707-1.929,11.707-1.929s-3.06-2.8-.194-5.794,12.417,4.075,12.417,4.075-1.48-6.5,5.7-1.386c5.125,3.65,15.016,17.265,15.016,17.265Z" transform="translate(-167.508 -612.135)" fill="#96d9c9"/>
    <g id="Group_638" data-name="Group 638" transform="translate(207.996 1074.556)">
      <g id="Group_637" data-name="Group 637" transform="translate(0 0)">
        <path id="Path_2853" data-name="Path 2853" d="M621.445,1626.076s20.414,1.444,24.39-2.212.032-10.278.032-10.278,7.005-5.537,6.9-9.153-4.673-1.781-4.673-1.781,7.735-9.96,5.9-11.854c-3.417-3.528-12.361,6.825-12.361,6.825s2.654-4.925-.146-5.707c-4.223-1.179-7.328,10.967-7.328,10.967s.788-4.8-2.123-4.16C626.81,1599.865,621.445,1626.076,621.445,1626.076Z" transform="translate(-621.445 -1590.065)" fill="#50bfa5"/>
      </g>
    </g>
    <path id="Path_2854" data-name="Path 2854" d="M701.562,998.917l3.186.609a1.418,1.418,0,0,1-1.713.973C701.317,1000.222,701.562,998.917,701.562,998.917Z" transform="translate(-483.305 0)" fill="#fff"/>
  </g>
  <g id="Group_640" data-name="Group 640" transform="translate(246.672 165.791)">
    <g id="Group_616-2" data-name="Group 616" transform="translate(25.59 2.517)">
      <g id="Group_609-2" data-name="Group 609" transform="translate(0 3.786)">
        <path id="Path_2829-2" data-name="Path 2829" d="M468.418,1109.09c3.566-5.317,4.43-11.86,4.526-16.413a43.857,43.857,0,0,0-.655-8.711l.247-.08a44.151,44.151,0,0,1,.661,8.771c-.1,4.6-.97,11.208-4.58,16.591Z" transform="translate(-468.418 -1083.887)" fill="#3c8f7c"/>
      </g>
      <g id="Group_610-2" data-name="Group 610" transform="translate(3.07 0)">
        <path id="Path_2830-2" data-name="Path 2830" d="M463.156,1035.778a3.759,3.759,0,0,0,1.159,2.676,4.406,4.406,0,0,0,.944-2.932,3.76,3.76,0,0,0-1.159-2.676A4.406,4.406,0,0,0,463.156,1035.778Z" transform="translate(-463.152 -1032.846)" fill="#3c8f7c"/>
      </g>
      <g id="Group_611-2" data-name="Group 611" transform="translate(4.541 3.862)">
        <path id="Path_2831-2" data-name="Path 2831" d="M430.344,1086.641a4.4,4.4,0,0,0-.674,3,3.8,3.8,0,0,0,2.361-1.733,4.4,4.4,0,0,0,.674-3A3.8,3.8,0,0,0,430.344,1086.641Z" transform="translate(-429.624 -1084.908)" fill="#3c8f7c"/>
      </g>
      <g id="Group_612-2" data-name="Group 612" transform="translate(4.633 8.132)">
        <path id="Path_2832-2" data-name="Path 2832" d="M410.981,1143.03a4.2,4.2,0,0,0-1.811,2.426,3.25,3.25,0,0,0,2.74-.4,4.2,4.2,0,0,0,1.811-2.426A3.25,3.25,0,0,0,410.981,1143.03Z" transform="translate(-409.17 -1142.484)" fill="#3c8f7c"/>
      </g>
      <g id="Group_613-2" data-name="Group 613" transform="translate(3.982 11.788)">
        <ellipse id="Ellipse_159-2" data-name="Ellipse 159" cx="1.102" cy="2.129" rx="1.102" ry="2.129" transform="matrix(-0.568, -0.823, 0.823, -0.568, 1.252, 4.233)" fill="#3c8f7c"/>
      </g>
      <g id="Group_614-2" data-name="Group 614" transform="translate(0.739 7.368)">
        <path id="Path_2833-2" data-name="Path 2833" d="M473.168,1132.6a2.789,2.789,0,0,0-2.428-.233,3.147,3.147,0,0,0,1.45,2.092,2.789,2.789,0,0,0,2.428.233A3.146,3.146,0,0,0,473.168,1132.6Z" transform="translate(-470.74 -1132.188)" fill="#3c8f7c"/>
      </g>
      <g id="Group_615-2" data-name="Group 615" transform="translate(0.723 10.292)">
        <path id="Path_2834-2" data-name="Path 2834" d="M473.393,1172.016a2.789,2.789,0,0,0-2.428-.233,3.145,3.145,0,0,0,1.45,2.092,2.788,2.788,0,0,0,2.428.233A3.146,3.146,0,0,0,473.393,1172.016Z" transform="translate(-470.965 -1171.607)" fill="#3c8f7c"/>
      </g>
    </g>
    <g id="Group_625-2" data-name="Group 625" transform="translate(29.264 29.023)">
      <g id="Group_617-2" data-name="Group 617" transform="translate(0 4.16)">
        <path id="Path_2835-2" data-name="Path 2835" d="M199.869,1470.732c7.476-2.722,12.7-9.214,15.775-14.181a53.284,53.284,0,0,0,4.929-10.25l.33.131a53.652,53.652,0,0,1-4.961,10.323c-3.1,5.016-8.383,11.575-15.951,14.331Z" transform="translate(-199.869 -1446.301)" fill="#96d9c9"/>
      </g>
      <g id="Group_618-2" data-name="Group 618" transform="translate(19.774)">
        <path id="Path_2836-2" data-name="Path 2836" d="M166.119,1392.626a5.4,5.4,0,0,0-.435,4,4.673,4.673,0,0,0,2.971-2.413,5.4,5.4,0,0,0,.435-4A4.674,4.674,0,0,0,166.119,1392.626Z" transform="translate(-165.482 -1390.213)" fill="#96d9c9"/>
      </g>
      <g id="Group_619-2" data-name="Group 619" transform="translate(18.43 6.99)">
        <path id="Path_2837-2" data-name="Path 2837" d="M150.046,1484.778a4.766,4.766,0,0,0-2.714,2.734,4.555,4.555,0,0,0,3.787.18,4.766,4.766,0,0,0,2.714-2.734A4.554,4.554,0,0,0,150.046,1484.778Z" transform="translate(-147.332 -1484.451)" fill="#96d9c9"/>
      </g>
      <g id="Group_620-2" data-name="Group 620" transform="translate(16.639 11.308)">
        <ellipse id="Ellipse_160-2" data-name="Ellipse 160" cx="3.514" cy="1.543" rx="3.514" ry="1.543" transform="translate(6.957 4.046) rotate(-171.887)" fill="#96d9c9"/>
      </g>
      <g id="Group_621-2" data-name="Group 621" transform="translate(14.003 15.596)">
        <ellipse id="Ellipse_161-2" data-name="Ellipse 161" cx="3.514" cy="1.543" rx="3.514" ry="1.543" transform="translate(6.957 4.046) rotate(-171.887)" fill="#96d9c9"/>
      </g>
      <g id="Group_622-2" data-name="Group 622" transform="translate(15.474 5.992)">
        <path id="Path_2838-2" data-name="Path 2838" d="M242.607,1474.405a5.274,5.274,0,0,0-1.471-3.41,4.581,4.581,0,0,0-1.092,3.365,5.274,5.274,0,0,0,1.471,3.41A4.581,4.581,0,0,0,242.607,1474.405Z" transform="translate(-240.035 -1470.995)" fill="#96d9c9"/>
      </g>
      <g id="Group_623-2" data-name="Group 623" transform="translate(12.725 10.404)">
        <path id="Path_2839-2" data-name="Path 2839" d="M279.761,1533.92a5.294,5.294,0,0,0-1.422-3.436,4.559,4.559,0,0,0-1.142,3.342,5.293,5.293,0,0,0,1.422,3.436A4.559,4.559,0,0,0,279.761,1533.92Z" transform="translate(-277.193 -1530.484)" fill="#96d9c9"/>
      </g>
      <g id="Group_624-2" data-name="Group 624" transform="translate(11.733 20.291)">
        <path id="Path_2840-2" data-name="Path 2840" d="M291.054,1664a1.847,1.847,0,0,0-1.607-.076,2.129,2.129,0,0,0,1.049,1.327,1.846,1.846,0,0,0,1.607.076A2.13,2.13,0,0,0,291.054,1664Z" transform="translate(-289.447 -1663.773)" fill="#96d9c9"/>
      </g>
    </g>
    <path id="Path_2841-2" data-name="Path 2841" d="M295.419,1230.441s-5.812-12.831-3.869-15.695c2.685-3.957,6.024,8.185,6.187,7.118,1.538-10.078,1.216-22.789,8.408-24.716,4.088-1.095-.27,9.493.237,12.221s7.309-7.012,11.5-12.165,6.753-2.31,4.325,3.942c-2.348,6.045-10.853,13.128-8.949,13.734s12.58-7.815,14.189-4.711c1.973,3.805-14.473,10.522-12.823,11.28s9.485-2.8,9.485.227-10.826,3.789-10.544,5.1c.456,2.122,7.256-3.311,7.787-.366.543,3.012-9.232,3.24-8.89,5.6.2,1.354,2.658-.063,3.1,1.8,1.015,4.244-14.388,10.19-14.388,10.19Z" transform="translate(-284.082 -1180.025)" fill="#3c8f7c"/>
    <g id="Group_636-2" data-name="Group 636" transform="translate(17.175 25.837)">
      <g id="Group_635-2" data-name="Group 635" transform="translate(0 0)">
        <g id="Group_626-2" data-name="Group 626" transform="translate(0 4.379)">
          <path id="Path_2842-2" data-name="Path 2842" d="M521.276,1436.3l-.224-.191c5.08-6.189,7.249-13.946,8.175-19.364a53.573,53.573,0,0,0,.8-10.4l.308-.055a53.9,53.9,0,0,1-.8,10.46C528.6,1422.216,526.41,1430.043,521.276,1436.3Z" transform="translate(-521.052 -1406.292)" fill="#50bfa5"/>
        </g>
        <g id="Group_627-2" data-name="Group 627" transform="translate(8.259)">
          <path id="Path_2843-2" data-name="Path 2843" d="M500.765,1350.707a4.1,4.1,0,0,0,.863,3.231,6,6,0,0,0,1.616-3.452,4.1,4.1,0,0,0-.863-3.231A6,6,0,0,0,500.765,1350.707Z" transform="translate(-500.73 -1347.255)" fill="#50bfa5"/>
        </g>
        <g id="Group_628-2" data-name="Group 628" transform="translate(8.959 4.595)">
          <path id="Path_2844-2" data-name="Path 2844" d="M468.222,1411.169a5.867,5.867,0,0,0-1.317,3.548,5.156,5.156,0,0,0,3.041-1.968,5.867,5.867,0,0,0,1.317-3.548A5.156,5.156,0,0,0,468.222,1411.169Z" transform="translate(-466.905 -1409.201)" fill="#50bfa5"/>
        </g>
        <g id="Group_629-2" data-name="Group 629" transform="translate(8.565 9.7)">
          <path id="Path_2845-2" data-name="Path 2845" d="M455.7,1478.617a5.874,5.874,0,0,0-2.528,2.815,3.827,3.827,0,0,0,3.242-.366,5.874,5.874,0,0,0,2.528-2.815A3.827,3.827,0,0,0,455.7,1478.617Z" transform="translate(-453.168 -1478.039)" fill="#50bfa5"/>
        </g>
        <g id="Group_630-2" data-name="Group 630" transform="translate(7.897 16.216)">
          <path id="Path_2846-2" data-name="Path 2846" d="M507.513,1566.066a2.449,2.449,0,0,0-1.135,1.107,1.565,1.565,0,0,0,1.357-.048,2.447,2.447,0,0,0,1.135-1.107A1.566,1.566,0,0,0,507.513,1566.066Z" transform="translate(-506.378 -1565.885)" fill="#50bfa5"/>
        </g>
        <g id="Group_631-2" data-name="Group 631" transform="translate(7.271 18.497)">
          <path id="Path_2847-2" data-name="Path 2847" d="M515.947,1596.817a2.448,2.448,0,0,0-1.135,1.107,1.566,1.566,0,0,0,1.357-.048,2.449,2.449,0,0,0,1.135-1.107A1.566,1.566,0,0,0,515.947,1596.817Z" transform="translate(-514.812 -1596.637)" fill="#50bfa5"/>
        </g>
        <g id="Group_632-2" data-name="Group 632" transform="translate(4.696 8.529)">
          <path id="Path_2848-2" data-name="Path 2848" d="M531,1462.788a3.044,3.044,0,0,0-2.767-.375,3.258,3.258,0,0,0,1.3,2.547,3.042,3.042,0,0,0,2.767.375A3.259,3.259,0,0,0,531,1462.788Z" transform="translate(-528.233 -1462.241)" fill="#50bfa5"/>
        </g>
        <g id="Group_633-2" data-name="Group 633" transform="translate(4.155 12.007)">
          <path id="Path_2849-2" data-name="Path 2849" d="M538.3,1509.688a3.043,3.043,0,0,0-2.767-.375,3.258,3.258,0,0,0,1.3,2.547,3.043,3.043,0,0,0,2.767.375A3.258,3.258,0,0,0,538.3,1509.688Z" transform="translate(-535.534 -1509.141)" fill="#50bfa5"/>
        </g>
        <g id="Group_634-2" data-name="Group 634" transform="translate(4.765 17.222)">
          <path id="Path_2850-2" data-name="Path 2850" d="M548.273,1579.8a1.98,1.98,0,0,0-1.8-.244,2.121,2.121,0,0,0,.849,1.658,1.981,1.981,0,0,0,1.8.244A2.121,2.121,0,0,0,548.273,1579.8Z" transform="translate(-546.472 -1579.439)" fill="#50bfa5"/>
        </g>
      </g>
    </g>
    <path id="Path_2851-2" data-name="Path 2851" d="M337.743,1715.542s7.427-9.535,10.531-11c3.308-1.557.44,3.837.44,3.837s7.073-6.948,8.735-5.213a2.293,2.293,0,0,1-.112,3.359s5.923-1.1,6.786,1.118c1.327,3.409-8.415,5.105-8.415,5.105s4.667-1.024,3.733,1.087C358.033,1717.022,337.743,1715.542,337.743,1715.542Z" transform="translate(-324.175 -1650.676)" fill="#50bfa5"/>
    <path id="Path_2852-2" data-name="Path 2852" d="M365.3,1705.773c-.864-2.219-6.787-1.118-6.787-1.118a2.293,2.293,0,0,0,.113-3.359c-1.661-1.735-7.2,2.362-7.2,2.362s.858-3.766-3.3-.8c-2.971,2.116-8.7,10.008-8.7,10.008Z" transform="translate(-325.349 -1648.803)" fill="#96d9c9"/>
    <g id="Group_638-2" data-name="Group 638" transform="translate(0 43.847)">
      <g id="Group_637-2" data-name="Group 637" transform="translate(0 0)">
        <path id="Path_2853-2" data-name="Path 2853" d="M640.474,1610.94s-11.834.837-14.139-1.282-.018-5.958-.018-5.958-4.061-3.21-4-5.306,2.709-1.032,2.709-1.032-4.484-5.774-3.421-6.872c1.981-2.045,7.165,3.956,7.165,3.956s-1.539-2.855.085-3.308c2.448-.684,4.248,6.357,4.248,6.357s-.457-2.781,1.231-2.411C637.364,1595.745,640.474,1610.94,640.474,1610.94Z" transform="translate(-621.445 -1590.065)" fill="#50bfa5"/>
      </g>
    </g>
    <path id="Path_2854-2" data-name="Path 2854" d="M703.4,998.917l-1.847.353a.822.822,0,0,0,.993.564C703.539,999.673,703.4,998.917,703.4,998.917Z" transform="translate(-690.317 -998.917)" fill="#fff"/>
  </g>
  <g id="Group_600" data-name="Group 600" transform="translate(-796.419 75.502)">
    <g id="Group_575" data-name="Group 575" transform="translate(941.836 39.998)">
      <g id="Group_568" data-name="Group 568" transform="translate(13.718)">
        <circle id="Ellipse_153" data-name="Ellipse 153" cx="18.251" cy="18.251" r="18.251" transform="translate(1.925 1.925)" fill="#1b1b25"/>
        <circle id="Ellipse_154" data-name="Ellipse 154" cx="18.251" cy="18.251" r="18.251" fill="#ffb54a"/>
        <path id="Path_2759" data-name="Path 2759" d="M1108.009,80.692a14.7,14.7,0,1,1,14.7-14.7A14.716,14.716,0,0,1,1108.009,80.692Zm0-28.446a13.747,13.747,0,1,0,13.747,13.747A13.762,13.762,0,0,0,1108.009,52.246Z" transform="translate(-1089.757 -47.706)" fill="#fcf0e3"/>
        <g id="Group_567" data-name="Group 567" transform="translate(12.184 8.904)">
          <g id="Group_566" data-name="Group 566">
            <path id="Path_2760" data-name="Path 2760" d="M1125.484,84.007a10.434,10.434,0,0,1-2.655-.688A10.115,10.115,0,0,1,1120.491,82l1.65-2.412a12.714,12.714,0,0,0,1.682,1.09,6.4,6.4,0,0,0,1.767.624V77.936a14.5,14.5,0,0,1-2-.7,5.012,5.012,0,0,1-1.418-.91,3.456,3.456,0,0,1-.846-1.238,4.36,4.36,0,0,1-.286-1.64v-.042a3.945,3.945,0,0,1,.317-1.608,3.675,3.675,0,0,1,.9-1.248,4.6,4.6,0,0,1,1.407-.857,6.9,6.9,0,0,1,1.82-.434V68.035h2.2V69.3a8.838,8.838,0,0,1,3.935,1.565l-1.417,2.475a12.057,12.057,0,0,0-1.29-.751,6.526,6.526,0,0,0-1.333-.5v3.194a8.056,8.056,0,0,1,3.5,1.714,3.77,3.77,0,0,1,1.089,2.835v.042a3.744,3.744,0,0,1-1.238,2.856,4.744,4.744,0,0,1-1.407.867,6.633,6.633,0,0,1-1.84.444v2.094h-2.2Zm.106-12.1a1.913,1.913,0,0,0-1.111.455,1.165,1.165,0,0,0-.349.857v.042a1.249,1.249,0,0,0,.3.836,2.831,2.831,0,0,0,1.164.666Zm1.988,9.5q1.5-.232,1.5-1.354v-.043a1.286,1.286,0,0,0-.317-.9,3.057,3.057,0,0,0-1.185-.666Z" transform="translate(-1120.491 -68.035)" fill="#1b1b25"/>
          </g>
        </g>
      </g>
      <g id="Group_571" data-name="Group 571" transform="translate(13.718)">
        <circle id="Ellipse_155" data-name="Ellipse 155" cx="18.251" cy="18.251" r="18.251" transform="translate(1.925 1.925)" fill="#1b1b25"/>
        <circle id="Ellipse_156" data-name="Ellipse 156" cx="18.251" cy="18.251" r="18.251" fill="#ffb54a"/>
        <path id="Path_2761" data-name="Path 2761" d="M1108.009,80.692a14.7,14.7,0,1,1,14.7-14.7A14.716,14.716,0,0,1,1108.009,80.692Zm0-28.446a13.747,13.747,0,1,0,13.747,13.747A13.762,13.762,0,0,0,1108.009,52.246Z" transform="translate(-1089.757 -47.706)" fill="#fcf0e3"/>
        <g id="Group_570" data-name="Group 570" transform="translate(12.184 8.904)">
          <g id="Group_569" data-name="Group 569">
            <path id="Path_2762" data-name="Path 2762" d="M1125.484,84.007a10.434,10.434,0,0,1-2.655-.688A10.115,10.115,0,0,1,1120.491,82l1.65-2.412a12.714,12.714,0,0,0,1.682,1.09,6.4,6.4,0,0,0,1.767.624V77.936a14.5,14.5,0,0,1-2-.7,5.012,5.012,0,0,1-1.418-.91,3.456,3.456,0,0,1-.846-1.238,4.36,4.36,0,0,1-.286-1.64v-.042a3.945,3.945,0,0,1,.317-1.608,3.675,3.675,0,0,1,.9-1.248,4.6,4.6,0,0,1,1.407-.857,6.9,6.9,0,0,1,1.82-.434V68.035h2.2V69.3a8.838,8.838,0,0,1,3.935,1.565l-1.417,2.475a12.057,12.057,0,0,0-1.29-.751,6.526,6.526,0,0,0-1.333-.5v3.194a8.056,8.056,0,0,1,3.5,1.714,3.77,3.77,0,0,1,1.089,2.835v.042a3.744,3.744,0,0,1-1.238,2.856,4.744,4.744,0,0,1-1.407.867,6.633,6.633,0,0,1-1.84.444v2.094h-2.2Zm.106-12.1a1.913,1.913,0,0,0-1.111.455,1.165,1.165,0,0,0-.349.857v.042a1.249,1.249,0,0,0,.3.836,2.831,2.831,0,0,0,1.164.666Zm1.988,9.5q1.5-.232,1.5-1.354v-.043a1.286,1.286,0,0,0-.317-.9,3.057,3.057,0,0,0-1.185-.666Z" transform="translate(-1120.491 -68.035)" fill="#1b1b25"/>
          </g>
        </g>
      </g>
      <g id="Group_574" data-name="Group 574" transform="translate(4.655 0.675)">
        <circle id="Ellipse_157" data-name="Ellipse 157" cx="8.258" cy="8.258" r="8.258" transform="translate(0.871 0.871)" fill="#1b1b25"/>
        <circle id="Ellipse_158" data-name="Ellipse 158" cx="8.258" cy="8.258" r="8.258" fill="#ffb54a"/>
        <path id="Path_2763" data-name="Path 2763" d="M1065.3,60.536a6.651,6.651,0,1,1,6.651-6.651A6.659,6.659,0,0,1,1065.3,60.536Zm0-12.871a6.22,6.22,0,1,0,6.22,6.22A6.227,6.227,0,0,0,1065.3,47.665Z" transform="translate(-1057.04 -45.611)" fill="#fcf0e3"/>
        <g id="Group_573" data-name="Group 573" transform="translate(5.514 4.029)">
          <g id="Group_572" data-name="Group 572">
            <path id="Path_2764" data-name="Path 2764" d="M1073.207,62.036a4.721,4.721,0,0,1-1.2-.311,4.574,4.574,0,0,1-1.057-.6l.747-1.092a5.705,5.705,0,0,0,.761.493,2.9,2.9,0,0,0,.8.283V59.289a6.59,6.59,0,0,1-.9-.316,2.264,2.264,0,0,1-.641-.411,1.56,1.56,0,0,1-.383-.56,1.973,1.973,0,0,1-.129-.742V57.24a1.785,1.785,0,0,1,.144-.728,1.659,1.659,0,0,1,.407-.565,2.081,2.081,0,0,1,.637-.388,3.119,3.119,0,0,1,.823-.2v-.555h1v.575a3.995,3.995,0,0,1,1.78.708l-.641,1.12a5.438,5.438,0,0,0-.584-.34,2.936,2.936,0,0,0-.6-.225v1.446a3.637,3.637,0,0,1,1.584.775,1.706,1.706,0,0,1,.493,1.283v.019a1.737,1.737,0,0,1-.149.728,1.717,1.717,0,0,1-.411.565,2.147,2.147,0,0,1-.636.393,3,3,0,0,1-.833.2V63h-1Zm.048-5.475a.867.867,0,0,0-.5.206.528.528,0,0,0-.158.388v.019a.565.565,0,0,0,.134.378,1.28,1.28,0,0,0,.527.3Zm.9,4.3q.679-.1.68-.613v-.019a.583.583,0,0,0-.144-.407,1.383,1.383,0,0,0-.536-.3Z" transform="translate(-1070.948 -54.809)" fill="#1b1b25"/>
          </g>
        </g>
      </g>
      <path id="Path_2765" data-name="Path 2765" d="M1042.516,99.409h0a3.586,3.586,0,0,0-3.586-3.586h0a3.586,3.586,0,0,0,3.586-3.586h0a3.586,3.586,0,0,0,3.586,3.586h0A3.586,3.586,0,0,0,1042.516,99.409Z" transform="translate(-1038.93 -75.646)" fill="#fff"/>
      <path id="Path_2766" data-name="Path 2766" d="M1177.221,160.275h0a2.634,2.634,0,0,0-2.634-2.634h0a2.634,2.634,0,0,0,2.634-2.634h0a2.634,2.634,0,0,0,2.634,2.634h0A2.634,2.634,0,0,0,1177.221,160.275Z" transform="translate(-1131.505 -118.482)" fill="#fff"/>
      <path id="Path_2767" data-name="Path 2767" d="M1118.268,190.719h0a4.843,4.843,0,0,0-4.843-4.843h0a4.843,4.843,0,0,0,4.843-4.843h0a4.843,4.843,0,0,0,4.843,4.843h0A4.843,4.843,0,0,0,1118.268,190.719Z" transform="translate(-1089.767 -136.243)" fill="#fff"/>
      <path id="Path_2768" data-name="Path 2768" d="M1171.569,74.37h0a4.538,4.538,0,0,0-4.538-4.538h0a4.538,4.538,0,0,0,4.538-4.539h0a4.538,4.538,0,0,0,4.539,4.539h0A4.538,4.538,0,0,0,1171.569,74.37Z" transform="translate(-1126.349 -57.26)" fill="#fcf0e3"/>
      <path id="Path_2769" data-name="Path 2769" d="M1223.713,92.77h0a2.5,2.5,0,0,0-2.5-2.5h0a2.5,2.5,0,0,0,2.5-2.5h0a2.5,2.5,0,0,0,2.5,2.5h0A2.5,2.5,0,0,0,1223.713,92.77Z" transform="translate(-1163.321 -72.594)" fill="#fff"/>
    </g>
    <g id="Group_581" data-name="Group 581" transform="translate(980.06 74.763)">
      <g id="Group_580" data-name="Group 580" transform="translate(0 0)">
        <g id="Group_579" data-name="Group 579">
          <g id="Group_577" data-name="Group 577">
            <path id="Path_2770" data-name="Path 2770" d="M1174.911,183.35l.01-.037,4.6-16-.02-.015a5.742,5.742,0,0,1,1.839-2.038,5.325,5.325,0,0,0,2.122-3.512c1.012-.98,2.153-1.816,3.186-2.773a.734.734,0,0,0,.252-.353.616.616,0,0,0-.131-.46,1.825,1.825,0,0,0-2.329-.54,5.685,5.685,0,0,0-1.3.853,6.451,6.451,0,0,0-1.035.885l3.658-7.81a1.3,1.3,0,0,0-.472-1.758h0a1.086,1.086,0,0,0-.924.019,1.466,1.466,0,0,0-.509.4l.018-.091c-4.284-3.6-9.569,8.658-9.569,8.658l-1.5,3.54-12.722,23.589a6.853,6.853,0,0,0,3.063,9.349h0c.05.024.1.046.151.069a6.909,6.909,0,0,0,3.465.927H1191.8l5.4-12.823Zm7.133-23.867h0Z" transform="translate(-1159.289 -149.468)" fill="#fec29e"/>
            <g id="Group_576" data-name="Group 576" transform="translate(10.89 33.846)">
              <path id="Path_2771" data-name="Path 2771" d="M1204.84,264.021l-.641,2.229C1204.432,265.48,1204.651,264.724,1204.84,264.021Z" transform="translate(-1200.826 -261.487)" fill="none"/>
              <path id="Path_2772" data-name="Path 2772" d="M1194.022,296.767Z" transform="translate(-1193.578 -283.824)" fill="#ff887c" opacity="0.17"/>
              <path id="Path_2773" data-name="Path 2773" d="M1194.99,296.8l.205.006Z" transform="translate(-1194.542 -283.853)" fill="#ff887c" opacity="0.17"/>
              <path id="Path_2774" data-name="Path 2774" d="M1199.725,256.041l-.729,2.534c-.189.7-.408,1.459-.641,2.229l-.88,3.063a6.852,6.852,0,0,1-.456,1.117c-.758,2.267-1.383,4.006-1.383,4.006l9-12.893C1202.4,256.1,1201.887,256.044,1199.725,256.041Z" transform="translate(-1194.983 -256.041)" fill="#ff887c" opacity="0.17"/>
              <path id="Path_2775" data-name="Path 2775" d="M1194.976,296.8h0Z" transform="translate(-1194.532 -283.853)" fill="#ff887c" opacity="0.17"/>
            </g>
            <path id="Path_2776" data-name="Path 2776" d="M1219.585,179.786a.158.158,0,0,1-.128-.253,2.91,2.91,0,0,1,3.767-.984.159.159,0,0,1-.155.277,2.561,2.561,0,0,0-3.357.9A.158.158,0,0,1,1219.585,179.786Z" transform="translate(-1200.328 -169.09)" fill="#fb8e77"/>
            <path id="Path_2777" data-name="Path 2777" d="M1230.043,151.411a24.215,24.215,0,0,0-1.818,2.616,11.842,11.842,0,0,0-.723,1.408,3.462,3.462,0,0,0-.34,1.478v.01a.159.159,0,0,1-.317.017v0a3.717,3.717,0,0,1,.395-1.614,12.061,12.061,0,0,1,.768-1.427,24.5,24.5,0,0,1,1.889-2.606.095.095,0,0,1,.147.119Z" transform="translate(-1205.39 -150.688)" fill="#fb8e77"/>
            <path id="Path_2778" data-name="Path 2778" d="M1225.852,149.921a5.967,5.967,0,0,0-1.132,1.067,9.478,9.478,0,0,0-.9,1.287,11.413,11.413,0,0,0-.687,1.415c-.1.241-.181.493-.273.738l-.228.754,0,.009a.159.159,0,0,1-.3-.092v0l.247-.767c.1-.25.183-.505.294-.75a11.614,11.614,0,0,1,.731-1.436,9.755,9.755,0,0,1,.948-1.3,6.155,6.155,0,0,1,1.2-1.088.1.1,0,0,1,.11.163Z" transform="translate(-1202.303 -149.651)" fill="#fb8e77"/>
            <path id="Path_2779" data-name="Path 2779" d="M1221.465,150.361a15.475,15.475,0,0,0-1.663,2.055,8.808,8.808,0,0,0-.656,1.137,4.657,4.657,0,0,0-.4,1.22v0a.159.159,0,1,1-.314-.05v0a4.914,4.914,0,0,1,.459-1.3,9.055,9.055,0,0,1,.7-1.155,15.665,15.665,0,0,1,1.74-2.044.093.093,0,0,1,.132.129Z" transform="translate(-1199.648 -149.969)" fill="#fb8e77"/>
          </g>
          <g id="Group_578" data-name="Group 578" transform="translate(22.352 33.835)">
            <path id="Path_2780" data-name="Path 2780" d="M1280.727,279.346l-6.142-16.742a8.411,8.411,0,0,0-8.43-6.459L1249,256.009l-19.329.074v12.886h6l-3.1,33.608,42.563.241-.238-22.758Z" transform="translate(-1229.67 -256.009)" fill="#bec8ff"/>
            <path id="Path_2781" data-name="Path 2781" d="M1257.308,326.841" transform="translate(-1248.531 -304.346)" fill="none" stroke="#fb8e77" stroke-linecap="round" stroke-miterlimit="10" stroke-width="1"/>
          </g>
          <path id="Path_2782" data-name="Path 2782" d="M1248.965,256.153l.034-.144-19.329.074v12.886h6l.031-.34C1235.7,261.828,1241.612,256.3,1248.965,256.153Z" transform="translate(-1207.318 -222.174)" fill="#1b1b25" opacity="0.05"/>
          <path id="Path_2783" data-name="Path 2783" d="M1213.511,197.747s1.085,9.215,1.149,8.993l1.861-6.475Z" transform="translate(-1196.291 -182.414)" fill="#ff887c" opacity="0.18"/>
        </g>
      </g>
    </g>
    <g id="Group_584" data-name="Group 584" transform="translate(1010.735 121.134)">
      <g id="Group_582" data-name="Group 582" transform="translate(0)">
        <path id="Path_2784" data-name="Path 2784" d="M1267.761,311.091l-1.624-8.187-1.253-6.316a1.381,1.381,0,0,0-1.619-1.083l-6.274,1.245a1.382,1.382,0,0,0-1.083,1.619l1.261,6.357,1,5.043.616,3.1a1.381,1.381,0,0,0,1.619,1.083l3.706-.735,2.568-.51A1.381,1.381,0,0,0,1267.761,311.091Z" transform="translate(-1255.881 -295.479)" fill="#1b1b25"/>
      </g>
      <g id="Group_583" data-name="Group 583" transform="translate(0.268 7.425)">
        <path id="Path_2785" data-name="Path 2785" d="M1301.733,334.592l-2.829-12.32-12.863,1.574.706,3.134-.065-.016L1272.7,323.5l-.012.017a4.682,4.682,0,0,1-1.749-1.607,4.185,4.185,0,0,0-3.142-1.8c-.379-.4-.733-.823-1.083-1.251l.328,1.651-.082.043a5.3,5.3,0,0,1-2.9.6l-6.148-.48a.936.936,0,0,0-.92.523c-1.8,3.783,5.927,7.244,7.691,7.976h0l.062.025.072.03.067.027.056.023.053.021.02.008.026.01,3.024,1.134,23.941,11.784a6.913,6.913,0,0,0,.674.28,5.972,5.972,0,0,0,3.838.4h0A6.944,6.944,0,0,0,1301.733,334.592Z" transform="translate(-1256.725 -318.86)" fill="#fec29e"/>
        <path id="Path_2786" data-name="Path 2786" d="M1363.813,341.334l-14.781-6.774c.494,2.149.206,1.2.641,3.117l1.005.249C1354.935,338.213,1363.813,341.334,1363.813,341.334Z" transform="translate(-1319.717 -329.574)" fill="#ff887c" opacity="0.17"/>
      </g>
      <path id="Path_2787" data-name="Path 2787" d="M1340.962,315.154a.158.158,0,0,1-.155-.127l-1.847-8.946a.159.159,0,0,1,.311-.064l1.817,8.8,6.22-.791a.159.159,0,1,1,.04.315l-6.366.81Z" transform="translate(-1312.573 -302.584)" fill="#1b1b25" opacity="0.35"/>
    </g>
    <g id="Group_585" data-name="Group 585" transform="translate(1055.099 140.319)">
      <path id="Path_2788" data-name="Path 2788" d="M1395.89,357.493l.025.127Z" transform="translate(-1395.789 -356.984)" fill="#ff887c" opacity="0.17"/>
      <path id="Path_2789" data-name="Path 2789" d="M1395.969,357.892Z" transform="translate(-1395.843 -357.256)" fill="#ff887c" opacity="0.17"/>
      <path id="Path_2790" data-name="Path 2790" d="M1395.573,355.89l.067.339Z" transform="translate(-1395.573 -355.89)" fill="#ff887c" opacity="0.17"/>
      <path id="Path_2791" data-name="Path 2791" d="M1395.784,356.959l.034.17Z" transform="translate(-1395.717 -356.619)" fill="#ff887c" opacity="0.17"/>
    </g>
    <g id="Group_587" data-name="Group 587" transform="translate(1014.678 69.777)">
      <path id="Path_2792" data-name="Path 2792" d="M1291.285,139.558a5.059,5.059,0,0,0-7.564-3.647,4.455,4.455,0,0,0-6.911-.885,5.881,5.881,0,0,0-6.519,9.674l-1.2,6.389a3.379,3.379,0,0,0,2.7,3.942l14.172,2.653a3.379,3.379,0,0,0,3.943-2.7l2.322-12.4A3.376,3.376,0,0,0,1291.285,139.558Z" transform="translate(-1268.295 -133.768)" fill="#1b1b25"/>
      <g id="Group_586" data-name="Group 586" transform="translate(1.279 2.58)">
        <path id="Path_2793" data-name="Path 2793" d="M1273.378,148.6a.16.16,0,0,1-.134-.074,4.764,4.764,0,0,1,.991-6.6.159.159,0,0,1,.185.258,4.391,4.391,0,0,0-.907,6.173.159.159,0,0,1-.134.244Z" transform="translate(-1272.322 -141.891)" fill="#fcf0e3"/>
      </g>
    </g>
    <g id="Group_589" data-name="Group 589" transform="translate(1015.049 80.492)">
      <g id="Group_588" data-name="Group 588" transform="translate(0 0)">
        <path id="Path_2794" data-name="Path 2794" d="M1289.791,175.107l-.31-.058-3.129-6.724a5.065,5.065,0,0,1-2.116-.818,3.81,3.81,0,0,1-5.378.226,5.875,5.875,0,0,1-7.1.5l-2.179,11.641a6.411,6.411,0,0,0,.808,4.486,6.511,6.511,0,0,0,4.583,3.913v7.687a4.869,4.869,0,0,0,4.855,4.855h1.532a4.869,4.869,0,0,0,4.855-4.855v-8.728a6.485,6.485,0,0,0,1.588-3.182l.4-2.126.31.058a3.412,3.412,0,0,0,3.971-2.718l.035-.187A3.412,3.412,0,0,0,1289.791,175.107Z" transform="translate(-1269.466 -167.507)" fill="#fec29e"/>
      </g>
      <path id="Path_2795" data-name="Path 2795" d="M1289.446,212.056l-.284,1.516a6.444,6.444,0,0,1-7.52,5.148l-4.946-.926a6.421,6.421,0,0,1-4.341-3.033,6.516,6.516,0,0,0,4.847,3.977l.2.037a4.866,4.866,0,0,0,4.371,2.762h1.551a4.871,4.871,0,0,0,4.723-3.754,6.49,6.49,0,0,0,1.723-3.332l.4-2.126Z" transform="translate(-1271.438 -197.908)" fill="#ff887c" opacity="0.32"/>
    </g>
    <g id="Group_593" data-name="Group 593" transform="translate(899.112 77.533)">
      <g id="Group_592" data-name="Group 592" transform="translate(0 0)">
        <g id="Group_590" data-name="Group 590" transform="translate(42.724)">
          <path id="Path_2796" data-name="Path 2796" d="M1065.76,194.724l-12.723-23.589-1.5-3.54s-5.285-12.26-9.569-8.658l.018.091a1.469,1.469,0,0,0-.509-.4,1.086,1.086,0,0,0-.924-.019h0a1.3,1.3,0,0,0-.472,1.758l3.657,7.809a6.452,6.452,0,0,0-1.034-.885,5.673,5.673,0,0,0-1.3-.852,1.825,1.825,0,0,0-2.329.54.615.615,0,0,0-.131.46.735.735,0,0,0,.252.353c1.033.957,2.174,1.793,3.187,2.772a5.322,5.322,0,0,0,2.122,3.512,5.75,5.75,0,0,1,1.839,2.038l-.02.015,4.608,16.032-6.73.09v12.823h14.884a6.908,6.908,0,0,0,3.469-.93c.049-.023.1-.043.147-.067h0A6.854,6.854,0,0,0,1065.76,194.724Z" transform="translate(-1038.93 -158.248)" fill="#fec29e"/>
          <path id="Path_2797" data-name="Path 2797" d="M1070.243,277.8h0s-3.458-9.3-4.052-12.949c-2.292,0-2.64.1-4.931.1Z" transform="translate(-1054.168 -230.975)" fill="#ff887c" opacity="0.17"/>
          <path id="Path_2798" data-name="Path 2798" d="M1057.263,188.592a.158.158,0,0,1-.128-.064,2.559,2.559,0,0,0-3.356-.9.159.159,0,0,1-.155-.277,2.91,2.91,0,0,1,3.767.984.158.158,0,0,1-.127.253Z" transform="translate(-1048.901 -177.87)" fill="#fb8e77"/>
          <path id="Path_2799" data-name="Path 2799" d="M1048.358,160.089a13.866,13.866,0,0,1,1.99,2.557,9.787,9.787,0,0,1,.712,1.468,6.243,6.243,0,0,1,.357,1.609.159.159,0,1,1-.316.025v-.009a5.978,5.978,0,0,0-.309-1.529,9.553,9.553,0,0,0-.662-1.437,13.619,13.619,0,0,0-1.9-2.549l0,0a.095.095,0,0,1,.135-.133Z" transform="translate(-1045.253 -159.467)" fill="#fb8e77"/>
          <path id="Path_2800" data-name="Path 2800" d="M1051.778,158.2a4.181,4.181,0,0,1,1.252,1.086,8.594,8.594,0,0,1,.913,1.36,14.12,14.12,0,0,1,.7,1.475l.289.763.257.774a.159.159,0,1,1-.3.1v0l0-.007-.239-.767-.27-.756a13.7,13.7,0,0,0-.662-1.458,8.336,8.336,0,0,0-.863-1.34,4.048,4.048,0,0,0-1.153-1.047l-.015-.008a.1.1,0,0,1,.092-.173Z" transform="translate(-1047.6 -158.191)" fill="#fb8e77"/>
          <path id="Path_2801" data-name="Path 2801" d="M1057.255,159.027a7.878,7.878,0,0,1,.97.945,9.11,9.11,0,0,1,.816,1.078,8.639,8.639,0,0,1,.654,1.187,8.917,8.917,0,0,1,.468,1.276.159.159,0,0,1-.3.091v0l0-.008a8.588,8.588,0,0,0-.421-1.241,8.331,8.331,0,0,0-.606-1.167,8.87,8.87,0,0,0-.769-1.071,7.7,7.7,0,0,0-.918-.941l0,0a.092.092,0,0,1,.118-.143Z" transform="translate(-1051.333 -158.748)" fill="#fb8e77"/>
          <path id="Path_2802" data-name="Path 2802" d="M1060.39,210.322l4.917-.607-3.04,6.047S1061.361,211.265,1060.39,210.322Z" transform="translate(-1053.575 -193.352)" fill="#ff887c" opacity="0.18"/>
        </g>
        <g id="Group_591" data-name="Group 591" transform="translate(0 33.936)">
          <path id="Path_2803" data-name="Path 2803" d="M934.184,265.111v.006c-.076,0-.151-.006-.227-.006H918.423a7.889,7.889,0,0,0-7.377,5.1h0l-.023.064-.011.031-6.607,18.01,6.133.75v20h33.382l2.5-31.129h5.807V265.048Z" transform="translate(-904.402 -265.048)" fill="#fff"/>
          <path id="Path_2804" data-name="Path 2804" d="M1017.406,265.048l-17.735.074v0a12.482,12.482,0,0,1,11.955,12.47l-.027.34h5.807Z" transform="translate(-969.415 -265.048)" fill="#1b1b25" opacity="0.05"/>
          <path id="Path_2805" data-name="Path 2805" d="M1038.076,335.648" transform="translate(-995.624 -313.227)" fill="none" stroke="#fb8e77" stroke-linecap="round" stroke-miterlimit="10" stroke-width="1"/>
        </g>
      </g>
    </g>
    <g id="Group_596" data-name="Group 596" transform="translate(896.65 123.93)">
      <path id="Path_2806" data-name="Path 2806" d="M1012.81,305.556l-6.274-1.245a1.381,1.381,0,0,0-1.619,1.083l-1.253,6.316-1.624,8.187a1.381,1.381,0,0,0,1.083,1.619l2.568.509,3.706.735a1.381,1.381,0,0,0,1.619-1.083l.616-3.1,1-5.042,1.261-6.357A1.381,1.381,0,0,0,1012.81,305.556Z" transform="translate(-968.552 -304.285)" fill="#1b1b25"/>
      <g id="Group_595" data-name="Group 595" transform="translate(0 2.655)">
        <path id="Path_2807" data-name="Path 2807" d="M941.566,329.942a.912.912,0,0,0-.352-.386c-.027-.039-.048-.079-.077-.118l-.15.019a.947.947,0,0,0-.341-.038l-6.148.48a5.3,5.3,0,0,1-2.895-.6l-.149-.079.308-1.552c-.332.407-.669.809-1.026,1.188a4.3,4.3,0,0,0-2.185.824,3.952,3.952,0,0,0-1.013,1.039,5.023,5.023,0,0,1-1.137,1.221,3.925,3.925,0,0,1-.525.322l-.012-.017-13.984,3.462-.064.016.709-3.148-12.867-1.559-2.829,12.32a6.944,6.944,0,0,0,5.214,8.322h0a5.972,5.972,0,0,0,3.838-.4,6.993,6.993,0,0,0,.674-.28l23.67-11.651,3.208-1.2s.13-.05.357-.144l-.047-.009C935.206,337.377,943.415,333.829,941.566,329.942Z" transform="translate(-896.65 -322.897)" fill="#fec29e"/>
        <g id="Group_594" data-name="Group 594" transform="translate(0.877 9.741)">
          <path id="Path_2808" data-name="Path 2808" d="M899.446,366.265l-.025.127Z" transform="translate(-899.418 -358.978)" fill="#ff887c" opacity="0.17"/>
          <path id="Path_2809" data-name="Path 2809" d="M913.949,346.452c.29-1.333.206-1.218.646-3.133l-14.784,6.789s1.465-.441,3.486-.978c.188-.068.379-.132.576-.185Z" transform="translate(-899.684 -343.319)" fill="#ff887c" opacity="0.17"/>
          <path id="Path_2810" data-name="Path 2810" d="M899.537,365.693l-.036.182C899.51,365.828,899.522,365.767,899.537,365.693Z" transform="translate(-899.473 -358.587)" fill="#ff887c" opacity="0.17"/>
          <path id="Path_2811" data-name="Path 2811" d="M899.415,366.666Z" transform="translate(-899.412 -359.251)" fill="#ff887c" opacity="0.17"/>
          <path id="Path_2812" data-name="Path 2812" d="M899.677,364.7l-.062.316Z" transform="translate(-899.55 -357.908)" fill="#ff887c" opacity="0.17"/>
        </g>
        <path id="Path_2813" data-name="Path 2813" d="M943.74,322.546h-.02l-2.807-.346a.159.159,0,1,1,.039-.315l2.654.327,1.478-9.43a.159.159,0,0,1,.314.049l-1.5,9.582A.159.159,0,0,1,943.74,322.546Z" transform="translate(-926.761 -312.647)" fill="#1b1b25" opacity="0.35"/>
      </g>
      <path id="Path_2814" data-name="Path 2814" d="M960.438,344.21l6.338-.159c1.182.155,3.064-.911,2.846-2.084h0Z" transform="translate(-940.18 -330.001)" fill="#ff887c" opacity="0.08"/>
    </g>
    <g id="Group_597" data-name="Group 597" transform="translate(906.199 78.595)">
      <path id="Path_2815" data-name="Path 2815" d="M957.42,190.413l-2.155-14.669a16.207,16.207,0,0,0-1.358-4.521l1.17-.188s-.822-11.906-14.175-9.063a16.232,16.232,0,0,0-4.037.088h0a11.872,11.872,0,0,0-10.02,13.472l1.256,8.551a11.873,11.873,0,0,0,13.472,10.02l14.71-2.161A1.346,1.346,0,0,0,957.42,190.413Z" transform="translate(-926.718 -161.533)" fill="#1b1b25"/>
      <path id="Path_2816" data-name="Path 2816" d="M995.16,174.9a.159.159,0,0,1-.022-.316l4.294-.587a.129.129,0,0,0,.086-.052.118.118,0,0,0,.022-.091,8.558,8.558,0,0,0-4.3-5.674.159.159,0,0,1,.139-.285,8.889,8.889,0,0,1,4.469,5.9.434.434,0,0,1-.078.334.447.447,0,0,1-.3.18l-4.294.587Z" transform="translate(-973.316 -165.861)" fill="#fcf0e3"/>
    </g>
    <g id="Group_599" data-name="Group 599" transform="translate(911.691 86.148)">
      <g id="Group_598" data-name="Group 598" transform="translate(0)">
        <path id="Path_2817" data-name="Path 2817" d="M964.5,187.648l-11.754,1.889-2.853-4.219a9.492,9.492,0,0,1-2.911,7.748s-.036-.049-.1-.138l-.1.018a3.412,3.412,0,0,0-2.719,3.97h0a3.412,3.412,0,0,0,3.97,2.718l.225-.042a8.754,8.754,0,0,0,2.544,4.452v7.533a4.869,4.869,0,0,0,4.855,4.855h0a4.869,4.869,0,0,0,4.855-4.855v-5.949a8.81,8.81,0,0,0,4.313-4.325l.005-.009a8.68,8.68,0,0,0,1.083-6.067Z" transform="translate(-944.009 -185.317)" fill="#fec29e"/>
      </g>
      <path id="Path_2818" data-name="Path 2818" d="M968.109,235.846h0a8.718,8.718,0,0,1-9.892-5.865c-.044-.135-.811.041-.791.124a8.752,8.752,0,0,0,2.559,4.408,4.87,4.87,0,0,0,4.832,4.408h0a4.865,4.865,0,0,0,4.3-2.616,8.8,8.8,0,0,0,4.873-4.563A8.694,8.694,0,0,1,968.109,235.846Z" transform="translate(-953.164 -215.762)" fill="#ff887c" opacity="0.32"/>
    </g>
  </g>
</svg>
