<svg xmlns="http://www.w3.org/2000/svg" xmlns:xlink="http://www.w3.org/1999/xlink" width="217.189" height="216.31" viewBox="0 0 217.189 216.31">
  <defs>
    <linearGradient id="linear-gradient" x1="0.491" y1="0.477" x2="0.209" y2="0.496" gradientUnits="objectBoundingBox">
      <stop offset="0" stop-color="#444b8c"/>
      <stop offset="0.996" stop-color="#26264f"/>
    </linearGradient>
    <linearGradient id="linear-gradient-2" x1="0.708" y1="0.034" x2="0.013" y2="1.514" xlink:href="#linear-gradient"/>
    <linearGradient id="linear-gradient-3" x1="0.39" y1="0.363" x2="1.101" y2="1.237" gradientUnits="objectBoundingBox">
      <stop offset="0" stop-color="#ffc444"/>
      <stop offset="0.996" stop-color="#f36f56"/>
    </linearGradient>
    <linearGradient id="linear-gradient-4" x1="1.226" y1="-1.493" x2="-27.991" y2="78.646" xlink:href="#linear-gradient-3"/>
    <clipPath id="clip-path">
      <path id="Path_3530" data-name="Path 3530" d="M962.952,797.281,982.772,962a4.364,4.364,0,0,1-3.821,4.949l-86.365,8.4a5.007,5.007,0,0,1-5.443-4.321l-20.75-174.5a4.174,4.174,0,0,1,4.355-4.717l87.251.929A5.252,5.252,0,0,1,962.952,797.281Z" transform="translate(-866.36 -791.802)" fill="none"/>
    </clipPath>
    <linearGradient id="linear-gradient-5" x1="1.259" y1="1.401" x2="0.453" y2="0.383" gradientUnits="objectBoundingBox">
      <stop offset="0" stop-color="#444b8c"/>
      <stop offset="0.996" stop-color="#3e4177"/>
    </linearGradient>
    <linearGradient id="linear-gradient-6" x1="1.705" y1="1.416" x2="0.467" y2="0.398" xlink:href="#linear-gradient-5"/>
    <linearGradient id="linear-gradient-7" x1="4.191" y1="1.504" x2="3.593" y2="0.487" xlink:href="#linear-gradient-5"/>
    <linearGradient id="linear-gradient-8" x1="5.395" y1="1.519" x2="4.605" y2="0.502" xlink:href="#linear-gradient-5"/>
    <linearGradient id="linear-gradient-9" x1="-1.483" y1="-0.526" x2="-1.089" y2="1.272" gradientUnits="objectBoundingBox">
      <stop offset="0" stop-color="#aa80f9"/>
      <stop offset="0.996" stop-color="#6165d7"/>
    </linearGradient>
    <linearGradient id="linear-gradient-10" x1="1.066" y1="-0.088" x2="-1.33" y2="2.367" gradientUnits="objectBoundingBox">
      <stop offset="0" stop-color="#ab316d"/>
      <stop offset="1" stop-color="#792d3d"/>
    </linearGradient>
    <linearGradient id="linear-gradient-11" x1="61.948" y1="-4.53" x2="60.275" y2="-2.439" xlink:href="#linear-gradient-10"/>
    <linearGradient id="linear-gradient-12" x1="-13.504" y1="0.603" x2="-12.836" y2="1.437" xlink:href="#linear-gradient-3"/>
    <linearGradient id="linear-gradient-13" x1="-0.769" y1="-0.347" x2="-1.77" y2="1.768" gradientUnits="objectBoundingBox">
      <stop offset="0" stop-color="#ff9085"/>
      <stop offset="1" stop-color="#fb6fbb"/>
    </linearGradient>
    <linearGradient id="linear-gradient-14" x1="1.097" y1="-0.033" x2="-0.393" y2="1.247" xlink:href="#linear-gradient-3"/>
    <linearGradient id="linear-gradient-15" x1="0.318" y1="0.132" x2="0.908" y2="1.325" gradientUnits="objectBoundingBox">
      <stop offset="0" stop-color="#74acff"/>
      <stop offset="1" stop-color="#0800ff"/>
    </linearGradient>
    <linearGradient id="linear-gradient-16" x1="-5.595" y1="1.962" x2="-6.066" y2="-0.757" xlink:href="#linear-gradient-3"/>
    <linearGradient id="linear-gradient-17" x1="-18.775" y1="-0.588" x2="-23.501" y2="2.887" xlink:href="#linear-gradient-3"/>
    <linearGradient id="linear-gradient-18" x1="5.073" y1="0.284" x2="4.596" y2="4.118" xlink:href="#linear-gradient-3"/>
    <linearGradient id="linear-gradient-19" x1="0" y1="0.5" x2="1" y2="0.5" xlink:href="#linear-gradient"/>
    <linearGradient id="linear-gradient-20" x1="0.5" x2="0.5" y2="1" gradientUnits="objectBoundingBox">
      <stop offset="0" stop-color="#71b8ff"/>
      <stop offset="1" stop-color="#9bebff"/>
    </linearGradient>
    <clipPath id="clip-path-2">
      <path id="Path_3551" data-name="Path 3551" d="M1003.56,2282.271a27.544,27.544,0,0,1-25.324,27.191,24.238,24.238,0,0,1-26.181-24.5,27.477,27.477,0,0,1,26.181-27.236A24.264,24.264,0,0,1,1003.56,2282.271Z" transform="translate(-952.055 -2257.712)" fill="none"/>
    </clipPath>
    <linearGradient id="linear-gradient-21" x1="0.731" y1="-0.027" x2="0.525" y2="0.527" xlink:href="#linear-gradient-10"/>
    <linearGradient id="linear-gradient-22" x1="0" y1="0.5" x2="1" y2="0.5" xlink:href="#linear-gradient-13"/>
    <linearGradient id="linear-gradient-23" x1="0.498" y1="0.135" x2="0.501" y2="1.29" gradientUnits="objectBoundingBox">
      <stop offset="0.004" stop-color="#f36f56"/>
      <stop offset="1" stop-color="#ffc444"/>
    </linearGradient>
    <linearGradient id="linear-gradient-24" x1="0.701" y1="-0.58" x2="0.4" y2="0.931" xlink:href="#linear-gradient-23"/>
    <linearGradient id="linear-gradient-25" x1="0.734" y1="-0.231" x2="0.371" y2="0.991" xlink:href="#linear-gradient-10"/>
    <linearGradient id="linear-gradient-27" y1="0.5" x2="1" y2="0.5" gradientUnits="objectBoundingBox">
      <stop offset="0" stop-color="#85aeff"/>
      <stop offset="1" stop-color="#6ffbf6"/>
    </linearGradient>
    <clipPath id="clip-path-3">
      <path id="Path_3561" data-name="Path 3561" d="M2619.781,1555.006c0,13.642-10.729,25.014-24.181,25.406a24.452,24.452,0,0,1-24.986-24.794c0-14.1,11.289-25.475,24.986-25.416A24.509,24.509,0,0,1,2619.781,1555.006Z" transform="translate(-2570.614 -1530.202)" fill="none"/>
    </clipPath>
    <linearGradient id="linear-gradient-28" x1="0" y1="0.5" x2="1" y2="0.5" xlink:href="#linear-gradient-10"/>
    <linearGradient id="linear-gradient-29" x1="0.497" y1="0.135" x2="0.503" y2="1.291" xlink:href="#linear-gradient-23"/>
    <linearGradient id="linear-gradient-30" x1="0.702" y1="-0.485" x2="0.375" y2="0.995" xlink:href="#linear-gradient-23"/>
    <linearGradient id="linear-gradient-31" x1="0.557" y1="0.025" x2="0.428" y2="1.041" xlink:href="#linear-gradient"/>
    <linearGradient id="linear-gradient-32" x1="1.751" y1="-3.576" x2="-0.263" y2="2.709" xlink:href="#linear-gradient-23"/>
    <linearGradient id="linear-gradient-33" x1="1.968" y1="-4.098" x2="-0.014" y2="2.203" xlink:href="#linear-gradient-23"/>
    <linearGradient id="linear-gradient-35" y1="0.5" x2="1" y2="0.5" gradientUnits="objectBoundingBox">
      <stop offset="0" stop-color="#f36f56"/>
      <stop offset="0.004" stop-color="#56a5f3"/>
      <stop offset="1" stop-color="#44e6ff"/>
    </linearGradient>
    <clipPath id="clip-path-4">
      <path id="Path_3570" data-name="Path 3570" d="M1946.507,2198.064a30.319,30.319,0,0,1-30.757,30.495,32.335,32.335,0,0,1-31.8-32.207,30.278,30.278,0,0,1,31.8-30.466A32.4,32.4,0,0,1,1946.507,2198.064Z" transform="translate(-1883.948 -2165.854)" fill="none"/>
    </clipPath>
    <linearGradient id="linear-gradient-36" x1="1.404" y1="-0.825" x2="-0.322" y2="1.983" xlink:href="#linear-gradient-10"/>
    <linearGradient id="linear-gradient-37" x1="0.5" y1="0.303" x2="0.452" y2="2.748" xlink:href="#linear-gradient"/>
    <linearGradient id="linear-gradient-38" x1="0.498" y1="0.133" x2="0.501" y2="1.292" xlink:href="#linear-gradient-23"/>
    <linearGradient id="linear-gradient-39" x1="0.699" y1="-0.571" x2="0.401" y2="0.929" xlink:href="#linear-gradient-23"/>
    <linearGradient id="linear-gradient-40" x1="1.149" y1="-0.877" x2="-0.126" y2="1.988" xlink:href="#linear-gradient-10"/>
  </defs>
  <g id="Referral_vector" data-name="Referral vector" transform="translate(-450.457 -456.143)">
    <path id="Path_3506" data-name="Path 3506" d="M563.05,474.34c33.6-3.474,38.858-19.968,64.449-18.041,23.85,1.8,50.213,18.452,61.808,41.813,14.787,29.793-7.132,44.931-8.452,123.615-.441,26.261,1.874,32.131-4.226,40.149-8.516,11.192-24.354,14.643-122.559,4.754-53.012-5.338-62.109-7.725-67.619-16.376-12.656-19.872,14.575-39.879,16.9-89.278,2.43-51.533-24.815-80.464-11.094-92.976C503.835,457.448,522.692,478.513,563.05,474.34Z" transform="translate(-30.129)" fill="rgba(0,68,255,0.09)"/>
    <g id="Group_861" data-name="Group 861" transform="translate(575.94 521.905)">
      <g id="Group_860" data-name="Group 860" transform="translate(0 0)">
        <g id="Group_859" data-name="Group 859">
          <path id="Path_3507" data-name="Path 3507" d="M2092.027,1443.737a12.66,12.66,0,0,1-5.411-2.532c-4.414-5.131-13.3-14.2-13.2-21.354.018-1.222,5.414-2.594,6.128-3.746,3.228-1.71,4.454-2.1,6.724-5.236,6.7-9.25-10.227-25.312,8.345-32.044,13.6-4.931,25.466-.694,23.034-22.044s12.824-61.126,36.1-47.188c13.357,8,.989,26.794,8.261,39.931,6.911,12.484,1.964,23.232-11.257,31.493s-5.717,13.829-1.239,25.786c5.378,14.362-16.923,17.935-27.359,18.707C2113.75,1426.131,2092.77,1433.383,2092.027,1443.737Z" transform="translate(-2073.418 -1306.697)" fill="rgba(0,102,255,0.16)"/>
        </g>
      </g>
    </g>
    <g id="Group_873" data-name="Group 873" transform="translate(474.494 471.311)">
      <path id="Path_3521" data-name="Path 3521" d="M863.808,659.252l21.267,176.767a4.658,4.658,0,0,1-4.067,5.28l-88.58,9.725c-5.426.338-8.4-2.435-8.732-5.253L761.368,657.838c-.333-2.8,2.329-5.341,7.779-5.341l89.386,1.883A5.635,5.635,0,0,1,863.808,659.252Z" transform="translate(-761.34 -652.483)" fill="url(#linear-gradient)"/>
      <path id="Path_3522" data-name="Path 3522" d="M910.546,658.782,931.93,836.433a4.679,4.679,0,0,1-4.081,5.307l-91.832,9.143a5.369,5.369,0,0,1-5.854-4.629l-22.453-188.9a4.456,4.456,0,0,1,4.69-5.032l92.85,1.567A5.661,5.661,0,0,1,910.546,658.782Z" transform="translate(-804.092 -652.318)" fill="url(#linear-gradient-2)"/>
      <path id="Path_3523" data-name="Path 3523" d="M962.952,797.281,982.772,962a4.364,4.364,0,0,1-3.821,4.949l-86.365,8.4a5.007,5.007,0,0,1-5.443-4.321l-20.75-174.5a4.174,4.174,0,0,1,4.355-4.717l87.251.929A5.252,5.252,0,0,1,962.952,797.281Z" transform="translate(-858.241 -781.018)" fill="url(#linear-gradient-3)"/>
      <path id="Path_3524" data-name="Path 3524" d="M1475.358,713.611a1.47,1.47,0,0,1-1.517,1.691,2.025,2.025,0,0,1-1.93-1.738,1.469,1.469,0,0,1,1.52-1.691A2.025,2.025,0,0,1,1475.358,713.611Z" transform="translate(-1416.96 -707.269)" fill="url(#linear-gradient-4)"/>
      <g id="Group_868" data-name="Group 868" transform="translate(3.582)" style="mix-blend-mode: soft-light;isolation: isolate">
        <path id="Path_3525" data-name="Path 3525" d="M893.872,779.149c-17.681-32.689-44.093-42.474-52.046-76.164-4.3-18.211-1.37-35.641,3.563-50.111l-32.989-.557a4.456,4.456,0,0,0-4.69,5.032l22.453,188.9a5.368,5.368,0,0,0,5.854,4.629l72.189-7.187C908.74,814.4,901.754,793.721,893.872,779.149Z" transform="translate(-807.675 -652.317)" fill="#fff"/>
      </g>
      <g id="Group_872" data-name="Group 872" transform="translate(8.12 10.785)">
        <g id="Group_871" data-name="Group 871" clip-path="url(#clip-path)">
          <g id="Group_869" data-name="Group 869" transform="translate(76.808 119.498)">
            <path id="Path_3526" data-name="Path 3526" d="M1867.46,2401.67c-.261,6.557-1.206,9.482-1.842,13.025h15.96q.28-2.709.56-5.417c1.5-18.827,3.088-33.7,4.256-43.757,1.393-11.988,2.364-18.676-2.082-23.357-5.654-5.951-17.944-6.425-22.824-1.086-2.767,3.026-2.088,6.755,1.358,26.628C1867.179,2392.687,1867.689,2395.914,1867.46,2401.67Z" transform="translate(-1859.775 -2337.367)" fill="url(#linear-gradient-5)"/>
            <path id="Path_3527" data-name="Path 3527" d="M1867.46,2401.811c-.261,6.557-1.206,9.483-1.842,13.025h9.318c-.88-5.3-3.473-7.947-2.986-14.445.578-7.725,4.564-8.286,5.706-15.9,1.327-8.839-3.59-11.15-5.3-21.6-1.559-9.534.7-18.826,3.049-25.037-5.277-.962-10.958.125-13.917,3.361-2.767,3.025-2.088,6.755,1.358,26.628C1867.179,2392.827,1867.689,2396.054,1867.46,2401.811Z" transform="translate(-1859.775 -2337.508)" opacity="0.3" fill="url(#linear-gradient-6)" style="mix-blend-mode: multiply;isolation: isolate"/>
          </g>
          <g id="Group_870" data-name="Group 870" transform="translate(46.668 119.498)">
            <path id="Path_3528" data-name="Path 3528" d="M1486.882,2414.7l1.544-4.432c5.787-17.979,10.756-32.086,14.206-41.6,4.113-11.347,6.6-17.632,3.346-23.21-4.133-7.092-15.985-10.38-21.963-6.307-3.388,2.309-3.586,6.094-4.8,26.227-1.529,25.308-1.775,28.566-3.322,34.115-2.246,8.056-4.216,10.116-5.933,15.213Z" transform="translate(-1469.957 -2337.367)" fill="url(#linear-gradient-7)"/>
            <path id="Path_3529" data-name="Path 3529" d="M1480.1,2414.77c.635-5.873-1.578-9.04.488-15.562,2.339-7.385,6.347-7.014,9.209-14.156,3.324-8.3-.929-11.677-.188-22.242.676-9.637,5.01-18.161,8.725-23.665-4.913-2.15-10.693-2.4-14.317.07-3.388,2.308-3.586,6.094-4.8,26.226-1.529,25.308-1.775,28.566-3.322,34.115-2.246,8.056-4.216,10.116-5.933,15.213Z" transform="translate(-1469.957 -2337.442)" opacity="0.3" fill="url(#linear-gradient-8)" style="mix-blend-mode: multiply;isolation: isolate"/>
          </g>
        </g>
      </g>
    </g>
    <g id="Group_875" data-name="Group 875" transform="translate(450.458 473.05)">
      <g id="Group_874" data-name="Group 874" transform="translate(128.759 0)">
        <path id="Path_3531" data-name="Path 3531" d="M2133.752,1357.475l2.792-3.229c1.025.074,17.917,1.547,23.972,14.878.833,1.834,3.9,8.591.966,13.956-4.921,8.993-24.438,9.911-35.527,1.071-8.712-6.947-12.331-20.006-8.82-23.323,4.248-4.014,21.106,4.193,22.39,4.818,2.577,1.254,4.973,2.661,5.259,2.268C2145.269,1367.244,2139.2,1362,2133.752,1357.475Z" transform="translate(-2115.806 -1301.715)" fill="url(#linear-gradient-9)"/>
        <path id="Path_3532" data-name="Path 3532" d="M2716.837,819.889l-.1-3.026,3.582-1.708a2.027,2.027,0,0,1,2.355.448c3.2,3.429,12.458,14.884,10.784,31.033a2.029,2.029,0,0,1-1.524,1.759,27.386,27.386,0,0,1-3.18.56Z" transform="translate(-2670.278 -804.123)" fill="url(#linear-gradient-10)"/>
        <path id="Path_3533" data-name="Path 3533" d="M2276.476,1254.959l-1.138,7.253a12.319,12.319,0,0,0-.568,2.871,6.216,6.216,0,0,1-3.251.564l-1.2-9.052,5.933-1.737Z" transform="translate(-2258.375 -1210.01)" fill="url(#linear-gradient-11)"/>
        <path id="Path_3534" data-name="Path 3534" d="M2273.46,1316.8l-1.443-2.572a5.308,5.308,0,0,0-4.564-1.823c-3.043.229-2.677,1.82-2.677,1.82l2.051.17a3.953,3.953,0,0,1,2.559,1.734,10.544,10.544,0,0,0,2.973,2.189Z" transform="translate(-2253.244 -1263.088)" fill="url(#linear-gradient-12)"/>
        <path id="Path_3535" data-name="Path 3535" d="M2205.643,867.032s29.6-13.527,39.485-27.436c14.262,9.851,12.017,32.093,12.017,32.093s-35.389-.711-48.624,3.762C2205.082,873.331,2205.643,867.032,2205.643,867.032Z" transform="translate(-2198.666 -826.855)" fill="url(#linear-gradient-13)"/>
        <path id="Path_3536" data-name="Path 3536" d="M2856.587,722.986a2.837,2.837,0,0,1-1.021-2.7c5.005-29.051-12.649-40.1-12.823-40.21a2.839,2.839,0,0,1,2.939-4.857c.869.524,21.134,13.2,15.478,46.031a2.839,2.839,0,0,1-4.573,1.733Z" transform="translate(-2785.275 -674.812)" fill="url(#linear-gradient-14)"/>
      </g>
      <path id="Path_3537" data-name="Path 3537" d="M561.75,1048.916c3.281-.479,8.591.016,13.929-3.638,1.607-1.1,7.3-5,7.052-11.134-.219-5.4-5.11-8.627-5.711-9.012-3.467-2.222-7.085-2.022-11.1-1.745-5.208.36-7.016,1.655-10.667,2.381-9.031,1.8-11.7-3.395-20.657-3.572-11.452-.227-13,8.138-22.623,7.7-10.8-.486-12.158-11.178-22.684-13.679-14.61-3.472-38.034,10.938-38.812,29.306-.45,10.609,6.624,23.275,16.453,27.594,5.729,2.517,12.11,2.267,13.663,6.207,1.1,2.8-1.929,4.7-1.972,9.456-.057,6.128,4.911,10.763,5.713,11.511,7.447,6.949,25.326,4.889,38-3.389C545.176,1081.981,543.911,1051.522,561.75,1048.916Z" transform="translate(-450.458 -989.347)" fill="#142134"/>
      <path id="Union_1" data-name="Union 1" d="M-19722.775,2681.248c-2.928-3.761-4.633-8.8-3.166-10.247,1-.991,3.014.144,5.658,1.273s5.9,2.255,9.4,1.293c4.658-1.283,4.479-4.8,10.152-7.849a15.808,15.808,0,0,1,9.107-1.833,11.26,11.26,0,0,0,6-.9c6.549-3.333,6.584-13.677,7.961-30.4-19.207,5.023-42.3.213-55.25-15.167-3.014-3.578-9.078-12-10.5-26.375q3.577-1.375,7.15-2.74c15.236,16.931,26.455,19.75,34.164,18.764,12.73-1.625,17.879-13.864,29.949-13.641h.008c.543.01,1.078.045,1.609.1a259.411,259.411,0,0,1,27.363,3.018c22.4,3.9,20.762,15.068,15.984,25.028a57.64,57.64,0,0,0-5.484,22.679c-.219,5.3.455,9.6,1.809,18.2,2.344,14.944,4.6,18.5,2,22.1-3.8,5.262-13.383,4.345-15.064,4.152-8.5-.986-9.973-6.114-17.113-7.388-8.295-1.487-10.648,4.663-22.551,8.1a48.763,48.763,0,0,1-13.432,1.865C-19707.4,2691.289-19717.5,2688.016-19722.775,2681.248Z" transform="translate(19767.869 -2540.649)" stroke="rgba(0,0,0,0)" stroke-miterlimit="10" stroke-width="1" fill="url(#linear-gradient-15)"/>
      <path id="Path_3540" data-name="Path 3540" d="M1846.2,1256.8a1.366,1.366,0,0,0-2.138.552c-.952,2.384-2.859,6.421-5.148,7.308-3.3,1.276-8.064.3-8.712.848s13.787,9.316,23.989,6.458a1.452,1.452,0,0,0,.209-.077l.588-.267a1.364,1.364,0,0,0-.212-2.56c-1.9-.51-6.835-2.293-7.954-4.575a11.627,11.627,0,0,1,.02-2.532l.625-3.183a1.365,1.365,0,0,0-.471-1.316Z" transform="translate(-1723.501 -1211.515)" fill="url(#linear-gradient-16)"/>
      <path id="Path_3541" data-name="Path 3541" d="M1987.3,1198.28a4.5,4.5,0,0,0,4.653,2.471c2.888-.477,2.588-7.76.595-8.96a3.859,3.859,0,0,0-2.981-.147,4.278,4.278,0,0,0-2.21,4.479c-.645-.326-1.281-.26-1.494.05-.272.393.2,1.085.3,1.242A2.331,2.331,0,0,0,1987.3,1198.28Z" transform="translate(-1867.072 -1151.473)" fill="url(#linear-gradient-17)"/>
      <path id="Path_3542" data-name="Path 3542" d="M783.232,1135.716l-.984-2.314s6.435-9.092,1.786-10.934-3.492.96-3.04,2.289-.7,5.489-1.612,6.722.235,5.622.235,5.622Z" transform="translate(-753.626 -1087.295)" fill="url(#linear-gradient-18)"/>
    </g>
    <g id="Group_879" data-name="Group 879" transform="translate(482.939 590.62)">
      <path id="Path_3543" data-name="Path 3543" d="M901.019,2255.467a28.147,28.147,0,0,1-30.453-28.414,31.907,31.907,0,0,1,30.453-31.6,28.181,28.181,0,0,1,29.3,28.474A32,32,0,0,1,901.019,2255.467Z" transform="translate(-870.566 -2195.439)" fill="url(#linear-gradient-19)"/>
      <path id="Path_3544" data-name="Path 3544" d="M927.262,2264.213a28.147,28.147,0,0,1-30.453-28.413,31.907,31.907,0,0,1,30.453-31.6,28.181,28.181,0,0,1,29.3,28.474A32,32,0,0,1,927.262,2264.213Z" transform="translate(-894.78 -2203.51)" fill="url(#linear-gradient-20)"/>
      <path id="Path_3545" data-name="Path 3545" d="M980.1,2257.473a29.75,29.75,0,0,1-27.314,29.364,26.176,26.176,0,0,1-28.314-26.456,29.673,29.673,0,0,1,28.314-29.417A26.207,26.207,0,0,1,980.1,2257.473Z" transform="translate(-920.301 -2228.202)" fill="rgba(0,119,255,0.16)"/>
      <g id="Group_878" data-name="Group 878" transform="translate(6.3 4.815)">
        <g id="Group_877" data-name="Group 877" clip-path="url(#clip-path-2)">
          <g id="Group_876" data-name="Group 876" transform="translate(-2.133 6.683)">
            <path id="Path_3546" data-name="Path 3546" d="M1045.122,2344.154a14.159,14.159,0,0,0-11.671,7.15c-2.5,4.745.838,6.816-.792,14.366-1.5,6.954-5.006,8.35-4.426,12.814.635,4.888,5.423,7.711,7.315,8.827,8.513,5.018,21.818,3.947,28.576-3.662.564-.635,5.229-5.887,3.97-10.365-1.127-4.007-5.957-3.725-6.958-7.9-.862-3.595,2.438-4.988,2.124-10.259-.061-1.031-.352-5.914-4.025-7.938a8.313,8.313,0,0,0-6.117-.465A12.887,12.887,0,0,0,1045.122,2344.154Z" transform="translate(-1020.151 -2344.146)" fill="url(#linear-gradient-21)"/>
            <path id="Path_3547" data-name="Path 3547" d="M924.469,2760.178s24.876-16.121,55.628-3.586c0,0-3.917,12.685-27.314,15C928.656,2773.989,924.469,2760.178,924.469,2760.178Z" transform="translate(-924.469 -2720.299)" fill="url(#linear-gradient-22)"/>
            <path id="Path_3548" data-name="Path 3548" d="M1081.721,2590.834l-.932,7a6.836,6.836,0,0,1-4.218,5.385l-7.582,3.048s14.512,6.068,32.841-2.094l-8.356-2.382a5.865,5.865,0,0,1-4.092-5.434l-.24-5.911Z" transform="translate(-1057.815 -2571.403)" fill="url(#linear-gradient-23)"/>
            <path id="Path_3549" data-name="Path 3549" d="M1190.429,2404.3c0,5.859-3.527,12.353-7.9,12.6-4.4.247-7.981-5.912-7.981-11.832s3.583-9.31,7.981-9.5C1186.9,2395.389,1190.429,2398.445,1190.429,2404.3Z" transform="translate(-1155.213 -2391.591)" fill="url(#linear-gradient-24)"/>
            <path id="Path_3550" data-name="Path 3550" d="M1123.649,2371.711c-2.375.23-5.972.966-8.463,3.7-4.184,4.6-2.2,11.445-4.058,11.958-1.658.457-4.225-4.357-4.184-9.8.035-4.554,1.591-9.99,5.643-11.508,2.38-.892,3.08.367,10.754.8,4.471.252,2.717,2.336,3.723,3.04,4.465,3.124,3.9,14.083,1.5,14.35C1127.421,2384.386,1125.846,2381.612,1123.649,2371.711Z" transform="translate(-1092.835 -2364.086)" fill="url(#linear-gradient-25)"/>
          </g>
        </g>
      </g>
    </g>
    <g id="Group_883" data-name="Group 883" transform="translate(608.304 535.169)">
      <path id="Path_3552" data-name="Path 3552" d="M2521.072,1536.488c-15.886.506-29.062-12.392-29.062-28.76s13.175-29.594,29.062-29.484c15.558.108,27.979,13.015,27.979,28.774S2536.63,1535.992,2521.072,1536.488Z" transform="translate(-2492.011 -1478.243)" fill="url(#linear-gradient-19)"/>
      <path id="Path_3553" data-name="Path 3553" d="M2546.966,1536.488c-15.887.506-29.061-12.392-29.061-28.76s13.174-29.594,29.061-29.484c15.558.108,27.978,13.015,27.978,28.774S2562.524,1535.992,2546.966,1536.488Z" transform="translate(-2515.903 -1478.243)" fill="url(#linear-gradient-27)"/>
      <path id="Path_3554" data-name="Path 3554" d="M2597.4,1531.012c0,14.714-11.565,27-26.082,27.438a26.407,26.407,0,0,1-27.021-26.777c0-15.244,12.217-27.533,27.021-27.45C2585.833,1504.3,2597.4,1516.3,2597.4,1531.012Z" transform="translate(-2540.252 -1502.214)" fill="rgba(127,155,247,0.22)"/>
      <g id="Group_882" data-name="Group 882" transform="translate(6.077 4.017)">
        <g id="Group_881" data-name="Group 881" clip-path="url(#clip-path-3)">
          <g id="Group_880" data-name="Group 880" transform="translate(-2.035 6.25)">
            <path id="Path_3555" data-name="Path 3555" d="M2544.294,2018.373s23.739-14.676,53.1-1.311c0,0-3.741,12.161-26.082,13.5C2548.289,2031.938,2544.294,2018.373,2544.294,2018.373Z" transform="translate(-2544.294 -1980.486)" fill="url(#linear-gradient-28)"/>
            <path id="Path_3556" data-name="Path 3556" d="M2775.891,1854.536l-.89,6.758c-.258,4.3-4.428,6-4.428,6,4.9,5.808,14.255,5.366,17.527-.313-2.261-.81-4.8-4.305-4.9-6.782l-.229-5.746Z" transform="translate(-2753.078 -1835.629)" fill="url(#linear-gradient-29)"/>
            <path id="Path_3557" data-name="Path 3557" d="M2798.093,1672.172c0,5.688-3.367,11.853-7.541,11.921-4.2.069-7.618-6.047-7.618-11.793s3.42-8.9,7.618-8.907C2794.726,1663.383,2798.093,1666.485,2798.093,1672.172Z" transform="translate(-2764.482 -1659.345)" fill="url(#linear-gradient-30)"/>
            <path id="Path_3558" data-name="Path 3558" d="M2753.5,1625.446l1.259-.214a4.747,4.747,0,0,1,4.882-6.886c1.935.121,3.1,1.023,4.067.315a2.347,2.347,0,0,0,.785-1.675,5.325,5.325,0,0,0,.392,1.469c.722,1.675,1.943,2.017,2.609,3.123.447.744.739,1.993,0,4.2l1.105-.077a31.115,31.115,0,0,0,1.146-5.148c.43-3.191.727-5.387-.5-6.453-.244-.213-1.321-1.054-3.9-.255a8.824,8.824,0,0,0-3.838-2.4,7.981,7.981,0,0,0-7.025.977c-2.03,1.491-3.62,4.271-3.109,6.566.27,1.214,1.01,1.755,1.661,4.1A15.793,15.793,0,0,1,2753.5,1625.446Z" transform="translate(-2735.276 -1611.039)" fill="url(#linear-gradient-31)"/>
            <path id="Path_3559" data-name="Path 3559" d="M2965.446,1777.041s.484-2.5,1.954-2.262-.635,4.336-1.954,4.842Z" transform="translate(-2932.883 -1762.105)" fill="url(#linear-gradient-32)"/>
            <path id="Path_3560" data-name="Path 3560" d="M2765.234,1778.838s-.493-2.51-1.994-2.248.649,4.371,1.994,4.851Z" transform="translate(-2745.838 -1763.772)" fill="url(#linear-gradient-33)"/>
          </g>
        </g>
      </g>
    </g>
    <g id="Group_887" data-name="Group 887" transform="translate(553.65 583.31)">
      <path id="Path_3562" data-name="Path 3562" d="M1822.12,2173.628a37.548,37.548,0,0,1-36.99-37.364,35.16,35.16,0,0,1,36.99-35.337,37.638,37.638,0,0,1,35.585,37.325A35.215,35.215,0,0,1,1822.12,2173.628Z" transform="translate(-1785.13 -2100.887)" fill="url(#linear-gradient-19)"/>
      <path id="Path_3563" data-name="Path 3563" d="M1853.828,2173.628a37.548,37.548,0,0,1-36.99-37.364,35.16,35.16,0,0,1,36.99-35.337,37.638,37.638,0,0,1,35.585,37.325A35.215,35.215,0,0,1,1853.828,2173.628Z" transform="translate(-1814.387 -2100.887)" fill="url(#linear-gradient-35)"/>
      <path id="Path_3564" data-name="Path 3564" d="M1918.006,2168.159a32.747,32.747,0,0,1-33.175,32.935,34.92,34.92,0,0,1-34.392-34.786,32.7,32.7,0,0,1,34.392-32.9A35,35,0,0,1,1918.006,2168.159Z" transform="translate(-1845.389 -2130.86)" fill="rgba(127,159,247,0.22)"/>
      <g id="Group_886" data-name="Group 886" transform="translate(7.64 5.023)">
        <g id="Group_885" data-name="Group 885" clip-path="url(#clip-path-4)">
          <g id="Group_884" data-name="Group 884" transform="translate(-2.591 6.191)">
            <path id="Path_3565" data-name="Path 3565" d="M1967.072,2293.457c-1.82-5.277,5.012-7.077,5.881-19.36.059-.833,1.217-17.609,3.8-20.833a7.016,7.016,0,0,1,.725-.768c1.29-1,3.284-.883,10.4-3.851,6.1-2.544,5.745-2.471,6.533-2.615,4.584-.842,11.362,3.354,13.592,8.952,2,5.021-.4,9.308,3.186,18.134h0c4.445,12.7,6.668,19.048,4.656,23.035C2009.726,2308.271,1971.156,2305.3,1967.072,2293.457Z" transform="translate(-1957.771 -2245.923)" fill="url(#linear-gradient-36)"/>
            <path id="Path_3566" data-name="Path 3566" d="M1850.439,2772.874s30.216-17.129,67.567,1.026c0,0-4.757,14.988-33.175,15.54C1855.525,2790.01,1850.439,2772.874,1850.439,2772.874Z" transform="translate(-1850.439 -2725.38)" fill="url(#linear-gradient-37)"/>
            <path id="Path_3567" data-name="Path 3567" d="M2041.454,2569.661l-1.132,8.391a7.454,7.454,0,0,1-5.123,6.116l-9.21,2.96s17.627,8.753,39.89.634l-10.149-3.693a7.858,7.858,0,0,1-4.97-6.978l-.292-7.184Z" transform="translate(-2012.416 -2544.63)" fill="url(#linear-gradient-38)"/>
            <path id="Path_3568" data-name="Path 3568" d="M2173.5,2343.129c0,7.1-4.283,14.624-9.594,14.5-5.341-.125-9.694-7.933-9.694-15.1s4.353-10.933,9.694-10.734C2169.215,2331.989,2173.5,2336.031,2173.5,2343.129Z" transform="translate(-2130.723 -2325.145)" fill="url(#linear-gradient-39)"/>
            <path id="Path_3569" data-name="Path 3569" d="M2129.832,2320.476c.921-.023-.409-7.51,3.159-9.476,2.368-1.305,6.479.057,8.79,2.554,3.643,3.936,1.605,9.394,4.364,10.643,1.752.793,4.09-.725,5.21-1.852,3.5-3.52,3.022-11.184-1.114-15.623a12.815,12.815,0,0,0-8.836-3.833c-6.092-.172-11.685,4.178-12.968,9.47C2127.453,2316.426,2129.151,2320.493,2129.832,2320.476Z" transform="translate(-2106.667 -2298.48)" fill="url(#linear-gradient-40)"/>
          </g>
        </g>
      </g>
    </g>
  </g>
</svg>
