<svg width="360" height="505" viewBox="0 0 360 505" fill="none" xmlns="http://www.w3.org/2000/svg">
<path d="M0 -35H360V505H90C40.2944 505 0 464.706 0 415V-35Z" fill="#037FFB"/>
<path d="M45 145H0V190H45V145Z" fill="#59AAF8"/>
<path d="M90 190H0V235H90V190Z" fill="#2D9AFF"/>
<g clip-path="url(#clip0_193_107)">
<path d="M90 -35V55H114.56C114.553 57.687 115.077 60.3489 116.102 62.8329C117.127 65.3168 118.632 67.5741 120.531 69.475C122.43 71.376 124.686 72.8832 127.169 73.9102C129.652 74.9373 132.313 75.464 135 75.46C140.413 75.46 145.604 73.3097 149.432 69.482C153.26 65.6544 155.41 60.4631 155.41 55.05H180V-34.95L90 -35Z" fill="#7AB8F4"/>
</g>
<path d="M217.726 180.91L217.217 181.298C199.051 195.583 182.768 221.376 175.86 234.81L151.189 198.986L174.365 211.674C188.121 193.165 207.514 178.582 215.483 173.611C213.845 170.468 211.377 167.833 208.346 165.991C205.315 164.15 201.837 163.171 198.288 163.162H148.946C143.791 163.162 138.847 165.207 135.201 168.846C131.556 172.485 129.508 177.421 129.508 182.567V230.332C129.508 235.479 131.556 240.415 135.201 244.054C138.847 247.693 143.791 249.737 148.946 249.737H198.288C203.443 249.737 208.387 247.693 212.033 244.054C215.678 240.415 217.726 235.479 217.726 230.332V194.956C217.726 189.98 219.538 185.174 222.825 181.433L229.688 173.611C225.398 175.512 221.376 177.966 217.726 180.91Z" fill="white"/>
<path d="M140.798 300.289L140.765 286.489L133.996 297.857H131.598L124.862 286.784V300.289H119.867V277.288H124.27L132.879 291.582L141.356 277.288H145.727L145.792 300.289H140.798Z" fill="white"/>
<path d="M162.289 292.14V300.289H156.966V292.074L148.062 277.288H153.714L159.858 287.507L166.002 277.288H171.227L162.289 292.14Z" fill="white"/>
<path d="M177.372 300.683C175.816 300.683 174.382 300.398 173.067 299.829C171.775 299.238 170.713 298.405 169.88 297.332L172.837 293.783C174.086 295.47 175.51 296.313 177.109 296.313C179.277 296.313 180.362 295.043 180.362 292.502V281.56H172.279V277.288H185.652V292.206C185.652 295.032 184.951 297.157 183.549 298.58C182.147 299.982 180.088 300.683 177.372 300.683Z" fill="white"/>
<path d="M202.048 300.683C199.661 300.683 197.503 300.168 195.575 299.139C193.67 298.109 192.169 296.697 191.074 294.9C190.001 293.082 189.464 291.045 189.464 288.789C189.464 286.532 190.001 284.506 191.074 282.71C192.169 280.892 193.67 279.468 195.575 278.438C197.503 277.409 199.661 276.894 202.048 276.894C204.436 276.894 206.583 277.409 208.489 278.438C210.394 279.468 211.895 280.892 212.99 282.71C214.085 284.506 214.633 286.532 214.633 288.789C214.633 291.045 214.085 293.082 212.99 294.9C211.895 296.697 210.394 298.109 208.489 299.139C206.583 300.168 204.436 300.683 202.048 300.683ZM202.048 296.149C203.407 296.149 204.633 295.842 205.729 295.229C206.824 294.594 207.678 293.717 208.291 292.6C208.927 291.483 209.244 290.213 209.244 288.789C209.244 287.365 208.927 286.094 208.291 284.977C207.678 283.86 206.824 282.995 205.729 282.381C204.633 281.746 203.407 281.429 202.048 281.429C200.69 281.429 199.464 281.746 198.368 282.381C197.273 282.995 196.408 283.86 195.773 284.977C195.159 286.094 194.853 287.365 194.853 288.789C194.853 290.213 195.159 291.483 195.773 292.6C196.408 293.717 197.273 294.594 198.368 295.229C199.464 295.842 200.69 296.149 202.048 296.149Z" fill="white"/>
<path d="M235.522 288.329C236.837 288.745 237.866 289.446 238.611 290.432C239.356 291.395 239.728 292.589 239.728 294.013C239.728 296.028 238.94 297.584 237.362 298.679C235.807 299.752 233.529 300.289 230.528 300.289H218.633V277.288H229.871C232.675 277.288 234.821 277.825 236.311 278.898C237.822 279.972 238.578 281.429 238.578 283.269C238.578 284.386 238.304 285.382 237.757 286.259C237.231 287.135 236.486 287.825 235.522 288.329ZM223.924 281.297V286.719H229.214C230.528 286.719 231.525 286.489 232.204 286.029C232.883 285.569 233.222 284.89 233.222 283.991C233.222 283.093 232.883 282.425 232.204 281.987C231.525 281.527 230.528 281.297 229.214 281.297H223.924ZM230.134 296.28C231.536 296.28 232.587 296.05 233.288 295.59C234.011 295.13 234.372 294.418 234.372 293.455C234.372 291.549 232.959 290.596 230.134 290.596H223.924V296.28H230.134Z" fill="white"/>
<g clip-path="url(#clip1_193_107)">
<path d="M110.41 9.99999C110.417 12.6845 109.894 15.3439 108.871 17.8259C107.848 20.3079 106.346 22.5638 104.45 24.4644C102.554 26.3649 100.302 27.8728 97.8221 28.9016C95.3426 29.9304 92.6845 30.46 90 30.46V55.05H0V-34.95H90V-10.36C95.4044 -10.36 100.588 -8.21656 104.414 -4.39975C108.241 -0.582939 110.397 4.59559 110.41 9.99999Z" fill="#91C4F5"/>
<path opacity="0.61" d="M0 -35L45 10L0 55V-35Z" fill="#7AB8F4"/>
</g>
<path opacity="0.56" d="M270 -35H180V55H270V-35Z" fill="#59AAF8"/>
<path d="M270 -35H180V55H270V-35Z" fill="#59AAF8"/>
<path d="M215.46 10V55H196.38V8.88C198.7 9.62463 201.123 10.0025 203.56 10H215.46Z" fill="#4099EF"/>
<path d="M253.62 9.65997V55H234.56V9.99998H250.02C251.228 10.0029 252.434 9.88902 253.62 9.65997Z" fill="#4099EF"/>
<path d="M180 -35H270V-10C270 -4.69567 267.893 0.391407 264.142 4.14214C260.391 7.89286 255.304 10 250 10H203.57C197.319 10 191.324 7.51674 186.903 3.09651C182.483 -1.32372 180 -7.31885 180 -13.57V-35Z" fill="#91C4F5"/>
<path d="M225 19.54C230.269 19.54 234.54 15.2688 234.54 10C234.54 4.73123 230.269 0.460022 225 0.460022C219.731 0.460022 215.46 4.73123 215.46 10C215.46 15.2688 219.731 19.54 225 19.54Z" fill="#83BDF4"/>
<g clip-path="url(#clip2_193_107)">
<path d="M360 -35H270V55H360V-35Z" fill="#3F9DF7"/>
<path d="M360 -35V55H290C284.696 55 279.609 52.8929 275.858 49.1421C272.107 45.3914 270 40.3043 270 35V-19.08C270 -23.3022 271.677 -27.3516 274.663 -30.3371C277.648 -33.3227 281.698 -35 285.92 -35H360Z" fill="#59AAF8"/>
<path d="M360 -35V55H312.64C310.014 55 307.413 54.4827 304.986 53.4776C302.56 52.4725 300.355 50.9993 298.498 49.1421C294.747 45.3914 292.64 40.3043 292.64 35V-19.08C292.64 -23.3022 294.317 -27.3516 297.303 -30.3371C300.288 -33.3227 304.338 -35 308.56 -35H360Z" fill="#3F9DF6"/>
<path d="M360 -34.96V54.96H359.83C347.895 54.96 336.449 50.219 328.01 41.7798C319.571 33.3407 314.83 21.8948 314.83 9.96002C314.83 -1.97472 319.571 -13.4207 328.01 -21.8598C336.449 -30.2989 347.895 -35.04 359.83 -35.04L360 -34.96Z" fill="#318EE7"/>
<path d="M360 -22.43V42.46H359.84C355.579 42.46 351.359 41.6202 347.423 39.9886C343.486 38.3569 339.91 35.9655 336.898 32.9509C333.886 29.9363 331.498 26.3577 329.87 22.4196C328.242 18.4816 327.406 14.2613 327.41 10C327.41 1.39904 330.827 -6.84966 336.909 -12.9315C342.99 -19.0133 351.239 -22.43 359.84 -22.43H360Z" fill="#59AAF8"/>
</g>
<path d="M90 55H0V145H90V55Z" fill="#7AB8F4"/>
<path d="M45 145C69.8528 145 90 124.853 90 100C90 75.1472 69.8528 55 45 55C20.1472 55 0 75.1472 0 100C0 124.853 20.1472 145 45 145Z" fill="#2691F5"/>
<path d="M270.03 110.09V55H180.03H155.44C155.44 57.6803 154.912 60.3343 153.886 62.8106C152.861 65.2868 151.357 67.5368 149.462 69.4321C147.567 71.3273 145.317 72.8307 142.841 73.8564C140.364 74.8821 137.71 75.41 135.03 75.41C129.619 75.418 124.426 73.2766 120.593 69.4568C116.76 65.637 114.601 60.4513 114.59 55.04H90V110.04H135V110.16C135.003 119.386 138.669 128.234 145.193 134.757C151.716 141.281 160.564 144.947 169.79 144.95H190.21C199.436 144.947 208.283 141.281 214.807 134.757C221.331 128.234 224.997 119.386 225 110.16V110.04H241.62V176.09L225 192.81H270L254.65 176.09V110.04L270.03 110.09Z" fill="#2D9AFF"/>
<path d="M360.13 55H270.13V235H360.13V55Z" fill="#1990FF"/>
<path opacity="0.34" d="M360.13 235H270.13V325H360.13V235Z" fill="#7AB8F4"/>
<path d="M360.13 235H270.13V253.93H315.13C319.045 253.962 322.789 255.539 325.546 258.319C328.303 261.098 329.85 264.855 329.85 268.77C329.851 270.903 329.391 273.012 328.5 274.95C327.609 276.889 326.31 278.611 324.69 280H269.99V298.92H284.69L310.75 324.98H337.51L311.42 298.92H360.13V280H346.86C348.13 276.392 348.776 272.595 348.77 268.77C348.778 263.626 347.605 258.549 345.34 253.93H360.13V235Z" fill="#91C4F5"/>
<path d="M360.13 107.13V182.88C350.084 182.88 340.449 178.889 333.345 171.785C326.241 164.681 322.25 155.046 322.25 145C322.25 140.026 323.23 135.101 325.134 130.505C327.037 125.91 329.828 121.735 333.345 118.218C336.863 114.702 341.039 111.912 345.635 110.01C350.23 108.107 355.156 107.129 360.13 107.13Z" fill="#0A7BE7"/>
<path d="M295.87 145C295.87 162.008 302.627 178.32 314.653 190.347C326.68 202.373 342.992 209.13 360 209.13V235C336.131 235 313.239 225.518 296.36 208.64C279.482 191.761 270 168.869 270 145C270 121.131 279.482 98.2387 296.36 81.3604C313.239 64.4821 336.131 55 360 55V80.87C342.992 80.87 326.68 87.6266 314.653 99.6533C302.627 111.68 295.87 127.992 295.87 145Z" fill="#0A7BE7"/>
<path d="M0 235H90V325H0V235Z" fill="#91C4F5"/>
<path opacity="0.61" d="M90 235L45 280L90 325V235Z" fill="#5FA7EB"/>
<circle cx="90" cy="415" r="90" fill="#7AB8F4"/>
<path d="M180 415C180 434.676 173.552 453.809 161.644 469.472C149.736 485.134 133.023 496.463 114.063 501.723C95.1041 506.984 74.9433 505.887 56.667 498.6C38.3907 491.313 23.0059 478.237 12.8676 461.375C2.72937 444.512 -1.60374 424.792 0.531583 405.233C2.66691 385.673 11.153 367.353 24.6909 353.075C38.2288 338.797 56.0725 329.349 75.4906 326.177C94.9088 323.005 114.831 326.284 132.209 335.512L90 415H180Z" fill="#91C4F5"/>
<path d="M180 415C180 430.379 176.059 445.502 168.553 458.925C161.047 472.349 150.226 483.625 137.123 491.677C124.021 499.73 109.073 504.29 93.7067 504.924C78.3403 505.557 63.068 502.242 49.347 495.295C35.626 488.348 23.914 478.001 15.3287 465.241C6.74335 452.481 1.57104 437.734 0.305318 422.407C-0.960409 407.08 1.72267 391.684 8.09854 377.688C14.4744 363.693 24.3303 351.565 36.7259 342.461L90 415H180Z" fill="#2D9AFF"/>
<rect x="180" y="325" width="180" height="119" fill="#2D9AFF"/>
<rect x="250" y="444" width="40" height="19" fill="#2D9AFF"/>
<rect x="180" y="463" width="180" height="42" fill="#2D9AFF"/>
<rect x="281" y="475" width="63" height="18" rx="9" fill="#7AB8F4"/>
<circle cx="204" cy="484" r="9" fill="#7AB8F4"/>
<circle cx="232" cy="484" r="9" fill="#7AB8F4"/>
<defs>
<clipPath id="clip0_193_107">
<rect width="90" height="110.41" fill="white" transform="translate(90 -35)"/>
</clipPath>
<clipPath id="clip1_193_107">
<rect width="110.41" height="90" fill="white" transform="translate(0 -35)"/>
</clipPath>
<clipPath id="clip2_193_107">
<rect width="90" height="90" fill="white" transform="translate(270 -35)"/>
</clipPath>
</defs>
</svg>
