<svg xmlns="http://www.w3.org/2000/svg" width="7.857" height="8.939" viewBox="0 0 7.857 8.939">
  <g id="Icon" transform="translate(-20592 -2314)">
    <g id="Group_642" data-name="Group 642" transform="translate(20594.877 2315.629)">
      <g id="Group_641" data-name="Group 641" transform="translate(0)">
        <path id="Path_2855" data-name="Path 2855" d="M196.258,95.468l2.536-1.708a.262.262,0,0,0-.291-.436l-2.536,1.708a.262.262,0,0,0,.291.436Zm2.536,3.015-2.536-1.708a.262.262,0,1,0-.291.436l2.536,1.708a.262.262,0,0,0,.291-.436Z" transform="translate(-195.851 -93.281)" fill="#202020"/>
      </g>
    </g>
    <path id="Path_2856" data-name="Path 2856" d="M32.833,2.636A1.833,1.833,0,1,0,34.667,4.47,1.835,1.835,0,0,0,32.833,2.636Zm4.714-.017a1.309,1.309,0,1,0-1.309-1.309A1.311,1.311,0,0,0,37.547,2.619Zm0,3.7A1.309,1.309,0,1,0,38.857,7.63,1.311,1.311,0,0,0,37.547,6.32Z" transform="translate(20561 2314)" fill="#202020"/>
  </g>
</svg>
