<svg width="15" height="15" viewBox="0 0 15 15" fill="none" xmlns="http://www.w3.org/2000/svg">
<path fill-rule="evenodd" clip-rule="evenodd" d="M3.99786 0.000488281H11.0019C13.5525 0.000488281 14.9925 1.44719 15 3.99786V11.0026C15 13.5525 13.5525 15 11.0019 15H3.99786C1.44719 15 0.000488281 13.5525 0.000488281 11.0026V3.99786C0.000488281 1.44719 1.44719 0.000488281 3.99786 0.000488281ZM7.53692 11.8951C7.86016 11.8951 8.1294 11.6551 8.1594 11.3326V3.69032C8.1894 3.45783 8.07765 3.22459 7.87516 3.09784C7.66442 2.97035 7.40943 2.97035 7.20768 3.09784C7.00444 3.22459 6.89269 3.45783 6.91444 3.69032V11.3326C6.95269 11.6551 7.22193 11.8951 7.53692 11.8951ZM10.9876 11.8952C11.3026 11.8952 11.5718 11.6552 11.61 11.3327V8.87277C11.6318 8.63203 11.52 8.40779 11.3168 8.28029C11.1151 8.1528 10.8601 8.1528 10.6501 8.28029C10.4468 8.40779 10.3351 8.63203 10.3651 8.87277V11.3327C10.3951 11.6552 10.6643 11.8952 10.9876 11.8952ZM4.66455 11.3326C4.63456 11.6551 4.36531 11.8951 4.04207 11.8951C3.71959 11.8951 3.44959 11.6551 3.42035 11.3326V6.15027C3.39785 5.91702 3.50959 5.68528 3.71284 5.55779C3.91458 5.43029 4.17032 5.43029 4.37281 5.55779C4.57456 5.68528 4.6878 5.91702 4.66455 6.15027V11.3326Z" fill="#262626"/>
</svg>
