<svg width="14" height="16" viewBox="0 0 14 16" fill="none" xmlns="http://www.w3.org/2000/svg">
<path fill-rule="evenodd" clip-rule="evenodd" d="M7.38882 10.4955H7.11111C5.20254 10.4955 3.65553 8.96778 3.65553 7.08383V3.41239C3.65553 1.52768 5.20254 0 7.11111 0H7.38882C8.97276 0 10.3074 1.05137 10.7159 2.48637C10.7721 2.68312 10.6236 2.87835 10.4175 2.87835H9.51817C9.24662 2.87835 9.02584 3.09561 9.02584 3.36377V3.36453C9.02584 3.63345 9.24662 3.85071 9.51817 3.85071H10.3475C10.6221 3.85071 10.8452 4.07026 10.8452 4.34145C10.8452 4.61265 10.6221 4.83219 10.3475 4.83219H9.51817C9.24662 4.83219 9.02584 5.05022 9.02584 5.31914C9.02584 5.5873 9.24662 5.80532 9.51817 5.80532H10.3475C10.6221 5.80532 10.8452 6.02486 10.8452 6.29682C10.8452 6.56726 10.6221 6.7868 10.3475 6.7868H9.51817C9.24662 6.7868 9.02584 7.00482 9.02584 7.27374C9.02584 7.5419 9.24662 7.75916 9.51817 7.75916H10.3736C10.5844 7.75916 10.7352 7.96275 10.669 8.16026C10.2128 9.51701 8.91737 10.4955 7.38882 10.4955ZM12.4615 6.97456C12.4615 6.55447 12.8061 6.2149 13.2307 6.2149C13.6554 6.2149 14 6.55447 14 6.97456C14 10.3923 11.3799 13.2144 8.01966 13.5935V15.1227C8.01966 15.542 7.67502 15.8823 7.25038 15.8823C6.82498 15.8823 6.48111 15.542 6.48111 15.1227V13.5935C3.12015 13.2144 0.5 10.3923 0.5 6.97456C0.5 6.55447 0.844635 6.2149 1.26927 6.2149C1.69391 6.2149 2.03855 6.55447 2.03855 6.97456C2.03855 9.81189 4.37637 12.1205 7.25038 12.1205C10.1236 12.1205 12.4615 9.81189 12.4615 6.97456Z" fill="#262626"/>
</svg>
