<svg width="16" height="16" viewBox="0 0 16 16" fill="none" xmlns="http://www.w3.org/2000/svg">
<path fill-rule="evenodd" clip-rule="evenodd" d="M12.1441 1.92797C12.1441 0.863987 13.0081 0 14.072 0C15.136 0 16 0.863987 16 1.92797C16 2.99196 15.136 3.85594 14.072 3.85594C13.0081 3.85594 12.1441 2.99196 12.1441 1.92797ZM9.06382 10.2071L11.3758 7.22398L11.3438 7.23998C11.4718 7.06399 11.4958 6.83999 11.4078 6.63999C11.3206 6.44 11.1278 6.304 10.9206 6.288C10.7038 6.264 10.4886 6.36 10.3598 6.536L8.42463 9.03996L6.20787 7.29598C6.07187 7.19199 5.91187 7.15119 5.75187 7.16799C5.59267 7.19199 5.44868 7.27918 5.35188 7.40718L2.98471 10.4879L2.93591 10.5599C2.79992 10.8151 2.86392 11.1431 3.10391 11.3199C3.21591 11.3919 3.33591 11.4399 3.47191 11.4399C3.6567 11.4479 3.8319 11.3511 3.9439 11.1999L5.95187 8.61516L8.23184 10.3279L8.30383 10.3751C8.55983 10.5111 8.87983 10.4479 9.06382 10.2071ZM10.7598 1.42408C10.7278 1.62408 10.7118 1.82407 10.7118 2.02407C10.7118 3.82404 12.1678 5.27922 13.9598 5.27922C14.1598 5.27922 14.3518 5.25602 14.5518 5.22402V11.6791C14.5518 14.3919 12.9518 15.9999 10.2318 15.9999H4.32074C1.59998 15.9999 0 14.3919 0 11.6791V5.76001C0 3.04005 1.59998 1.42408 4.32074 1.42408H10.7598Z" fill="#262626"/>
</svg>
