<?xml version="1.0" encoding="utf-8"?>
<svg width="360px" height="385.99997px" viewBox="0 0 360 385.99997" version="1.1" xmlns:xlink="http://www.w3.org/1999/xlink" xmlns="http://www.w3.org/2000/svg">
  <defs>
    <radialGradient gradientUnits="objectBoundingBox" cx="76.38889%" cy="36.787563%" fx="76.38889%" fy="36.787563%" r="58.912506%" gradientTransform="translate(0.7638889,0.36787564),scale(1,0.93264246),rotate(-178.37915),scale(1,1.0326966),translate(-0.7638889,-0.36787564)" id="gradient_1">
      <stop offset="0%" stop-color="#DFF0FF" />
      <stop offset="100%" stop-color="#9FCCF8" />
    </radialGradient>
    <path d="M0 0L360 0L360 386L0 386L0 0Z" id="path_1" />
    <clipPath id="mask_1">
      <use xlink:href="#path_1" />
    </clipPath>
  </defs>
  <g id="Mask-group">
    <path d="M0 0L360 0L360 386L0 386L0 0Z" id="Rectangle" fill="none" fill-rule="evenodd" stroke="none" />
    <g clip-path="url(#mask_1)">
      <g id="Group" transform="translate(-38 -212)">
        <path d="M38 212L398 212L398 598L38 598L38 212Z" id="Rectangle" fill="url(#gradient_1)" fill-rule="evenodd" stroke="none" />
        <path d="M0 388.5C0 173.937 173.937 0 388.5 0C603.063 0 777 173.937 777 388.5C777 603.063 603.063 777 388.5 777C173.937 777 0 603.063 0 388.5Z" id="Circle" fill="#FFFFFF" fill-opacity="0.16078432" fill-rule="evenodd" stroke="none" />
        <path d="M50 347C50 160.328 201.552 9 388.5 9C575.448 9 727 160.328 727 347C727 533.672 575.448 685 388.5 685C201.552 685 50 533.672 50 347Z" id="Ellipse" fill="#FFFFFF" fill-opacity="0.3019608" fill-rule="evenodd" stroke="none" />
        <path d="M100 308.5C100 149.718 228.718 21 387.5 21C546.282 21 675 149.718 675 308.5C675 467.282 546.282 596 387.5 596C228.718 596 100 467.282 100 308.5Z" id="Circle" fill="#FFFFFF" fill-opacity="0.3019608" fill-rule="evenodd" stroke="none" />
        <path d="M155 267.5C155 138.542 259.542 34 388.5 34C517.458 34 622 138.542 622 267.5C622 396.458 517.458 501 388.5 501C259.542 501 155 396.458 155 267.5Z" id="Circle" fill="#FFFFFF" fill-opacity="0.3019608" fill-rule="evenodd" stroke="none" />
        <path d="M207 235C207 135.036 287.813 54 387.5 54C487.187 54 568 135.036 568 235C568 334.964 487.187 416 387.5 416C287.813 416 207 334.964 207 235Z" id="Ellipse" fill="#FFFFFF" fill-opacity="0.3019608" fill-rule="evenodd" stroke="none" />
      </g>
    </g>
  </g>
</svg>