<svg width="15" height="17" viewBox="0 0 15 17" fill="none" xmlns="http://www.w3.org/2000/svg">
<path fill-rule="evenodd" clip-rule="evenodd" d="M4.00833 0H10.9925C13.5667 0 15 1.48333 15 4.025V12.6333C15 15.2167 13.5667 16.6667 10.9925 16.6667H4.00833C1.475 16.6667 0 15.2167 0 12.6333V4.025C0 1.48333 1.475 0 4.00833 0ZM4.23337 3.88325V3.87492H6.72421C7.08337 3.87492 7.37504 4.16659 7.37504 4.52409C7.37504 4.89159 7.08337 5.18325 6.72421 5.18325H4.23337C3.87421 5.18325 3.58337 4.89159 3.58337 4.53325C3.58337 4.17492 3.87421 3.88325 4.23337 3.88325ZM4.23337 8.94996H10.7667C11.125 8.94996 11.4167 8.6583 11.4167 8.29996C11.4167 7.94163 11.125 7.64913 10.7667 7.64913H4.23337C3.87421 7.64913 3.58337 7.94163 3.58337 8.29996C3.58337 8.6583 3.87421 8.94996 4.23337 8.94996ZM4.2333 12.7582H10.7666C11.0991 12.7249 11.35 12.4407 11.35 12.1082C11.35 11.7665 11.0991 11.4832 10.7666 11.4499H4.2333C3.9833 11.4249 3.74163 11.5415 3.6083 11.7582C3.47497 11.9665 3.47497 12.2415 3.6083 12.4582C3.74163 12.6665 3.9833 12.7915 4.2333 12.7582Z" fill="#262626"/>
</svg>
