<svg width="360" height="166" viewBox="0 0 360 166" fill="none" xmlns="http://www.w3.org/2000/svg">
<g clip-path="url(#clip0_793_15)">
<rect x="-49" width="458" height="233" rx="15" fill="#0D2542"/>
<path d="M-9 9L-2 2L5 9" stroke="#37567C"/>
<path d="M4.5 9L11.5 2L18.5 9" stroke="#37567C"/>
<path d="M18 9L25 2L32 9" stroke="#37567C"/>
<path d="M31.5 9L38.5 2L45.5 9" stroke="#37567C"/>
<path d="M45 9L52 2L59 9" stroke="#37567C"/>
<path d="M58.5 9L65.5 2L72.5 9" stroke="#37567C"/>
<path d="M72 9L79 2L86 9" stroke="#37567C"/>
<path d="M85.5 9L92.5 2L99.5 9" stroke="#37567C"/>
<path d="M99 9L106 2L113 9" stroke="#37567C"/>
<path d="M112.5 9L119.5 2L126.5 9" stroke="#37567C"/>
<path d="M126 9L133 2L140 9" stroke="#37567C"/>
<path d="M139.5 9L146.5 2L153.5 9" stroke="#37567C"/>
<path d="M153 9L160 2L167 9" stroke="#37567C"/>
<path d="M166.5 9L173.5 2L180.5 9" stroke="#37567C"/>
<path d="M180 9L187 2L194 9" stroke="#37567C"/>
<path d="M193.5 9L200.5 2L207.5 9" stroke="#37567C"/>
<path d="M207 9L214 2L221 9" stroke="#37567C"/>
<path d="M220.5 9L227.5 2L234.5 9" stroke="#37567C"/>
<path d="M234 9L241 2L248 9" stroke="#37567C"/>
<path d="M247.5 9L254.5 2L261.5 9" stroke="#37567C"/>
<path d="M261 9L268 2L275 9" stroke="#37567C"/>
<path d="M274.5 9L281.5 2L288.5 9" stroke="#37567C"/>
<path d="M288 9L295 2L302 9" stroke="#37567C"/>
<path d="M301.5 9L308.5 2L315.5 9" stroke="#37567C"/>
<path d="M315 9L322 2L329 9" stroke="#37567C"/>
<path d="M328.5 9L335.5 2L342.5 9" stroke="#37567C"/>
<path d="M342 9L349 2L356 9" stroke="#37567C"/>
<path d="M355.5 9L362.5 2L369.5 9" stroke="#37567C"/>
<path d="M-9 14.5L-2 7.5L5 14.5" stroke="#37567C"/>
<path d="M4.5 14.5L11.5 7.5L18.5 14.5" stroke="#37567C"/>
<path d="M18 14.5L25 7.5L32 14.5" stroke="#37567C"/>
<path d="M31.5 14.5L38.5 7.5L45.5 14.5" stroke="#37567C"/>
<path d="M45 14.5L52 7.5L59 14.5" stroke="#37567C"/>
<path d="M58.5 14.5L65.5 7.5L72.5 14.5" stroke="#37567C"/>
<path d="M72 14.5L79 7.5L86 14.5" stroke="#37567C"/>
<path d="M85.5 14.5L92.5 7.5L99.5 14.5" stroke="#37567C"/>
<path d="M99 14.5L106 7.5L113 14.5" stroke="#37567C"/>
<path d="M112.5 14.5L119.5 7.5L126.5 14.5" stroke="#37567C"/>
<path d="M126 14.5L133 7.5L140 14.5" stroke="#37567C"/>
<path d="M139.5 14.5L146.5 7.5L153.5 14.5" stroke="#37567C"/>
<path d="M153 14.5L160 7.5L167 14.5" stroke="#37567C"/>
<path d="M166.5 14.5L173.5 7.5L180.5 14.5" stroke="#37567C"/>
<path d="M180 14.5L187 7.5L194 14.5" stroke="#37567C"/>
<path d="M193.5 14.5L200.5 7.5L207.5 14.5" stroke="#37567C"/>
<path d="M207 14.5L214 7.5L221 14.5" stroke="#37567C"/>
<path d="M220.5 14.5L227.5 7.5L234.5 14.5" stroke="#37567C"/>
<path d="M234 14.5L241 7.5L248 14.5" stroke="#37567C"/>
<path d="M247.5 14.5L254.5 7.5L261.5 14.5" stroke="#37567C"/>
<path d="M261 14.5L268 7.5L275 14.5" stroke="#37567C"/>
<path d="M274.5 14.5L281.5 7.5L288.5 14.5" stroke="#37567C"/>
<path d="M288 14.5L295 7.5L302 14.5" stroke="#37567C"/>
<path d="M301.5 14.5L308.5 7.5L315.5 14.5" stroke="#37567C"/>
<path d="M315 14.5L322 7.5L329 14.5" stroke="#37567C"/>
<path d="M328.5 14.5L335.5 7.5L342.5 14.5" stroke="#37567C"/>
<path d="M342 14.5L349 7.5L356 14.5" stroke="#37567C"/>
<path d="M355.5 14.5L362.5 7.5L369.5 14.5" stroke="#37567C"/>
<path d="M-9 20L-2 13L5 20" stroke="#37567C"/>
<path d="M4.5 20L11.5 13L18.5 20" stroke="#37567C"/>
<path d="M18 20L25 13L32 20" stroke="#37567C"/>
<path d="M31.5 20L38.5 13L45.5 20" stroke="#37567C"/>
<path d="M45 20L52 13L59 20" stroke="#37567C"/>
<path d="M58.5 20L65.5 13L72.5 20" stroke="#37567C"/>
<path d="M72 20L79 13L86 20" stroke="#37567C"/>
<path d="M85.5 20L92.5 13L99.5 20" stroke="#37567C"/>
<path d="M99 20L106 13L113 20" stroke="#37567C"/>
<path d="M112.5 20L119.5 13L126.5 20" stroke="#37567C"/>
<path d="M126 20L133 13L140 20" stroke="#37567C"/>
<path d="M139.5 20L146.5 13L153.5 20" stroke="#37567C"/>
<path d="M153 20L160 13L167 20" stroke="#37567C"/>
<path d="M166.5 20L173.5 13L180.5 20" stroke="#37567C"/>
<path d="M180 20L187 13L194 20" stroke="#37567C"/>
<path d="M193.5 20L200.5 13L207.5 20" stroke="#37567C"/>
<path d="M207 20L214 13L221 20" stroke="#37567C"/>
<path d="M220.5 20L227.5 13L234.5 20" stroke="#37567C"/>
<path d="M234 20L241 13L248 20" stroke="#37567C"/>
<path d="M247.5 20L254.5 13L261.5 20" stroke="#37567C"/>
<path d="M261 20L268 13L275 20" stroke="#37567C"/>
<path d="M274.5 20L281.5 13L288.5 20" stroke="#37567C"/>
<path d="M288 20L295 13L302 20" stroke="#37567C"/>
<path d="M301.5 20L308.5 13L315.5 20" stroke="#37567C"/>
<path d="M315 20L322 13L329 20" stroke="#37567C"/>
<path d="M328.5 20L335.5 13L342.5 20" stroke="#37567C"/>
<path d="M342 20L349 13L356 20" stroke="#37567C"/>
<path d="M355.5 20L362.5 13L369.5 20" stroke="#37567C"/>
<path d="M-9 25.5L-2 18.5L5 25.5" stroke="#37567C"/>
<path d="M4.5 25.5L11.5 18.5L18.5 25.5" stroke="#37567C"/>
<path d="M18 25.5L25 18.5L32 25.5" stroke="#37567C"/>
<path d="M31.5 25.5L38.5 18.5L45.5 25.5" stroke="#37567C"/>
<path d="M45 25.5L52 18.5L59 25.5" stroke="#37567C"/>
<path d="M58.5 25.5L65.5 18.5L72.5 25.5" stroke="#37567C"/>
<path d="M72 25.5L79 18.5L86 25.5" stroke="#37567C"/>
<path d="M85.5 25.5L92.5 18.5L99.5 25.5" stroke="#37567C"/>
<path d="M99 25.5L106 18.5L113 25.5" stroke="#37567C"/>
<path d="M112.5 25.5L119.5 18.5L126.5 25.5" stroke="#37567C"/>
<path d="M126 25.5L133 18.5L140 25.5" stroke="#37567C"/>
<path d="M139.5 25.5L146.5 18.5L153.5 25.5" stroke="#37567C"/>
<path d="M153 25.5L160 18.5L167 25.5" stroke="#37567C"/>
<path d="M166.5 25.5L173.5 18.5L180.5 25.5" stroke="#37567C"/>
<path d="M180 25.5L187 18.5L194 25.5" stroke="#37567C"/>
<path d="M193.5 25.5L200.5 18.5L207.5 25.5" stroke="#37567C"/>
<path d="M207 25.5L214 18.5L221 25.5" stroke="#37567C"/>
<path d="M220.5 25.5L227.5 18.5L234.5 25.5" stroke="#37567C"/>
<path d="M234 25.5L241 18.5L248 25.5" stroke="#37567C"/>
<path d="M247.5 25.5L254.5 18.5L261.5 25.5" stroke="#37567C"/>
<path d="M261 25.5L268 18.5L275 25.5" stroke="#37567C"/>
<path d="M274.5 25.5L281.5 18.5L288.5 25.5" stroke="#37567C"/>
<path d="M288 25.5L295 18.5L302 25.5" stroke="#37567C"/>
<path d="M301.5 25.5L308.5 18.5L315.5 25.5" stroke="#37567C"/>
<path d="M315 25.5L322 18.5L329 25.5" stroke="#37567C"/>
<path d="M328.5 25.5L335.5 18.5L342.5 25.5" stroke="#37567C"/>
<path d="M342 25.5L349 18.5L356 25.5" stroke="#37567C"/>
<path d="M355.5 25.5L362.5 18.5L369.5 25.5" stroke="#37567C"/>
<path d="M-9 31L-2 24L5 31" stroke="#37567C"/>
<path d="M4.5 31L11.5 24L18.5 31" stroke="#37567C"/>
<path d="M18 31L25 24L32 31" stroke="#37567C"/>
<path d="M31.5 31L38.5 24L45.5 31" stroke="#37567C"/>
<path d="M45 31L52 24L59 31" stroke="#37567C"/>
<path d="M58.5 31L65.5 24L72.5 31" stroke="#37567C"/>
<path d="M72 31L79 24L86 31" stroke="#37567C"/>
<path d="M85.5 31L92.5 24L99.5 31" stroke="#37567C"/>
<path d="M99 31L106 24L113 31" stroke="#37567C"/>
<path d="M112.5 31L119.5 24L126.5 31" stroke="#37567C"/>
<path d="M126 31L133 24L140 31" stroke="#37567C"/>
<path d="M139.5 31L146.5 24L153.5 31" stroke="#37567C"/>
<path d="M153 31L160 24L167 31" stroke="#37567C"/>
<path d="M166.5 31L173.5 24L180.5 31" stroke="#37567C"/>
<path d="M180 31L187 24L194 31" stroke="#37567C"/>
<path d="M193.5 31L200.5 24L207.5 31" stroke="#37567C"/>
<path d="M207 31L214 24L221 31" stroke="#37567C"/>
<path d="M220.5 31L227.5 24L234.5 31" stroke="#37567C"/>
<path d="M234 31L241 24L248 31" stroke="#37567C"/>
<path d="M247.5 31L254.5 24L261.5 31" stroke="#37567C"/>
<path d="M261 31L268 24L275 31" stroke="#37567C"/>
<path d="M274.5 31L281.5 24L288.5 31" stroke="#37567C"/>
<path d="M288 31L295 24L302 31" stroke="#37567C"/>
<path d="M301.5 31L308.5 24L315.5 31" stroke="#37567C"/>
<path d="M315 31L322 24L329 31" stroke="#37567C"/>
<path d="M328.5 31L335.5 24L342.5 31" stroke="#37567C"/>
<path d="M342 31L349 24L356 31" stroke="#37567C"/>
<path d="M355.5 31L362.5 24L369.5 31" stroke="#37567C"/>
<path d="M-9 36.5L-2 29.5L5 36.5" stroke="#37567C"/>
<path d="M4.5 36.5L11.5 29.5L18.5 36.5" stroke="#37567C"/>
<path d="M18 36.5L25 29.5L32 36.5" stroke="#37567C"/>
<path d="M31.5 36.5L38.5 29.5L45.5 36.5" stroke="#37567C"/>
<path d="M45 36.5L52 29.5L59 36.5" stroke="#37567C"/>
<path d="M58.5 36.5L65.5 29.5L72.5 36.5" stroke="#37567C"/>
<path d="M72 36.5L79 29.5L86 36.5" stroke="#37567C"/>
<path d="M85.5 36.5L92.5 29.5L99.5 36.5" stroke="#37567C"/>
<path d="M99 36.5L106 29.5L113 36.5" stroke="#37567C"/>
<path d="M112.5 36.5L119.5 29.5L126.5 36.5" stroke="#37567C"/>
<path d="M126 36.5L133 29.5L140 36.5" stroke="#37567C"/>
<path d="M139.5 36.5L146.5 29.5L153.5 36.5" stroke="#37567C"/>
<path d="M153 36.5L160 29.5L167 36.5" stroke="#37567C"/>
<path d="M166.5 36.5L173.5 29.5L180.5 36.5" stroke="#37567C"/>
<path d="M180 36.5L187 29.5L194 36.5" stroke="#37567C"/>
<path d="M193.5 36.5L200.5 29.5L207.5 36.5" stroke="#37567C"/>
<path d="M207 36.5L214 29.5L221 36.5" stroke="#37567C"/>
<path d="M220.5 36.5L227.5 29.5L234.5 36.5" stroke="#37567C"/>
<path d="M234 36.5L241 29.5L248 36.5" stroke="#37567C"/>
<path d="M247.5 36.5L254.5 29.5L261.5 36.5" stroke="#37567C"/>
<path d="M261 36.5L268 29.5L275 36.5" stroke="#37567C"/>
<path d="M274.5 36.5L281.5 29.5L288.5 36.5" stroke="#37567C"/>
<path d="M288 36.5L295 29.5L302 36.5" stroke="#37567C"/>
<path d="M301.5 36.5L308.5 29.5L315.5 36.5" stroke="#37567C"/>
<path d="M315 36.5L322 29.5L329 36.5" stroke="#37567C"/>
<path d="M328.5 36.5L335.5 29.5L342.5 36.5" stroke="#37567C"/>
<path d="M342 36.5L349 29.5L356 36.5" stroke="#37567C"/>
<path d="M355.5 36.5L362.5 29.5L369.5 36.5" stroke="#37567C"/>
<path d="M-9 42L-2 35L5 42" stroke="#37567C"/>
<path d="M4.5 42L11.5 35L18.5 42" stroke="#37567C"/>
<path d="M18 42L25 35L32 42" stroke="#37567C"/>
<path d="M31.5 42L38.5 35L45.5 42" stroke="#37567C"/>
<path d="M45 42L52 35L59 42" stroke="#37567C"/>
<path d="M58.5 42L65.5 35L72.5 42" stroke="#37567C"/>
<path d="M72 42L79 35L86 42" stroke="#37567C"/>
<path d="M85.5 42L92.5 35L99.5 42" stroke="#37567C"/>
<path d="M99 42L106 35L113 42" stroke="#37567C"/>
<path d="M112.5 42L119.5 35L126.5 42" stroke="#37567C"/>
<path d="M126 42L133 35L140 42" stroke="#37567C"/>
<path d="M139.5 42L146.5 35L153.5 42" stroke="#37567C"/>
<path d="M153 42L160 35L167 42" stroke="#37567C"/>
<path d="M166.5 42L173.5 35L180.5 42" stroke="#37567C"/>
<path d="M180 42L187 35L194 42" stroke="#37567C"/>
<path d="M193.5 42L200.5 35L207.5 42" stroke="#37567C"/>
<path d="M207 42L214 35L221 42" stroke="#37567C"/>
<path d="M220.5 42L227.5 35L234.5 42" stroke="#37567C"/>
<path d="M234 42L241 35L248 42" stroke="#37567C"/>
<path d="M247.5 42L254.5 35L261.5 42" stroke="#37567C"/>
<path d="M261 42L268 35L275 42" stroke="#37567C"/>
<path d="M274.5 42L281.5 35L288.5 42" stroke="#37567C"/>
<path d="M288 42L295 35L302 42" stroke="#37567C"/>
<path d="M301.5 42L308.5 35L315.5 42" stroke="#37567C"/>
<path d="M315 42L322 35L329 42" stroke="#37567C"/>
<path d="M328.5 42L335.5 35L342.5 42" stroke="#37567C"/>
<path d="M342 42L349 35L356 42" stroke="#37567C"/>
<path d="M355.5 42L362.5 35L369.5 42" stroke="#37567C"/>
<path d="M-9 47.5L-2 40.5L5 47.5" stroke="#37567C"/>
<path d="M4.5 47.5L11.5 40.5L18.5 47.5" stroke="#37567C"/>
<path d="M18 47.5L25 40.5L32 47.5" stroke="#37567C"/>
<path d="M31.5 47.5L38.5 40.5L45.5 47.5" stroke="#37567C"/>
<path d="M45 47.5L52 40.5L59 47.5" stroke="#37567C"/>
<path d="M58.5 47.5L65.5 40.5L72.5 47.5" stroke="#37567C"/>
<path d="M72 47.5L79 40.5L86 47.5" stroke="#37567C"/>
<path d="M85.5 47.5L92.5 40.5L99.5 47.5" stroke="#37567C"/>
<path d="M99 47.5L106 40.5L113 47.5" stroke="#37567C"/>
<path d="M112.5 47.5L119.5 40.5L126.5 47.5" stroke="#37567C"/>
<path d="M126 47.5L133 40.5L140 47.5" stroke="#37567C"/>
<path d="M139.5 47.5L146.5 40.5L153.5 47.5" stroke="#37567C"/>
<path d="M153 47.5L160 40.5L167 47.5" stroke="#37567C"/>
<path d="M166.5 47.5L173.5 40.5L180.5 47.5" stroke="#37567C"/>
<path d="M180 47.5L187 40.5L194 47.5" stroke="#37567C"/>
<path d="M193.5 47.5L200.5 40.5L207.5 47.5" stroke="#37567C"/>
<path d="M207 47.5L214 40.5L221 47.5" stroke="#37567C"/>
<path d="M220.5 47.5L227.5 40.5L234.5 47.5" stroke="#37567C"/>
<path d="M234 47.5L241 40.5L248 47.5" stroke="#37567C"/>
<path d="M247.5 47.5L254.5 40.5L261.5 47.5" stroke="#37567C"/>
<path d="M261 47.5L268 40.5L275 47.5" stroke="#37567C"/>
<path d="M274.5 47.5L281.5 40.5L288.5 47.5" stroke="#37567C"/>
<path d="M288 47.5L295 40.5L302 47.5" stroke="#37567C"/>
<path d="M301.5 47.5L308.5 40.5L315.5 47.5" stroke="#37567C"/>
<path d="M315 47.5L322 40.5L329 47.5" stroke="#37567C"/>
<path d="M328.5 47.5L335.5 40.5L342.5 47.5" stroke="#37567C"/>
<path d="M342 47.5L349 40.5L356 47.5" stroke="#37567C"/>
<path d="M355.5 47.5L362.5 40.5L369.5 47.5" stroke="#37567C"/>
<path d="M-9 53L-2 46L5 53" stroke="#37567C"/>
<path d="M4.5 53L11.5 46L18.5 53" stroke="#37567C"/>
<path d="M18 53L25 46L32 53" stroke="#37567C"/>
<path d="M31.5 53L38.5 46L45.5 53" stroke="#37567C"/>
<path d="M45 53L52 46L59 53" stroke="#37567C"/>
<path d="M58.5 53L65.5 46L72.5 53" stroke="#37567C"/>
<path d="M72 53L79 46L86 53" stroke="#37567C"/>
<path d="M85.5 53L92.5 46L99.5 53" stroke="#37567C"/>
<path d="M99 53L106 46L113 53" stroke="#37567C"/>
<path d="M112.5 53L119.5 46L126.5 53" stroke="#37567C"/>
<path d="M126 53L133 46L140 53" stroke="#37567C"/>
<path d="M139.5 53L146.5 46L153.5 53" stroke="#37567C"/>
<path d="M153 53L160 46L167 53" stroke="#37567C"/>
<path d="M166.5 53L173.5 46L180.5 53" stroke="#37567C"/>
<path d="M180 53L187 46L194 53" stroke="#37567C"/>
<path d="M193.5 53L200.5 46L207.5 53" stroke="#37567C"/>
<path d="M207 53L214 46L221 53" stroke="#37567C"/>
<path d="M220.5 53L227.5 46L234.5 53" stroke="#37567C"/>
<path d="M234 53L241 46L248 53" stroke="#37567C"/>
<path d="M247.5 53L254.5 46L261.5 53" stroke="#37567C"/>
<path d="M261 53L268 46L275 53" stroke="#37567C"/>
<path d="M274.5 53L281.5 46L288.5 53" stroke="#37567C"/>
<path d="M288 53L295 46L302 53" stroke="#37567C"/>
<path d="M301.5 53L308.5 46L315.5 53" stroke="#37567C"/>
<path d="M315 53L322 46L329 53" stroke="#37567C"/>
<path d="M328.5 53L335.5 46L342.5 53" stroke="#37567C"/>
<path d="M342 53L349 46L356 53" stroke="#37567C"/>
<path d="M355.5 53L362.5 46L369.5 53" stroke="#37567C"/>
<path d="M-9 58.5L-2 51.5L5 58.5" stroke="#37567C"/>
<path d="M4.5 58.5L11.5 51.5L18.5 58.5" stroke="#37567C"/>
<path d="M18 58.5L25 51.5L32 58.5" stroke="#37567C"/>
<path d="M31.5 58.5L38.5 51.5L45.5 58.5" stroke="#37567C"/>
<path d="M45 58.5L52 51.5L59 58.5" stroke="#37567C"/>
<path d="M58.5 58.5L65.5 51.5L72.5 58.5" stroke="#37567C"/>
<path d="M72 58.5L79 51.5L86 58.5" stroke="#37567C"/>
<path d="M85.5 58.5L92.5 51.5L99.5 58.5" stroke="#37567C"/>
<path d="M99 58.5L106 51.5L113 58.5" stroke="#37567C"/>
<path d="M112.5 58.5L119.5 51.5L126.5 58.5" stroke="#37567C"/>
<path d="M126 58.5L133 51.5L140 58.5" stroke="#37567C"/>
<path d="M139.5 58.5L146.5 51.5L153.5 58.5" stroke="#37567C"/>
<path d="M153 58.5L160 51.5L167 58.5" stroke="#37567C"/>
<path d="M166.5 58.5L173.5 51.5L180.5 58.5" stroke="#37567C"/>
<path d="M180 58.5L187 51.5L194 58.5" stroke="#37567C"/>
<path d="M193.5 58.5L200.5 51.5L207.5 58.5" stroke="#37567C"/>
<path d="M207 58.5L214 51.5L221 58.5" stroke="#37567C"/>
<path d="M220.5 58.5L227.5 51.5L234.5 58.5" stroke="#37567C"/>
<path d="M234 58.5L241 51.5L248 58.5" stroke="#37567C"/>
<path d="M247.5 58.5L254.5 51.5L261.5 58.5" stroke="#37567C"/>
<path d="M261 58.5L268 51.5L275 58.5" stroke="#37567C"/>
<path d="M274.5 58.5L281.5 51.5L288.5 58.5" stroke="#37567C"/>
<path d="M288 58.5L295 51.5L302 58.5" stroke="#37567C"/>
<path d="M301.5 58.5L308.5 51.5L315.5 58.5" stroke="#37567C"/>
<path d="M315 58.5L322 51.5L329 58.5" stroke="#37567C"/>
<path d="M328.5 58.5L335.5 51.5L342.5 58.5" stroke="#37567C"/>
<path d="M342 58.5L349 51.5L356 58.5" stroke="#37567C"/>
<path d="M355.5 58.5L362.5 51.5L369.5 58.5" stroke="#37567C"/>
<path d="M-9 64L-2 57L5 64" stroke="#37567C"/>
<path d="M4.5 64L11.5 57L18.5 64" stroke="#37567C"/>
<path d="M18 64L25 57L32 64" stroke="#37567C"/>
<path d="M31.5 64L38.5 57L45.5 64" stroke="#37567C"/>
<path d="M45 64L52 57L59 64" stroke="#37567C"/>
<path d="M58.5 64L65.5 57L72.5 64" stroke="#37567C"/>
<path d="M72 64L79 57L86 64" stroke="#37567C"/>
<path d="M85.5 64L92.5 57L99.5 64" stroke="#37567C"/>
<path d="M99 64L106 57L113 64" stroke="#37567C"/>
<path d="M112.5 64L119.5 57L126.5 64" stroke="#37567C"/>
<path d="M126 64L133 57L140 64" stroke="#37567C"/>
<path d="M139.5 64L146.5 57L153.5 64" stroke="#37567C"/>
<path d="M153 64L160 57L167 64" stroke="#37567C"/>
<path d="M166.5 64L173.5 57L180.5 64" stroke="#37567C"/>
<path d="M180 64L187 57L194 64" stroke="#37567C"/>
<path d="M193.5 64L200.5 57L207.5 64" stroke="#37567C"/>
<path d="M207 64L214 57L221 64" stroke="#37567C"/>
<path d="M220.5 64L227.5 57L234.5 64" stroke="#37567C"/>
<path d="M234 64L241 57L248 64" stroke="#37567C"/>
<path d="M247.5 64L254.5 57L261.5 64" stroke="#37567C"/>
<path d="M261 64L268 57L275 64" stroke="#37567C"/>
<path d="M274.5 64L281.5 57L288.5 64" stroke="#37567C"/>
<path d="M288 64L295 57L302 64" stroke="#37567C"/>
<path d="M301.5 64L308.5 57L315.5 64" stroke="#37567C"/>
<path d="M315 64L322 57L329 64" stroke="#37567C"/>
<path d="M328.5 64L335.5 57L342.5 64" stroke="#37567C"/>
<path d="M342 64L349 57L356 64" stroke="#37567C"/>
<path d="M355.5 64L362.5 57L369.5 64" stroke="#37567C"/>
<path d="M-9 69.5L-2 62.5L5 69.5" stroke="#37567C"/>
<path d="M4.5 69.5L11.5 62.5L18.5 69.5" stroke="#37567C"/>
<path d="M18 69.5L25 62.5L32 69.5" stroke="#37567C"/>
<path d="M31.5 69.5L38.5 62.5L45.5 69.5" stroke="#37567C"/>
<path d="M45 69.5L52 62.5L59 69.5" stroke="#37567C"/>
<path d="M58.5 69.5L65.5 62.5L72.5 69.5" stroke="#37567C"/>
<path d="M72 69.5L79 62.5L86 69.5" stroke="#37567C"/>
<path d="M85.5 69.5L92.5 62.5L99.5 69.5" stroke="#37567C"/>
<path d="M99 69.5L106 62.5L113 69.5" stroke="#37567C"/>
<path d="M112.5 69.5L119.5 62.5L126.5 69.5" stroke="#37567C"/>
<path d="M126 69.5L133 62.5L140 69.5" stroke="#37567C"/>
<path d="M139.5 69.5L146.5 62.5L153.5 69.5" stroke="#37567C"/>
<path d="M153 69.5L160 62.5L167 69.5" stroke="#37567C"/>
<path d="M166.5 69.5L173.5 62.5L180.5 69.5" stroke="#37567C"/>
<path d="M180 69.5L187 62.5L194 69.5" stroke="#37567C"/>
<path d="M193.5 69.5L200.5 62.5L207.5 69.5" stroke="#37567C"/>
<path d="M207 69.5L214 62.5L221 69.5" stroke="#37567C"/>
<path d="M220.5 69.5L227.5 62.5L234.5 69.5" stroke="#37567C"/>
<path d="M234 69.5L241 62.5L248 69.5" stroke="#37567C"/>
<path d="M247.5 69.5L254.5 62.5L261.5 69.5" stroke="#37567C"/>
<path d="M261 69.5L268 62.5L275 69.5" stroke="#37567C"/>
<path d="M274.5 69.5L281.5 62.5L288.5 69.5" stroke="#37567C"/>
<path d="M288 69.5L295 62.5L302 69.5" stroke="#37567C"/>
<path d="M301.5 69.5L308.5 62.5L315.5 69.5" stroke="#37567C"/>
<path d="M315 69.5L322 62.5L329 69.5" stroke="#37567C"/>
<path d="M328.5 69.5L335.5 62.5L342.5 69.5" stroke="#37567C"/>
<path d="M342 69.5L349 62.5L356 69.5" stroke="#37567C"/>
<path d="M355.5 69.5L362.5 62.5L369.5 69.5" stroke="#37567C"/>
<path d="M-9 75L-2 68L5 75" stroke="#37567C"/>
<path d="M4.5 75L11.5 68L18.5 75" stroke="#37567C"/>
<path d="M18 75L25 68L32 75" stroke="#37567C"/>
<path d="M31.5 75L38.5 68L45.5 75" stroke="#37567C"/>
<path d="M45 75L52 68L59 75" stroke="#37567C"/>
<path d="M58.5 75L65.5 68L72.5 75" stroke="#37567C"/>
<path d="M72 75L79 68L86 75" stroke="#37567C"/>
<path d="M85.5 75L92.5 68L99.5 75" stroke="#37567C"/>
<path d="M99 75L106 68L113 75" stroke="#37567C"/>
<path d="M112.5 75L119.5 68L126.5 75" stroke="#37567C"/>
<path d="M126 75L133 68L140 75" stroke="#37567C"/>
<path d="M139.5 75L146.5 68L153.5 75" stroke="#37567C"/>
<path d="M153 75L160 68L167 75" stroke="#37567C"/>
<path d="M166.5 75L173.5 68L180.5 75" stroke="#37567C"/>
<path d="M180 75L187 68L194 75" stroke="#37567C"/>
<path d="M193.5 75L200.5 68L207.5 75" stroke="#37567C"/>
<path d="M207 75L214 68L221 75" stroke="#37567C"/>
<path d="M220.5 75L227.5 68L234.5 75" stroke="#37567C"/>
<path d="M234 75L241 68L248 75" stroke="#37567C"/>
<path d="M247.5 75L254.5 68L261.5 75" stroke="#37567C"/>
<path d="M261 75L268 68L275 75" stroke="#37567C"/>
<path d="M274.5 75L281.5 68L288.5 75" stroke="#37567C"/>
<path d="M288 75L295 68L302 75" stroke="#37567C"/>
<path d="M301.5 75L308.5 68L315.5 75" stroke="#37567C"/>
<path d="M315 75L322 68L329 75" stroke="#37567C"/>
<path d="M328.5 75L335.5 68L342.5 75" stroke="#37567C"/>
<path d="M342 75L349 68L356 75" stroke="#37567C"/>
<path d="M355.5 75L362.5 68L369.5 75" stroke="#37567C"/>
<path d="M-9 80.5L-2 73.5L5 80.5" stroke="#37567C"/>
<path d="M4.5 80.5L11.5 73.5L18.5 80.5" stroke="#37567C"/>
<path d="M18 80.5L25 73.5L32 80.5" stroke="#37567C"/>
<path d="M31.5 80.5L38.5 73.5L45.5 80.5" stroke="#37567C"/>
<path d="M45 80.5L52 73.5L59 80.5" stroke="#37567C"/>
<path d="M58.5 80.5L65.5 73.5L72.5 80.5" stroke="#37567C"/>
<path d="M72 80.5L79 73.5L86 80.5" stroke="#37567C"/>
<path d="M85.5 80.5L92.5 73.5L99.5 80.5" stroke="#37567C"/>
<path d="M99 80.5L106 73.5L113 80.5" stroke="#37567C"/>
<path d="M112.5 80.5L119.5 73.5L126.5 80.5" stroke="#37567C"/>
<path d="M126 80.5L133 73.5L140 80.5" stroke="#37567C"/>
<path d="M139.5 80.5L146.5 73.5L153.5 80.5" stroke="#37567C"/>
<path d="M153 80.5L160 73.5L167 80.5" stroke="#37567C"/>
<path d="M166.5 80.5L173.5 73.5L180.5 80.5" stroke="#37567C"/>
<path d="M180 80.5L187 73.5L194 80.5" stroke="#37567C"/>
<path d="M193.5 80.5L200.5 73.5L207.5 80.5" stroke="#37567C"/>
<path d="M207 80.5L214 73.5L221 80.5" stroke="#37567C"/>
<path d="M220.5 80.5L227.5 73.5L234.5 80.5" stroke="#37567C"/>
<path d="M234 80.5L241 73.5L248 80.5" stroke="#37567C"/>
<path d="M247.5 80.5L254.5 73.5L261.5 80.5" stroke="#37567C"/>
<path d="M261 80.5L268 73.5L275 80.5" stroke="#37567C"/>
<path d="M274.5 80.5L281.5 73.5L288.5 80.5" stroke="#37567C"/>
<path d="M288 80.5L295 73.5L302 80.5" stroke="#37567C"/>
<path d="M301.5 80.5L308.5 73.5L315.5 80.5" stroke="#37567C"/>
<path d="M315 80.5L322 73.5L329 80.5" stroke="#37567C"/>
<path d="M328.5 80.5L335.5 73.5L342.5 80.5" stroke="#37567C"/>
<path d="M342 80.5L349 73.5L356 80.5" stroke="#37567C"/>
<path d="M355.5 80.5L362.5 73.5L369.5 80.5" stroke="#37567C"/>
<path d="M-9 86L-2 79L5 86" stroke="#37567C"/>
<path d="M4.5 86L11.5 79L18.5 86" stroke="#37567C"/>
<path d="M18 86L25 79L32 86" stroke="#37567C"/>
<path d="M31.5 86L38.5 79L45.5 86" stroke="#37567C"/>
<path d="M45 86L52 79L59 86" stroke="#37567C"/>
<path d="M58.5 86L65.5 79L72.5 86" stroke="#37567C"/>
<path d="M72 86L79 79L86 86" stroke="#37567C"/>
<path d="M85.5 86L92.5 79L99.5 86" stroke="#37567C"/>
<path d="M99 86L106 79L113 86" stroke="#37567C"/>
<path d="M112.5 86L119.5 79L126.5 86" stroke="#37567C"/>
<path d="M126 86L133 79L140 86" stroke="#37567C"/>
<path d="M139.5 86L146.5 79L153.5 86" stroke="#37567C"/>
<path d="M153 86L160 79L167 86" stroke="#37567C"/>
<path d="M166.5 86L173.5 79L180.5 86" stroke="#37567C"/>
<path d="M180 86L187 79L194 86" stroke="#37567C"/>
<path d="M193.5 86L200.5 79L207.5 86" stroke="#37567C"/>
<path d="M207 86L214 79L221 86" stroke="#37567C"/>
<path d="M220.5 86L227.5 79L234.5 86" stroke="#37567C"/>
<path d="M234 86L241 79L248 86" stroke="#37567C"/>
<path d="M247.5 86L254.5 79L261.5 86" stroke="#37567C"/>
<path d="M261 86L268 79L275 86" stroke="#37567C"/>
<path d="M274.5 86L281.5 79L288.5 86" stroke="#37567C"/>
<path d="M288 86L295 79L302 86" stroke="#37567C"/>
<path d="M301.5 86L308.5 79L315.5 86" stroke="#37567C"/>
<path d="M315 86L322 79L329 86" stroke="#37567C"/>
<path d="M328.5 86L335.5 79L342.5 86" stroke="#37567C"/>
<path d="M342 86L349 79L356 86" stroke="#37567C"/>
<path d="M355.5 86L362.5 79L369.5 86" stroke="#37567C"/>
<path d="M-9 91.5L-2 84.5L5 91.5" stroke="#37567C"/>
<path d="M4.5 91.5L11.5 84.5L18.5 91.5" stroke="#37567C"/>
<path d="M18 91.5L25 84.5L32 91.5" stroke="#37567C"/>
<path d="M31.5 91.5L38.5 84.5L45.5 91.5" stroke="#37567C"/>
<path d="M45 91.5L52 84.5L59 91.5" stroke="#37567C"/>
<path d="M58.5 91.5L65.5 84.5L72.5 91.5" stroke="#37567C"/>
<path d="M72 91.5L79 84.5L86 91.5" stroke="#37567C"/>
<path d="M85.5 91.5L92.5 84.5L99.5 91.5" stroke="#37567C"/>
<path d="M99 91.5L106 84.5L113 91.5" stroke="#37567C"/>
<path d="M112.5 91.5L119.5 84.5L126.5 91.5" stroke="#37567C"/>
<path d="M126 91.5L133 84.5L140 91.5" stroke="#37567C"/>
<path d="M139.5 91.5L146.5 84.5L153.5 91.5" stroke="#37567C"/>
<path d="M153 91.5L160 84.5L167 91.5" stroke="#37567C"/>
<path d="M166.5 91.5L173.5 84.5L180.5 91.5" stroke="#37567C"/>
<path d="M180 91.5L187 84.5L194 91.5" stroke="#37567C"/>
<path d="M193.5 91.5L200.5 84.5L207.5 91.5" stroke="#37567C"/>
<path d="M207 91.5L214 84.5L221 91.5" stroke="#37567C"/>
<path d="M220.5 91.5L227.5 84.5L234.5 91.5" stroke="#37567C"/>
<path d="M234 91.5L241 84.5L248 91.5" stroke="#37567C"/>
<path d="M247.5 91.5L254.5 84.5L261.5 91.5" stroke="#37567C"/>
<path d="M261 91.5L268 84.5L275 91.5" stroke="#37567C"/>
<path d="M274.5 91.5L281.5 84.5L288.5 91.5" stroke="#37567C"/>
<path d="M288 91.5L295 84.5L302 91.5" stroke="#37567C"/>
<path d="M301.5 91.5L308.5 84.5L315.5 91.5" stroke="#37567C"/>
<path d="M315 91.5L322 84.5L329 91.5" stroke="#37567C"/>
<path d="M328.5 91.5L335.5 84.5L342.5 91.5" stroke="#37567C"/>
<path d="M342 91.5L349 84.5L356 91.5" stroke="#37567C"/>
<path d="M355.5 91.5L362.5 84.5L369.5 91.5" stroke="#37567C"/>
<path d="M-9 97L-2 90L5 97" stroke="#37567C"/>
<path d="M4.5 97L11.5 90L18.5 97" stroke="#37567C"/>
<path d="M18 97L25 90L32 97" stroke="#37567C"/>
<path d="M31.5 97L38.5 90L45.5 97" stroke="#37567C"/>
<path d="M45 97L52 90L59 97" stroke="#37567C"/>
<path d="M58.5 97L65.5 90L72.5 97" stroke="#37567C"/>
<path d="M72 97L79 90L86 97" stroke="#37567C"/>
<path d="M85.5 97L92.5 90L99.5 97" stroke="#37567C"/>
<path d="M99 97L106 90L113 97" stroke="#37567C"/>
<path d="M112.5 97L119.5 90L126.5 97" stroke="#37567C"/>
<path d="M126 97L133 90L140 97" stroke="#37567C"/>
<path d="M139.5 97L146.5 90L153.5 97" stroke="#37567C"/>
<path d="M153 97L160 90L167 97" stroke="#37567C"/>
<path d="M166.5 97L173.5 90L180.5 97" stroke="#37567C"/>
<path d="M180 97L187 90L194 97" stroke="#37567C"/>
<path d="M193.5 97L200.5 90L207.5 97" stroke="#37567C"/>
<path d="M207 97L214 90L221 97" stroke="#37567C"/>
<path d="M220.5 97L227.5 90L234.5 97" stroke="#37567C"/>
<path d="M234 97L241 90L248 97" stroke="#37567C"/>
<path d="M247.5 97L254.5 90L261.5 97" stroke="#37567C"/>
<path d="M261 97L268 90L275 97" stroke="#37567C"/>
<path d="M274.5 97L281.5 90L288.5 97" stroke="#37567C"/>
<path d="M288 97L295 90L302 97" stroke="#37567C"/>
<path d="M301.5 97L308.5 90L315.5 97" stroke="#37567C"/>
<path d="M315 97L322 90L329 97" stroke="#37567C"/>
<path d="M328.5 97L335.5 90L342.5 97" stroke="#37567C"/>
<path d="M342 97L349 90L356 97" stroke="#37567C"/>
<path d="M355.5 97L362.5 90L369.5 97" stroke="#37567C"/>
<path d="M-9 102.5L-2 95.5L5 102.5" stroke="#37567C"/>
<path d="M4.5 102.5L11.5 95.5L18.5 102.5" stroke="#37567C"/>
<path d="M18 102.5L25 95.5L32 102.5" stroke="#37567C"/>
<path d="M31.5 102.5L38.5 95.5L45.5 102.5" stroke="#37567C"/>
<path d="M45 102.5L52 95.5L59 102.5" stroke="#37567C"/>
<path d="M58.5 102.5L65.5 95.5L72.5 102.5" stroke="#37567C"/>
<path d="M72 102.5L79 95.5L86 102.5" stroke="#37567C"/>
<path d="M85.5 102.5L92.5 95.5L99.5 102.5" stroke="#37567C"/>
<path d="M99 102.5L106 95.5L113 102.5" stroke="#37567C"/>
<path d="M112.5 102.5L119.5 95.5L126.5 102.5" stroke="#37567C"/>
<path d="M126 102.5L133 95.5L140 102.5" stroke="#37567C"/>
<path d="M139.5 102.5L146.5 95.5L153.5 102.5" stroke="#37567C"/>
<path d="M153 102.5L160 95.5L167 102.5" stroke="#37567C"/>
<path d="M166.5 102.5L173.5 95.5L180.5 102.5" stroke="#37567C"/>
<path d="M180 102.5L187 95.5L194 102.5" stroke="#37567C"/>
<path d="M193.5 102.5L200.5 95.5L207.5 102.5" stroke="#37567C"/>
<path d="M207 102.5L214 95.5L221 102.5" stroke="#37567C"/>
<path d="M220.5 102.5L227.5 95.5L234.5 102.5" stroke="#37567C"/>
<path d="M234 102.5L241 95.5L248 102.5" stroke="#37567C"/>
<path d="M247.5 102.5L254.5 95.5L261.5 102.5" stroke="#37567C"/>
<path d="M261 102.5L268 95.5L275 102.5" stroke="#37567C"/>
<path d="M274.5 102.5L281.5 95.5L288.5 102.5" stroke="#37567C"/>
<path d="M288 102.5L295 95.5L302 102.5" stroke="#37567C"/>
<path d="M301.5 102.5L308.5 95.5L315.5 102.5" stroke="#37567C"/>
<path d="M315 102.5L322 95.5L329 102.5" stroke="#37567C"/>
<path d="M328.5 102.5L335.5 95.5L342.5 102.5" stroke="#37567C"/>
<path d="M342 102.5L349 95.5L356 102.5" stroke="#37567C"/>
<path d="M355.5 102.5L362.5 95.5L369.5 102.5" stroke="#37567C"/>
<path d="M-9 108L-2 101L5 108" stroke="#37567C"/>
<path d="M4.5 108L11.5 101L18.5 108" stroke="#37567C"/>
<path d="M18 108L25 101L32 108" stroke="#37567C"/>
<path d="M31.5 108L38.5 101L45.5 108" stroke="#37567C"/>
<path d="M45 108L52 101L59 108" stroke="#37567C"/>
<path d="M58.5 108L65.5 101L72.5 108" stroke="#37567C"/>
<path d="M72 108L79 101L86 108" stroke="#37567C"/>
<path d="M85.5 108L92.5 101L99.5 108" stroke="#37567C"/>
<path d="M99 108L106 101L113 108" stroke="#37567C"/>
<path d="M112.5 108L119.5 101L126.5 108" stroke="#37567C"/>
<path d="M126 108L133 101L140 108" stroke="#37567C"/>
<path d="M139.5 108L146.5 101L153.5 108" stroke="#37567C"/>
<path d="M153 108L160 101L167 108" stroke="#37567C"/>
<path d="M166.5 108L173.5 101L180.5 108" stroke="#37567C"/>
<path d="M180 108L187 101L194 108" stroke="#37567C"/>
<path d="M193.5 108L200.5 101L207.5 108" stroke="#37567C"/>
<path d="M207 108L214 101L221 108" stroke="#37567C"/>
<path d="M220.5 108L227.5 101L234.5 108" stroke="#37567C"/>
<path d="M234 108L241 101L248 108" stroke="#37567C"/>
<path d="M247.5 108L254.5 101L261.5 108" stroke="#37567C"/>
<path d="M261 108L268 101L275 108" stroke="#37567C"/>
<path d="M274.5 108L281.5 101L288.5 108" stroke="#37567C"/>
<path d="M288 108L295 101L302 108" stroke="#37567C"/>
<path d="M301.5 108L308.5 101L315.5 108" stroke="#37567C"/>
<path d="M315 108L322 101L329 108" stroke="#37567C"/>
<path d="M328.5 108L335.5 101L342.5 108" stroke="#37567C"/>
<path d="M342 108L349 101L356 108" stroke="#37567C"/>
<path d="M355.5 108L362.5 101L369.5 108" stroke="#37567C"/>
<path d="M-9 113.5L-2 106.5L5 113.5" stroke="#37567C"/>
<path d="M4.5 113.5L11.5 106.5L18.5 113.5" stroke="#37567C"/>
<path d="M18 113.5L25 106.5L32 113.5" stroke="#37567C"/>
<path d="M31.5 113.5L38.5 106.5L45.5 113.5" stroke="#37567C"/>
<path d="M45 113.5L52 106.5L59 113.5" stroke="#37567C"/>
<path d="M58.5 113.5L65.5 106.5L72.5 113.5" stroke="#37567C"/>
<path d="M72 113.5L79 106.5L86 113.5" stroke="#37567C"/>
<path d="M85.5 113.5L92.5 106.5L99.5 113.5" stroke="#37567C"/>
<path d="M99 113.5L106 106.5L113 113.5" stroke="#37567C"/>
<path d="M112.5 113.5L119.5 106.5L126.5 113.5" stroke="#37567C"/>
<path d="M126 113.5L133 106.5L140 113.5" stroke="#37567C"/>
<path d="M139.5 113.5L146.5 106.5L153.5 113.5" stroke="#37567C"/>
<path d="M153 113.5L160 106.5L167 113.5" stroke="#37567C"/>
<path d="M166.5 113.5L173.5 106.5L180.5 113.5" stroke="#37567C"/>
<path d="M180 113.5L187 106.5L194 113.5" stroke="#37567C"/>
<path d="M193.5 113.5L200.5 106.5L207.5 113.5" stroke="#37567C"/>
<path d="M207 113.5L214 106.5L221 113.5" stroke="#37567C"/>
<path d="M220.5 113.5L227.5 106.5L234.5 113.5" stroke="#37567C"/>
<path d="M234 113.5L241 106.5L248 113.5" stroke="#37567C"/>
<path d="M247.5 113.5L254.5 106.5L261.5 113.5" stroke="#37567C"/>
<path d="M261 113.5L268 106.5L275 113.5" stroke="#37567C"/>
<path d="M274.5 113.5L281.5 106.5L288.5 113.5" stroke="#37567C"/>
<path d="M288 113.5L295 106.5L302 113.5" stroke="#37567C"/>
<path d="M301.5 113.5L308.5 106.5L315.5 113.5" stroke="#37567C"/>
<path d="M315 113.5L322 106.5L329 113.5" stroke="#37567C"/>
<path d="M328.5 113.5L335.5 106.5L342.5 113.5" stroke="#37567C"/>
<path d="M342 113.5L349 106.5L356 113.5" stroke="#37567C"/>
<path d="M355.5 113.5L362.5 106.5L369.5 113.5" stroke="#37567C"/>
<path d="M-9 119L-2 112L5 119" stroke="#37567C"/>
<path d="M4.5 119L11.5 112L18.5 119" stroke="#37567C"/>
<path d="M18 119L25 112L32 119" stroke="#37567C"/>
<path d="M31.5 119L38.5 112L45.5 119" stroke="#37567C"/>
<path d="M45 119L52 112L59 119" stroke="#37567C"/>
<path d="M58.5 119L65.5 112L72.5 119" stroke="#37567C"/>
<path d="M72 119L79 112L86 119" stroke="#37567C"/>
<path d="M85.5 119L92.5 112L99.5 119" stroke="#37567C"/>
<path d="M99 119L106 112L113 119" stroke="#37567C"/>
<path d="M112.5 119L119.5 112L126.5 119" stroke="#37567C"/>
<path d="M126 119L133 112L140 119" stroke="#37567C"/>
<path d="M139.5 119L146.5 112L153.5 119" stroke="#37567C"/>
<path d="M153 119L160 112L167 119" stroke="#37567C"/>
<path d="M166.5 119L173.5 112L180.5 119" stroke="#37567C"/>
<path d="M180 119L187 112L194 119" stroke="#37567C"/>
<path d="M193.5 119L200.5 112L207.5 119" stroke="#37567C"/>
<path d="M207 119L214 112L221 119" stroke="#37567C"/>
<path d="M220.5 119L227.5 112L234.5 119" stroke="#37567C"/>
<path d="M234 119L241 112L248 119" stroke="#37567C"/>
<path d="M247.5 119L254.5 112L261.5 119" stroke="#37567C"/>
<path d="M261 119L268 112L275 119" stroke="#37567C"/>
<path d="M274.5 119L281.5 112L288.5 119" stroke="#37567C"/>
<path d="M288 119L295 112L302 119" stroke="#37567C"/>
<path d="M301.5 119L308.5 112L315.5 119" stroke="#37567C"/>
<path d="M315 119L322 112L329 119" stroke="#37567C"/>
<path d="M328.5 119L335.5 112L342.5 119" stroke="#37567C"/>
<path d="M342 119L349 112L356 119" stroke="#37567C"/>
<path d="M355.5 119L362.5 112L369.5 119" stroke="#37567C"/>
<path d="M-9 124.5L-2 117.5L5 124.5" stroke="#37567C"/>
<path d="M4.5 124.5L11.5 117.5L18.5 124.5" stroke="#37567C"/>
<path d="M18 124.5L25 117.5L32 124.5" stroke="#37567C"/>
<path d="M31.5 124.5L38.5 117.5L45.5 124.5" stroke="#37567C"/>
<path d="M45 124.5L52 117.5L59 124.5" stroke="#37567C"/>
<path d="M58.5 124.5L65.5 117.5L72.5 124.5" stroke="#37567C"/>
<path d="M72 124.5L79 117.5L86 124.5" stroke="#37567C"/>
<path d="M85.5 124.5L92.5 117.5L99.5 124.5" stroke="#37567C"/>
<path d="M99 124.5L106 117.5L113 124.5" stroke="#37567C"/>
<path d="M112.5 124.5L119.5 117.5L126.5 124.5" stroke="#37567C"/>
<path d="M126 124.5L133 117.5L140 124.5" stroke="#37567C"/>
<path d="M139.5 124.5L146.5 117.5L153.5 124.5" stroke="#37567C"/>
<path d="M153 124.5L160 117.5L167 124.5" stroke="#37567C"/>
<path d="M166.5 124.5L173.5 117.5L180.5 124.5" stroke="#37567C"/>
<path d="M180 124.5L187 117.5L194 124.5" stroke="#37567C"/>
<path d="M193.5 124.5L200.5 117.5L207.5 124.5" stroke="#37567C"/>
<path d="M207 124.5L214 117.5L221 124.5" stroke="#37567C"/>
<path d="M220.5 124.5L227.5 117.5L234.5 124.5" stroke="#37567C"/>
<path d="M234 124.5L241 117.5L248 124.5" stroke="#37567C"/>
<path d="M247.5 124.5L254.5 117.5L261.5 124.5" stroke="#37567C"/>
<path d="M261 124.5L268 117.5L275 124.5" stroke="#37567C"/>
<path d="M274.5 124.5L281.5 117.5L288.5 124.5" stroke="#37567C"/>
<path d="M288 124.5L295 117.5L302 124.5" stroke="#37567C"/>
<path d="M301.5 124.5L308.5 117.5L315.5 124.5" stroke="#37567C"/>
<path d="M315 124.5L322 117.5L329 124.5" stroke="#37567C"/>
<path d="M328.5 124.5L335.5 117.5L342.5 124.5" stroke="#37567C"/>
<path d="M342 124.5L349 117.5L356 124.5" stroke="#37567C"/>
<path d="M355.5 124.5L362.5 117.5L369.5 124.5" stroke="#37567C"/>
<path d="M-9 130L-2 123L5 130" stroke="#37567C"/>
<path d="M4.5 130L11.5 123L18.5 130" stroke="#37567C"/>
<path d="M18 130L25 123L32 130" stroke="#37567C"/>
<path d="M31.5 130L38.5 123L45.5 130" stroke="#37567C"/>
<path d="M45 130L52 123L59 130" stroke="#37567C"/>
<path d="M58.5 130L65.5 123L72.5 130" stroke="#37567C"/>
<path d="M72 130L79 123L86 130" stroke="#37567C"/>
<path d="M85.5 130L92.5 123L99.5 130" stroke="#37567C"/>
<path d="M99 130L106 123L113 130" stroke="#37567C"/>
<path d="M112.5 130L119.5 123L126.5 130" stroke="#37567C"/>
<path d="M126 130L133 123L140 130" stroke="#37567C"/>
<path d="M139.5 130L146.5 123L153.5 130" stroke="#37567C"/>
<path d="M153 130L160 123L167 130" stroke="#37567C"/>
<path d="M166.5 130L173.5 123L180.5 130" stroke="#37567C"/>
<path d="M180 130L187 123L194 130" stroke="#37567C"/>
<path d="M193.5 130L200.5 123L207.5 130" stroke="#37567C"/>
<path d="M207 130L214 123L221 130" stroke="#37567C"/>
<path d="M220.5 130L227.5 123L234.5 130" stroke="#37567C"/>
<path d="M234 130L241 123L248 130" stroke="#37567C"/>
<path d="M247.5 130L254.5 123L261.5 130" stroke="#37567C"/>
<path d="M261 130L268 123L275 130" stroke="#37567C"/>
<path d="M274.5 130L281.5 123L288.5 130" stroke="#37567C"/>
<path d="M288 130L295 123L302 130" stroke="#37567C"/>
<path d="M301.5 130L308.5 123L315.5 130" stroke="#37567C"/>
<path d="M315 130L322 123L329 130" stroke="#37567C"/>
<path d="M328.5 130L335.5 123L342.5 130" stroke="#37567C"/>
<path d="M342 130L349 123L356 130" stroke="#37567C"/>
<path d="M355.5 130L362.5 123L369.5 130" stroke="#37567C"/>
<path d="M-9 135.5L-2 128.5L5 135.5" stroke="#37567C"/>
<path d="M4.5 135.5L11.5 128.5L18.5 135.5" stroke="#37567C"/>
<path d="M18 135.5L25 128.5L32 135.5" stroke="#37567C"/>
<path d="M31.5 135.5L38.5 128.5L45.5 135.5" stroke="#37567C"/>
<path d="M45 135.5L52 128.5L59 135.5" stroke="#37567C"/>
<path d="M58.5 135.5L65.5 128.5L72.5 135.5" stroke="#37567C"/>
<path d="M72 135.5L79 128.5L86 135.5" stroke="#37567C"/>
<path d="M85.5 135.5L92.5 128.5L99.5 135.5" stroke="#37567C"/>
<path d="M99 135.5L106 128.5L113 135.5" stroke="#37567C"/>
<path d="M112.5 135.5L119.5 128.5L126.5 135.5" stroke="#37567C"/>
<path d="M126 135.5L133 128.5L140 135.5" stroke="#37567C"/>
<path d="M139.5 135.5L146.5 128.5L153.5 135.5" stroke="#37567C"/>
<path d="M153 135.5L160 128.5L167 135.5" stroke="#37567C"/>
<path d="M166.5 135.5L173.5 128.5L180.5 135.5" stroke="#37567C"/>
<path d="M180 135.5L187 128.5L194 135.5" stroke="#37567C"/>
<path d="M193.5 135.5L200.5 128.5L207.5 135.5" stroke="#37567C"/>
<path d="M207 135.5L214 128.5L221 135.5" stroke="#37567C"/>
<path d="M220.5 135.5L227.5 128.5L234.5 135.5" stroke="#37567C"/>
<path d="M234 135.5L241 128.5L248 135.5" stroke="#37567C"/>
<path d="M247.5 135.5L254.5 128.5L261.5 135.5" stroke="#37567C"/>
<path d="M261 135.5L268 128.5L275 135.5" stroke="#37567C"/>
<path d="M274.5 135.5L281.5 128.5L288.5 135.5" stroke="#37567C"/>
<path d="M288 135.5L295 128.5L302 135.5" stroke="#37567C"/>
<path d="M301.5 135.5L308.5 128.5L315.5 135.5" stroke="#37567C"/>
<path d="M315 135.5L322 128.5L329 135.5" stroke="#37567C"/>
<path d="M328.5 135.5L335.5 128.5L342.5 135.5" stroke="#37567C"/>
<path d="M342 135.5L349 128.5L356 135.5" stroke="#37567C"/>
<path d="M355.5 135.5L362.5 128.5L369.5 135.5" stroke="#37567C"/>
<path d="M-9 141L-2 134L5 141" stroke="#37567C"/>
<path d="M4.5 141L11.5 134L18.5 141" stroke="#37567C"/>
<path d="M18 141L25 134L32 141" stroke="#37567C"/>
<path d="M31.5 141L38.5 134L45.5 141" stroke="#37567C"/>
<path d="M45 141L52 134L59 141" stroke="#37567C"/>
<path d="M58.5 141L65.5 134L72.5 141" stroke="#37567C"/>
<path d="M72 141L79 134L86 141" stroke="#37567C"/>
<path d="M85.5 141L92.5 134L99.5 141" stroke="#37567C"/>
<path d="M99 141L106 134L113 141" stroke="#37567C"/>
<path d="M112.5 141L119.5 134L126.5 141" stroke="#37567C"/>
<path d="M126 141L133 134L140 141" stroke="#37567C"/>
<path d="M139.5 141L146.5 134L153.5 141" stroke="#37567C"/>
<path d="M153 141L160 134L167 141" stroke="#37567C"/>
<path d="M166.5 141L173.5 134L180.5 141" stroke="#37567C"/>
<path d="M180 141L187 134L194 141" stroke="#37567C"/>
<path d="M193.5 141L200.5 134L207.5 141" stroke="#37567C"/>
<path d="M207 141L214 134L221 141" stroke="#37567C"/>
<path d="M220.5 141L227.5 134L234.5 141" stroke="#37567C"/>
<path d="M234 141L241 134L248 141" stroke="#37567C"/>
<path d="M247.5 141L254.5 134L261.5 141" stroke="#37567C"/>
<path d="M261 141L268 134L275 141" stroke="#37567C"/>
<path d="M274.5 141L281.5 134L288.5 141" stroke="#37567C"/>
<path d="M288 141L295 134L302 141" stroke="#37567C"/>
<path d="M301.5 141L308.5 134L315.5 141" stroke="#37567C"/>
<path d="M315 141L322 134L329 141" stroke="#37567C"/>
<path d="M328.5 141L335.5 134L342.5 141" stroke="#37567C"/>
<path d="M342 141L349 134L356 141" stroke="#37567C"/>
<path d="M355.5 141L362.5 134L369.5 141" stroke="#37567C"/>
<path d="M-9 146.5L-2 139.5L5 146.5" stroke="#37567C"/>
<path d="M4.5 146.5L11.5 139.5L18.5 146.5" stroke="#37567C"/>
<path d="M18 146.5L25 139.5L32 146.5" stroke="#37567C"/>
<path d="M31.5 146.5L38.5 139.5L45.5 146.5" stroke="#37567C"/>
<path d="M45 146.5L52 139.5L59 146.5" stroke="#37567C"/>
<path d="M58.5 146.5L65.5 139.5L72.5 146.5" stroke="#37567C"/>
<path d="M72 146.5L79 139.5L86 146.5" stroke="#37567C"/>
<path d="M85.5 146.5L92.5 139.5L99.5 146.5" stroke="#37567C"/>
<path d="M99 146.5L106 139.5L113 146.5" stroke="#37567C"/>
<path d="M112.5 146.5L119.5 139.5L126.5 146.5" stroke="#37567C"/>
<path d="M126 146.5L133 139.5L140 146.5" stroke="#37567C"/>
<path d="M139.5 146.5L146.5 139.5L153.5 146.5" stroke="#37567C"/>
<path d="M153 146.5L160 139.5L167 146.5" stroke="#37567C"/>
<path d="M166.5 146.5L173.5 139.5L180.5 146.5" stroke="#37567C"/>
<path d="M180 146.5L187 139.5L194 146.5" stroke="#37567C"/>
<path d="M193.5 146.5L200.5 139.5L207.5 146.5" stroke="#37567C"/>
<path d="M207 146.5L214 139.5L221 146.5" stroke="#37567C"/>
<path d="M220.5 146.5L227.5 139.5L234.5 146.5" stroke="#37567C"/>
<path d="M234 146.5L241 139.5L248 146.5" stroke="#37567C"/>
<path d="M247.5 146.5L254.5 139.5L261.5 146.5" stroke="#37567C"/>
<path d="M261 146.5L268 139.5L275 146.5" stroke="#37567C"/>
<path d="M274.5 146.5L281.5 139.5L288.5 146.5" stroke="#37567C"/>
<path d="M288 146.5L295 139.5L302 146.5" stroke="#37567C"/>
<path d="M301.5 146.5L308.5 139.5L315.5 146.5" stroke="#37567C"/>
<path d="M315 146.5L322 139.5L329 146.5" stroke="#37567C"/>
<path d="M328.5 146.5L335.5 139.5L342.5 146.5" stroke="#37567C"/>
<path d="M342 146.5L349 139.5L356 146.5" stroke="#37567C"/>
<path d="M355.5 146.5L362.5 139.5L369.5 146.5" stroke="#37567C"/>
<path d="M-9 152L-2 145L5 152" stroke="#37567C"/>
<path d="M4.5 152L11.5 145L18.5 152" stroke="#37567C"/>
<path d="M18 152L25 145L32 152" stroke="#37567C"/>
<path d="M31.5 152L38.5 145L45.5 152" stroke="#37567C"/>
<path d="M45 152L52 145L59 152" stroke="#37567C"/>
<path d="M58.5 152L65.5 145L72.5 152" stroke="#37567C"/>
<path d="M72 152L79 145L86 152" stroke="#37567C"/>
<path d="M85.5 152L92.5 145L99.5 152" stroke="#37567C"/>
<path d="M99 152L106 145L113 152" stroke="#37567C"/>
<path d="M112.5 152L119.5 145L126.5 152" stroke="#37567C"/>
<path d="M126 152L133 145L140 152" stroke="#37567C"/>
<path d="M139.5 152L146.5 145L153.5 152" stroke="#37567C"/>
<path d="M153 152L160 145L167 152" stroke="#37567C"/>
<path d="M166.5 152L173.5 145L180.5 152" stroke="#37567C"/>
<path d="M180 152L187 145L194 152" stroke="#37567C"/>
<path d="M193.5 152L200.5 145L207.5 152" stroke="#37567C"/>
<path d="M207 152L214 145L221 152" stroke="#37567C"/>
<path d="M220.5 152L227.5 145L234.5 152" stroke="#37567C"/>
<path d="M234 152L241 145L248 152" stroke="#37567C"/>
<path d="M247.5 152L254.5 145L261.5 152" stroke="#37567C"/>
<path d="M261 152L268 145L275 152" stroke="#37567C"/>
<path d="M274.5 152L281.5 145L288.5 152" stroke="#37567C"/>
<path d="M288 152L295 145L302 152" stroke="#37567C"/>
<path d="M301.5 152L308.5 145L315.5 152" stroke="#37567C"/>
<path d="M315 152L322 145L329 152" stroke="#37567C"/>
<path d="M328.5 152L335.5 145L342.5 152" stroke="#37567C"/>
<path d="M342 152L349 145L356 152" stroke="#37567C"/>
<path d="M355.5 152L362.5 145L369.5 152" stroke="#37567C"/>
<path d="M-9 157.5L-2 150.5L5 157.5" stroke="#37567C"/>
<path d="M4.5 157.5L11.5 150.5L18.5 157.5" stroke="#37567C"/>
<path d="M18 157.5L25 150.5L32 157.5" stroke="#37567C"/>
<path d="M31.5 157.5L38.5 150.5L45.5 157.5" stroke="#37567C"/>
<path d="M45 157.5L52 150.5L59 157.5" stroke="#37567C"/>
<path d="M58.5 157.5L65.5 150.5L72.5 157.5" stroke="#37567C"/>
<path d="M72 157.5L79 150.5L86 157.5" stroke="#37567C"/>
<path d="M85.5 157.5L92.5 150.5L99.5 157.5" stroke="#37567C"/>
<path d="M99 157.5L106 150.5L113 157.5" stroke="#37567C"/>
<path d="M112.5 157.5L119.5 150.5L126.5 157.5" stroke="#37567C"/>
<path d="M126 157.5L133 150.5L140 157.5" stroke="#37567C"/>
<path d="M139.5 157.5L146.5 150.5L153.5 157.5" stroke="#37567C"/>
<path d="M153 157.5L160 150.5L167 157.5" stroke="#37567C"/>
<path d="M166.5 157.5L173.5 150.5L180.5 157.5" stroke="#37567C"/>
<path d="M180 157.5L187 150.5L194 157.5" stroke="#37567C"/>
<path d="M193.5 157.5L200.5 150.5L207.5 157.5" stroke="#37567C"/>
<path d="M207 157.5L214 150.5L221 157.5" stroke="#37567C"/>
<path d="M220.5 157.5L227.5 150.5L234.5 157.5" stroke="#37567C"/>
<path d="M234 157.5L241 150.5L248 157.5" stroke="#37567C"/>
<path d="M247.5 157.5L254.5 150.5L261.5 157.5" stroke="#37567C"/>
<path d="M261 157.5L268 150.5L275 157.5" stroke="#37567C"/>
<path d="M274.5 157.5L281.5 150.5L288.5 157.5" stroke="#37567C"/>
<path d="M288 157.5L295 150.5L302 157.5" stroke="#37567C"/>
<path d="M301.5 157.5L308.5 150.5L315.5 157.5" stroke="#37567C"/>
<path d="M315 157.5L322 150.5L329 157.5" stroke="#37567C"/>
<path d="M328.5 157.5L335.5 150.5L342.5 157.5" stroke="#37567C"/>
<path d="M342 157.5L349 150.5L356 157.5" stroke="#37567C"/>
<path d="M355.5 157.5L362.5 150.5L369.5 157.5" stroke="#37567C"/>
<path d="M-9 163L-2 156L5 163" stroke="#37567C"/>
<path d="M4.5 163L11.5 156L18.5 163" stroke="#37567C"/>
<path d="M18 163L25 156L32 163" stroke="#37567C"/>
<path d="M31.5 163L38.5 156L45.5 163" stroke="#37567C"/>
<path d="M45 163L52 156L59 163" stroke="#37567C"/>
<path d="M58.5 163L65.5 156L72.5 163" stroke="#37567C"/>
<path d="M72 163L79 156L86 163" stroke="#37567C"/>
<path d="M85.5 163L92.5 156L99.5 163" stroke="#37567C"/>
<path d="M99 163L106 156L113 163" stroke="#37567C"/>
<path d="M112.5 163L119.5 156L126.5 163" stroke="#37567C"/>
<path d="M126 163L133 156L140 163" stroke="#37567C"/>
<path d="M139.5 163L146.5 156L153.5 163" stroke="#37567C"/>
<path d="M153 163L160 156L167 163" stroke="#37567C"/>
<path d="M166.5 163L173.5 156L180.5 163" stroke="#37567C"/>
<path d="M180 163L187 156L194 163" stroke="#37567C"/>
<path d="M193.5 163L200.5 156L207.5 163" stroke="#37567C"/>
<path d="M207 163L214 156L221 163" stroke="#37567C"/>
<path d="M220.5 163L227.5 156L234.5 163" stroke="#37567C"/>
<path d="M234 163L241 156L248 163" stroke="#37567C"/>
<path d="M247.5 163L254.5 156L261.5 163" stroke="#37567C"/>
<path d="M261 163L268 156L275 163" stroke="#37567C"/>
<path d="M274.5 163L281.5 156L288.5 163" stroke="#37567C"/>
<path d="M288 163L295 156L302 163" stroke="#37567C"/>
<path d="M301.5 163L308.5 156L315.5 163" stroke="#37567C"/>
<path d="M315 163L322 156L329 163" stroke="#37567C"/>
<path d="M328.5 163L335.5 156L342.5 163" stroke="#37567C"/>
<path d="M342 163L349 156L356 163" stroke="#37567C"/>
<path d="M355.5 163L362.5 156L369.5 163" stroke="#37567C"/>
<path d="M-9 168.5L-2 161.5L5 168.5" stroke="#37567C"/>
<path d="M4.5 168.5L11.5 161.5L18.5 168.5" stroke="#37567C"/>
<path d="M18 168.5L25 161.5L32 168.5" stroke="#37567C"/>
<path d="M31.5 168.5L38.5 161.5L45.5 168.5" stroke="#37567C"/>
<path d="M45 168.5L52 161.5L59 168.5" stroke="#37567C"/>
<path d="M58.5 168.5L65.5 161.5L72.5 168.5" stroke="#37567C"/>
<path d="M72 168.5L79 161.5L86 168.5" stroke="#37567C"/>
<path d="M85.5 168.5L92.5 161.5L99.5 168.5" stroke="#37567C"/>
<path d="M99 168.5L106 161.5L113 168.5" stroke="#37567C"/>
<path d="M112.5 168.5L119.5 161.5L126.5 168.5" stroke="#37567C"/>
<path d="M126 168.5L133 161.5L140 168.5" stroke="#37567C"/>
<path d="M139.5 168.5L146.5 161.5L153.5 168.5" stroke="#37567C"/>
<path d="M153 168.5L160 161.5L167 168.5" stroke="#37567C"/>
<path d="M166.5 168.5L173.5 161.5L180.5 168.5" stroke="#37567C"/>
<path d="M180 168.5L187 161.5L194 168.5" stroke="#37567C"/>
<path d="M193.5 168.5L200.5 161.5L207.5 168.5" stroke="#37567C"/>
<path d="M207 168.5L214 161.5L221 168.5" stroke="#37567C"/>
<path d="M220.5 168.5L227.5 161.5L234.5 168.5" stroke="#37567C"/>
<path d="M234 168.5L241 161.5L248 168.5" stroke="#37567C"/>
<path d="M247.5 168.5L254.5 161.5L261.5 168.5" stroke="#37567C"/>
<path d="M261 168.5L268 161.5L275 168.5" stroke="#37567C"/>
<path d="M274.5 168.5L281.5 161.5L288.5 168.5" stroke="#37567C"/>
<path d="M288 168.5L295 161.5L302 168.5" stroke="#37567C"/>
<path d="M301.5 168.5L308.5 161.5L315.5 168.5" stroke="#37567C"/>
<path d="M315 168.5L322 161.5L329 168.5" stroke="#37567C"/>
<path d="M328.5 168.5L335.5 161.5L342.5 168.5" stroke="#37567C"/>
<path d="M342 168.5L349 161.5L356 168.5" stroke="#37567C"/>
<path d="M355.5 168.5L362.5 161.5L369.5 168.5" stroke="#37567C"/>
</g>
<defs>
<clipPath id="clip0_793_15">
<rect width="360" height="166" fill="white"/>
</clipPath>
</defs>
</svg>
