<svg width="264" height="279" viewBox="0 0 264 279" fill="none" xmlns="http://www.w3.org/2000/svg">
    <path d="M136.703 21.9887C124.103 21.8696 47.8186 20.6967 45.5765 41.9229C43.4298 62.2501 73.0061 54.8075 73.2745 63.8279C73.5786 73.3067 67.9436 76.0456 52.2133 75.4502C45.3917 75.1882 23.8713 77.5937 23.5314 91.157C23.1915 104.72 47.2163 102.94 46.0297 114.134C45.338 126.852 27.0854 129.614 19.9 132.984C12.0885 137.063 -2.2882 143.791 1.01528 158.229C5.36228 174.972 32.9648 171.96 43.3523 174.026C50.2992 175.151 72.38 177.092 69.2375 191.929C67.5918 200.861 49.4644 201.367 52.9288 212.81C56.4351 223.528 88.0447 225.617 94.4489 225.963C121.032 227.398 179.397 229.75 205.396 218.818C214.937 214.829 223.386 210.03 222.408 195.722C221.937 182.939 215.032 181.069 226.66 171.191C234.012 164.833 248.085 165.345 247.25 146.78C246.803 136.771 221.156 132.615 221.728 122.142C222.617 105.679 254.095 119.659 254.215 90.5437C254.28 72.366 197.018 82.5355 197.602 64.5602C196.827 57.2606 209.433 54.1644 208.89 46.1027C209.2 33.1466 194.364 23.5606 136.703 21.9887Z" fill="#FFF2DA"/>
    <path d="M70.9978 159.818C70.9359 159.854 70.8654 159.872 70.7938 159.871H31.32C31.2314 159.871 31.1454 159.843 31.0747 159.789C31.004 159.736 30.9525 159.661 30.9281 159.577C30.4986 157.7 32.6674 156.226 34.1491 156.95C34.2605 156.481 34.5412 156.07 34.9374 155.795C35.3336 155.52 35.8176 155.401 36.2965 155.46C36.0222 154.624 36.0771 153.715 36.4501 152.919C36.8231 152.122 37.4861 151.497 38.3042 151.171C39.0196 150.832 39.8328 150.757 40.5981 150.961C41.3634 151.166 42.0309 151.635 42.4809 152.286C43.0499 149.386 45.557 146.878 48.6062 146.669C50.3023 146.532 51.9867 147.048 53.3143 148.111C54.6027 149.183 55.0214 150.373 55.3435 151.82C55.7933 151.125 56.464 150.601 57.2478 150.333C58.0316 150.065 58.883 150.067 59.6651 150.341C61.4367 150.877 61.6622 152.699 61.5763 154.323C63.0043 153.139 64.7221 152.565 66.585 153.68C68.1364 154.613 68.4693 156.103 68.5337 157.727C69.806 156.971 71.1213 157.727 71.2179 159.459C71.2274 159.535 71.2108 159.611 71.1708 159.677C71.1308 159.742 71.0698 159.792 70.9978 159.818Z" fill="#FFCE76"/>
    <path d="M217.974 57.362C217.974 64.9148 238.503 66.3085 239.571 57.362C240.64 48.4155 217.974 46.0141 217.974 57.362Z" fill="#FFCE76"/>
    <path d="M12.3312 199.62C12.3312 207.178 37.7345 208.636 38.6364 199.62C39.7906 188.502 12.3312 186.39 12.3312 199.62Z" fill="#FFCE76"/>
    <path d="M232.302 192.049C232.302 201.011 262.429 202.743 263.519 192.049C264.872 178.868 232.302 176.359 232.302 192.049Z" fill="#FFCE76"/>
    <path d="M24.1304 59.9104C24.1304 64.842 38.1312 65.8068 38.6251 59.9104C39.264 52.6524 24.1304 51.2748 24.1304 59.9104Z" fill="#FFCE76"/>
    <path d="M237.633 165.569C238.052 163.468 234.949 161.543 232.55 162.315C232.942 160.873 232.496 159.571 230.37 158.927C229.429 158.666 228.434 158.666 227.493 158.927C229.168 155.599 227.605 151.803 222.43 151.015C216.804 150.163 210.561 152.918 209.444 157.357C204.87 152.87 195.175 158.247 198.036 163.414C196.27 163.13 194.445 164.132 194.337 165.617C193.968 165.464 193.559 165.437 193.173 165.542C192.788 165.647 192.448 165.877 192.208 166.196C191.968 166.515 191.841 166.905 191.848 167.304C191.854 167.703 191.993 168.088 192.244 168.399C192.293 168.46 192.355 168.508 192.426 168.541C192.496 168.573 192.574 168.589 192.652 168.587H240.43C240.532 168.59 240.633 168.564 240.72 168.512C240.797 168.467 240.856 168.397 240.887 168.313C241.413 166.748 239.416 165.279 237.633 165.569Z" fill="white"/>
    <path d="M113.74 193.18C113.928 192.252 112.554 191.4 111.491 191.743C111.668 191.105 111.491 190.526 110.53 190.242C110.114 190.127 109.674 190.127 109.258 190.242C109.999 188.768 109.306 187.09 107.019 186.742C104.528 186.366 101.769 187.589 101.275 189.551C99.251 187.562 94.967 189.942 96.2286 192.231C95.4501 192.107 94.618 192.547 94.618 193.206C94.4551 193.138 94.2739 193.125 94.103 193.171C93.9322 193.217 93.7815 193.318 93.6748 193.459C93.5682 193.6 93.5117 193.772 93.5144 193.949C93.517 194.125 93.5786 194.296 93.6893 194.434C93.7107 194.462 93.7384 194.484 93.7702 194.499C93.8019 194.514 93.8368 194.521 93.8718 194.52H114.991C115.036 194.518 115.08 194.507 115.12 194.487C115.154 194.467 115.18 194.435 115.19 194.396C115.41 193.705 114.524 193.051 113.74 193.18Z" fill="white"/>
    <path d="M164.218 74.6834C164.266 74.7083 164.319 74.7212 164.374 74.7209H193.733C193.799 74.7219 193.864 74.7007 193.916 74.6609C193.969 74.6211 194.007 74.5648 194.023 74.5011C194.077 74.1928 194.047 73.8759 193.938 73.5828C193.828 73.2896 193.643 73.0306 193.401 72.8323C193.158 72.6339 192.868 72.5033 192.558 72.4537C192.249 72.4041 191.932 72.4373 191.64 72.5499C191.56 72.1969 191.35 71.8868 191.051 71.6813C190.753 71.4757 190.388 71.3897 190.029 71.4403C190.231 70.8203 190.189 70.1468 189.912 69.5565C189.635 68.9662 189.143 68.5033 188.537 68.2616C188.005 68.0069 187.4 67.9501 186.83 68.1015C186.26 68.2528 185.763 68.6023 185.428 69.0871C185.218 67.995 184.661 66.9994 183.84 66.2474C183.02 65.4955 181.979 65.0271 180.871 64.9114C179.61 64.8106 178.358 65.194 177.371 65.9835C176.547 66.6917 176.009 67.6747 175.857 68.7494C175.523 68.2299 175.023 67.8382 174.438 67.6378C173.854 67.4374 173.219 67.44 172.636 67.6452C171.315 68.0526 171.149 69.398 171.213 70.6041C170.139 69.725 168.872 69.2962 167.487 70.1324C166.333 70.8239 166.086 71.9335 166.038 73.1396C165.093 72.5767 164.116 73.1396 164.035 74.4261C164.033 74.4831 164.05 74.5393 164.083 74.5859C164.116 74.6325 164.163 74.6668 164.218 74.6834Z" fill="white"/>
    <path d="M122.453 54.5386C122.487 54.5465 122.522 54.5465 122.555 54.5386H142.418C142.463 54.5397 142.507 54.5253 142.542 54.498C142.577 54.4706 142.602 54.4319 142.612 54.3885C142.648 54.1801 142.628 53.966 142.554 53.7679C142.48 53.5698 142.355 53.3948 142.191 53.2608C142.027 53.1267 141.831 53.0384 141.622 53.0049C141.413 52.9713 141.199 52.9937 141.001 53.0698C140.946 52.8347 140.806 52.6282 140.608 52.4897C140.41 52.3512 140.167 52.2906 139.927 52.3194C140.064 51.9008 140.035 51.4462 139.848 51.0479C139.66 50.6497 139.328 50.3376 138.918 50.1752C138.561 50.0018 138.155 49.9605 137.77 50.0587C137.386 50.1569 137.049 50.3881 136.819 50.7112C136.677 49.9726 136.301 49.2992 135.746 48.7905C135.191 48.2818 134.487 47.9648 133.738 47.8863C132.885 47.8162 132.038 48.0752 131.37 48.61C130.818 49.0899 130.456 49.7517 130.35 50.4754C130.125 50.1313 129.793 49.8714 129.404 49.7365C129.015 49.6017 128.593 49.5995 128.203 49.7303C127.312 50.009 127.199 50.9149 127.242 51.7351C126.919 51.4057 126.494 51.1948 126.036 51.1365C125.578 51.0781 125.114 51.1757 124.719 51.4135C123.94 51.8798 123.774 52.6303 123.742 53.445C123.103 53.0645 122.443 53.445 122.394 54.3134C122.374 54.3515 122.369 54.3958 122.38 54.4375C122.391 54.4792 122.417 54.5153 122.453 54.5386Z" fill="white"/>
    <path d="M178.851 266.744C178.849 266.676 178.826 266.611 178.787 266.556C178.76 266.495 178.714 266.442 178.657 266.407C178.599 266.372 178.532 266.355 178.465 266.358L163.476 266.599C163.374 266.599 163.275 266.64 163.203 266.712C163.13 266.785 163.09 266.883 163.09 266.985C163.208 269.869 162.966 272.844 163.444 275.701C163.889 278.381 166.81 278.569 169.07 278.698C171.969 278.864 176.108 278.966 177.772 277.438C179.71 275.664 178.948 269.564 178.851 266.744Z" fill="#FFCE76"/>
    <path d="M165.693 272.378C165.056 272.38 164.436 272.17 163.93 271.782C163.425 271.394 163.063 270.849 162.902 270.234C162.889 270.174 162.9 270.112 162.934 270.06C162.967 270.009 163.019 269.973 163.079 269.96C163.138 269.947 163.2 269.958 163.251 269.99C163.302 270.022 163.338 270.073 163.353 270.132C163.353 270.218 163.889 272.314 166.359 271.863C167.996 271.568 168.12 268.148 168.12 268.111C168.119 268.054 168.139 267.998 168.177 267.955C168.214 267.912 168.267 267.884 168.324 267.878C168.38 267.871 168.438 267.886 168.484 267.919C168.531 267.952 168.564 268.001 168.576 268.057C168.619 268.202 168.662 268.395 168.71 268.62C168.903 269.451 169.188 270.7 169.784 271.225C170.53 271.879 172.259 271.96 173.145 271.568C174.03 271.177 174.513 269.917 174.476 268.749C174.476 268.577 174.438 268.406 174.433 268.213C174.434 268.157 174.457 268.103 174.495 268.062C174.534 268.02 174.586 267.995 174.642 267.989C174.698 267.984 174.754 268 174.8 268.033C174.845 268.066 174.877 268.115 174.889 268.17C174.917 268.347 174.933 268.526 174.938 268.706C175.131 269.96 175.872 271.011 176.806 271.29C177.552 271.515 178.271 271.199 178.84 270.4C178.858 270.375 178.88 270.354 178.906 270.338C178.932 270.322 178.96 270.311 178.99 270.306C179.02 270.301 179.051 270.302 179.08 270.309C179.11 270.316 179.138 270.329 179.162 270.346C179.187 270.364 179.208 270.386 179.224 270.412C179.24 270.437 179.251 270.466 179.256 270.496C179.261 270.526 179.26 270.556 179.253 270.586C179.246 270.615 179.234 270.643 179.216 270.668C178.534 271.622 177.606 272.013 176.672 271.74C176.253 271.593 175.871 271.358 175.552 271.051C175.232 270.744 174.983 270.372 174.819 269.96C174.753 270.397 174.582 270.811 174.322 271.167C174.061 271.524 173.718 271.812 173.322 272.008C172.296 272.464 170.385 272.383 169.478 271.59C168.929 270.988 168.557 270.246 168.404 269.446C168.189 270.593 167.669 272.126 166.418 272.335C166.178 272.37 165.936 272.384 165.693 272.378Z" fill="#FFB52F"/>
    <path d="M170.627 265.35C169.016 265.35 163.648 265.42 163.052 266.631C162.263 268.341 171.035 268.207 172.715 268.148C180.784 267.886 181.718 264.948 170.627 265.35Z" fill="#4598E2"/>
    <path d="M170.627 265.039C169.709 265.039 162.011 264.911 162.708 266.991C163.052 268.004 164.684 268.095 165.548 268.218C167.463 268.442 169.392 268.53 171.319 268.481C173.021 268.496 174.72 268.363 176.398 268.084C177.144 267.95 178.771 267.693 179.109 266.824C179.962 264.573 171.233 265.023 170.627 265.039C170.23 265.039 170.224 265.667 170.627 265.656C172.378 265.584 174.131 265.621 175.877 265.768C176.183 265.795 179.238 266.203 178.234 266.841C176.387 268.047 173.44 267.832 171.319 267.854C168.957 267.854 166.434 267.918 164.136 267.318C163.031 267.023 163.782 266.38 164.518 266.17C165.302 265.972 166.104 265.848 166.912 265.801C168.141 265.683 169.387 265.656 170.627 265.656C170.702 265.646 170.77 265.609 170.82 265.553C170.87 265.496 170.897 265.423 170.897 265.348C170.897 265.272 170.87 265.199 170.82 265.143C170.77 265.086 170.702 265.049 170.627 265.039Z" fill="#FFB52F"/>
    <path d="M178.959 248.369C178.857 254.431 178.636 260.494 178.556 266.556C178.556 266.618 178.58 266.676 178.624 266.719C178.667 266.763 178.726 266.787 178.787 266.787C178.848 266.787 178.907 266.763 178.95 266.719C178.993 266.676 179.018 266.618 179.018 266.556C179.104 260.494 179.318 254.431 179.42 248.369C179.42 248.308 179.396 248.249 179.353 248.206C179.309 248.162 179.251 248.138 179.189 248.138C179.128 248.138 179.07 248.162 179.026 248.206C178.983 248.249 178.959 248.308 178.959 248.369Z" fill="#FFCE76"/>
    <path d="M161.909 248.267C162.096 254.404 162.177 260.521 162.821 266.631C162.853 266.926 163.315 266.926 163.283 266.631C162.639 260.521 162.558 254.404 162.37 248.267C162.37 247.972 161.898 247.967 161.909 248.267Z" fill="#FFCE76"/>
    <path d="M170.23 249.291C170.766 255.482 170.095 261.689 170.638 267.87C170.638 268.165 171.126 268.17 171.099 267.87C170.562 261.689 171.207 255.482 170.691 249.291C170.664 249.001 170.203 248.996 170.23 249.291Z" fill="#FFCE76"/>
    <path d="M202.735 195.59C200.797 190.686 197.227 185.802 191.639 184.794H191.515C191.487 184.792 191.458 184.792 191.429 184.794C187.253 184.371 184.826 188.52 183.377 191.704C180.73 197.45 179.571 203.883 178.545 210.063C176.511 222.215 174.401 235.53 177.971 247.586C178.019 247.732 178.107 247.861 178.225 247.959C178.344 248.056 178.488 248.118 178.64 248.138C178.793 248.157 178.948 248.132 179.087 248.067C179.226 248.001 179.343 247.898 179.426 247.768C183.243 241.915 191.118 239.905 196.148 235.23C201.409 230.347 204.083 223.207 204.942 216.303C205.779 209.195 205.366 202.226 202.735 195.59Z" fill="#FFCE76"/>
    <path d="M161.189 215.22C159.337 205.223 154.967 195.231 149.916 186.37C149.848 186.24 149.741 186.134 149.61 186.066C149.48 185.999 149.331 185.974 149.185 185.995C149.061 186 148.94 186.033 148.831 186.092C143.758 188.697 141.031 193.687 139.318 198.844C137.488 204.371 136.527 211.114 137.38 216.909C138.454 224.413 142.749 231.017 148.305 236.142C152.884 240.339 158.58 243.062 162.665 247.865C162.776 247.971 162.915 248.043 163.066 248.072C163.216 248.102 163.372 248.087 163.514 248.031C163.657 247.974 163.78 247.878 163.87 247.754C163.959 247.629 164.011 247.482 164.018 247.329C163.916 236.608 163.143 225.759 161.189 215.22Z" fill="#FFB52F"/>
    <path d="M185.326 178.973C180.843 176.529 175.603 176.116 170.648 177.092C170.525 177.111 170.409 177.164 170.314 177.246C170.219 177.327 170.149 177.433 170.111 177.553C167.116 181.841 166.676 187.786 166.235 192.776C165.543 200.624 165.731 208.552 166.08 216.41C166.552 227.008 167.443 237.621 168.796 248.144C168.803 248.35 168.889 248.546 169.037 248.691C169.185 248.836 169.384 248.918 169.591 248.921H178.717C178.855 248.921 178.991 248.886 179.112 248.818C179.232 248.751 179.333 248.653 179.404 248.535C187.822 233.097 190.179 214.529 191.585 197.316C191.907 193.393 192.165 189.453 192.235 185.523C192.267 182.918 187.226 180.008 185.326 178.973Z" fill="#FFB52F"/>
    <path d="M172.694 180.136C171.266 171.924 156.739 178.48 152.895 181.289C149.341 183.883 148.375 186.338 148.149 190.305C147.808 196.927 148.081 203.567 148.965 210.138C150.078 219.204 152.477 228.066 156.089 236.458C157.206 238.999 158.433 241.489 159.772 243.93C160.378 245.034 161.715 248.54 163.025 248.894C164.952 249.43 167.599 248.921 169.596 248.921C169.76 248.927 169.922 248.877 170.054 248.78C170.187 248.682 170.283 248.543 170.326 248.385C170.362 248.303 170.384 248.216 170.391 248.127C171.647 233.118 172.64 218.109 173.155 203.1C173.402 195.59 173.993 187.619 172.694 180.136Z" fill="#FFCE76"/>
    <path d="M161.705 249.264C167.647 250.326 173.73 250.326 179.673 249.264C181.358 248.974 180.644 246.728 178.969 247.018C173.492 247.988 167.886 247.988 162.408 247.018C160.738 246.707 160.024 248.958 161.705 249.264Z" fill="#FFCE76"/>
    <path d="M98.0216 39.2489C98.0298 39.2228 98.0298 39.1947 98.0216 39.1685C98.0097 39.1418 97.99 39.1194 97.9651 39.1041C97.9402 39.0887 97.9112 39.0813 97.882 39.0828L91.3862 39.19C91.3421 39.19 91.2998 39.2075 91.2685 39.2386C91.2373 39.2698 91.2198 39.3121 91.2198 39.3561C91.1946 40.6089 91.2466 41.862 91.3755 43.1084C91.5687 44.2609 92.8357 44.352 93.8127 44.4056C95.0689 44.4807 96.862 44.5235 97.5706 43.8696C98.3866 43.1138 98.0645 40.4765 98.0216 39.2489Z" fill="#FFCE76"/>
    <path d="M92.3257 41.6932C92.0483 41.6918 91.7792 41.5991 91.5598 41.4295C91.3405 41.26 91.1833 41.0229 91.1125 40.7551C91.1093 40.7424 91.1088 40.7293 91.1109 40.7164C91.113 40.7035 91.1177 40.6911 91.1247 40.6801C91.1318 40.6691 91.141 40.6596 91.1518 40.6522C91.1626 40.6448 91.1748 40.6397 91.1876 40.6372C91.2007 40.634 91.2142 40.6334 91.2275 40.6355C91.2408 40.6375 91.2535 40.6422 91.265 40.6491C91.2765 40.6561 91.2864 40.6653 91.2943 40.6761C91.3023 40.6869 91.308 40.6992 91.3111 40.7123C91.3866 40.982 91.5648 41.2115 91.8075 41.3518C92.0503 41.492 92.3384 41.5319 92.6103 41.4627C93.3189 41.3341 93.3726 39.8546 93.3779 39.8546C93.3778 39.8308 93.3865 39.8077 93.4023 39.7899C93.4182 39.7721 93.4401 39.7608 93.4638 39.7581C93.4872 39.7546 93.511 39.7598 93.5307 39.7726C93.5505 39.7855 93.5649 39.8051 93.5712 39.8278C93.5712 39.8921 93.6088 39.9779 93.6302 40.0744C93.6848 40.4855 93.8458 40.8754 94.0973 41.2054C94.3125 41.3393 94.5556 41.422 94.8078 41.4471C95.0601 41.4722 95.3148 41.439 95.5521 41.3501C95.7566 41.224 95.9201 41.0415 96.0229 40.8246C96.1258 40.6078 96.1637 40.3658 96.1319 40.128C96.1319 40.0583 96.1319 39.9832 96.1319 39.9028C96.1318 39.8776 96.141 39.8532 96.1579 39.8344C96.1748 39.8155 96.198 39.8036 96.2232 39.801C96.2486 39.7993 96.2737 39.8072 96.2935 39.8231C96.3134 39.839 96.3266 39.8617 96.3306 39.8868C96.3364 39.9617 96.3364 40.037 96.3306 40.1119C96.3508 40.3539 96.437 40.5859 96.5799 40.7824C96.7228 40.979 96.9169 41.1327 97.1412 41.2269C97.31 41.2693 97.4882 41.2544 97.6476 41.1845C97.8071 41.1146 97.9386 40.9937 98.0216 40.8409C98.039 40.8252 98.0613 40.8161 98.0847 40.8149C98.1081 40.8137 98.1312 40.8206 98.1501 40.8345C98.1691 40.8483 98.1826 40.8682 98.1885 40.8909C98.1944 40.9135 98.1924 40.9375 98.1827 40.9588C98.0753 41.1456 97.9094 41.292 97.7105 41.3753C97.5116 41.4586 97.2908 41.4743 97.0821 41.4198C96.9015 41.3554 96.7366 41.2533 96.5987 41.1201C96.4607 40.987 96.3529 40.826 96.2822 40.6479C96.253 40.8366 96.1786 41.0154 96.0656 41.1693C95.9525 41.3233 95.804 41.4478 95.6327 41.5324C95.3604 41.638 95.0668 41.6771 94.7764 41.6463C94.4859 41.6156 94.2071 41.5158 93.9631 41.3555C93.7305 41.0914 93.5745 40.7689 93.5121 40.4228C93.4155 40.9213 93.19 41.5806 92.6478 41.6771C92.5412 41.692 92.4334 41.6974 92.3257 41.6932Z" fill="#FFB52F"/>
    <path d="M94.4623 38.6432C93.7698 38.6432 91.4346 38.6754 91.1769 39.1793C90.8387 39.919 94.6395 39.86 95.3696 39.8386C98.8483 39.7421 99.2671 38.4717 94.4623 38.6432Z" fill="#6B7D7E"/>
    <path d="M94.4624 38.5146C94.0598 38.5146 90.7045 38.4556 91.032 39.3562C91.1823 39.7957 91.8856 39.8333 92.2613 39.8922C93.0896 39.9903 93.9238 40.0297 94.7577 40.0102C95.4949 40.015 96.2312 39.9576 96.9587 39.8386C97.2862 39.7797 97.9894 39.6671 98.1344 39.3026C98.5048 38.327 94.7254 38.52 94.4624 38.5307C94.432 38.5368 94.4048 38.5533 94.3852 38.5772C94.3656 38.6011 94.3549 38.6311 94.3549 38.662C94.3549 38.6929 94.3656 38.7229 94.3852 38.7468C94.4048 38.7708 94.432 38.7872 94.4624 38.7934C95.2196 38.7639 95.9779 38.78 96.7332 38.8416C96.8674 38.8416 98.1881 39.0346 97.7586 39.3133C96.9587 39.8493 95.6756 39.7421 94.7577 39.7529C93.7157 39.8117 92.6705 39.7324 91.6493 39.517C91.1716 39.3884 91.4937 39.1096 91.8158 39.0185C92.1554 38.9328 92.5022 38.879 92.8519 38.8577C93.3873 38.8094 93.9248 38.7879 94.4624 38.7934C94.4994 38.7934 94.5349 38.7787 94.5611 38.7525C94.5873 38.7264 94.602 38.6909 94.602 38.654C94.602 38.617 94.5873 38.5816 94.5611 38.5554C94.5349 38.5293 94.4994 38.5146 94.4624 38.5146Z" fill="#FFB52F"/>
    <path d="M98.0699 31.2887C98.027 33.9153 97.9303 36.5419 97.8981 39.1685C97.8981 39.2971 98.0968 39.2971 98.0968 39.1685C98.1343 36.5419 98.2256 33.9153 98.2686 31.2887C98.2686 31.1601 98.0699 31.1601 98.0699 31.2887Z" fill="#FFCE76"/>
    <path d="M90.683 31.2459C90.7635 33.9261 90.8011 36.5527 91.0802 39.2007C91.0802 39.3294 91.2896 39.3294 91.2788 39.2007C90.9997 36.5527 90.9675 33.9047 90.8816 31.2459C90.8816 31.1173 90.6776 31.1173 90.683 31.2459Z" fill="#FFCE76"/>
    <path d="M94.2906 31.6908C94.5107 34.371 94.2315 37.0512 94.4677 39.7314C94.4677 39.86 94.6771 39.86 94.6664 39.7314C94.4301 37.0512 94.7147 34.371 94.4892 31.6908C94.4892 31.5621 94.2798 31.5621 94.2906 31.6908Z" fill="#FFCE76"/>
    <path d="M108.372 8.42665C107.529 6.28249 105.983 4.18658 103.54 3.75239H103.492H103.449C101.645 3.57014 100.593 5.36051 99.9542 6.74885C98.8108 9.23606 98.3061 12.0235 97.8552 14.7037C96.9748 19.9676 96.0621 25.7353 97.6082 30.9563C97.629 31.0194 97.6673 31.0752 97.7186 31.1172C97.77 31.1593 97.8324 31.1858 97.8983 31.1937C97.9643 31.2016 98.0312 31.1905 98.091 31.1617C98.1509 31.133 98.2013 31.0878 98.2363 31.0314C99.8898 28.4959 103.304 27.6275 105.484 25.6013C107.76 23.4572 108.919 20.391 109.29 17.3999C109.748 14.3794 109.433 11.2922 108.372 8.42665Z" fill="#FFCE76"/>
    <path d="M90.3717 16.9283C89.5718 12.5971 87.6875 8.26594 85.4864 4.4279C85.4576 4.37097 85.4114 4.32469 85.3544 4.29577C85.2975 4.26686 85.2328 4.25681 85.1697 4.26709C85.1168 4.26885 85.0652 4.28357 85.0194 4.30997C82.8183 5.43566 81.6373 7.60125 80.8965 9.83117C80.0388 12.3455 79.7528 15.0189 80.059 17.6573C80.5314 20.9057 82.3728 23.7735 84.7939 25.9927C86.7749 27.8099 89.239 28.9892 91.0105 31.069C91.0589 31.1155 91.1197 31.147 91.1856 31.1599C91.2515 31.1727 91.3197 31.1663 91.382 31.1414C91.4444 31.1165 91.4982 31.0742 91.537 31.0195C91.5759 30.9648 91.5981 30.9001 91.6011 30.8332C91.5919 26.1716 91.1806 21.5194 90.3717 16.9283Z" fill="#FFB52F"/>
    <path d="M100.829 1.22232C98.8681 0.22023 96.6179 -0.066079 94.4677 0.412906C94.4134 0.419773 94.3622 0.442137 94.3203 0.477316C94.2784 0.512495 94.2476 0.558995 94.2315 0.611239C92.9377 2.46057 92.7444 5.04428 92.5565 7.20451C92.3069 10.6121 92.2854 14.0324 92.4921 17.4428C92.6907 22.0367 93.0773 26.6305 93.6678 31.1922C93.6692 31.2823 93.706 31.3682 93.7703 31.4314C93.8346 31.4945 93.9212 31.5299 94.0114 31.5299H97.9625C98.0217 31.5291 98.0798 31.5134 98.1313 31.4844C98.1829 31.4554 98.2264 31.4139 98.2578 31.3638C101.903 24.674 102.928 16.6281 103.535 9.17177C103.675 7.47253 103.787 5.76257 103.814 4.05797C103.836 2.93229 101.651 1.6726 100.829 1.22232Z" fill="#FFB52F"/>
    <path d="M95.3588 1.73159C94.7361 -1.82771 88.4443 1.00794 86.7694 2.22474C85.2286 3.35042 84.8099 4.41714 84.7133 6.13246C84.5661 8.99613 84.6847 11.8673 85.0676 14.7091C85.5578 18.6403 86.6081 22.4814 88.1866 26.116C88.6698 27.2202 89.2066 28.2923 89.7972 29.3322C90.0548 29.8093 90.64 31.3316 91.2037 31.4764C92.0412 31.7015 93.1846 31.4764 94.0543 31.4764C94.1253 31.479 94.1952 31.4577 94.2527 31.4159C94.3101 31.3741 94.3518 31.3142 94.3711 31.2459C94.3831 31.211 94.3921 31.1751 94.3979 31.1387C94.9347 24.6472 95.3696 18.1397 95.595 11.6322C95.6648 8.42671 95.9172 4.96926 95.3588 1.73159Z" fill="#FFCE76"/>
    <path d="M90.5917 31.68C93.1682 32.1356 95.8048 32.1356 98.3813 31.68C99.1114 31.5513 98.8 30.5758 98.0753 30.7044C95.7029 31.1225 93.2755 31.1225 90.9031 30.7044C90.1784 30.5704 89.867 31.546 90.5917 31.68Z" fill="#FFCE76"/>
    <path d="M87 107.5L109 137L177.5 91.5" stroke="#FFB52F" stroke-width="12" stroke-linecap="round"/>
</svg>
