<svg width="15" height="14" viewBox="0 0 15 14" fill="none" xmlns="http://www.w3.org/2000/svg">
<path fill-rule="evenodd" clip-rule="evenodd" d="M11.8267 4.03635H15C15 1.48844 13.4733 0 10.8867 0H4.11333C1.52667 0 0 1.48844 0 4.00385V9.49615C0 12.0116 1.52667 13.5 4.11333 13.5H10.8867C13.4733 13.5 15 12.0116 15 9.49615V9.26216H11.8267C10.3539 9.26216 9.16 8.09814 9.16 6.66225C9.16 5.22637 10.3539 4.06235 11.8267 4.06235V4.03635ZM11.8267 5.15431H14.44C14.7493 5.15431 15 5.39875 15 5.70029V7.59822C14.9964 7.89829 14.7478 8.14069 14.44 8.1442H11.8867C11.1411 8.15398 10.4891 7.65628 10.32 6.94824C10.2353 6.50872 10.3542 6.05517 10.6448 5.70916C10.9354 5.36315 11.368 5.16006 11.8267 5.15431ZM11.9401 7.14974H12.1867C12.5034 7.14974 12.7601 6.89947 12.7601 6.59076C12.7601 6.28204 12.5034 6.03178 12.1867 6.03178H11.9401C11.7886 6.03004 11.6428 6.08748 11.535 6.19128C11.4273 6.29508 11.3667 6.4366 11.3667 6.58426C11.3667 6.89404 11.6223 7.14618 11.9401 7.14974ZM3.55338 4.03635H7.78671C8.10335 4.03635 8.36004 3.78609 8.36004 3.47737C8.36004 3.16865 8.10335 2.91839 7.78671 2.91839H3.55338C3.23932 2.91837 2.98369 3.1647 2.98004 3.47087C2.98002 3.78065 3.23566 4.03279 3.55338 4.03635Z" fill="#CBCBCB"/>
</svg>
