<svg width="15" height="15" viewBox="0 0 15 15" fill="none" xmlns="http://www.w3.org/2000/svg">
<path fill-rule="evenodd" clip-rule="evenodd" d="M6.52831 1.13919C6.02556 1.13919 5.59784 1.48856 5.47778 1.95944H9.5148C9.39474 1.48856 8.96703 1.13919 8.46428 1.13919H6.52831ZM10.6553 1.95948H12.1411C13.7169 1.95948 15 3.25821 15 4.85314C15 4.85314 14.955 5.52833 14.94 6.46858C14.9385 6.54301 14.9025 6.61592 14.8432 6.65997C14.4822 6.92655 14.1521 7.1468 14.1221 7.16199C12.8764 7.99743 11.429 8.58527 9.88694 8.87768C9.78639 8.89742 9.68734 8.84502 9.63632 8.7554C9.2041 8.00654 8.3967 7.51895 7.49625 7.51895C6.6018 7.51895 5.78689 8.00123 5.34192 8.75084C5.29015 8.83894 5.1926 8.88983 5.0928 8.87084C3.56353 8.57768 2.11606 7.99059 0.877939 7.16958L0.157579 6.66832C0.0975488 6.63035 0.06003 6.56199 0.06003 6.48604C0.0375188 6.0987 0 4.85314 0 4.85314C0 3.25821 1.28314 1.95948 2.85893 1.95948H4.33717C4.47974 0.858224 5.4027 0 6.52826 0H8.46423C9.5898 0 10.5128 0.858224 10.6553 1.95948ZM14.7449 8.11139L14.7149 8.12658C13.1991 9.1443 11.3757 9.82024 9.46227 10.1013C9.19213 10.1392 8.922 9.96455 8.84696 9.69113C8.68188 9.06835 8.14911 8.65822 7.51129 8.65822H7.50379H7.48878C6.85096 8.65822 6.31819 9.06835 6.15311 9.69113C6.07807 9.96455 5.80794 10.1392 5.5378 10.1013C3.62435 9.82024 1.80094 9.1443 0.285178 8.12658C0.277675 8.11899 0.202637 8.07342 0.142607 8.11139C0.0750732 8.14937 0.0750732 8.2405 0.0750732 8.2405L0.1276 12.1139C0.1276 13.7088 1.40324 15 2.97903 15H12.0135C13.5893 15 14.865 13.7088 14.865 12.1139L14.925 8.2405C14.925 8.2405 14.925 8.14937 14.8575 8.11139C14.8199 8.08861 14.7749 8.0962 14.7449 8.11139ZM8.05903 11.2937C8.05903 11.6127 7.81141 11.8633 7.49625 11.8633C7.1886 11.8633 6.93347 11.6127 6.93347 11.2937V10.314C6.93347 10.0026 7.1886 9.74435 7.49625 9.74435C7.81141 9.74435 8.05903 10.0026 8.05903 10.314V11.2937Z" fill="#CBCBCB"/>
</svg>
